<svg xmlns="http://www.w3.org/2000/svg" width="84" height="25" viewBox="0 0 84 25"><path d="M18.991 4.359l-2.33 8.922h-.204l-2.854-8.922H9.671l-2.826 8.922h-.204L4.282 4.359H0l4.573 14.24h4.049l2.854-8.98h.204l2.855 8.98h4.107l4.573-14.24zm8.986 8.835c-.204-.504-.306-1.075-.306-1.715 0-.64.102-1.21.306-1.714.204-.504.481-.93.83-1.28a3.647 3.647 0 0 1 2.622-1.074c.485 0 .956.092 1.413.276.456.184.859.45 1.209.799.349.348.626.775.83 1.279.204.504.306 1.075.306 1.714 0 .237-.02.462-.047.681a31.758 31.758 0 0 1 3.857-.429c.002-.084.005-.167.005-.252 0-1.104-.19-2.121-.568-3.051a7.151 7.151 0 0 0-1.572-2.398 7.212 7.212 0 0 0-2.39-1.569c-.922-.378-1.936-.567-3.043-.567-1.107 0-2.122.19-3.044.567-.923.378-1.719.9-2.389 1.57a7.148 7.148 0 0 0-1.572 2.397c-.38.93-.568 1.947-.568 3.051s.189 2.121.568 3.052c.196.483.435.93.71 1.342a26.1 26.1 0 0 1 3.371-1.75 3.954 3.954 0 0 1-.528-.93M44.45 11.48c0-.64.102-1.21.305-1.714.205-.504.481-.93.83-1.28a3.648 3.648 0 0 1 2.622-1.074c.485 0 .956.092 1.413.276.456.184.86.45 1.209.799.35.348.626.775.83 1.279.204.504.306 1.075.306 1.714 0 .64-.102 1.211-.306 1.715a4.198 4.198 0 0 1-.19.404c1.209.453 2.36.98 3.447 1.572a7.77 7.77 0 0 0 .296-.64c.38-.93.568-1.947.568-3.05 0-1.105-.189-2.122-.568-3.052A7.152 7.152 0 0 0 53.64 6.03a7.21 7.21 0 0 0-2.389-1.57c-.922-.377-1.937-.566-3.044-.566s-2.121.19-3.043.567c-.923.378-1.72.9-2.39 1.57a7.144 7.144 0 0 0-1.572 2.397c-.379.93-.568 1.947-.568 3.051 0 .07.003.138.005.207 1.302 0 2.58.078 3.828.227a5.662 5.662 0 0 1-.017-.434m21.175 3.88c-.195.068-.456.101-.787.101-.505 0-.893-.159-1.165-.479a1.527 1.527 0 0 1-.393-.733 4.088 4.088 0 0 1-.102-.944v-5.69h3.495V4.36h-3.495V0h-3.815v4.36h-2.506v3.255h2.506v6.378c0 1.64.456 2.907 1.369 3.796.388.396.868.707 1.441.935.573.227 1.219.34 1.937.34.621 0 1.19-.053 1.704-.16a6.329 6.329 0 0 0 1.442-.478l-1.077-3.342c-.175.116-.36.208-.554.276M79.721 4.359l-3.466 8.631h-.204l-3.612-8.631H68.1l6 13.542-3.175 6.975h4.107l8.942-20.517z" fill="#FFF" fill-rule="evenodd"/></svg>