<?xml version="1.0" encoding="UTF-8"?>
<svg width="22px" height="30px" viewBox="0 0 22 30" version="1.1" xmlns="http://www.w3.org/2000/svg" xmlns:xlink="http://www.w3.org/1999/xlink">
    <!-- Generator: Sketch 49.1 (51147) - http://www.bohemiancoding.com/sketch -->
    <title>Group 19</title>
    <desc>Created with Sketch.</desc>
    <defs></defs>
    <g id="Page-1" stroke="none" stroke-width="1" fill="none" fill-rule="evenodd">
        <g id="Homepage" transform="translate(-761.000000, -597.000000)" fill="#AE7CF9" fill-rule="nonzero">
            <g id="Group-10-Copy" transform="translate(42.000000, 596.000000)">
                <g id="Group-19" transform="translate(720.000000, 0.000000)">
                    <g id="Group-9-Copy-3" transform="translate(16.451058, 3.300633) rotate(21.000000) translate(-16.451058, -3.300633) translate(12.451058, 1.300633)">
                        <path d="M4.196,0.151 C3.976,0.151 3.798,0.328 3.796,0.548 L3.779,2.973 C3.778,3.194 3.956,3.374 4.176,3.376 C4.177,3.376 4.178,3.376 4.179,3.376 C4.399,3.376 4.577,3.199 4.579,2.979 L4.596,0.554 C4.597,0.333 4.419,0.153 4.199,0.151 C4.198,0.151 4.197,0.151 4.196,0.151 Z" id="Shape"></path>
                        <path d="M5.006,3.504 C5.085,3.603 5.2,3.653 5.318,3.653 C5.406,3.653 5.495,3.624 5.569,3.565 L7.609,1.926 C7.781,1.787 7.808,1.536 7.67,1.363 C7.531,1.19 7.28,1.164 7.107,1.301 L5.067,2.94 C4.895,3.08 4.867,3.332 5.006,3.504 Z" id="Shape"></path>
                        <path d="M1.127,0.734 C0.955,0.872 0.927,1.124 1.064,1.297 L2.763,3.422 C2.842,3.521 2.958,3.572 3.076,3.572 C3.164,3.572 3.252,3.544 3.326,3.485 C3.498,3.347 3.526,3.095 3.389,2.922 L1.69,0.797 C1.551,0.624 1.299,0.596 1.127,0.734 Z" id="Shape"></path>
                    </g>
                    <g id="noun_63434_cc" transform="translate(0.000000, 4.000000)" stroke="#AE7CF9" stroke-width="0.2">
                        <path d="M18.9389524,17.4057279 C18.9389524,17.4057279 18.9084286,17.3747017 18.9084286,17.3747017 C18.9084286,17.3436754 18.8779048,17.3126492 18.8473809,17.2816229 C18.8473809,17.2816229 18.8168571,17.2505967 18.8168571,17.2505967 C18.7863333,17.2195704 18.7558095,17.1885442 18.7252857,17.1885442 C18.7252857,17.1885442 18.6947619,17.1885442 18.6947619,17.1575179 C18.6642381,17.1575179 18.6337143,17.1264916 18.6031905,17.1264916 C18.6031905,17.1264916 18.6031905,17.1264916 18.6031905,17.1264916 C18.6031905,17.1264916 18.6031905,17.1264916 18.6031905,17.1264916 C18.5726667,17.1264916 18.5726667,17.1264916 18.5421428,17.1264916 C18.511619,17.1264916 18.4810952,17.1264916 18.4505714,17.1264916 C18.4505714,17.1264916 18.4200476,17.1264916 18.4200476,17.1264916 C18.3895238,17.1264916 18.359,17.1575179 18.3284762,17.1575179 C18.3284762,17.1575179 18.2979524,17.1885442 18.2979524,17.1885442 C18.2674286,17.2195704 18.2369047,17.2195704 18.2063809,17.2505967 C18.2063809,17.2505967 18.1758571,17.2816229 18.1758571,17.3126492 C18.1453333,17.3436754 18.1453333,17.3436754 18.1148095,17.3747017 L17.9621904,17.7159905 L17.229619,16.3818616 C17.1380476,16.2267303 16.9854285,16.1336516 16.8328095,16.1336516 C16.6801904,16.1336516 16.5275714,16.2267303 16.4359999,16.3508353 L15.7644761,17.4988067 L15.1539999,16.3818616 C15.0929523,16.2577566 14.9403332,16.1646778 14.7877142,16.1336516 C14.6350951,16.1336516 14.4824761,16.1957041 14.3909046,16.3198091 L13.9330475,16.9403341 L12.0405713,10.9522673 C13.1394284,10.052506 13.8414761,8.68735084 13.8414761,7.13603819 C13.8414761,6.57756563 13.7499046,6.05011933 13.5667618,5.55369928 L15.5202856,3.00954654 C15.6423809,2.85441527 15.6423809,2.60620525 15.5202856,2.42004773 C15.3981904,2.26491647 15.1539999,2.20286396 14.970857,2.29594272 L12.2847617,3.56801909 C12.0710951,3.35083532 11.8269046,3.1646778 11.5521903,3.00954654 L12.1931903,0.589498807 C12.2542379,0.403341289 12.1626665,0.186157518 12.0100474,0.0930787589 C11.8574284,-0.031026253 11.6437617,-0.031026253 11.4911427,0.0930787589 L8.37771402,2.32696897 C6.02738062,2.6372315 4.16542819,4.65393795 4.13490438,7.13603819 C3.8907139,7.22911695 3.49390437,7.38424821 3.06657102,7.57040573 L2.54766625,6.98090692 C2.45609482,6.88782816 2.30347577,6.82577566 2.18138052,6.82577566 C2.02876147,6.82577566 1.90666623,6.91885442 1.84561861,7.04295943 C1.57090432,7.44630072 -0.718381454,11.0143198 0.227856666,12.9379475 C0.288904286,13.0930788 0.441523338,13.1861575 0.594142389,13.1861575 C0.6246662,13.1861575 0.6246662,13.1861575 0.65519001,13.1861575 C0.807809061,13.1861575 0.929904303,13.124105 1.02147573,13 L1.69299956,12.1312649 C2.05928528,12.3794749 2.48661863,12.4725537 2.94447578,12.4725537 C3.82966628,12.4725537 4.86747583,12.1312649 5.75266633,11.7279236 L2.73080911,21.2529833 C2.73080911,21.2840095 2.7002853,21.3460621 2.7002853,21.4081146 C2.7002853,23.052506 4.98957107,24.3866348 8.10299972,24.6038186 L7.64514257,25.1002387 C7.52304733,25.2243437 7.49252352,25.4105012 7.55357114,25.5656325 C7.61461876,25.7207637 7.76723781,25.8448687 7.91985686,25.875895 C7.95038067,25.875895 8.95766641,26 10.2396664,26 C11.5827141,26 12.6815713,25.875895 13.5057141,25.5966587 C16.9243809,24.5107399 18.6031905,23.0835322 19,21.0047733 C19,20.973747 19,20.9427208 19,20.9116945 L19,19.7947494 L19,17.5608592 C18.9694762,17.4988067 18.9389524,17.4367542 18.9389524,17.4057279 Z M14.6961427,17.4367542 L15.3676666,18.646778 C15.459238,18.8019093 15.6118571,18.8639618 15.7644761,18.8639618 C15.7644761,18.8639618 15.7644761,18.8639618 15.7644761,18.8639618 C15.9170952,18.8639618 16.0697142,18.8019093 16.1612856,18.646778 L16.8328095,17.5298329 L17.4738095,18.7088305 L16.7717618,20.1980907 L15.8865713,19.7016706 C15.6729047,19.5775656 15.3981904,19.6396181 15.2760951,19.8568019 L15.0013809,20.2911695 L14.2688094,17.9952267 L14.6961427,17.4367542 Z M10.7280474,2.575179 C10.4533331,2.48210024 10.1786188,2.38902148 9.90390453,2.32696897 L10.9722379,1.55131265 L10.7280474,2.575179 Z M2.24242815,11.3556086 L2.94447578,10.4558473 L3.40233294,10.8902148 C3.52442818,11.0143198 3.73809485,11.0453461 3.8907139,10.9832936 L6.97361874,9.61813842 C7.21780922,9.52505967 7.30938066,9.24582339 7.21780922,8.99761337 C7.12623779,8.74940334 6.8515235,8.65632458 6.60733302,8.74940334 L3.76861866,9.99045346 L3.15814245,9.43198091 C3.06657102,9.33890215 2.94447578,9.30787589 2.82238054,9.30787589 C2.7002853,9.30787589 2.57819006,9.3699284 2.48661863,9.49403341 L0.929904303,11.5417661 C1.02147573,10.4868735 1.69299956,9.05966587 2.30347577,8.03579952 L2.63923768,8.40811456 C2.76133292,8.56324582 2.97499959,8.59427208 3.15814245,8.53221957 C3.98228533,8.19093079 4.68433297,7.88066826 4.7759044,7.849642 C4.83695202,7.81861575 4.89799964,7.7875895 4.95904726,7.72553699 C5.05061869,7.63245823 5.0811425,7.50835322 5.0811425,7.38424821 C5.0811425,7.3221957 5.0811425,7.22911695 5.0811425,7.16706444 C5.0811425,4.99522673 6.8515235,3.19570406 9.01871403,3.19570406 C9.90390453,3.19570406 10.7280474,3.47494033 11.3995712,4.00238663 L10.8196188,4.28162291 C10.5754284,4.37470167 10.4838569,4.65393795 10.6059522,4.90214797 C10.6975236,5.150358 10.9722379,5.24343675 11.2164284,5.11933174 L13.688857,3.97136038 L11.8269046,6.39140811 C11.6742855,6.60859189 11.7048093,6.88782816 11.918476,7.04295943 C12.0100474,7.10501193 12.1016189,7.13603819 12.1931903,7.13603819 C12.3152855,7.13603819 12.4679046,7.07398568 12.559476,6.94988067 L12.9257618,6.45346062 C12.9562856,6.67064439 12.9868094,6.88782816 12.9868094,7.13603819 C12.9868094,9.30787589 11.2164284,11.1073986 9.04923784,11.1073986 C8.25561877,11.1073986 7.49252352,10.8591885 6.8515235,10.424821 C6.8515235,10.424821 6.8515235,10.424821 6.8515235,10.424821 C6.82099969,10.3937947 6.79047588,10.3937947 6.75995207,10.3627685 C6.75995207,10.3627685 6.72942826,10.3627685 6.72942826,10.3627685 C6.72942826,10.3627685 6.72942826,10.3627685 6.69890445,10.3627685 C6.66838064,10.3627685 6.63785683,10.3317422 6.60733302,10.3317422 C6.60733302,10.3317422 6.60733302,10.3317422 6.60733302,10.3317422 C6.57680921,10.3317422 6.5462854,10.3317422 6.51576159,10.3317422 C6.51576159,10.3317422 6.48523778,10.3317422 6.48523778,10.3317422 C6.45471397,10.3317422 6.39366635,10.3627685 6.36314254,10.3627685 C6.36314254,10.3627685 6.36314254,10.3627685 6.36314254,10.3627685 C4.7759044,11.1694511 3.03604721,11.7899761 2.24242815,11.3556086 Z M3.61599961,21.4081146 L6.75995207,11.4797136 C7.46199971,11.8520286 8.19457115,12.0381862 8.98819022,12.0381862 C9.78180929,12.0381862 10.5449045,11.8210024 11.2164284,11.4797136 L14.329857,21.3150358 L14.0246189,21.7804296 L13.2309999,21.3460621 C13.047857,21.2529833 12.8036665,21.3150358 12.6510475,21.4701671 L11.4606189,23.052506 L10.4228093,22.4940334 C10.2396664,22.4009547 10.0259998,22.4319809 9.87338072,22.5871122 L8.9271426,23.6420048 C5.84423776,23.6109785 3.70757104,22.4630072 3.61599961,21.4081146 Z M18.0537619,20.8186158 C17.8095714,22.0286396 17.0464761,23.424821 13.200476,24.6658711 C12.4679046,24.9140811 11.430095,25.0381862 10.2091426,25.0381862 C9.72076167,25.0381862 9.29342832,25.0071599 8.9271426,25.0071599 L9.41552357,24.4797136 C9.44604738,24.4486874 9.47657119,24.4176611 9.47657119,24.4176611 L10.3007141,23.5178998 L11.3995712,24.1073986 C11.5827141,24.2004773 11.8269046,24.1694511 11.9795236,23.9832936 L13.1699522,22.4009547 L14.0246189,22.8353222 C14.2382856,22.928401 14.4824761,22.8663484 14.6045713,22.6801909 L15.8255237,20.7875895 L16.7107142,21.3150358 C16.8328095,21.3770883 16.9549047,21.4081146 17.077,21.3460621 C17.1990952,21.3150358 17.2906666,21.221957 17.3517142,21.097852 L18.0842857,19.6085919 L18.0842857,19.7947494 L18.0842857,20.8186158 L18.0537619,20.8186158 Z" id="Shape"></path>
                    </g>
                </g>
            </g>
        </g>
    </g>
</svg>