<?xml version="1.0" encoding="UTF-8"?>
<svg width="26px" height="21px" viewBox="0 0 26 21" version="1.1" xmlns="http://www.w3.org/2000/svg" xmlns:xlink="http://www.w3.org/1999/xlink">
    <!-- Generator: Sketch 49.1 (51147) - http://www.bohemiancoding.com/sketch -->
    <title>Group 16</title>
    <desc>Created with Sketch.</desc>
    <defs></defs>
    <g id="Page-1" stroke="none" stroke-width="1" fill="none" fill-rule="evenodd">
        <g id="Homepage" transform="translate(-42.000000, -605.000000)" fill="#AE7CF9" fill-rule="nonzero">
            <g id="Group-10-Copy" transform="translate(42.000000, 596.000000)">
                <g id="Group-16" transform="translate(0.000000, 8.000000)">
                    <g id="Group-9-Copy" transform="translate(21.451058, 3.300633) rotate(21.000000) translate(-21.451058, -3.300633) translate(17.451058, 1.300633)">
                        <path d="M4.196,0.151 C3.976,0.151 3.798,0.328 3.796,0.548 L3.779,2.973 C3.778,3.194 3.956,3.374 4.176,3.376 C4.177,3.376 4.178,3.376 4.179,3.376 C4.399,3.376 4.577,3.199 4.579,2.979 L4.596,0.554 C4.597,0.333 4.419,0.153 4.199,0.151 C4.198,0.151 4.197,0.151 4.196,0.151 Z" id="Shape"></path>
                        <path d="M5.006,3.504 C5.085,3.603 5.2,3.653 5.318,3.653 C5.406,3.653 5.495,3.624 5.569,3.565 L7.609,1.926 C7.781,1.787 7.808,1.536 7.67,1.363 C7.531,1.19 7.28,1.164 7.107,1.301 L5.067,2.94 C4.895,3.08 4.867,3.332 5.006,3.504 Z" id="Shape"></path>
                        <path d="M1.127,0.734 C0.955,0.872 0.927,1.124 1.064,1.297 L2.763,3.422 C2.842,3.521 2.958,3.572 3.076,3.572 C3.164,3.572 3.252,3.544 3.326,3.485 C3.498,3.347 3.526,3.095 3.389,2.922 L1.69,0.797 C1.551,0.624 1.299,0.596 1.127,0.734 Z" id="Shape"></path>
                    </g>
                    <g id="noun_735187_cc" transform="translate(0.000000, 6.000000)" stroke="#AE7CF9">
                        <g id="Group">
                            <g id="Shape">
                                <g>
                                    <path d="M20.1280258,14.0968533 C21.7102713,14.0968533 22.899872,12.6506714 22.5979254,11.094396 L21.3971548,4.90619607 C20.9903417,2.81003277 19.1583408,1.29685333 17.0273806,1.29685333 L16.568671,1.29685333 C16.2281446,1.29685333 15.8954283,1.39779842 15.6121743,1.58701593 C15.138213,1.90362846 14.5813699,2.07261091 14.0118968,2.07261091 L9.98802581,2.07261091 C9.41855264,2.07261091 8.86170958,1.90362846 8.38774827,1.58701593 C8.10449424,1.39779842 7.77177802,1.29685333 7.43125161,1.29685333 L6.97254194,1.29685333 C4.84158175,1.29685333 3.00958092,2.81003277 2.60277134,4.90617781 L1.40199964,11.0943832 C1.10005057,12.6506714 2.28965126,14.0968533 3.87189677,14.0968533 C4.23287864,14.0968533 4.56960586,13.9163204 4.76988996,13.6155396 L5.68045051,12.2465516 C6.36268883,11.2215874 7.51060085,10.6059442 8.74002581,10.6059442 L15.2598968,10.6059442 C16.4894827,10.6059442 17.6377897,11.221732 18.3195178,12.2466204 L19.2304399,13.6155699 C19.430477,13.9163578 19.7670658,14.0968533 20.1280258,14.0968533 Z M20.1280258,15.2604897 C19.3787525,15.2604897 18.679488,14.8855096 18.2641467,14.2609772 L17.3532535,12.8920711 C16.8868547,12.190902 16.1011841,11.7695806 15.2598968,11.7695806 L8.74002581,11.7695806 C7.89885898,11.7695806 7.11344247,12.1908118 6.64667778,12.892058 L5.73605943,14.2611328 C5.32021569,14.8856351 4.62104269,15.2604897 3.87189677,15.2604897 C1.55934739,15.2604897 -0.179257752,13.1468902 0.262054465,10.8723046 L1.4628322,4.68406817 C1.97575785,2.04114477 4.28567908,0.13321697 6.97254194,0.13321697 L7.43125161,0.13321697 C8.00104931,0.13321697 8.55790289,0.302164649 9.03191624,0.61881195 C9.31513918,0.808008685 9.64784912,0.908974545 9.98802581,0.908974545 L14.0118968,0.908974545 C14.3520735,0.908974545 14.6847834,0.808008685 14.9680063,0.61881195 C15.4420197,0.302164649 15.9988733,0.13321697 16.568671,0.13321697 L17.0273806,0.13321697 C19.7142435,0.13321697 22.0241647,2.04114477 22.5370939,4.68408643 L23.7378706,10.8723174 C24.1791803,13.1468902 22.4405752,15.2604897 20.1280258,15.2604897 Z" stroke-width="0.3"></path>
                                    <path d="M18.5454545,5.06222735 L18.5454545,6.46591458 L17.4247688,6.46591458 L17.4247688,7.58886435 L16.0239116,7.58886435 L16.0239116,6.46591458 L14.9032258,6.46591458 L14.9032258,5.06222735 L16.0239116,5.06222735 L16.0239116,3.93927758 L17.4247688,3.93927758 L17.4247688,5.06222735 L18.5454545,5.06222735 Z M17.1445973,5.3429648 L17.1445973,4.22001502 L16.304083,4.22001502 L16.304083,5.3429648 L15.1833972,5.3429648 L15.1833972,6.18517713 L16.304083,6.18517713 L16.304083,7.30812691 L17.1445973,7.30812691 L17.1445973,6.18517713 L18.2652831,6.18517713 L18.2652831,5.3429648 L17.1445973,5.3429648 Z" stroke-width="0.2"></path>
                                    <path d="M6.65102639,7.11503515 C6.65102639,6.68648432 6.30451967,6.33927758 5.87683284,6.33927758 C5.44914602,6.33927758 5.1026393,6.68648432 5.1026393,7.11503515 C5.1026393,7.54358599 5.44914602,7.89079273 5.87683284,7.89079273 C6.30451967,7.89079273 6.65102639,7.54358599 6.65102639,7.11503515 Z M7.03812317,7.11503515 C7.03812317,7.75780553 6.51830731,8.27867152 5.87683284,8.27867152 C5.23535838,8.27867152 4.71554252,7.75780553 4.71554252,7.11503515 C4.71554252,6.47226478 5.23535838,5.95139879 5.87683284,5.95139879 C6.51830731,5.95139879 7.03812317,6.47226478 7.03812317,7.11503515 Z" stroke-width="0.2"></path>
                                    <path d="M8.39296188,4.30291394 C7.96527505,4.30291394 7.61876833,4.65012068 7.61876833,5.07867152 C7.61876833,5.50722235 7.96527505,5.85442909 8.39296188,5.85442909 C8.8206487,5.85442909 9.16715543,5.50722235 9.16715543,5.07867152 C9.16715543,4.65012068 8.8206487,4.30291394 8.39296188,4.30291394 Z M8.39296188,3.91503515 C9.03443634,3.91503515 9.5542522,4.43590114 9.5542522,5.07867152 C9.5542522,5.72144189 9.03443634,6.24230788 8.39296188,6.24230788 C7.75148741,6.24230788 7.23167155,5.72144189 7.23167155,5.07867152 C7.23167155,4.43590114 7.75148741,3.91503515 8.39296188,3.91503515 Z" stroke-width="0.2"></path>
                                </g>
                            </g>
                        </g>
                    </g>
                </g>
            </g>
        </g>
    </g>
</svg>