<?xml version="1.0" encoding="UTF-8"?>
<svg width="23px" height="25px" viewBox="0 0 23 25" version="1.1" xmlns="http://www.w3.org/2000/svg" xmlns:xlink="http://www.w3.org/1999/xlink">
    <!-- Generator: Sketch 49.1 (51147) - http://www.bohemiancoding.com/sketch -->
    <title>Group 17</title>
    <desc>Created with Sketch.</desc>
    <defs></defs>
    <g id="Page-1" stroke="none" stroke-width="1" fill="none" fill-rule="evenodd">
        <g id="Homepage" transform="translate(-283.000000, -601.000000)" fill="#AE7CF9" fill-rule="nonzero">
            <g id="Group-10-Copy" transform="translate(42.000000, 596.000000)">
                <g id="Group-17" transform="translate(241.000000, 4.000000)">
                    <g id="Group-9" transform="translate(18.451058, 3.300633) rotate(21.000000) translate(-18.451058, -3.300633) translate(14.451058, 1.300633)">
                        <path d="M4.196,0.151 C3.976,0.151 3.798,0.328 3.796,0.548 L3.779,2.973 C3.778,3.194 3.956,3.374 4.176,3.376 C4.177,3.376 4.178,3.376 4.179,3.376 C4.399,3.376 4.577,3.199 4.579,2.979 L4.596,0.554 C4.597,0.333 4.419,0.153 4.199,0.151 C4.198,0.151 4.197,0.151 4.196,0.151 Z" id="Shape"></path>
                        <path d="M5.006,3.504 C5.085,3.603 5.2,3.653 5.318,3.653 C5.406,3.653 5.495,3.624 5.569,3.565 L7.609,1.926 C7.781,1.787 7.808,1.536 7.67,1.363 C7.531,1.19 7.28,1.164 7.107,1.301 L5.067,2.94 C4.895,3.08 4.867,3.332 5.006,3.504 Z" id="Shape"></path>
                        <path d="M1.127,0.734 C0.955,0.872 0.927,1.124 1.064,1.297 L2.763,3.422 C2.842,3.521 2.958,3.572 3.076,3.572 C3.164,3.572 3.252,3.544 3.326,3.485 C3.498,3.347 3.526,3.095 3.389,2.922 L1.69,0.797 C1.551,0.624 1.299,0.596 1.127,0.734 Z" id="Shape"></path>
                    </g>
                    <g id="noun_40309_cc" transform="translate(0.000000, 5.000000)">
                        <g id="Group">
                            <ellipse id="Oval" cx="6.68727473" cy="17.0527079" rx="1.05962637" ry="1.03419101"></ellipse>
                            <ellipse id="Oval" cx="15.5428791" cy="17.0527079" rx="1.05962637" ry="1.03419101"></ellipse>
                            <path d="M20.2167912,10.6856966 L20.2167912,6.44582022 C20.2167912,3.00937079 17.3521978,0.213539326 13.830989,0.213539326 L8.39868132,0.213539326 C4.87771429,0.213539326 2.01287912,3.00913483 2.01287912,6.44582022 L2.01287912,10.6856966 C0.970659341,11.0422247 0.235714286,12.0049213 0.235714286,13.1438764 C0.235714286,14.0431011 1.67756044,16.6119438 2.81164835,17.6456629 C2.97531868,19.5156067 4.58687912,20.9884382 6.5443956,20.9884382 C7.52835165,20.9884382 8.45912088,20.6161011 9.15538462,19.9547191 L13.0745275,19.9547191 C13.7705495,20.6161011 14.7013187,20.9884382 15.6852747,20.9884382 C17.6427912,20.9884382 19.2545934,19.5156067 19.4185055,17.6456629 C20.5521099,16.6119438 21.993956,14.0431011 21.993956,13.1438764 C21.9941978,12.0051573 21.2592527,11.0424607 20.2167912,10.6856966 Z M8.39868132,1.84847191 L13.8312308,1.84847191 C16.4289231,1.84847191 18.5418901,3.9107191 18.5418901,6.44582022 L18.5418901,7.61922472 C16.9025275,6.84552809 13.9978022,6.44652809 11.1153187,6.44652809 C8.23259341,6.44652809 5.32762637,6.84552809 3.68826374,7.61946067 L3.68826374,6.44605618 C3.68802198,3.9107191 5.80123077,1.84847191 8.39868132,1.84847191 Z M16.3479341,10.1153933 C16.2947473,10.1682472 16.1102857,10.1354494 15.855956,10.0287978 C15.4841319,9.87353933 12.7438022,8.37357303 12.1788132,8.00430337 C12.2307912,7.85258427 12.4167033,7.56259551 12.6098681,7.34244944 C12.6202637,7.33065169 12.6234066,7.31578652 12.6323516,7.30304494 C14.5318462,7.39719101 16.0822418,7.66051685 17.1844176,7.98401124 C17.1783736,8.58192135 16.5041099,9.92662921 16.3479341,10.1153933 Z M9.62052747,7.34244944 C9.81345055,7.5621236 9.9996044,7.8518764 10.0515824,8.00406742 C9.48731868,8.37333708 6.74626374,9.87330337 6.3741978,10.0290337 C6.11962637,10.1354494 5.93589011,10.1668315 5.89358242,10.127191 C5.72676923,9.92710112 5.05226374,8.58239326 5.04573626,7.98401124 C6.14815385,7.66051685 7.69830769,7.39719101 9.59804396,7.30304494 C9.60698901,7.31578652 9.61013187,7.33065169 9.62052747,7.34244944 Z M18.1504835,16.5529551 C17.9055824,16.7023146 17.7571429,16.9639888 17.7571429,17.2459551 L17.7571429,17.3320787 C17.7571429,18.4469663 16.8275824,19.3537416 15.6855165,19.3537416 C15.0646813,19.3537416 14.482044,19.0854607 14.0865275,18.6173258 C13.9274505,18.4290337 13.6907692,18.3200225 13.4403077,18.3200225 L13.0358462,18.3200225 C13.0406813,18.2950112 13.0513187,18.2718876 13.0513187,18.2454607 L13.0513187,17.2292022 C13.0513187,17.0033933 12.8637143,16.8205281 12.6325934,16.8205281 C12.4014725,16.8205281 12.2138681,17.0033933 12.2138681,17.2292022 L12.2138681,18.2454607 C12.2138681,18.2718876 12.2242637,18.2950112 12.2293407,18.3200225 L11.5185714,18.3200225 C11.5234066,18.2950112 11.534044,18.2718876 11.534044,18.2454607 L11.534044,16.2462135 C11.534044,16.0204045 11.3464396,15.8375393 11.1153187,15.8375393 C10.8841978,15.8375393 10.6965934,16.0204045 10.6965934,16.2462135 L10.6965934,18.2454607 C10.6965934,18.2718876 10.706989,18.2950112 10.7120659,18.3200225 L10.0010549,18.3200225 C10.0058901,18.2950112 10.0165275,18.2718876 10.0165275,18.2454607 L10.0165275,17.2292022 C10.0165275,17.0033933 9.82892308,16.8205281 9.5978022,16.8205281 C9.36668132,16.8205281 9.17907692,17.0033933 9.17907692,17.2292022 L9.17907692,18.2454607 C9.17907692,18.2718876 9.18947253,18.2950112 9.19454945,18.3200225 L8.79008791,18.3200225 C8.54010989,18.3200225 8.30294505,18.4290337 8.14386813,18.6173258 C7.74835165,19.0854607 7.16571429,19.3537416 6.54463736,19.3537416 C5.40232967,19.3537416 4.47325275,18.4469663 4.47325275,17.3320787 L4.47325275,17.2459551 C4.47325275,16.9642247 4.32457143,16.7023146 4.08015385,16.5529551 C3.41725275,16.1482921 1.97782418,13.6728876 1.9110989,13.1438764 C1.9110989,12.615809 2.33514286,12.1894382 2.87668132,12.1731573 C2.96903297,12.1703258 3.05606593,12.1497978 3.13850549,12.1200674 L4.50226374,13.6304157 C4.58494505,13.7222022 4.70050549,13.7689213 4.81654945,13.7689213 C4.91494505,13.7689213 5.01358242,13.7354157 5.09312088,13.6667528 C5.2667033,13.5173933 5.28338462,13.2592584 5.13035165,13.0900787 L3.67569231,11.4792135 C3.68197802,11.4388652 3.68826374,11.3982809 3.68826374,11.3560449 L3.68826374,8.52953933 C3.83863736,8.44011236 4.02382418,8.35092135 4.23705495,8.26338202 C4.38210989,9.19682022 5.08417582,10.4926854 5.2903956,10.6937191 C5.49516484,10.893573 5.73716484,10.9575169 5.96586813,10.9575169 C6.28112088,10.9575169 6.57147253,10.836 6.7041978,10.7805506 C7.13742857,10.5993371 10.2901978,8.88370787 10.6702418,8.57460674 C10.8056264,8.46441573 10.8854066,8.31151685 10.9008791,8.13242697 C10.9248132,7.85305618 10.7746813,7.53616854 10.6044835,7.27119101 C10.7741978,7.26835955 10.941011,7.26411236 11.1153187,7.26411236 C11.2896264,7.26411236 11.4564396,7.26859551 11.6261538,7.27119101 C11.4557143,7.53616854 11.3058242,7.85305618 11.3297582,8.13242697 C11.3452308,8.31175281 11.425011,8.46441573 11.5601538,8.57437079 C11.9406813,8.88394382 15.0934505,10.599573 15.5261978,10.7803146 C15.6591648,10.836 15.9495165,10.9575169 16.2647692,10.9575169 C16.4934725,10.9575169 16.7354725,10.893573 16.9402418,10.6937191 C17.1467033,10.4922135 17.8485275,9.19634831 17.9933407,8.26338202 C18.2063297,8.3511573 18.3915165,8.44011236 18.5418901,8.52953933 L18.5418901,11.3565169 C18.5418901,11.3987528 18.5479341,11.4393371 18.5544615,11.4799213 L17.100044,13.0905506 C16.947011,13.2597303 16.9639341,13.5181011 17.1372747,13.6672247 C17.2170549,13.7358876 17.3156923,13.7693933 17.4140879,13.7693933 C17.5298901,13.7693933 17.6454505,13.7226742 17.7281319,13.6308876 L19.0918901,12.1207753 C19.1740879,12.1502697 19.2611209,12.1710337 19.3532308,12.1738652 C19.895011,12.1901461 20.3190549,12.6165169 20.3205055,13.1202809 C20.2523297,13.6728876 18.8133846,16.1482921 18.1504835,16.5529551 Z" id="Shape"></path>
                            <path d="M15.0061758,14.9184944 C15.173956,14.9184944 15.3325495,14.8193933 15.3966154,14.6575281 C15.480022,14.4468202 15.3729231,14.2101573 15.1572747,14.1287528 C15.1490549,14.1254494 14.3435165,13.817764 13.5406374,13.235427 C13.3796264,13.1188652 13.2345714,13.0074944 13.0996703,12.9041461 C12.4892308,12.4360112 12.0069231,12.0660337 11.1943736,12.0660337 L11.0355385,12.0660337 C10.222989,12.0660337 9.74092308,12.4360112 9.13024176,12.9041461 C8.99534066,13.0074944 8.85028571,13.1188652 8.68927473,13.235427 C7.89147253,13.8144607 7.08037363,14.1259213 7.0723956,14.1287528 C6.85698901,14.2106292 6.75013187,14.447764 6.83378022,14.6575281 C6.91767033,14.868236 7.15918681,14.9725281 7.37531868,14.8911236 C7.41230769,14.8772022 8.29617582,14.5395506 9.18898901,13.891618 C9.35652747,13.7698652 9.50738462,13.6544831 9.6476044,13.5466517 C10.2053407,13.1188652 10.5126154,12.883382 11.0355385,12.883382 L11.1943736,12.883382 C11.7172967,12.883382 12.0245714,13.1188652 12.5823077,13.5466517 C12.7225275,13.6544831 12.8733846,13.7698652 13.0409231,13.891618 C13.933978,14.5393146 14.8173626,14.8769663 14.8545934,14.8911236 C14.9046374,14.909764 14.9556484,14.9184944 15.0061758,14.9184944 Z" id="Shape"></path>
                        </g>
                    </g>
                </g>
            </g>
        </g>
    </g>
</svg>