<?xml version="1.0" encoding="UTF-8"?>
<svg width="30px" height="27px" viewBox="0 0 30 27" version="1.1" xmlns="http://www.w3.org/2000/svg" xmlns:xlink="http://www.w3.org/1999/xlink">
    <!-- Generator: Sketch 49.1 (51147) - http://www.bohemiancoding.com/sketch -->
    <title>Group 18</title>
    <desc>Created with Sketch.</desc>
    <defs></defs>
    <g id="Page-1" stroke="none" stroke-width="1" fill="none" fill-rule="evenodd">
        <g id="Homepage" transform="translate(-521.000000, -600.000000)">
            <g id="Group-10-Copy" transform="translate(42.000000, 596.000000)">
                <g id="Group-18" transform="translate(479.000000, 4.000000)">
                    <g id="Group-12" transform="translate(1.000000, 0.000000)" fill="#AE7CF9" fill-rule="nonzero">
                        <g id="Group-9-Copy-2" transform="translate(24.451058, 3.300633) rotate(21.000000) translate(-24.451058, -3.300633) translate(20.451058, 1.300633)">
                            <path d="M4.196,0.151 C3.976,0.151 3.798,0.328 3.796,0.548 L3.779,2.973 C3.778,3.194 3.956,3.374 4.176,3.376 C4.177,3.376 4.178,3.376 4.179,3.376 C4.399,3.376 4.577,3.199 4.579,2.979 L4.596,0.554 C4.597,0.333 4.419,0.153 4.199,0.151 C4.198,0.151 4.197,0.151 4.196,0.151 Z" id="Shape"></path>
                            <path d="M5.006,3.504 C5.085,3.603 5.2,3.653 5.318,3.653 C5.406,3.653 5.495,3.624 5.569,3.565 L7.609,1.926 C7.781,1.787 7.808,1.536 7.67,1.363 C7.531,1.19 7.28,1.164 7.107,1.301 L5.067,2.94 C4.895,3.08 4.867,3.332 5.006,3.504 Z" id="Shape"></path>
                            <path d="M1.127,0.734 C0.955,0.872 0.927,1.124 1.064,1.297 L2.763,3.422 C2.842,3.521 2.958,3.572 3.076,3.572 C3.164,3.572 3.252,3.544 3.326,3.485 C3.498,3.347 3.526,3.095 3.389,2.922 L1.69,0.797 C1.551,0.624 1.299,0.596 1.127,0.734 Z" id="Shape"></path>
                        </g>
                        <path d="M21.5242793,5.93618453 L13.1775743,5.93618453 L14.6030113,4.24394953 C14.7980328,4.01267375 14.7700689,3.66557681 14.5409094,3.46875416 C14.3113869,3.27229803 13.9681925,3.30088679 13.7731709,3.53142953 L12.0953318,5.52348004 L9.77395778,1.28391274 C9.62832715,1.01818383 9.29711735,0.921788378 9.03345691,1.06876395 C8.77015964,1.21573953 8.67464629,1.55000817 8.82027692,1.8161036 L11.0762805,5.93655105 L2.47535749,5.93655105 C1.11056972,5.93655105 0,7.05737726 0,8.43476932 L0,20.5146223 C0,21.8920143 1.11056972,23.012474 2.47535749,23.012474 L3.31427707,23.012474 L3.31427707,25.450216 C3.31427707,25.7536968 3.55796323,26 3.85903004,26 C4.16009684,26 4.40378301,25.7536968 4.40378301,25.450216 L4.40378301,23.012474 L19.8537036,23.012474 L19.8537036,25.450216 C19.8537036,25.7536968 20.0977529,26 20.3984565,26 C20.6991602,26 20.9432095,25.7536968 20.9432095,25.450216 L20.9432095,23.012474 L21.5246425,23.012474 C22.8897934,23.012474 24,21.8916478 24,20.5146223 L24,8.43440279 C23.9996368,7.05701074 22.8890671,5.93618453 21.5242793,5.93618453 Z M23,20.59017 C23,21.3677014 22.3731443,22 21.6027561,22 L2.39724386,22 C1.62685574,22 1,21.3673319 1,20.59017 L1,8.41019956 C1,7.63266814 1.62685574,7 2.39724386,7 L11.9989015,7 C11.9996338,7 12,7 12.0003662,7 C12.0007323,7 12.0014646,7 12.0018308,7 L21.6027561,7 C22.3731443,7 23,7.63266814 23,8.41019956 L23,20.59017 Z" id="Shape" stroke="#AE7CF9" stroke-width="0.6"></path>
                        <g id="Group-4" transform="translate(2.200012, 8.000000)">
                            <path d="M18.5001513,2 C17.6731914,2 17,2.67288871 17,3.50015135 C17,4.32741398 17.6731914,5 18.5001513,5 C19.3271113,5 20,4.32711129 20,3.50015135 C20,2.6731914 19.3271113,2 18.5001513,2 Z M18.5001278,4 C18.224495,4 18,3.77576068 18,3.50012784 C18,3.22449501 18.224495,3 18.5001278,3 C18.7757607,3 19,3.22423932 19,3.50012784 C19,3.77601636 18.7757607,4 18.5001278,4 Z" id="Shape"></path>
                            <path d="M18.5001513,7 C17.6731914,7 17,7.67288871 17,8.49984865 C17,9.3268086 17.6731914,10 18.5001513,10 C19.3271113,10 20,9.3268086 20,8.49984865 C20,7.67258602 19.3271113,7 18.5001513,7 Z M18.5001278,9 C18.224495,9 18,8.77550499 18,8.49987216 C18,8.22423932 18.224495,8 18.5001278,8 C18.7757607,8 19,8.22423932 19,8.49987216 C19,8.77550499 18.7757607,9 18.5001278,9 Z" id="Shape"></path>
                            <path d="M12.6349944,0.600006104 L2.36535258,0.600006104 C1.06086896,0.600006104 0,1.67001631 0,2.98496018 L0,10.215052 C0,11.5303458 1.06121599,12.6000061 2.36535258,12.6000061 L12.6349944,12.6000061 C13.939131,12.6000061 15,11.5299959 15,10.215052 L15,2.98496018 C15,1.67001631 13.938784,0.600006104 12.6349944,0.600006104 Z M13.9589117,10.215052 C13.9589117,10.9512526 13.3647973,11.5502904 12.6349944,11.5502904 L2.36535258,11.5502904 C1.63520267,11.5502904 1.04108828,10.9512526 1.04108828,10.215052 L1.04108828,2.98496018 C1.04108828,2.24875957 1.63520267,1.64972181 2.36535258,1.64972181 L12.6349944,1.64972181 C13.3651444,1.64972181 13.9589117,2.24875957 13.9589117,2.98496018 L13.9589117,10.215052 Z" id="Shape"></path>
                        </g>
                    </g>
                    <g id="noun_1258925_cc" transform="translate(0.000000, 1.000000)"></g>
                </g>
            </g>
        </g>
    </g>
</svg>