<svg xmlns="http://www.w3.org/2000/svg" xmlns:xlink="http://www.w3.org/1999/xlink" width="763" height="631" viewBox="0 0 763 631"><defs><path id="a" d="M0 0h920v667H0z"/><rect id="c" width="375" height="667" rx="31"/><filter id="d" width="148%" height="127%" x="-24%" y="-9%" filterUnits="objectBoundingBox"><feOffset dy="30" in="SourceAlpha" result="shadowOffsetOuter1"/><feGaussianBlur in="shadowOffsetOuter1" result="shadowBlurOuter1" stdDeviation="25"/><feColorMatrix in="shadowBlurOuter1" values="0 0 0 0 0.364705882 0 0 0 0 0.403921569 0 0 0 0 0.545098039 0 0 0 0.169582201 0"/></filter><linearGradient id="f" x1="100%" x2="40.598%" y1="100%" y2="31.503%"><stop offset="0%" stop-color="#AE7CF9"/><stop offset="100%" stop-color="#BC7DFE"/></linearGradient><rect id="g" width="375" height="667" rx="31"/><filter id="h" width="148%" height="127%" x="-24%" y="-9%" filterUnits="objectBoundingBox"><feOffset dy="30" in="SourceAlpha" result="shadowOffsetOuter1"/><feGaussianBlur in="shadowOffsetOuter1" result="shadowBlurOuter1" stdDeviation="25"/><feColorMatrix in="shadowBlurOuter1" values="0 0 0 0 0.364705882 0 0 0 0 0.403921569 0 0 0 0 0.545098039 0 0 0 0.169582201 0"/></filter></defs><g fill="none" fill-rule="evenodd" transform="translate(-72 -36)"><mask id="b" fill="#fff"><use xlink:href="#a"/></mask><g mask="url(#b)"><g transform="translate(410 56)"><mask id="e" fill="#fff"><use xlink:href="#c"/></mask><use fill="#000" filter="url(#d)" xlink:href="#c"/><g mask="url(#e)"><path fill="url(#f)" transform="translate(-2 -1)" d="M0 0h382v667H0z"/></g><g mask="url(#e)"><g transform="translate(74 227)" fill="#FFF"><path d="M81.79 30.276c-.634-1.639-.95-3.5-.95-5.582s.316-3.94.95-5.582c.633-1.64 1.491-3.029 2.577-4.164 1.084-1.135 2.318-2 3.704-2.601a11.057 11.057 0 0 1 4.429-.898c1.506 0 2.967.3 4.384.898a11.193 11.193 0 0 1 3.751 2.601c1.084 1.135 1.943 2.524 2.576 4.164.633 1.641.95 3.5.95 5.582 0 .773-.06 1.505-.146 2.217a94.11 94.11 0 0 1 11.968-1.395c.007-.274.017-.545.017-.822 0-3.596-.587-6.907-1.763-9.934-1.174-3.028-2.802-5.63-4.879-7.806-2.079-2.176-4.551-3.879-7.412-5.109C99.083.616 95.936 0 92.5 0c-3.435 0-6.584.616-9.445 1.845-2.863 1.23-5.333 2.933-7.412 5.11-2.08 2.175-3.706 4.777-4.881 7.805C69.587 17.787 69 21.098 69 24.694c0 3.595.587 6.907 1.762 9.935A24.824 24.824 0 0 0 72.968 39a79.698 79.698 0 0 1 10.46-5.701 13.052 13.052 0 0 1-1.639-3.023m50.051-5.387c0-2.099.316-3.972.95-5.626.633-1.654 1.491-3.053 2.576-4.197a11.301 11.301 0 0 1 3.705-2.622 10.982 10.982 0 0 1 4.428-.905c1.507 0 2.968.302 4.385.905a11.189 11.189 0 0 1 3.75 2.622c1.085 1.144 1.944 2.543 2.576 4.197.634 1.654.95 3.527.95 5.626 0 2.098-.316 3.974-.95 5.626-.178.464-.377.904-.591 1.327a81.802 81.802 0 0 1 10.7 5.158c.33-.676.639-1.373.918-2.098 1.176-3.052 1.763-6.39 1.763-10.013 0-3.625-.587-6.962-1.763-10.013-1.175-3.052-2.802-5.674-4.88-7.867-2.079-2.193-4.55-3.91-7.411-5.15C150.083.622 146.936 0 143.499 0c-3.434 0-6.583.62-9.444 1.86-2.863 1.24-5.333 2.956-7.412 5.15-2.08 2.192-3.707 4.814-4.881 7.866C120.587 17.927 120 21.264 120 24.89c0 .227.01.451.014.678 4.042 0 8.009.258 11.88.745a19.64 19.64 0 0 1-.054-1.423"/><rect width="236" height="40" y="119" opacity=".205" rx="4"/></g><g transform="translate(20 341)"><text fill="#AE7CF9" font-family="LucidaGrande-Bold, Lucida Grande" font-size="15" font-weight="bold"><tspan x="118" y="22">Je me connecte</tspan></text><rect width="226" height="40" fill="#FFF" rx="4" transform="translate(59)"/><path fill="#AE7CF9" d="M117.515 27.27l.18-1.74c.3.105.705.15 1.2.15.945 0 1.395-.675 1.395-1.635v-10.38h1.92v10.38c0 2.04-1.035 3.45-3.315 3.45-.315 0-.78-.075-1.38-.225zm13.62-6.795c0 .195-.015.405-.03.63h-5.34c.12.915.9 1.5 1.935 1.5.735 0 1.44-.315 1.755-.9l1.395.75c-.6 1.14-1.875 1.695-3.27 1.695-1.02 0-1.875-.345-2.58-1.02-.705-.69-1.05-1.575-1.05-2.655 0-1.08.345-1.95 1.05-2.625.705-.675 1.56-1.005 2.58-1.005s1.86.33 2.535 1.005c.675.675 1.02 1.545 1.02 2.625zm-5.385-.615h3.6c-.135-.945-.84-1.485-1.755-1.485-.975 0-1.71.57-1.845 1.485zm18.495-1.23c-.855 0-1.425.6-1.425 1.635V24h-1.83v-3.855c-.015-.945-.555-1.515-1.29-1.515-.84 0-1.47.51-1.47 1.635V24h-1.83v-7.005h1.83v1.035c.36-.78 1.23-1.17 2.01-1.17 1.125.06 1.86.495 2.235 1.305.495-.885 1.23-1.32 2.205-1.32 1.725 0 2.7 1.11 2.7 3.15V24h-1.815v-3.81c0-.975-.54-1.56-1.32-1.56zm11.865 1.845c0 .195-.015.405-.03.63h-5.34c.12.915.9 1.5 1.935 1.5.735 0 1.44-.315 1.755-.9l1.395.75c-.6 1.14-1.875 1.695-3.27 1.695-1.02 0-1.875-.345-2.58-1.02-.705-.69-1.05-1.575-1.05-2.655 0-1.08.345-1.95 1.05-2.625.705-.675 1.56-1.005 2.58-1.005s1.86.33 2.535 1.005c.675.675 1.02 1.545 1.02 2.625zm-5.385-.615h3.6c-.135-.945-.84-1.485-1.755-1.485-.975 0-1.71.57-1.845 1.485zm13.98-3.015c1.185 0 2.25.51 2.91 1.365l-1.455 1.095c-.345-.465-.825-.69-1.455-.69-.525 0-.99.18-1.38.525-.39.345-.585.78-.585 1.335 0 .555.195 1.005.585 1.38.39.36.855.54 1.38.54.63 0 1.11-.24 1.455-.705l1.47 1.08c-.66.885-1.74 1.38-2.925 1.38-1.035 0-1.935-.345-2.67-1.035-.735-.69-1.11-1.575-1.11-2.64 0-1.065.375-1.935 1.11-2.61.735-.675 1.635-1.02 2.67-1.02zm9.405 3.63c0-1.08-.795-1.83-1.83-1.83-1.035 0-1.83.75-1.83 1.83 0 1.125.795 1.875 1.83 1.875 1.035 0 1.83-.75 1.83-1.875zm.75 2.64c-.705.675-1.56 1.02-2.58 1.02s-1.89-.345-2.595-1.02c-.705-.675-1.05-1.56-1.05-2.64s.345-1.95 1.05-2.625c.705-.675 1.575-1.005 2.595-1.005 1.02 0 1.875.33 2.58 1.005.705.675 1.065 1.545 1.065 2.625s-.36 1.965-1.065 2.64zm4.53-2.85V24h-1.83v-7.005h1.83v1.035c.375-.72 1.245-1.185 2.085-1.185 1.665 0 2.61 1.05 2.61 3.015V24h-1.83v-3.81c0-1.005-.51-1.56-1.335-1.56-.9 0-1.53.495-1.53 1.635zm8.505 0V24h-1.83v-7.005h1.83v1.035c.375-.72 1.245-1.185 2.085-1.185 1.665 0 2.61 1.05 2.61 3.015V24h-1.83v-3.81c0-1.005-.51-1.56-1.335-1.56-.9 0-1.53.495-1.53 1.635zm13.425.21c0 .195-.015.405-.03.63h-5.34c.12.915.9 1.5 1.935 1.5.735 0 1.44-.315 1.755-.9l1.395.75c-.6 1.14-1.875 1.695-3.27 1.695-1.02 0-1.875-.345-2.58-1.02-.705-.69-1.05-1.575-1.05-2.655 0-1.08.345-1.95 1.05-2.625.705-.675 1.56-1.005 2.58-1.005s1.86.33 2.535 1.005c.675.675 1.02 1.545 1.02 2.625zm-5.385-.615h3.6c-.135-.945-.84-1.485-1.755-1.485-.975 0-1.71.57-1.845 1.485zm10.26-3.015c1.185 0 2.25.51 2.91 1.365l-1.455 1.095c-.345-.465-.825-.69-1.455-.69-.525 0-.99.18-1.38.525-.39.345-.585.78-.585 1.335 0 .555.195 1.005.585 1.38.39.36.855.54 1.38.54.63 0 1.11-.24 1.455-.705l1.47 1.08c-.66.885-1.74 1.38-2.925 1.38-1.035 0-1.935-.345-2.67-1.035-.735-.69-1.11-1.575-1.11-2.64 0-1.065.375-1.935 1.11-2.61.735-.675 1.635-1.02 2.67-1.02zm5.055-2.52h1.815v2.67h1.485v1.47h-1.485V24h-1.815v-5.535h-1.275v-1.47h1.275v-2.67zm11.34 6.15c0 .195-.015.405-.03.63h-5.34c.12.915.9 1.5 1.935 1.5.735 0 1.44-.315 1.755-.9l1.395.75c-.6 1.14-1.875 1.695-3.27 1.695-1.02 0-1.875-.345-2.58-1.02-.705-.69-1.05-1.575-1.05-2.655 0-1.08.345-1.95 1.05-2.625.705-.675 1.56-1.005 2.58-1.005s1.86.33 2.535 1.005c.675.675 1.02 1.545 1.02 2.625zm-5.385-.615h3.6c-.135-.945-.84-1.485-1.755-1.485-.975 0-1.71.57-1.845 1.485z"/><path fill="#FFF" d="M138.195 122h-1.905v-10.335h1.905V122zm4.155-3.735V122h-1.83v-7.005h1.83v1.035c.375-.72 1.245-1.185 2.085-1.185 1.665 0 2.61 1.05 2.61 3.015V122h-1.83v-3.81c0-1.005-.51-1.56-1.335-1.56-.9 0-1.53.495-1.53 1.635zm9.33 1.05l-.96-.24c-1.8-.51-1.98-1.305-1.98-2.145 0-.555.255-1.05.765-1.455.51-.42 1.11-.63 1.815-.63.735 0 1.365.18 1.89.54.525.36.81.915.84 1.665h-1.74c-.015-.48-.465-.72-.945-.72-.585 0-.885.225-.885.69 0 .255.24.45.735.585l1.17.285c1.605.42 1.83 1.545 1.83 2.1 0 .675-.285 1.215-.855 1.59-.555.375-1.23.57-2.01.57-.735 0-1.395-.21-1.965-.63-.555-.435-.84-1.005-.855-1.725h1.71c.045.495.63.9 1.29.885.525-.015.915-.3.915-.705.015-.345-.225-.54-.765-.66zm7.485-4.47c1.185 0 2.25.51 2.91 1.365l-1.455 1.095c-.345-.465-.825-.69-1.455-.69-.525 0-.99.18-1.38.525-.39.345-.585.78-.585 1.335 0 .555.195 1.005.585 1.38.39.36.855.54 1.38.54.63 0 1.11-.24 1.455-.705l1.47 1.08c-.66.885-1.74 1.38-2.925 1.38-1.035 0-1.935-.345-2.67-1.035-.735-.69-1.11-1.575-1.11-2.64 0-1.065.375-1.935 1.11-2.61.735-.675 1.635-1.02 2.67-1.02zm6.3 4.68V122h-1.83v-7.005h1.83v1.65c.345-1.2 1.125-1.8 1.98-1.8.45 0 .84.09 1.155.255l-.315 1.65c-.285-.135-.645-.195-1.065-.195-1.17 0-1.755.99-1.755 2.97zm4.335-4.53h1.815V122H169.8v-7.005zm.915-1.605c-.66 0-1.185-.495-1.185-1.11 0-.615.54-1.095 1.185-1.095s1.155.48 1.155 1.095-.51 1.11-1.155 1.11zm2.97 1.605h1.83v.945c.36-.675 1.245-1.095 2.19-1.095.945 0 1.74.345 2.415 1.02s1.005 1.56 1.005 2.625c0 1.095-.33 1.98-1.005 2.655-.66.675-1.47 1.005-2.415 1.005-.945 0-1.83-.405-2.19-1.08v4.335h-1.83v-10.41zm1.86 3.525c0 1.155.84 1.89 1.86 1.89 1.035 0 1.845-.765 1.845-1.89 0-.555-.18-1.02-.54-1.38-.36-.36-.795-.54-1.305-.54-1.035 0-1.86.78-1.86 1.92zm7.725-6.195h1.815v2.67h1.485v1.47h-1.485V122h-1.815v-5.535h-1.275v-1.47h1.275v-2.67zm4.68 2.67h1.815V122h-1.815v-7.005zm.915-1.605c-.66 0-1.185-.495-1.185-1.11 0-.615.54-1.095 1.185-1.095s1.155.48 1.155 1.095-.51 1.11-1.155 1.11zm8.01 5.085c0-1.08-.795-1.83-1.83-1.83-1.035 0-1.83.75-1.83 1.83 0 1.125.795 1.875 1.83 1.875 1.035 0 1.83-.75 1.83-1.875zm.75 2.64c-.705.675-1.56 1.02-2.58 1.02s-1.89-.345-2.595-1.02c-.705-.675-1.05-1.56-1.05-2.64s.345-1.95 1.05-2.625c.705-.675 1.575-1.005 2.595-1.005 1.02 0 1.875.33 2.58 1.005.705.675 1.065 1.545 1.065 2.625s-.36 1.965-1.065 2.64zm4.53-2.85V122h-1.83v-7.005h1.83v1.035c.375-.72 1.245-1.185 2.085-1.185 1.665 0 2.61 1.05 2.61 3.015V122h-1.83v-3.81c0-1.005-.51-1.56-1.335-1.56-.9 0-1.53.495-1.53 1.635z"/><path stroke="#FFF" stroke-width=".5" d="M0 66h343" opacity=".596"/><path fill="#FFF" d="M107.788 95l.072-.78c.168.06.396.084.672.084 1.152 0 1.668-.744 1.668-1.836v-8.736h.792v8.736c0 .78-.204 1.404-.6 1.896s-1.008.732-1.86.732c-.228 0-.468-.036-.744-.096zm7.704-2.88c-.804 0-1.488-.276-2.028-.816-.54-.54-.804-1.248-.804-2.124 0-.876.264-1.572.804-2.1.54-.54 1.212-.804 2.028-.804.804 0 1.464.264 1.98.792s.768 1.236.768 2.112c0 .18 0 .3-.012.372h-4.752c.144 1.068.96 1.776 2.016 1.776.756 0 1.404-.36 1.752-.972.084.024.228.06.408.096l.396.084c-.444.996-1.416 1.584-2.556 1.584zm-2.016-3.312h3.948c-.156-1.068-.912-1.74-1.932-1.74-1.056 0-1.86.684-2.016 1.74zm10.248.132V92h-.804v-5.604h.804v.924c.324-.684 1.14-1.044 1.86-1.044 1.356 0 2.172.924 2.16 2.46V92h-.804v-3.264c0-1.044-.492-1.668-1.356-1.668-.504 0-.936.156-1.308.468-.372.3-.552.768-.552 1.404zm5.844-2.748l-.456-.156c.468-.66.708-1.464.696-2.4h.792c-.096 1.188-.552 2.16-1.032 2.556zm6.744.204h.804V92h-.804v-.96c-.396.684-1.26 1.08-2.112 1.08-.816 0-1.5-.276-2.052-.816-.54-.54-.816-1.248-.816-2.124 0-.876.276-1.572.816-2.1.552-.54 1.236-.804 2.052-.804.864 0 1.716.372 2.112 1.044v-.924zm-4.176 2.784c0 .612.192 1.128.588 1.536.396.396.888.6 1.476.6.6 0 1.104-.192 1.5-.564.408-.384.612-.912.612-1.572 0-.648-.216-1.164-.648-1.536a2.153 2.153 0 0 0-1.464-.564c-.588 0-1.08.192-1.476.576-.396.384-.588.888-.588 1.524zm7.716 2.82h-.792v-5.604h.792V92zm-.816-7.272c-.24-.228-.24-.624 0-.828a.631.631 0 0 1 .864 0c.24.204.24.6 0 .828a.686.686 0 0 1-.864 0zm6.756 9.984h-.804v-8.316h.804v.972c.396-.684 1.26-1.092 2.112-1.092.816 0 1.5.276 2.04.828.552.54.828 1.248.828 2.124 0 .876-.276 1.572-.828 2.1-.54.528-1.224.792-2.04.792-.864 0-1.716-.36-2.112-1.032v3.624zm4.176-5.484c0-.612-.204-1.128-.6-1.536a1.947 1.947 0 0 0-1.464-.612c-.6 0-1.104.192-1.512.576-.396.384-.6.912-.6 1.572 0 .648.216 1.164.636 1.536.432.372.924.552 1.476.552.588 0 1.08-.192 1.476-.564.396-.384.588-.888.588-1.524zm6.96-2.832h.804V92h-.804v-.96c-.396.684-1.26 1.08-2.112 1.08-.816 0-1.5-.276-2.052-.816-.54-.54-.816-1.248-.816-2.124 0-.876.276-1.572.816-2.1.552-.54 1.236-.804 2.052-.804.864 0 1.716.372 2.112 1.044v-.924zm-4.176 2.784c0 .612.192 1.128.588 1.536.396.396.888.6 1.476.6.6 0 1.104-.192 1.5-.564.408-.384.612-.912.612-1.572 0-.648-.216-1.164-.648-1.536a2.153 2.153 0 0 0-1.464-.564c-.588 0-1.08.192-1.476.576-.396.384-.588.888-.588 1.524zm6.48 1.212h.708c.168.648.612.972 1.32.972.72 0 1.188-.36 1.188-.888 0-.444-.264-.732-.804-.864l-.78-.18a2.407 2.407 0 0 1-1.02-.468c-.324-.276-.456-.732-.396-1.356.108-.78.9-1.332 1.824-1.332s1.62.48 1.764 1.452h-.78c-.096-.42-.492-.684-.984-.684-.54 0-.984.288-1.044.684-.084.468.192.78.828.936l.768.18c.948.228 1.416.768 1.416 1.632 0 .48-.192.876-.588 1.188-.396.3-.876.456-1.464.456-.504 0-.948-.156-1.344-.468a1.68 1.68 0 0 1-.612-1.26zm13.32-7.032h.804V92h-.804v-.96c-.396.684-1.26 1.08-2.112 1.08-.816 0-1.5-.276-2.052-.816-.54-.54-.816-1.248-.816-2.124 0-.876.276-1.572.816-2.1.552-.54 1.236-.804 2.052-.804.864 0 1.716.372 2.112 1.044v-3.96zm-4.176 5.82c0 .612.192 1.128.588 1.536.396.396.888.6 1.476.6.6 0 1.104-.192 1.5-.564.408-.384.612-.912.612-1.572 0-.648-.216-1.164-.648-1.536a2.153 2.153 0 0 0-1.464-.564c-.588 0-1.08.192-1.476.576-.396.384-.588.888-.588 1.524zm9.372 2.94c-.804 0-1.488-.276-2.028-.816-.54-.54-.804-1.248-.804-2.124 0-.876.264-1.572.804-2.1.54-.54 1.212-.804 2.028-.804.804 0 1.464.264 1.98.792s.768 1.236.768 2.112c0 .18 0 .3-.012.372h-4.752c.144 1.068.96 1.776 2.016 1.776.756 0 1.404-.36 1.752-.972.084.024.228.06.408.096l.396.084c-.444.996-1.416 1.584-2.556 1.584zm-2.016-3.312h3.948c-.156-1.068-.912-1.74-1.932-1.74-1.056 0-1.86.684-2.016 1.74zm13.44 1.98l.576.564c-.552.516-1.224.768-2.028.768-.816 0-1.512-.276-2.076-.816-.564-.54-.852-1.248-.852-2.124 0-.864.276-1.56.84-2.1s1.26-.804 2.088-.804c.792 0 1.464.252 2.016.756l-.564.564c-.396-.348-.888-.528-1.452-.528-.6 0-1.104.192-1.524.588-.408.384-.612.888-.612 1.524s.204 1.152.612 1.548c.42.396.924.6 1.524.6.564 0 1.056-.18 1.452-.54zm1.488-1.608c0-.864.276-1.56.84-2.1s1.26-.804 2.088-.804c.828 0 1.512.264 2.076.804.564.54.852 1.236.852 2.1 0 .876-.288 1.584-.852 2.124-.564.54-1.26.816-2.076.816-.816 0-1.512-.276-2.076-.816-.564-.54-.852-1.248-.852-2.124zm1.404 1.548c.42.396.924.6 1.524.6s1.104-.204 1.512-.6c.42-.396.624-.912.624-1.548s-.204-1.14-.624-1.524c-.408-.396-.912-.588-1.512-.588s-1.104.192-1.524.588c-.408.384-.612.888-.612 1.524s.204 1.152.612 1.548zM202.9 88.94V92h-.804v-3.264c0-1.044-.492-1.668-1.356-1.668-.504 0-.936.156-1.308.468-.372.3-.552.768-.552 1.404V92h-.804v-5.604h.804v.924c.156-.324.432-.588.816-.768.384-.18.732-.276 1.044-.276.96 0 1.608.408 1.944 1.224.396-.816 1.08-1.224 2.076-1.224 1.356 0 2.172.924 2.16 2.46V92h-.804v-3.264c0-1.044-.492-1.668-1.356-1.668-.504 0-.936.156-1.308.468-.372.3-.552.768-.552 1.404zm6.696 5.772h-.804v-8.316h.804v.972c.396-.684 1.26-1.092 2.112-1.092.816 0 1.5.276 2.04.828.552.54.828 1.248.828 2.124 0 .876-.276 1.572-.828 2.1-.54.528-1.224.792-2.04.792-.864 0-1.716-.36-2.112-1.032v3.624zm4.176-5.484c0-.612-.204-1.128-.6-1.536a1.947 1.947 0 0 0-1.464-.612c-.6 0-1.104.192-1.512.576-.396.384-.6.912-.6 1.572 0 .648.216 1.164.636 1.536.432.372.924.552 1.476.552.588 0 1.08-.192 1.476-.564.396-.384.588-.888.588-1.524zm3.48-2.112V92h-.804v-4.884h-1.008v-.72h1.008v-2.1h.804v2.1h1.188v.72h-1.188zm4.86 5.004c-.804 0-1.488-.276-2.028-.816-.54-.54-.804-1.248-.804-2.124 0-.876.264-1.572.804-2.1.54-.54 1.212-.804 2.028-.804.804 0 1.464.264 1.98.792s.768 1.236.768 2.112c0 .18 0 .3-.012.372h-4.752c.144 1.068.96 1.776 2.016 1.776.756 0 1.404-.36 1.752-.972.084.024.228.06.408.096l.396.084c-.444.996-1.416 1.584-2.556 1.584zm-2.016-3.312h3.948c-.156-1.068-.912-1.74-1.932-1.74-1.056 0-1.86.684-2.016 1.74zm9.828-2.844h-.792c0-.684.228-1.248.672-1.668.456-.432 1.008-.648 1.668-.648.66 0 1.236.216 1.716.648.48.42.72.984.72 1.668 0 1.104-.72 1.956-1.716 2.244-.708.204-1.032.432-1.032 1.104v.468h-.792v-.468c0-1.056.564-1.56 1.584-1.86.66-.204 1.164-.768 1.164-1.488a1.38 1.38 0 0 0-.492-1.092 1.677 1.677 0 0 0-1.152-.432c-.864 0-1.548.612-1.548 1.524zm.372 5.976a.616.616 0 0 1 0-.888.698.698 0 0 1 .936 0 .616.616 0 0 1 0 .888.698.698 0 0 1-.936 0z"/></g></g></g></g><g mask="url(#b)"><g transform="translate(122 108)"><mask id="i" fill="#fff"><use xlink:href="#g"/></mask><use fill="#000" filter="url(#h)" xlink:href="#g"/><g mask="url(#i)"><g transform="translate(-54 -13)"><path fill="#FBFBFC" d="M53 64h375v603H53z"/><path fill="#7C89B7" d="M53 326.092h31.726c10.802 0 19.56 8.757 19.56 19.56v13.843a5.717 5.717 0 0 0 5.716 5.716 5.712 5.712 0 0 0 5.712-5.711v-.005l-.059-68.755a7.41 7.41 0 0 1 7.41-7.416 7.416 7.416 0 0 1 7.417 7.416v26.347a8.53 8.53 0 0 0 8.009 8.515 7.548 7.548 0 0 0 8.009-7.534V236.46a7.46 7.46 0 1 1 14.919 0v112.5a7.154 7.154 0 1 0 14.308 0v-44.24a6.408 6.408 0 0 1 12.816 0l-.001 7.482c0 7.672 6.219 13.89 13.89 13.89H428V666c0 17.12-13.88 31-31 31H84c-17.12 0-31-13.88-31-31V326.092z"/><circle cx="223" cy="617" r="223" fill="#FFF" opacity=".947"/><circle cx="242.5" cy="605.5" r="203.5" fill="#F0F4FF"/><path fill="url(#f)" d="M0 0h375v64H0z" transform="translate(53)"/><g transform="translate(100 28)"><rect width="281" height="28" fill="#000" fill-opacity=".1" rx="14"/><g fill="#FFF"><text font-family="SFProText-Regular, SF Pro Text" font-size="14" letter-spacing="-.11" opacity=".304" transform="translate(10 4)"><tspan x="26" y="14">Rechercher une ville</tspan></text><text font-family="FontAwesome" font-size="17" opacity=".3" transform="translate(10 4)"><tspan x="0" y="15"></tspan></text></g></g><path fill="#DADADA" d="M53 63.5h375v1H53z"/><text fill="#FFF" font-family="FontAwesome" font-size="17" transform="translate(53)"><tspan x="16" y="49"></tspan></text><text fill="#FFF" font-family="FontAwesome" font-size="17" opacity=".249" transform="rotate(-180 379 42.5)"><tspan x="346" y="49"></tspan></text><path fill="#AE7CF9" d="M227.328 306.875c1.247-4.206 5.277-6.29 12.091-6.254 6.815.037 7.88-5.503 3.198-16.621L221 289.355l1.192 22.907 5.136-5.387z"/><path fill="#FFF" d="M53 64h375v60H53z"/><path fill="#BBB" d="M53 64.25h375V64H53z"/><path d="M71.642 94.437l15.337-7.378a1 1 0 0 1 1.354 1.292l-6.335 14.931a1 1 0 0 1-1.92-.39v-5.554a1 1 0 0 0-1-1h-7.003a1 1 0 0 1-.433-1.901zm34.807 1.534v-7.684h1.598v7.684c0 1.241-.425 2.261-1.258 3.043-.833.765-1.836 1.156-3.026 1.156-1.19 0-2.21-.391-3.043-1.156-.833-.782-1.241-1.802-1.241-3.043v-7.684h1.598v7.684c0 .782.255 1.428.782 1.921a2.686 2.686 0 0 0 1.904.748c.748 0 1.377-.255 1.904-.748.527-.493.782-1.139.782-1.921zm6.511-6.902v2.992h1.683v1.309h-1.683V100h-1.547v-6.63h-1.428v-1.309h1.428v-2.992h1.547zM117.924 100h-1.53v-7.939h1.53V100zm-1.53-10.149a.986.986 0 0 1 0-1.428c.425-.391 1.105-.391 1.513 0a.96.96 0 0 1 0 1.428c-.408.391-1.088.391-1.513 0zM120.508 100V87.743h1.547V100h-1.547zm5.661 0h-1.53v-7.939h1.53V100zm-1.53-10.149a.986.986 0 0 1 0-1.428c.425-.391 1.105-.391 1.513 0a.96.96 0 0 1 0 1.428c-.408.391-1.088.391-1.513 0zm7.004 6.902l-1.088-.255c-1.513-.408-2.261-1.173-2.125-2.584.051-.578.357-1.054.884-1.445s1.156-.578 1.87-.578c1.479 0 2.618.731 2.754 2.244h-1.479c-.085-.561-.612-.901-1.241-.901-.595 0-1.071.289-1.19.714-.068.255-.068.459.017.629.119.255.442.459.935.612l1.173.289c1.377.34 2.057 1.105 2.057 2.312 0 .714-.306 1.292-.901 1.734-.595.425-1.309.646-2.176.646a3.258 3.258 0 0 1-2.04-.697c-.595-.459-.901-1.088-.918-1.853h1.411c.068.425.289.714.646.901.357.221.765.306 1.258.272.731-.051 1.19-.476 1.207-1.037.017-.544-.391-.85-1.054-1.003zm5.593-1.343h4.93c-.187-1.309-1.122-2.125-2.414-2.125-1.343 0-2.329.816-2.516 2.125zm6.46.595c0 .289 0 .493-.017.612h-6.443c.187 1.309 1.207 2.159 2.567 2.159.969 0 1.853-.459 2.278-1.224.153.051.374.153.68.272l.646.238c-.663 1.36-2.074 2.108-3.655 2.108-1.156 0-2.125-.391-2.907-1.156-.765-.765-1.156-1.768-1.156-3.009 0-1.241.391-2.227 1.156-2.975.782-.765 1.751-1.139 2.907-1.139 1.139 0 2.091.374 2.822 1.139.748.748 1.122 1.734 1.122 2.975zm3.519 1.105V100h-1.547v-7.939h1.547v1.785c.391-1.309 1.122-1.955 2.21-1.955.629 0 1.088.102 1.377.306l-.238 1.445a2.581 2.581 0 0 0-1.173-.272c-1.445 0-2.176 1.496-2.176 3.74zm18.309-3.706c-1.292-.017-2.108.952-2.108 2.312V100h-1.547v-4.505c0-1.292-.68-2.091-1.717-2.091-1.224 0-2.21.765-2.21 2.312V100h-1.547v-7.939h1.547v1.19c.391-.799 1.394-1.258 2.193-1.326.306-.017.595 0 .867.051 1.003.153 1.7.68 2.074 1.547.561-1.088 1.479-1.632 2.754-1.632 1.972 0 3.06 1.275 3.06 3.519V100h-1.547v-4.488c0-1.309-.68-2.108-1.819-2.108zM179.192 100h-1.53v-1.224c-.527.884-1.632 1.394-2.788 1.394-1.122 0-2.074-.391-2.856-1.156-.782-.765-1.173-1.768-1.173-2.992 0-1.241.391-2.227 1.173-2.992.782-.765 1.734-1.139 2.856-1.139 1.156 0 2.295.493 2.788 1.36v-1.19h1.53V100zm-1.547-3.995c0-.799-.272-1.445-.799-1.904a2.718 2.718 0 0 0-1.836-.697c-.731 0-1.36.238-1.853.731-.493.476-.731 1.105-.731 1.87 0 .765.255 1.411.748 1.904.493.493 1.105.748 1.836.748.731 0 1.36-.238 1.87-.714s.765-1.122.765-1.938zm8.551-3.944h1.547v1.241c.527-.884 1.632-1.411 2.771-1.411 1.105 0 2.057.391 2.822 1.156.765.765 1.156 1.768 1.156 3.009 0 1.224-.391 2.21-1.156 2.975-.765.765-1.7 1.139-2.822 1.139-1.156 0-2.278-.476-2.771-1.36v5.049h-1.547V92.061zm1.564 4.012c0 .799.255 1.445.782 1.904a2.66 2.66 0 0 0 1.819.68c1.479 0 2.567-1.037 2.567-2.584 0-.782-.255-1.428-.748-1.921a2.462 2.462 0 0 0-1.819-.748c-.731 0-1.343.238-1.853.731-.493.476-.748 1.122-.748 1.938zm8.262-.068c0-1.224.391-2.21 1.19-2.975.799-.765 1.785-1.139 2.958-1.139 1.173 0 2.159.374 2.958 1.139.799.765 1.207 1.751 1.207 2.975 0 1.224-.408 2.227-1.224 3.009-.799.765-1.785 1.156-2.941 1.156s-2.142-.391-2.941-1.156c-.799-.765-1.207-1.768-1.207-3.009zm6.766 0c0-.782-.255-1.411-.765-1.887-.493-.476-1.122-.714-1.853-.714-.731 0-1.36.238-1.87.714-.493.476-.748 1.105-.748 1.887 0 .799.255 1.445.748 1.938.51.493 1.139.731 1.87.731.731 0 1.36-.238 1.853-.731.51-.493.765-1.139.765-1.938zm6.494.748l-1.088-.255c-1.513-.408-2.261-1.173-2.125-2.584.051-.578.357-1.054.884-1.445s1.156-.578 1.87-.578c1.479 0 2.618.731 2.754 2.244h-1.479c-.085-.561-.612-.901-1.241-.901-.595 0-1.071.289-1.19.714-.068.255-.068.459.017.629.119.255.442.459.935.612l1.173.289c1.377.34 2.057 1.105 2.057 2.312 0 .714-.306 1.292-.901 1.734-.595.425-1.309.646-2.176.646a3.258 3.258 0 0 1-2.04-.697c-.595-.459-.901-1.088-.918-1.853h1.411c.068.425.289.714.646.901.357.221.765.306 1.258.272.731-.051 1.19-.476 1.207-1.037.017-.544-.391-.85-1.054-1.003zm6.103 3.247h-1.53v-7.939h1.53V100zm-1.53-10.149a.986.986 0 0 1 0-1.428c.425-.391 1.105-.391 1.513 0a.96.96 0 0 1 0 1.428c-.408.391-1.088.391-1.513 0zm6.256-.782v2.992h1.683v1.309h-1.683V100h-1.547v-6.63h-1.428v-1.309h1.428v-2.992h1.547zM225.075 100h-1.53v-7.939h1.53V100zm-1.53-10.149a.986.986 0 0 1 0-1.428c.425-.391 1.105-.391 1.513 0a.96.96 0 0 1 0 1.428c-.408.391-1.088.391-1.513 0zm3.587 6.154c0-1.224.391-2.21 1.19-2.975.799-.765 1.785-1.139 2.958-1.139 1.173 0 2.159.374 2.958 1.139.799.765 1.207 1.751 1.207 2.975 0 1.224-.408 2.227-1.224 3.009-.799.765-1.785 1.156-2.941 1.156s-2.142-.391-2.941-1.156c-.799-.765-1.207-1.768-1.207-3.009zm6.766 0c0-.782-.255-1.411-.765-1.887-.493-.476-1.122-.714-1.853-.714-.731 0-1.36.238-1.87.714-.493.476-.748 1.105-.748 1.887 0 .799.255 1.445.748 1.938.51.493 1.139.731 1.87.731.731 0 1.36-.238 1.853-.731.51-.493.765-1.139.765-1.938zm5.151-.289V100h-1.547v-7.939h1.547v1.19c.459-.884 1.513-1.36 2.482-1.36 1.972 0 3.06 1.275 3.06 3.519V100h-1.547v-4.488c0-1.309-.663-2.108-1.751-2.108-1.241 0-2.244.748-2.244 2.312zM259.313 100h-1.53v-1.224c-.527.884-1.632 1.394-2.788 1.394-1.122 0-2.074-.391-2.856-1.156-.782-.765-1.173-1.768-1.173-2.992 0-1.241.391-2.227 1.173-2.992.782-.765 1.734-1.139 2.856-1.139 1.156 0 2.295.493 2.788 1.36v-1.19h1.53V100zm-1.547-3.995c0-.799-.272-1.445-.799-1.904a2.718 2.718 0 0 0-1.836-.697c-.731 0-1.36.238-1.853.731-.493.476-.731 1.105-.731 1.87 0 .765.255 1.411.748 1.904.493.493 1.105.748 1.836.748.731 0 1.36-.238 1.87-.714s.765-1.122.765-1.938zm7.803-4.114c1.258 0 2.278.425 3.06 1.275l-1.173.986c-.493-.493-1.122-.748-1.887-.748-.731 0-1.36.238-1.887.731-.527.476-.782 1.105-.782 1.87 0 .782.255 1.428.782 1.921a2.674 2.674 0 0 0 1.887.748c.765 0 1.394-.255 1.887-.782l1.19.986c-.799.867-1.819 1.292-3.077 1.292-1.173 0-2.159-.391-2.975-1.156-.816-.782-1.224-1.785-1.224-3.009s.408-2.21 1.224-2.975c.816-.765 1.802-1.139 2.975-1.139zm7.174-2.822v2.992h1.683v1.309h-1.683V100h-1.547v-6.63h-1.428v-1.309h1.428v-2.992h1.547zm8.874 7.276v-4.284h1.547V100h-1.547v-1.19c-.459.884-1.496 1.36-2.465 1.36-1.972 0-3.077-1.275-3.06-3.519v-4.59h1.547v4.488c0 1.309.646 2.108 1.734 2.108 1.275 0 2.244-.731 2.244-2.312zm5.134-.935h4.93c-.187-1.309-1.122-2.125-2.414-2.125-1.343 0-2.329.816-2.516 2.125zm6.46.595c0 .289 0 .493-.017.612h-6.443c.187 1.309 1.207 2.159 2.567 2.159.969 0 1.853-.459 2.278-1.224.153.051.374.153.68.272l.646.238c-.663 1.36-2.074 2.108-3.655 2.108-1.156 0-2.125-.391-2.907-1.156-.765-.765-1.156-1.768-1.156-3.009 0-1.241.391-2.227 1.156-2.975.782-.765 1.751-1.139 2.907-1.139 1.139 0 2.091.374 2.822 1.139.748.748 1.122 1.734 1.122 2.975zm1.972 3.995V87.743h1.547V100h-1.547zm4.131 0V87.743h1.547V100h-1.547zm5.151-4.59h4.93c-.187-1.309-1.122-2.125-2.414-2.125-1.343 0-2.329.816-2.516 2.125zm6.46.595c0 .289 0 .493-.017.612h-6.443c.187 1.309 1.207 2.159 2.567 2.159.969 0 1.853-.459 2.278-1.224.153.051.374.153.68.272l.646.238c-.663 1.36-2.074 2.108-3.655 2.108-1.156 0-2.125-.391-2.907-1.156-.765-.765-1.156-1.768-1.156-3.009 0-1.241.391-2.227 1.156-2.975.782-.765 1.751-1.139 2.907-1.139 1.139 0 2.091.374 2.822 1.139.748.748 1.122 1.734 1.122 2.975z" fill="#AE7CF9"/><path fill="#BBB" d="M53 124.25h375V124H53z"/><path fill="#AE7CF9" d="M213.054 230.324l1.311 3.828-1.31 3.828a1 1 0 0 0 1.523 1.14l5.86-4.152a1 1 0 0 0 0-1.632l-5.86-4.152a1 1 0 0 0-1.524 1.14zm0 67l1.311 3.828-1.31 3.828a1 1 0 0 0 1.523 1.14l5.86-4.152a1 1 0 0 0 0-1.632l-5.86-4.152a1 1 0 0 0-1.524 1.14z"/><ellipse cx="221.5" cy="430" fill="#C9DAFF" rx="12.5" ry="9"/><ellipse cx="221.5" cy="430.5" fill="#C9DAFF" opacity=".487" rx="21.5" ry="15.5"/><path fill="#D5E0F8" d="M222 242h3a3 3 0 0 1 3 3v181a3 3 0 0 1-3 3h-3a3 3 0 0 1-3-3V245a3 3 0 0 1 3-3z"/><path fill="#D5E0F8" d="M222 220h3c1.657 0 3 1.501 3 3.353v202.294c0 1.852-1.343 3.353-3 3.353h-3c-1.657 0-3-1.501-3-3.353V223.353c0-1.852 1.343-3.353 3-3.353z"/><path fill="#AE7CF9" d="M229 225.297h121.652a3 3 0 0 1 2.558 4.567l-19.428 31.718a3 3 0 0 0 0 3.134l19.428 31.717a3 3 0 0 1-2.558 4.567H229a3 3 0 0 1-3-3v-69.703a3 3 0 0 1 3-3z"/><path d="M257.435 269.184c-.417-1.093-.626-2.333-.626-3.721s.21-2.627.626-3.721c.418-1.094.985-2.02 1.7-2.776a7.452 7.452 0 0 1 2.443-1.735 7.226 7.226 0 0 1 2.922-.599c.993 0 1.957.2 2.892.6.933.4 1.758.976 2.474 1.734.715.756 1.281 1.682 1.699 2.776.417 1.094.626 2.333.626 3.72 0 .516-.039 1.004-.096 1.479a61.44 61.44 0 0 1 7.894-.93c.005-.183.011-.364.011-.548 0-2.397-.387-4.605-1.163-6.623-.774-2.019-1.848-3.753-3.218-5.204a14.72 14.72 0 0 0-4.889-3.406c-1.888-.82-3.964-1.23-6.23-1.23-2.265 0-4.342.41-6.23 1.23a14.701 14.701 0 0 0-4.889 3.406c-1.37 1.45-2.444 3.185-3.219 5.204-.775 2.018-1.162 4.226-1.162 6.623 0 2.397.387 4.604 1.162 6.623a16.62 16.62 0 0 0 1.455 2.914 52.395 52.395 0 0 1 6.899-3.8 8.73 8.73 0 0 1-1.08-2.016m32.373-3.367c0-1.418.21-2.684.626-3.801.418-1.118.985-2.063 1.7-2.836a7.458 7.458 0 0 1 2.443-1.772 7.095 7.095 0 0 1 2.921-.612c.994 0 1.958.205 2.893.612.932.41 1.758.998 2.473 1.772.716.773 1.282 1.718 1.7 2.836.417 1.117.626 2.383.626 3.8 0 1.419-.209 2.686-.627 3.802a9.677 9.677 0 0 1-.39.897 53.41 53.41 0 0 1 7.058 3.485c.218-.457.421-.928.605-1.418.776-2.062 1.163-4.317 1.163-6.765 0-2.45-.387-4.704-1.163-6.766-.775-2.062-1.848-3.834-3.218-5.315a14.718 14.718 0 0 0-4.889-3.48c-1.888-.837-3.964-1.256-6.23-1.256-2.265 0-4.342.42-6.23 1.257a14.702 14.702 0 0 0-4.889 3.479c-1.37 1.481-2.444 3.253-3.219 5.315-.775 2.062-1.162 4.317-1.162 6.766 0 .153.006.305.01.458 2.665 0 5.282.174 7.836.504a13.593 13.593 0 0 1-.037-.962" fill="#FFF"/><ellipse cx="101.466" cy="492.975" fill="#C9D9FF" rx="29.5" ry="38.5" transform="rotate(29 101.466 492.975)"/><path fill="#BACDFB" d="M78 531.397a27.7 27.7 0 0 0 4.693 3.276c17.202 9.536 41.237-.934 53.682-23.386 10.49-18.924 9.397-40.321-1.508-52.287 13.112 11.334 15.14 34.401 3.922 54.641-12.445 22.451-36.48 32.921-53.682 23.385a27.87 27.87 0 0 1-7.107-5.63z"/><path fill="#BACDFB" d="M123.598 461.973c-14.07-6.168-32.698 2.54-42.552 20.319-9.517 17.169-7.525 36.794 4.05 45.922a23.12 23.12 0 0 1-1.914-.947c-14.25-7.9-17.445-29.378-7.136-47.975 10.308-18.597 30.217-27.27 44.466-19.371a22.934 22.934 0 0 1 3.086 2.052z"/><circle cx="354.5" cy="382.5" r="3.5" fill="#F0F4FF"/><circle cx="125.5" cy="249.5" r="3.5" fill="#7C89B7"/><circle cx="385.5" cy="398.5" r="4.5" fill="#F0F4FF"/><path fill="#F0F4FF" d="M379.808 365.659l.48-1.329a.5.5 0 0 1 .957.063l.244 1.117a1 1 0 0 0 .688.743l1.16.35a.52.52 0 0 1-.008 1l-1.16.329a1 1 0 0 0-.697.713l-.227.887a.503.503 0 0 1-.95.07l-.472-1.116a1 1 0 0 0-.573-.548l-.901-.335a.535.535 0 0 1-.011-.998l.898-.355a1 1 0 0 0 .572-.591z"/><path fill="#7C89B7" d="M102.808 232.659l.48-1.329a.5.5 0 0 1 .957.063l.244 1.117a1 1 0 0 0 .688.743l1.16.35a.52.52 0 0 1-.008 1l-1.16.329a1 1 0 0 0-.697.713l-.227.887a.503.503 0 0 1-.95.07l-.472-1.116a1 1 0 0 0-.573-.548l-.901-.335a.535.535 0 0 1-.011-.998l.898-.355a1 1 0 0 0 .572-.591z"/><path fill="#F0F4FF" d="M324.394 356.396l.702-1.95a.676.676 0 0 1 1.296.085l.376 1.716a1 1 0 0 0 .688.743l1.768.534a.705.705 0 0 1-.011 1.353l-1.766.5a1 1 0 0 0-.697.714l-.358 1.397a.68.68 0 0 1-1.286.096l-.697-1.652a1 1 0 0 0-.574-.548l-1.363-.507a.724.724 0 0 1-.015-1.35l1.364-.54a1 1 0 0 0 .573-.591z"/><path fill="#C9D9FF" d="M223 220h2c1.657 0 3 1.496 3 3.342v201.649c0 1.846-1.343 3.342-3 3.342h-2c1.657 0 3-1.496 3-3.342V223.342c0-1.846-1.343-3.342-3-3.342z"/><ellipse cx="284.983" cy="431.893" fill="#C9D9FF" opacity=".719" rx="28" ry="12.5" transform="rotate(5 284.983 431.893)"/><path fill="#E3EBFF" d="M302 363.35c1.286 1.546 2.063 3.188 2.331 4.926.268 1.738 2.662 1.86 7.18.365l3.949-3.098c-.344-2.55-1.168-4.541-2.473-5.972s-4.968-.171-10.987 3.779z"/><g transform="rotate(-14 1647.563 -1050.175)"><ellipse cx="7" cy="4.5" fill="#E3EBFF" rx="7" ry="4.5"/><path fill="#B0BDEB" d="M.052 3.951C.472 6.178 3.423 7.902 7 7.902c3.577 0 6.527-1.724 6.948-3.95.034.18.052.362.052.548C14 6.985 10.866 9 7 9S0 6.985 0 4.5c0-.186.018-.369.052-.549z" opacity=".308"/></g><g transform="rotate(-14 1634.846 -1047.603)"><ellipse cx="7" cy="4.5" fill="#E3EBFF" rx="7" ry="4.5"/><path fill="#B0BDEB" d="M.052 3.951C.472 6.178 3.423 7.902 7 7.902c3.577 0 6.527-1.724 6.948-3.95.034.18.052.362.052.548C14 6.985 10.866 9 7 9S0 6.985 0 4.5c0-.186.018-.369.052-.549z" opacity=".308"/></g><g transform="rotate(-14 1604.841 -1038.886)"><ellipse cx="7" cy="4.5" fill="#E3EBFF" rx="7" ry="4.5"/><path fill="#B0BDEB" d="M.052 3.951C.472 6.178 3.423 7.902 7 7.902c3.577 0 6.527-1.724 6.948-3.95.034.18.052.362.052.548C14 6.985 10.866 9 7 9S0 6.985 0 4.5c0-.186.018-.369.052-.549z" opacity=".308"/></g><g transform="rotate(-14 1596.197 -1035.813)"><ellipse cx="7" cy="4.5" fill="#E3EBFF" rx="7" ry="4.5"/><path fill="#B0BDEB" d="M.052 3.951C.472 6.178 3.423 7.902 7 7.902c3.577 0 6.527-1.724 6.948-3.95.034.18.052.362.052.548C14 6.985 10.866 9 7 9S0 6.985 0 4.5c0-.186.018-.369.052-.549z" opacity=".308"/></g><g transform="rotate(-23 1019.926 -551.785)"><ellipse cx="7" cy="4.5" fill="#E3EBFF" rx="7" ry="4.5"/><path fill="#B0BDEB" d="M.052 3.951C.472 6.178 3.423 7.902 7 7.902c3.577 0 6.527-1.724 6.948-3.95.034.18.052.362.052.548C14 6.985 10.866 9 7 9S0 6.985 0 4.5c0-.186.018-.369.052-.549z" opacity=".308"/></g><g transform="translate(243 364)"><ellipse cx="42" cy="32" fill="#F0F4FF" rx="42" ry="32"/><path fill="#C9D9FF" d="M.31 28C2.835 43.875 20.537 56.174 42 56.174c21.462 0 39.164-12.299 41.69-28.174.205 1.283.31 2.588.31 3.913C84 49.634 65.196 64 42 64S0 49.634 0 31.913c0-1.325.105-2.63.31-3.913z" opacity=".308"/></g><g transform="translate(252 356)"><ellipse cx="33.5" cy="20.5" fill="#F0F4FF" rx="33.5" ry="20.5"/><path fill="#C9D9FF" d="M.247 18C2.262 28.143 16.38 36 33.5 36s31.238-7.857 33.253-18c.163.82.247 1.654.247 2.5C67 31.822 52.002 41 33.5 41 14.998 41 0 31.822 0 20.5c0-.846.084-1.68.247-2.5z" opacity=".308"/></g><circle cx="271" cy="527" r="64" fill="#C9D9FF"/><path fill="#BACDFB" d="M233.184 578.638C217.307 566.992 207 548.2 207 527c0-35.346 28.654-64 64-64 18.481 0 35.133 7.834 46.816 20.362C307.221 475.59 294.146 471 280 471c-35.346 0-64 28.654-64 64 0 16.865 6.523 32.206 17.184 43.638z"/><path fill="#BACDFB" d="M214 583.147c14.311 13.398 33.546 21.6 54.697 21.6 44.21 0 80.05-35.84 80.05-80.05 0-21.15-8.202-40.386-21.6-54.697 15.603 14.607 25.353 35.39 25.353 58.45 0 44.21-35.84 80.05-80.05 80.05-23.06 0-43.843-9.75-58.45-25.353z"/><path fill="#C9D9FF" d="M259.167 350c1.408 11.913 11.542 21.153 23.833 21.153 12.291 0 22.425-9.24 23.833-21.153.11.934.167 1.884.167 2.847 0 13.255-10.745 24-24 24s-24-10.745-24-24c0-.963.057-1.913.167-2.847z"/><circle cx="282.5" cy="342.5" r="29.5" fill="#F0F4FF"/><g transform="translate(262 330)"><circle cx="21" cy="20" r="20" fill="#AE7CF9"/><path fill="#A468FF" d="M14.57 35.98C8.364 33.4 4 27.28 4 20.141 4 10.675 11.675 3 21.142 3 25.262 3 29.044 4.454 32 6.876a17.09 17.09 0 0 0-6.572-1.305c-9.468 0-17.142 7.675-17.142 17.143a17.108 17.108 0 0 0 6.284 13.265z"/><path stroke="#FFF" stroke-linecap="round" stroke-width="4" d="M27.524 24.53a5.5 5.5 0 1 0-10.044-3.022m-8.55-1.647a4.5 4.5 0 1 0-8.3-2.184"/></g><path fill="#C9D9FF" d="M270.612 365.727C262.539 361.673 257 353.317 257 343.67c0-13.625 11.045-24.67 24.67-24.67 6.14 0 11.756 2.244 16.074 5.956a24.566 24.566 0 0 0-11.058-2.611c-13.624 0-24.669 11.045-24.669 24.669 0 7.484 3.333 14.19 8.595 18.713z"/><circle cx="282.5" cy="342.5" r="29.5" fill="#F0F4FF" opacity=".303"/><circle cx="345.5" cy="203.5" r="3.5" fill="#AE7CF9"/><path fill="#AE7CF9" d="M365.808 199.659l.48-1.329a.5.5 0 0 1 .957.063l.244 1.117a1 1 0 0 0 .688.743l1.16.35a.52.52 0 0 1-.008 1l-1.16.329a1 1 0 0 0-.697.713l-.227.887a.503.503 0 0 1-.95.07l-.472-1.116a1 1 0 0 0-.573-.548l-.901-.335a.535.535 0 0 1-.011-.998l.898-.355a1 1 0 0 0 .572-.591z"/></g></g></g></g></g></svg>