<svg xmlns="http://www.w3.org/2000/svg" width="37" height="14" viewBox="0 0 37 14"><defs><linearGradient id="a" x1="100%" x2="40.598%" y1="100%" y2="31.503%"><stop offset="0%" stop-color="#AE7CF9"/><stop offset="100%" stop-color="#BC7DFE"/></linearGradient></defs><path d="M4.679 10.868c-.232-.588-.347-1.256-.347-2.003 0-.748.115-1.415.347-2.004a4.441 4.441 0 0 1 .943-1.495 4.134 4.134 0 0 1 1.355-.934 4.112 4.112 0 0 1 1.62-.322 4.153 4.153 0 0 1 2.976 1.256c.397.408.711.906.943 1.495.231.589.347 1.256.347 2.004 0 .277-.022.54-.053.795a35.06 35.06 0 0 1 4.378-.5c.003-.099.006-.196.006-.295 0-1.291-.214-2.48-.645-3.567a8.4 8.4 0 0 0-1.785-2.802A8.171 8.171 0 0 0 12.053.662C11.005.222 9.853 0 8.597 0 7.341 0 6.19.221 5.142.662A8.161 8.161 0 0 0 2.43 2.496 8.375 8.375 0 0 0 .645 5.298C.215 6.385 0 7.574 0 8.865c0 1.29.215 2.479.645 3.566.223.565.493 1.087.807 1.569a29.334 29.334 0 0 1 3.826-2.047 4.659 4.659 0 0 1-.6-1.085m17.86-2.123c0-.738.115-1.396.346-1.977a4.378 4.378 0 0 1 .943-1.474 4.138 4.138 0 0 1 1.355-.922 4.16 4.16 0 0 1 1.62-.318c.552 0 1.086.106 1.605.318.517.213.975.52 1.372.922.397.401.71.893.942 1.474.232.581.348 1.24.348 1.977 0 .737-.116 1.396-.348 1.976a4.874 4.874 0 0 1-.216.467c1.373.522 2.68 1.13 3.914 1.812.121-.237.234-.482.336-.737.43-1.073.645-2.245.645-3.518 0-1.274-.215-2.446-.645-3.518a8.258 8.258 0 0 0-1.785-2.764 8.176 8.176 0 0 0-2.712-1.81C29.211.218 28.06 0 26.803 0c-1.257 0-2.409.218-3.455.653a8.168 8.168 0 0 0-2.712 1.81 8.249 8.249 0 0 0-1.786 2.764c-.43 1.072-.644 2.244-.644 3.518 0 .08.003.158.005.238 1.478 0 2.93.09 4.346.262a6.629 6.629 0 0 1-.02-.5" fill="url(#a)" fill-rule="evenodd" transform="translate(.8)"/></svg>