<svg id="Calque_1" xmlns="http://www.w3.org/2000/svg" viewBox="0 0 84 25"><style>.st0{fill:#ae7cf9}</style><path class="st0" d="M19 4.4l-2.3 8.9h-.2l-2.9-8.9H9.7l-2.9 8.9h-.2L4.3 4.4H0l4.6 14.2h4l2.9-9h.2l2.8 9h4.1l4.6-14.2zm9 8.8c-.2-.5-.3-1.1-.3-1.7 0-.6.1-1.2.3-1.7.2-.5.5-.9.8-1.3.3-.3.7-.6 1.2-.8.4-.2.9-.3 1.4-.3.5 0 1 .1 1.4.3.5.2.9.5 1.2.8.3.3.6.8.8 1.3.2.5.3 1.1.3 1.7v.7c1.3-.2 2.5-.4 3.9-.4v-.3c0-1.1-.2-2.1-.6-3.1-.4-.9-.9-1.7-1.6-2.4-.7-.7-1.5-1.2-2.4-1.6-.9-.4-1.9-.6-3-.6s-2.1.2-3 .6c-.9.4-1.7 1-2.4 1.6-.7.7-1.2 1.5-1.6 2.4-.4.9-.6 1.9-.6 3.1 0 1.1.2 2.1.6 3.1.2.5.4.9.7 1.3 1.1-.7 2.2-1.2 3.4-1.8-.2-.3-.4-.6-.5-.9m16.4-1.7c0-.6.1-1.2.3-1.7.2-.5.5-.9.8-1.3.3-.3.7-.6 1.2-.8.4-.2.9-.3 1.4-.3.5 0 1 .1 1.4.3.5.2.9.5 1.2.8.3.3.6.8.8 1.3.2.5.3 1.1.3 1.7 0 .6-.1 1.2-.3 1.7-.1.1-.1.3-.2.4 1.2.5 2.4 1 3.4 1.6l.3-.6c.4-.9.6-1.9.6-3.1 0-1.1-.2-2.1-.6-3.1-.4-.9-.9-1.7-1.6-2.4-.7-.7-1.5-1.2-2.4-1.6-.9-.4-1.9-.6-3-.6s-2.1.2-3 .6c-.9.4-1.7.9-2.4 1.6-.7.7-1.2 1.5-1.6 2.4-.4.9-.6 1.9-.6 3.1v.2c1.3 0 2.6.1 3.8.2.3-.1.2-.3.2-.4m21.2 3.9c-.2.1-.5.1-.8.1-.5 0-.9-.2-1.2-.5-.2-.2-.3-.4-.4-.7-.1-.3-.1-.6-.1-.9V7.6h3.5V4.4h-3.5V0h-3.8v4.4h-2.5v3.3h2.5V14c0 1.6.5 2.9 1.4 3.8.4.4.9.7 1.4.9.6.2 1.2.3 1.9.3.6 0 1.2-.1 1.7-.2s1-.3 1.4-.5L66 15c0 .2-.2.3-.4.4m14.1-11L76.3 13h-.2l-3.7-8.6h-4.3l6 13.5-3.2 7H75l9-20.5z"/></svg>