<svg width="22" height="30" viewBox="0 0 22 30" xmlns="http://www.w3.org/2000/svg"><title>Group 19</title><g fill="#AE7CF9"><path d="M18.297.645a.4.4 0 0 0-.516.227l-.885 2.258a.401.401 0 0 0 .226.518l.003.001a.4.4 0 0 0 .516-.227l.885-2.258a.401.401 0 0 0-.227-.518l-.002-.001zm-.446 3.42a.402.402 0 0 0 .504.259l2.492-.8a.401.401 0 0 0-.245-.762l-2.492.799a.402.402 0 0 0-.259.504zM15.223.09a.402.402 0 0 0-.261.502l.825 2.593c.038.12.128.21.238.252a.398.398 0 0 0 .265.008.402.402 0 0 0 .26-.503L15.726.35a.4.4 0 0 0-.503-.26z"/><path d="M19.939 20.406l-.03-.031c0-.031-.031-.062-.062-.093l-.03-.031c-.03-.031-.061-.062-.092-.062 0 0-.03 0-.03-.031-.03 0-.061-.032-.092-.032h-.183c-.03 0-.061.032-.092.032l-.03.03c-.03.032-.061.032-.092.063 0 0-.03.03-.03.062l-.061.062-.153.341-.732-1.334a.475.475 0 0 0-.397-.248.52.52 0 0 0-.397.217l-.672 1.148-.61-1.117c-.061-.124-.214-.217-.366-.248a.489.489 0 0 0-.397.186l-.458.62-1.892-5.988a4.904 4.904 0 0 0 1.8-3.816c0-.558-.091-1.086-.274-1.582L16.52 6.01c.122-.156.122-.404 0-.59a.462.462 0 0 0-.55-.124l-2.685 1.272a3.291 3.291 0 0 0-.733-.558l.641-2.42a.445.445 0 0 0-.183-.497.408.408 0 0 0-.519 0L9.378 5.327a4.911 4.911 0 0 0-4.243 4.809 25.21 25.21 0 0 0-1.068.434l-.52-.59a.559.559 0 0 0-.366-.154.375.375 0 0 0-.335.217c-.275.403-2.564 3.971-1.618 5.895a.397.397 0 0 0 .366.248h.061A.433.433 0 0 0 2.021 16l.672-.869c.366.248.794.342 1.251.342.886 0 1.923-.342 2.809-.745L3.73 24.253c0 .031-.03.093-.03.155 0 1.645 2.289 2.979 5.402 3.196l-.458.496a.439.439 0 0 0-.091.466c.06.155.213.279.366.31.03 0 1.038.124 2.32.124 1.343 0 2.442-.124 3.266-.403 3.418-1.086 5.097-2.513 5.494-4.592V20.56a.53.53 0 0 1-.061-.155zm-4.243.03l.672 1.21a.443.443 0 0 0 .396.218.443.443 0 0 0 .397-.217l.672-1.117.64 1.179-.701 1.49-.885-.497a.44.44 0 0 0-.61.155L16 23.29l-.732-2.296.427-.558zm-3.968-14.86a8.317 8.317 0 0 0-.824-.249l1.068-.776-.244 1.024zm-8.486 8.78l.702-.9.458.434a.472.472 0 0 0 .489.093l3.083-1.365c.244-.093.335-.372.244-.62-.092-.249-.366-.342-.61-.249l-2.84 1.241-.61-.558a.455.455 0 0 0-.336-.124.42.42 0 0 0-.335.186L1.93 14.542c.091-1.055.763-2.482 1.373-3.506l.336.372c.122.155.336.186.52.124.823-.341 1.525-.651 1.617-.682.061-.031.122-.062.183-.124a.471.471 0 0 0 .122-.342v-.217c0-2.172 1.77-3.971 3.938-3.971.885 0 1.709.279 2.38.806l-.58.28c-.244.093-.335.372-.213.62.092.248.366.341.61.217l2.473-1.148-1.862 2.42c-.153.218-.122.497.091.652a.487.487 0 0 0 .275.093.474.474 0 0 0 .366-.186l.367-.497c.03.218.06.435.06.683 0 2.172-1.77 3.971-3.937 3.971a3.923 3.923 0 0 1-2.197-.682c-.031-.031-.062-.031-.092-.062h-.061c-.03 0-.061-.031-.092-.031h-.121c-.031 0-.092.03-.123.03-1.587.807-3.327 1.428-4.12.994zm1.374 10.052L7.76 14.48a4.66 4.66 0 0 0 2.228.558c.794 0 1.557-.217 2.228-.558l3.114 9.835-.305.465-.794-.434c-.183-.093-.427-.031-.58.124l-1.19 1.583-1.038-.559a.461.461 0 0 0-.55.093l-.946 1.055c-3.083-.031-5.22-1.179-5.311-2.234zm14.438-.59c-.244 1.21-1.008 2.607-4.854 3.848-.732.248-1.77.372-2.99.372-.49 0-.917-.03-1.283-.03l.489-.528.06-.062.825-.9 1.099.59a.472.472 0 0 0 .58-.125l1.19-1.582.855.434a.464.464 0 0 0 .58-.155l1.22-1.892.886.527c.122.062.244.093.366.031.122-.031.214-.124.275-.248l.732-1.49v1.211h-.03z" stroke="#AE7CF9" stroke-width=".2"/></g></svg>