<svg width="23" height="25" viewBox="0 0 23 25" xmlns="http://www.w3.org/2000/svg"><title>Group 17</title><g fill="#AE7CF9"><path d="M19.297.645a.4.4 0 0 0-.516.227l-.885 2.258a.401.401 0 0 0 .226.518l.003.001a.4.4 0 0 0 .516-.227l.885-2.258a.401.401 0 0 0-.227-.518l-.002-.001zm-.446 3.42a.402.402 0 0 0 .504.259l2.492-.8a.401.401 0 0 0-.245-.762l-2.492.799a.402.402 0 0 0-.259.504zM16.223.09a.402.402 0 0 0-.261.502l.825 2.593c.038.12.128.21.238.252a.398.398 0 0 0 .265.008.402.402 0 0 0 .26-.503L16.726.35a.4.4 0 0 0-.503-.26z"/><g transform="translate(0 4)"><ellipse cx="6.687" cy="17.053" rx="1.06" ry="1.034"/><ellipse cx="15.543" cy="17.053" rx="1.06" ry="1.034"/><path d="M20.217 10.686v-4.24c0-3.437-2.865-6.232-6.386-6.232H8.399c-3.521 0-6.386 2.795-6.386 6.232v4.24a2.596 2.596 0 0 0-1.777 2.458c0 .9 1.442 3.468 2.576 4.502.163 1.87 1.775 3.342 3.732 3.342.984 0 1.915-.372 2.611-1.033h3.92a3.78 3.78 0 0 0 2.61 1.033c1.958 0 3.57-1.472 3.734-3.342 1.133-1.034 2.575-3.603 2.575-4.502a2.597 2.597 0 0 0-1.777-2.458zM8.399 1.848h5.432c2.598 0 4.71 2.063 4.71 4.598v1.173c-1.638-.773-4.543-1.172-7.426-1.172-2.882 0-5.787.399-7.427 1.172V6.446c0-2.535 2.113-4.598 4.71-4.598zm7.949 8.267c-.053.053-.238.02-.492-.086-.372-.155-3.112-1.655-3.677-2.025.052-.151.238-.441.43-.662.011-.011.014-.026.023-.039 1.9.094 3.45.358 4.552.681-.006.598-.68 1.943-.836 2.131zM9.62 7.342c.192.22.379.51.43.662-.564.37-3.305 1.87-3.677 2.025-.254.106-.438.138-.48.098-.167-.2-.842-1.545-.848-2.143 1.102-.323 2.652-.587 4.552-.681.009.013.012.028.023.04zm8.53 9.211a.812.812 0 0 0-.394.693v.086c0 1.115-.93 2.022-2.071 2.022a2.09 2.09 0 0 1-1.6-.737.845.845 0 0 0-.646-.297h-.404c.005-.025.015-.048.015-.075V17.23a.414.414 0 0 0-.418-.408.414.414 0 0 0-.42.408v1.016c0 .027.011.05.016.075h-.71c.004-.025.015-.048.015-.075v-1.999a.414.414 0 0 0-.419-.408.414.414 0 0 0-.418.408v2c0 .026.01.049.015.074h-.71c.004-.025.015-.048.015-.075V17.23a.414.414 0 0 0-.42-.408.414.414 0 0 0-.418.408v1.016c0 .027.01.05.016.075H8.79a.846.846 0 0 0-.646.297 2.086 2.086 0 0 1-1.6.737c-1.142 0-2.07-.907-2.07-2.022v-.086a.813.813 0 0 0-.394-.693c-.663-.405-2.102-2.88-2.169-3.41 0-.527.424-.954.966-.97a.845.845 0 0 0 .262-.053l1.363 1.51a.422.422 0 0 0 .591.037.402.402 0 0 0 .037-.577l-1.454-1.61a.794.794 0 0 0 .012-.124V8.53c.15-.09.336-.18.55-.267.144.934.846 2.23 1.052 2.43.205.2.447.265.676.265.315 0 .605-.122.738-.177.433-.182 3.586-1.897 3.966-2.206a.626.626 0 0 0 .23-.443c.025-.279-.125-.596-.296-.86.17-.004.337-.008.511-.008.175 0 .341.005.511.007-.17.265-.32.582-.296.861.015.18.095.332.23.442.38.31 3.533 2.026 3.966 2.206.133.056.424.178.739.178.228 0 .47-.064.675-.264.207-.202.909-1.498 1.053-2.43.213.087.399.176.549.266v2.827c0 .042.006.082.012.123L17.1 13.09a.402.402 0 0 0 .037.577.423.423 0 0 0 .591-.036l1.364-1.51c.082.03.17.05.261.053.542.016.966.443.968.946-.069.553-1.508 3.028-2.17 3.433z"/><path d="M15.006 14.918a.406.406 0 0 0 .151-.79 7.808 7.808 0 0 1-1.616-.893c-.161-.116-.306-.228-.441-.33-.61-.469-1.093-.839-1.906-.839h-.158c-.813 0-1.295.37-1.906.838-.135.103-.28.215-.44.331a7.884 7.884 0 0 1-1.618.894.406.406 0 0 0-.238.529c.084.21.325.315.541.233a8.584 8.584 0 0 0 1.814-1c.168-.121.318-.237.459-.344.557-.428.865-.664 1.388-.664h.158c.523 0 .83.236 1.388.664.14.107.291.223.459.345a8.644 8.644 0 0 0 1.814 1c.05.018.1.026.151.026z"/></g></g></svg>