<svg width="359" height="254" viewBox="0 0 359 254" xmlns="http://www.w3.org/2000/svg" xmlns:xlink="http://www.w3.org/1999/xlink"><title>Group 6</title><defs><path d="M4 0h114a4 4 0 0 1 4 4v151a4 4 0 0 1-4 4H4a4 4 0 0 1-4-4V4a4 4 0 0 1 4-4zm132 0h114a4 4 0 0 1 4 4v151a4 4 0 0 1-4 4H136a4 4 0 0 1-4-4V4a4 4 0 0 1 4-4z" id="a"/><linearGradient x1="100%" y1="100%" x2="40.598%" y2="31.503%" id="c"><stop stop-color="#AE7CF9" offset="0%"/><stop stop-color="#BC7DFE" offset="100%"/></linearGradient></defs><g fill="none" fill-rule="evenodd"><path d="M40 206h16l-3.214 24.057a6.85 6.85 0 0 1-6.79 5.943A5.996 5.996 0 0 1 40 230.004V206zm192 0h-16l3.214 24.057a6.85 6.85 0 0 0 6.79 5.943 5.996 5.996 0 0 0 5.996-5.996V206z" fill="#7C89B7"/><path d="M70.38 129h131.78a21 21 0 0 1 20.036 14.712L243 210H37l12.787-64.108A21 21 0 0 1 70.38 129z" fill="#7C89B7"/><rect fill="#E3EBFF" width="272" height="174" rx="4"/><rect fill="#F0F4FF" x="2" width="268" height="172" rx="4"/><g transform="translate(10 7)"><mask id="b" fill="#fff"><use xlink:href="#a"/></mask><use fill="#7C89B7" xlink:href="#a"/><g mask="url(#b)"><g transform="matrix(-1 0 0 1 263 23)"><circle fill="#FFF" cx="126" cy="126" r="126"/><circle fill="#F0F4FF" cx="137" cy="119" r="115"/><path d="M47.406 75.343c-8.036-4.509-9.808-16.824-3.957-27.506 5.85-10.683 17.109-15.688 25.145-11.18 8.036 4.509 9.808 16.824 3.957 27.506-5.85 10.683-17.109 15.688-25.145 11.18z" fill="#C9D9FF"/><path d="M44 76.824c.82.696 1.715 1.314 2.683 1.844 9.88 5.4 23.658-.483 30.773-13.14C83.457 54.85 82.8 42.762 76.519 36c7.546 6.408 8.741 19.437 2.323 30.854-7.115 12.658-20.892 18.541-30.772 13.14a16.038 16.038 0 0 1-4.07-3.17z" fill="#BACDFB"/><path d="M70 37.863c-7.878-3.55-18.304 1.46-23.818 11.694-5.327 9.885-4.208 21.187 2.276 26.443a12.724 12.724 0 0 1-1.074-.547c-7.98-4.55-9.771-16.917-4.002-27.623 5.769-10.706 16.913-15.696 24.893-11.147.611.35 1.187.744 1.725 1.18z" fill="#BACDFB"/><circle fill="#C9D9FF" cx="153.5" cy="76.5" r="36.5"/><path d="M131.65 106C122.767 99.353 117 88.627 117 76.528 117 56.354 133.031 40 152.807 40c10.34 0 19.657 4.471 26.193 11.621-5.928-4.435-13.243-7.055-21.158-7.055-19.775 0-35.807 16.354-35.807 36.528 0 9.625 3.65 18.381 9.615 24.906z" fill="#BACDFB"/><path d="M121 106.722c8.06 7.545 18.892 12.165 30.804 12.165 24.899 0 45.083-20.184 45.083-45.083 0-11.912-4.62-22.744-12.165-30.804C193.509 51.226 199 62.93 199 75.917 199 100.816 178.816 121 153.917 121c-12.986 0-24.69-5.491-32.917-14.278z" fill="#BACDFB"/></g></g></g><path d="M14 11v151h114V11H14zm132 0v151h114V11H146z" stroke="#D3E0FF" stroke-width="8"/><g transform="translate(41 115)"><path d="M23.555 0h55.86c6.37 0 11.63 4.976 11.982 11.335l2.885 52c.367 6.618-4.7 12.28-11.317 12.647A12 12 0 0 1 82.3 76H12.074c-6.627 0-12-5.373-12-12a12 12 0 0 1 .282-2.587l11.481-52A12 12 0 0 1 23.555 0z" fill="#8F9ED3"/><ellipse fill="#7C89B7" cx="28" cy="26.389" rx="4" ry="4.222"/><ellipse fill="#7C89B7" cx="24" cy="52.778" rx="4" ry="4.222"/><ellipse fill="#7C89B7" cx="68" cy="26.389" rx="4" ry="4.222"/><ellipse fill="#7C89B7" cx="68" cy="52.778" rx="4" ry="4.222"/></g><g transform="matrix(-1 0 0 1 233 115)"><path d="M23.555 0h55.86c6.37 0 11.63 4.976 11.982 11.335l2.885 52c.367 6.618-4.7 12.28-11.317 12.647A12 12 0 0 1 82.3 76H12.074c-6.627 0-12-5.373-12-12a12 12 0 0 1 .282-2.587l11.481-52A12 12 0 0 1 23.555 0z" fill="#8F9ED3"/><ellipse fill="#7C89B7" cx="28" cy="26.389" rx="4" ry="4.222"/><ellipse fill="#7C89B7" cx="24" cy="52.778" rx="4" ry="4.222"/><ellipse fill="#7C89B7" cx="68" cy="26.389" rx="4" ry="4.222"/><ellipse fill="#7C89B7" cx="68" cy="52.778" rx="4" ry="4.222"/></g><path d="M134.795 174.624l.237 4.292c.365 6.617-4.704 12.278-11.321 12.643a12 12 0 0 1-.661.018H52.803c-6.627 0-12-5.373-12-12a12 12 0 0 1 .28-2.574l.273-1.244c1.532 4.863 6.078 8.39 11.447 8.39h70.247a12 12 0 0 0 .66-.018c5.541-.306 9.996-4.323 11.085-9.507zm98 0l.237 4.292c.365 6.617-4.704 12.278-11.321 12.643a12 12 0 0 1-.661.018h-70.247c-6.627 0-12-5.373-12-12a12 12 0 0 1 .28-2.574l.273-1.244c1.532 4.863 6.078 8.39 11.447 8.39h70.247a12 12 0 0 0 .66-.018c5.541-.306 9.996-4.323 11.085-9.507z" fill="#8B97C5"/><rect fill="#8F9ED3" x="43" y="184" width="95" height="26" rx="11"/><path d="M138 199c0-6.075-4.925-11-11-11H55c-6.075 0-11 4.925-11 11v-4c0-6.075 4.925-11 11-11h72c6.075 0 11 4.925 11 11v4z" fill="#8A98C8" opacity=".51"/><rect fill="#8F9ED3" x="135" y="184" width="94" height="26" rx="11"/><path d="M47.123 208h177.98l5.154-42.094A9 9 0 0 1 239.19 158h6.035a9 9 0 0 1 9 9v41a9 9 0 0 1-9 9H27a9 9 0 0 1-9-9v-41a9 9 0 0 1 9-9h6.035a9 9 0 0 1 8.933 7.906L47.123 208z" fill="#8F9ED3"/><path d="M229 199c0-6.075-4.925-11-11-11h-72c-6.075 0-11 4.925-11 11v-4c0-6.075 4.925-11 11-11h72c6.075 0 11 4.925 11 11v4z" fill="#8A98C8" opacity=".51"/><path d="M49.878 208h175.224l5.155-42.094A9 9 0 0 1 239.19 158h6.035a8.972 8.972 0 0 1 6.387 2.659 8.974 8.974 0 0 0-3.387-.659h-6.035a9 9 0 0 0-8.933 7.906L228.102 210H50.123l-.245-2zm-26.265 8.341A9.003 9.003 0 0 1 18 208v-41a9 9 0 0 1 9-9h6.035c2.481 0 4.75 1.01 6.389 2.66a8.977 8.977 0 0 0-3.39-.66H30a9 9 0 0 0-9 9v41c0 2.474.998 4.714 2.613 6.341z" fill="#8A98C8"/><g transform="translate(146 153)"><ellipse fill="#F0F4FF" cx="37" cy="22.5" rx="37" ry="22.5"/><path d="M.272 20C2.498 31.025 18.092 39.565 37 39.565c18.907 0 34.502-8.54 36.728-19.565.18.89.272 1.798.272 2.717C74 35.024 57.435 45 37 45S0 35.024 0 22.717c0-.92.093-1.826.272-2.717z" fill="#C9D9FF" opacity=".308"/></g><g transform="translate(154 98)"><g transform="translate(0 41)"><ellipse fill="#F0F4FF" cx="28.5" cy="17.5" rx="28.5" ry="17.5"/><path d="M.21 15.366c1.714 8.658 13.726 15.366 28.29 15.366 14.564 0 26.576-6.708 28.29-15.366.139.7.21 1.412.21 2.134C57 27.165 44.24 35 28.5 35S0 27.165 0 17.5c0-.722.071-1.435.21-2.134z" fill="#C9D9FF" opacity=".308"/></g><path d="M8.143 32C9.346 41.762 18 49.333 28.5 49.333c10.499 0 19.154-7.571 20.357-17.333.095.765.143 1.544.143 2.333C49 45.195 39.822 54 28.5 54S8 45.195 8 34.333c0-.79.048-1.568.143-2.333z" fill="#C9D9FF"/><circle fill="#F0F4FF" cx="28.5" cy="25.5" r="25.5"/><g transform="translate(11 14)"><circle fill="#AE7CF9" cx="17" cy="17" r="17"/><path d="M11.534 30.582C6.26 28.391 2.55 23.19 2.55 17.121 2.55 9.074 9.074 2.55 17.12 2.55a14.51 14.51 0 0 1 9.23 3.295 14.527 14.527 0 0 0-5.586-1.11c-8.048 0-14.571 6.524-14.571 14.572a14.54 14.54 0 0 0 5.341 11.275z" fill="#A468FF"/></g><path d="M17.359 45C10.623 41.53 6 34.377 6 26.118 6 14.455 15.217 5 26.586 5 31.71 5 36.397 6.92 40 10.098a20.08 20.08 0 0 0-9.227-2.235c-11.37 0-20.586 9.455-20.586 21.118 0 6.406 2.78 12.146 7.172 16.019z" fill="#C9D9FF"/><circle fill="#F0F4FF" opacity=".303" cx="28.5" cy="25.5" r="25.5"/><circle fill="#C2A0FA" cx="16.5" cy="61.5" r="5.5"/><circle fill="#C2A0FA" cx="42.5" cy="61.5" r="5.5"/><path d="M22.239 58h13.038c.875 0 1.689.419 2.163 1.112l2.148 3.14c.771 1.128.428 2.632-.767 3.36-.416.253-.9.388-1.396.388h-16.85C19.152 66 18 64.912 18 63.57c0-.377.093-.749.272-1.086l1.665-3.141C20.373 58.52 21.264 58 22.239 58z" fill="#E3EBFF"/><path d="M39.853 62c.39 1.28-.009 2.752-1.032 3.52-.416.314-.9.48-1.396.48h-16.85C19.152 66 18 64.657 18 63c0-.34.05-.678.147-.998C18.5 63.166 19.454 64 20.574 64h16.851c.496 0 .98-.166 1.396-.479.499-.375.849-.916 1.032-1.521z" fill="#C9D9FF"/><circle fill="#BACDFB" cx="22.5" cy="59.5" r="1.5"/><circle fill="#BACDFB" cx="32.5" cy="58.5" r="1"/><circle fill="#BACDFB" cx="35.5" cy="60.5" r="1"/><path d="M28.735 65C29.578 66.173 30 67.594 30 69.262c0 2.503-2.732 3.714-2.973 5.767-.162 1.369.408 3.026 1.708 4.971" stroke="#C9D9FF" stroke-linecap="round"/></g><g transform="rotate(-105 157.446 41.626)"><ellipse fill="#C9D9FF" cx="13.396" cy="8.372" rx="13.396" ry="8.372"/><path d="M.099 7.814c.805 3.938 6.451 6.99 13.297 6.99 6.845 0 12.49-3.052 13.297-6.99.065.318.098.642.098.97 0 4.397-5.997 7.96-13.395 7.96C5.997 16.745 0 13.182 0 8.785c0-.328.034-.652.099-.97z" fill="#A1B8EE" opacity=".308"/></g><g transform="scale(1 -1) rotate(75 234.8 31.463)"><ellipse fill="#C9D9FF" cx="13.396" cy="8.372" rx="13.396" ry="8.372"/><path d="M.099 7.814c.805 3.938 6.451 6.99 13.297 6.99 6.845 0 12.49-3.052 13.297-6.99.065.318.098.642.098.97 0 4.397-5.997 7.96-13.395 7.96C5.997 16.745 0 13.182 0 8.785c0-.328.034-.652.099-.97z" fill="#A1B8EE" opacity=".308"/></g><ellipse fill="#D3E0FF" cx="166" cy="249.5" rx="7" ry="4.5"/><ellipse fill="#D3E0FF" cx="195" cy="249.5" rx="7" ry="4.5"/><ellipse fill="#D3E0FF" cx="180.5" cy="243" rx="21.5" ry="8"/><path d="M195.442 130.37c-.555.818-1.706 1.034-2.571.482-.866-.552-1.117-1.663-.563-2.48.186-.275.325-.578.413-.906.445-1.662-.606-3.388-2.349-3.855-1.742-.467-3.516.502-3.962 2.165-.08.3-.113.605-.1.908.045.987-.751 1.802-1.778 1.822-1.027.02-1.896-.765-1.94-1.751a6.394 6.394 0 0 1 .212-1.946c.955-3.562 4.756-5.64 8.49-4.639 3.734 1.001 5.988 4.7 5.033 8.263a6.394 6.394 0 0 1-.885 1.937zm-14.044-3.44c-.072.985-.96 1.748-1.986 1.702-1.025-.045-1.799-.88-1.727-1.867a2.981 2.981 0 0 0-.095-.99c-.446-1.662-2.22-2.631-3.962-2.164-1.743.467-2.794 2.193-2.349 3.855.08.301.205.581.368.837.532.833.25 1.937-.63 2.467s-2.024.286-2.555-.546a6.394 6.394 0 0 1-.79-1.791c-.954-3.563 1.3-7.262 5.034-8.263 3.734-1 7.535 1.077 8.49 4.64.186.695.253 1.41.202 2.12z" fill="#FFF" fill-rule="nonzero"/><circle fill="#D3E0FF" cx="325" cy="33" r="4"/><path d="M296 32h61a2 2 0 0 1 2 2v76a2 2 0 0 1-2 2h-61a2 2 0 0 1-2-2V34a2 2 0 0 1 2-2zm4 5a2 2 0 0 0-2 2v66a2 2 0 0 0 2 2h53a2 2 0 0 0 2-2V39a2 2 0 0 0-2-2h-53z" fill="#E3EBFF"/><path d="M296 32h59a2 2 0 0 1 2 2v74a2 2 0 0 1-2 2h-59a2 2 0 0 1-2-2V34a2 2 0 0 1 2-2zm4 5a2 2 0 0 0-2 2v64a2 2 0 0 0 2 2h51a2 2 0 0 0 2-2V39a2 2 0 0 0-2-2h-51z" fill="#F0F4FF"/><rect fill="#FFF" x="298" y="37" width="55" height="68" rx="2"/><rect fill="url(#c)" opacity=".74" x="298" y="37" width="55" height="68" rx="2"/><path d="M314.082 75.092c-.202-.546-.303-1.167-.303-1.86 0-.695.1-1.314.303-1.861.202-.547.476-1.01.822-1.388a3.61 3.61 0 0 1 1.182-.867 3.4 3.4 0 0 1 1.414-.3c.48 0 .947.1 1.4.3.45.2.85.488 1.196.867.346.378.62.84.822 1.388.203.547.304 1.166.304 1.86 0 .258-.02.502-.047.74a28.812 28.812 0 0 1 3.82-.466c.002-.091.005-.181.005-.274 0-1.198-.187-2.302-.563-3.311-.374-1.01-.894-1.877-1.557-2.602a7.125 7.125 0 0 0-2.365-1.703c-.914-.41-1.919-.615-3.015-.615s-2.101.205-3.014.615a7.116 7.116 0 0 0-2.366 1.703c-.663.725-1.183 1.593-1.558 2.602S310 72.033 310 73.23c0 1.199.187 2.303.562 3.312.195.524.431 1.009.704 1.457a25.12 25.12 0 0 1 3.338-1.9 4.414 4.414 0 0 1-.522-1.008m15.697-2.019c0-.68.1-1.288.303-1.825a4.06 4.06 0 0 1 .822-1.36c.346-.372.74-.655 1.182-.851a3.457 3.457 0 0 1 1.414-.294c.48 0 .947.098 1.4.294.45.196.85.48 1.196.85.346.371.62.825.822 1.361.203.537.304 1.144.304 1.825 0 .68-.101 1.289-.304 1.825-.057.15-.12.293-.189.43A25.93 25.93 0 0 1 340.144 77c.106-.22.204-.445.293-.68.376-.99.563-2.073.563-3.248 0-1.175-.187-2.258-.563-3.247-.375-.99-.894-1.84-1.557-2.552a7.12 7.12 0 0 0-2.365-1.67c-.914-.402-1.919-.603-3.015-.603s-2.101.201-3.014.603a7.113 7.113 0 0 0-2.366 1.67c-.663.711-1.183 1.562-1.558 2.552S326 71.897 326 73.072c0 .074.003.146.005.22 1.29 0 2.556.084 3.791.242a6.472 6.472 0 0 1-.017-.462" fill="#FFF"/><rect fill="#D3E0FF" x="23" y="228" width="224" height="16" rx="8"/></g></svg>