<svg id="Calque_1" xmlns="http://www.w3.org/2000/svg" viewBox="0 0 37 14"><style>.st0{fill:#fff}</style><path class="st0" d="M4.7 10.9c-.2-.6-.3-1.3-.3-2s.1-1.4.3-2c.2-.6.5-1.1.9-1.5.4-.4.9-.8 1.4-1 .5-.2 1-.3 1.6-.3.6 0 1.1.1 1.6.3.5.2 1 .5 1.4.9.4.4.7.9.9 1.5.2.6.3 1.3.3 2 0 .3 0 .5-.1.8 1.4-.3 2.9-.4 4.4-.5v-.3c0-1.3-.2-2.5-.6-3.6-.4-1.1-1-2-1.8-2.8C13.9 1.6 13 1 12 .6 11 .2 9.9 0 8.6 0 7.3 0 6.2.2 5.1.7c-1 .4-2 1.1-2.7 1.8-.7.8-1.3 1.7-1.8 2.8C.2 6.4 0 7.6 0 8.9c0 1.3.2 2.5.6 3.6.3.5.5 1 .9 1.5 1.2-.8 2.5-1.4 3.8-2-.3-.4-.5-.7-.6-1.1m17.8-2.2c0-.7.1-1.4.3-2 .2-.6.5-1.1.9-1.5.4-.4.8-.7 1.4-.9.5-.2 1-.3 1.6-.3.6 0 1.1.1 1.6.3.5.2 1 .5 1.4.9.4.4.7.9.9 1.5.2.6.3 1.2.3 2s-.1 1.4-.3 2c-.1.2-.1.3-.2.5 1.4.5 2.7 1.1 3.9 1.8.1-.2.2-.5.3-.7.4-1.1.6-2.2.6-3.5 0-1.3-.2-2.4-.6-3.5-.4-1.1-1-2-1.8-2.8-.8-.8-1.7-1.4-2.7-1.8-1-.4-2.2-.7-3.5-.7-1.3 0-2.4.2-3.5.7-1 .4-2 1-2.7 1.8-.8.8-1.4 1.7-1.8 2.8-.4 1.1-.6 2.2-.6 3.5V9c1.5 0 2.9.1 4.3.3.2-.2.2-.4.2-.6" transform="translate(.8)"/></svg>