<?xml version="1.0" encoding="UTF-8"?>
<svg width="104px" height="25px" viewBox="0 0 104 25" version="1.1" xmlns="http://www.w3.org/2000/svg" xmlns:xlink="http://www.w3.org/1999/xlink">
    <!-- Generator: Sketch 50 (54983) - http://www.bohemiancoding.com/sketch -->
    <title>Group 8</title>
    <desc>Created with Sketch.</desc>
    <defs></defs>
    <g id="Page-1" stroke="none" stroke-width="1" fill="none" fill-rule="evenodd">
        <g id="Desktop-HD-Copy-2" transform="translate(-173.000000, -313.000000)">
            <g id="Group-8" transform="translate(173.000000, 311.000000)">
                <g id="Group-10" transform="translate(54.000000, 3.000000)">
                    <path d="M10.3125213,18.3779869 L6.7420417,19.6849403 C5.70477903,20.0646243 4.5561168,19.5315514 4.17643281,18.4942887 C4.08732394,18.2508513 4.04639119,17.992412 4.05591245,17.7333531 L4.1955601,13.9337544 C4.21292245,13.4613516 4.06239274,12.9980688 3.77067491,12.6260922 L1.42434949,9.63423514 C0.742716766,8.76506853 0.894743019,7.50789727 1.76390963,6.82626454 C1.96789624,6.66629067 2.20103766,6.54749918 2.45035957,6.47650083 L6.10714618,5.43517306 C6.5617932,5.30570514 6.9558851,5.01938062 7.21951006,4.6269934 L9.33988083,1.47097064 C9.9558713,0.554112135 11.1984909,0.310210409 12.1153494,0.926200885 C12.3305289,1.07076903 12.515551,1.25579111 12.6601192,1.47097064 L14.7804899,4.6269934 C15.0441149,5.01938062 15.4382068,5.30570514 15.8928538,5.43517306 L19.5496404,6.47650083 C20.6119762,6.77901773 21.2279311,7.88544943 20.9254142,8.94778521 C20.8544159,9.19710711 20.7356244,9.43024853 20.5756505,9.63423514 L18.2293251,12.6260922 C17.9376073,12.9980688 17.7870776,13.4613516 17.8044399,13.9337544 L17.9440876,17.7333531 C17.9846567,18.8371774 17.1227181,19.7648915 16.0188939,19.8054606 C15.759835,19.8149819 15.5013957,19.7740491 15.2579583,19.6849403 L11.6874787,18.3779869 C11.2435622,18.2154938 10.7564378,18.2154938 10.3125213,18.3779869 Z" id="Star" fill="#FCE15E"></path>
                    <path d="M2.43041229,6.57859679 C2.44402944,6.59723715 2.45801526,6.61571442 2.47237085,6.63401959 L4.81869627,9.62587669 C5.1104141,9.99785325 5.26094381,10.4611361 5.24358146,10.9335389 L5.10393381,14.7331376 C5.09441255,14.9921965 5.1353453,15.2506357 5.22445417,15.4940732 C5.60413816,16.5313359 6.75280039,17.0644087 7.79006306,16.6847247 L11.3605427,15.3777713 C11.8044592,15.2152783 12.2915835,15.2152783 12.7355,15.3777713 L16.3059797,16.6847247 C16.5494171,16.7738336 16.8078564,16.8147663 17.0669153,16.8052451 C17.2838164,16.7972732 17.4913778,16.7550469 17.6845872,16.6839607 L17.728951,17.8910323 C17.7695202,18.9948565 16.9075816,19.9225707 15.8037574,19.9631398 C15.5446985,19.9726611 15.2862592,19.9317283 15.0428218,19.8426194 L11.4723421,18.5356661 C11.0284257,18.373173 10.5413013,18.373173 10.0973848,18.5356661 L6.52690516,19.8426194 C5.48964249,20.2223034 4.34098027,19.6892306 3.96129628,18.6519679 C3.87218741,18.4085305 3.83125465,18.1500912 3.84077591,17.8910323 L3.98042357,14.0914336 C3.99778591,13.6190308 3.8472562,13.155748 3.55553837,12.7837714 L1.20921296,9.79191433 C0.527580232,8.92274771 0.679606485,7.66557645 1.5487731,6.98394372 C1.75275971,6.82396985 1.98590113,6.70517836 2.23522303,6.63418001 L2.43041229,6.57859679 Z M20.6615559,7.86083732 C20.805203,8.24634607 20.8315918,8.67945085 20.7102777,9.10546439 C20.6392793,9.3547863 20.5204878,9.58792772 20.360514,9.79191433 L18.8798922,11.6798915 L18.8524613,10.9335389 C18.8350989,10.4611361 18.9856286,9.99785325 19.2773465,9.62587669 L20.6615559,7.86083732 Z" id="Combined-Shape" fill="#FFD81C"></path>
                </g>
                <g id="Group-4" transform="translate(0.000000, 3.000000)">
                    <path d="M9,22 C13.9705627,22 18,17.8535542 18,12.738654 C18,-0.832332778 14.805322,12.5070913 13.1178565,10.8237303 C11.4977044,9.20751907 15.5525599,0 13.1178565,0 C10.6958453,0 7.39041917,11 5.12006335,11 C2.84970753,11 0,0 0,12.738654 C2.56178954e-16,17.8520894 4.02943725,22 9,22 Z" id="Oval-25" fill="#FCE15E"></path>
                    <path d="M1,7.8103463 C1.7059335,3.50574933 3.84365137,10.5174405 5.63603323,10.7068824 C5.17648092,11.2979265 4.73922217,11.6600268 4.33578226,11.6600268 C3.22388794,11.6600268 1.96821296,8.90961154 1,7.8103463 Z M12.0755263,0.949303431 C12.5510092,0.360531964 13.0092038,0 13.4386597,0 C15.7916875,0 11.8728578,8.96542869 13.4386597,10.5391454 C13.4596394,10.5602313 13.4808603,10.5788963 13.5023125,10.5952276 C12.9792953,11.3860238 12.4760754,11.9012655 12.0652782,11.4883918 C10.5017584,9.91696861 14.406895,0.975363387 12.0755263,0.949303431 Z M16.1547038,7.51649694 C17.2473375,5.77862209 18.1570248,5.23103383 18.1570248,12.4037206 C18.1570248,15.842605 16.3003777,18.8319046 13.5696413,20.3529412 C15.5307525,18.6994648 16.7836434,16.1779089 16.7836434,13.352967 C16.7836434,9.64494894 16.5405282,8.00018499 16.1547038,7.51649694 Z" id="Combined-Shape" fill="#FFD81C"></path>
                    <path d="M5.06295446,9.05882353 C5.77303485,9.05882353 6.42857143,7.73111056 6.42857143,6.90351211 C6.42857143,6.07591366 5.85293754,3.23529412 5.14285714,3.23529412 C4.43277675,3.23529412 3.85714286,6.07591366 3.85714286,6.90351211 C3.85714286,7.73111056 4.35287407,9.05882353 5.06295446,9.05882353 Z" id="Oval-26" fill="#FCE15E" transform="translate(5.142857, 6.147059) rotate(6.000000) translate(-5.142857, -6.147059) "></path>
                </g>
                <g id="Group-6" transform="translate(25.000000, 3.000000)">
                    <path d="M6.50613105,3.38663928 L6.59810896,3.26868668 C8.63579916,0.655550125 12.4060392,0.18905868 15.0191757,2.22674888 C15.2295405,2.39078864 15.4287313,2.56867515 15.6154219,2.7592243 L16.2301323,3.38663928 L16.2301323,3.38663928 C18.3365422,2.88816715 20.4482163,4.19165821 20.9466884,6.29806807 C21.1376112,7.10485666 21.0677759,7.95140778 20.7472236,8.71600281 L17.2703562,17.0091747 C15.7758034,20.5740455 11.6743303,22.2523699 8.10945945,20.7578171 C6.41671578,20.0481435 5.07049063,18.7019184 4.36081702,17.0091747 L1.30116431,9.71116096 C0.312524817,7.353016 1.42272836,4.63991114 3.78087332,3.65127164 C4.64183626,3.2903176 5.59180759,3.19807195 6.50613105,3.38663928 Z" id="Rectangle-47" fill="#C99EFD"></path>
                    <path d="M11,0.796076431 L11,21.3824304 C10.0848176,21.3735807 9.15630145,21.1840005 8.26488683,20.7939568 C6.65170707,20.0881005 5.36380584,18.8001993 4.65794957,17.1870195 L1.43108558,9.81227202 C0.390295014,7.43362588 1.47484125,4.66162473 3.85348739,3.62083417 C4.73248039,3.23622563 5.70810889,3.12977263 6.64936197,3.31577006 L6.92173083,2.98110117 C7.97606218,1.68560832 9.45913471,0.944576647 11,0.796076431 Z" id="Combined-Shape" fill="#C08CFF"></path>
                </g>
                <g id="Group-8-Copy" transform="translate(91.500000, 14.000000) rotate(-330.000000) translate(-91.500000, -14.000000) translate(81.000000, 4.000000)">
                    <path d="M19.3712379,12.8818536 L20.1720421,17.1571828 C20.303851,18.0008964 19.7360649,18.7931909 18.9038565,18.926822 L17.3750433,19.1723097 C16.5428349,19.3059408 15.7613445,18.7303052 15.6295356,17.8865916 L15.1487343,14.8089642 L13.0839587,15.1405136 C11.7155457,15.3602453 10.4305292,14.4137189 10.2137938,13.0263878 L9.95074827,11.3426231 L2.0341729,11.3426231 L2.0341729,5.67131155 L19.3246426,5.67131155 C20.1672246,5.67131155 20.8502722,6.36380227 20.8502722,7.21803288 L20.8502722,10.4465383 C20.8502722,10.9873376 20.5243739,11.4732413 20.0283065,11.6720623 C19.5513209,11.8632354 19.2755483,12.3709864 19.3712379,12.8818536 Z M14.0993814,13.2632295 L13.8161145,11.6620582 L11.6964942,11.6620582 L11.8260291,12.4912158 C11.9327588,13.1743969 12.4087327,13.5347038 13.0825977,13.4264986 L14.0993814,13.2632295 Z" id="Combined-Shape" fill="#C99EFD"></path>
                    <path d="M2.54271613,5.67131155 L2.54271613,11.3426231 L2.54271613,11.3426231 C1.13841279,11.3426231 -5.3665411e-16,10.2042103 -1.33226763e-15,8.79990697 L0,8.21402767 C-1.71977559e-16,6.80972433 1.13841279,5.67131155 2.54271613,5.67131155 Z" id="Rectangle-48-Copy-2" fill="#C08CFF"></path>
                    <rect id="Rectangle" fill="#C99EFD" x="2.54271613" y="0" width="17.7990129" height="6.7024591" rx="3.35122955"></rect>
                    <path d="M20.2520543,2.57786888 C20.3106973,2.82612763 20.341729,3.08505467 20.341729,3.35122955 C20.341729,5.20206252 18.8413324,6.7024591 16.9904995,6.7024591 L5.89394568,6.7024591 C4.0431127,6.7024591 2.54271613,5.20206252 2.54271613,3.35122955 C2.54271613,3.08505467 2.57374784,2.82612763 2.63239082,2.57786888 C2.98151872,4.05586423 4.30928758,5.15573777 5.89394568,5.15573777 L16.9904995,5.15573777 C18.5751576,5.15573777 19.9029264,4.05586423 20.2520543,2.57786888 Z" id="Combined-Shape" fill="#C08CFF"></path>
                    <g id="Group-7" transform="translate(15.189762, 14.368612) rotate(-9.000000) translate(-15.189762, -14.368612) translate(10.358602, 9.470661)"></g>
                </g>
            </g>
        </g>
    </g>
</svg>