<?xml version="1.0" encoding="UTF-8"?>
<svg width="381px" height="438px" viewBox="0 0 381 438" version="1.1" xmlns="http://www.w3.org/2000/svg" xmlns:xlink="http://www.w3.org/1999/xlink">
    <!-- Generator: Sketch 50 (54983) - http://www.bohemiancoding.com/sketch -->
    <title>Group 5</title>
    <desc>Created with Sketch.</desc>
    <defs>
        <linearGradient x1="100%" y1="100%" x2="0%" y2="-2.2864373%" id="linearGradient-1">
            <stop stop-color="#F2F6FF" offset="0%"></stop>
            <stop stop-color="#F8FAFF" offset="100%"></stop>
        </linearGradient>
        <rect id="path-2" x="46" y="11" width="281" height="338" rx="9"></rect>
        <filter x="-32.0%" y="-17.8%" width="164.1%" height="153.3%" filterUnits="objectBoundingBox" id="filter-3">
            <feOffset dx="0" dy="30" in="SourceAlpha" result="shadowOffsetOuter1"></feOffset>
            <feGaussianBlur stdDeviation="25" in="shadowOffsetOuter1" result="shadowBlurOuter1"></feGaussianBlur>
            <feColorMatrix values="0 0 0 0 0   0 0 0 0 0   0 0 0 0 0  0 0 0 0.0470165308 0" type="matrix" in="shadowBlurOuter1"></feColorMatrix>
        </filter>
    </defs>
    <g id="Page-1" stroke="none" stroke-width="1" fill="none" fill-rule="evenodd">
        <g id="Desktop-HD-Copy-2" transform="translate(-733.000000, -257.000000)">
            <g id="Group-5" transform="translate(737.000000, 266.000000)">
                <g id="Group" transform="translate(178.644967, 168.644967) rotate(-45.000000) translate(-178.644967, -168.644967) translate(112.144967, -3.355033)" stroke-width="6">
                    <polyline id="Path-38" stroke="url(#linearGradient-1)" stroke-linecap="round" stroke-linejoin="round" points="0 1 98.1622996 97.1332465 24.7530771 204.947258 123.676272 334.738109"></polyline>
                    <circle id="Oval-23" stroke-opacity="0.498329937" stroke="#F0F4FF" fill="#FFFFFF" cx="9" cy="9" r="9"></circle>
                    <circle id="Oval-23-Copy" stroke-opacity="0.645521966" stroke="#F0F4FF" fill="#FFFFFF" cx="95" cy="97" r="9"></circle>
                    <circle id="Oval-23-Copy-2" stroke-opacity="0.801828578" stroke="#F0F4FF" fill="#FFFFFF" cx="27" cy="203" r="9"></circle>
                    <circle id="Oval-23-Copy-3" stroke="#F0F4FF" fill="#FFFFFF" cx="124" cy="335" r="9"></circle>
                </g>
                <g id="Group-2" transform="translate(0.000000, 51.000000)" fill="#E8EEFF" fill-rule="nonzero">
                    <path d="M43.4531255,14.4957973 C42.9940867,15.7897323 41.4980434,16.4913741 40.1116192,16.0629582 C38.725195,15.6345422 37.9734006,14.2383008 38.4324393,12.9443658 C38.5861224,12.511165 38.6654621,12.0548243 38.6654621,11.5852726 C38.6654621,9.19999754 36.5935994,7.26635001 34.0378272,7.26635001 C31.4820551,7.26635001 29.4101923,9.19999754 29.4101923,11.5852726 C29.4101923,12.0163545 29.4770557,12.4362837 29.6069814,12.8375482 C30.0294443,14.14229 29.2386125,15.5196195 27.8406091,15.9138997 C26.4426056,16.30818 24.966826,15.570105 24.544363,14.2653632 C24.2649192,13.4023241 24.1214668,12.5013846 24.1214668,11.5852726 C24.1214668,6.47396885 28.5611726,2.33043843 34.0378272,2.33043843 C39.5144819,2.33043843 43.9541877,6.47396885 43.9541877,11.5852726 C43.9541877,12.5836736 43.7838011,13.5636912 43.4531255,14.4957973 Z" id="Oval-11" transform="translate(34.037827, 9.259572) rotate(15.000000) translate(-34.037827, -9.259572) "></path>
                    <path d="M20.7871587,14.4957973 C20.32812,15.7897323 18.8320767,16.4913741 17.4456525,16.0629582 C16.0592283,15.6345422 15.3074338,14.2383008 15.7664725,12.9443658 C15.9201556,12.511165 15.9994954,12.0548243 15.9994954,11.5852726 C15.9994954,9.19999754 13.9276326,7.26635001 11.3718605,7.26635001 C8.8160883,7.26635001 6.7442256,9.19999754 6.7442256,11.5852726 C6.7442256,12.0163545 6.81108897,12.4362837 6.94101461,12.8375482 C7.36347759,14.14229 6.57264578,15.5196195 5.17464233,15.9138997 C3.77663888,16.30818 2.30085925,15.570105 1.87839627,14.2653632 C1.59895244,13.4023241 1.45550002,12.5013846 1.45550002,11.5852726 C1.45550002,6.47396885 5.89520582,2.33043843 11.3718605,2.33043843 C16.8485151,2.33043843 21.2882209,6.47396885 21.2882209,11.5852726 C21.2882209,12.5836736 21.1178343,13.5636912 20.7871587,14.4957973 Z" id="Oval-11" transform="translate(11.371860, 9.259572) rotate(-15.000000) translate(-11.371860, -9.259572) "></path>
                </g>
                <g id="Group-2-Copy-2" transform="translate(314.000000, 202.000000)" fill="#E8EEFF" fill-rule="nonzero">
                    <path d="M43.4531255,14.4957973 C42.9940867,15.7897323 41.4980434,16.4913741 40.1116192,16.0629582 C38.725195,15.6345422 37.9734006,14.2383008 38.4324393,12.9443658 C38.5861224,12.511165 38.6654621,12.0548243 38.6654621,11.5852726 C38.6654621,9.19999754 36.5935994,7.26635001 34.0378272,7.26635001 C31.4820551,7.26635001 29.4101923,9.19999754 29.4101923,11.5852726 C29.4101923,12.0163545 29.4770557,12.4362837 29.6069814,12.8375482 C30.0294443,14.14229 29.2386125,15.5196195 27.8406091,15.9138997 C26.4426056,16.30818 24.966826,15.570105 24.544363,14.2653632 C24.2649192,13.4023241 24.1214668,12.5013846 24.1214668,11.5852726 C24.1214668,6.47396885 28.5611726,2.33043843 34.0378272,2.33043843 C39.5144819,2.33043843 43.9541877,6.47396885 43.9541877,11.5852726 C43.9541877,12.5836736 43.7838011,13.5636912 43.4531255,14.4957973 Z" id="Oval-11" transform="translate(34.037827, 9.259572) rotate(15.000000) translate(-34.037827, -9.259572) "></path>
                    <path d="M20.7871587,14.4957973 C20.32812,15.7897323 18.8320767,16.4913741 17.4456525,16.0629582 C16.0592283,15.6345422 15.3074338,14.2383008 15.7664725,12.9443658 C15.9201556,12.511165 15.9994954,12.0548243 15.9994954,11.5852726 C15.9994954,9.19999754 13.9276326,7.26635001 11.3718605,7.26635001 C8.8160883,7.26635001 6.7442256,9.19999754 6.7442256,11.5852726 C6.7442256,12.0163545 6.81108897,12.4362837 6.94101461,12.8375482 C7.36347759,14.14229 6.57264578,15.5196195 5.17464233,15.9138997 C3.77663888,16.30818 2.30085925,15.570105 1.87839627,14.2653632 C1.59895244,13.4023241 1.45550002,12.5013846 1.45550002,11.5852726 C1.45550002,6.47396885 5.89520582,2.33043843 11.3718605,2.33043843 C16.8485151,2.33043843 21.2882209,6.47396885 21.2882209,11.5852726 C21.2882209,12.5836736 21.1178343,13.5636912 20.7871587,14.4957973 Z" id="Oval-11" transform="translate(11.371860, 9.259572) rotate(-15.000000) translate(-11.371860, -9.259572) "></path>
                </g>
                <g id="Rectangle-42">
                    <use fill="black" fill-opacity="1" filter="url(#filter-3)" xlink:href="#path-2"></use>
                    <use fill="#FFFFFF" fill-rule="evenodd" xlink:href="#path-2"></use>
                </g>
                <g id="Group-3" transform="translate(150.000000, 61.000000)">
                    <g id="Group-3-Copy" transform="translate(0.000000, 34.000000)" fill="#C99EFD" fill-rule="nonzero">
                        <g id="Group-2-Copy">
                            <path d="M53.8440902,18.5475441 C53.2752814,20.1138865 51.4214886,20.9632424 49.7035282,20.4446336 C47.9855678,19.9260247 47.0539964,18.2358378 47.6228052,16.6694954 C47.8132386,16.1450945 47.9115509,15.5926821 47.9115509,15.0242774 C47.9115509,12.1368391 45.3442427,9.79610791 42.1773077,9.79610791 C39.0103726,9.79610791 36.4430644,12.1368391 36.4430644,15.0242774 C36.4430644,15.5461133 36.5259169,16.0544486 36.6869117,16.5401899 C37.2103984,18.1196142 36.2304547,19.7869078 34.498146,20.2641944 C32.7658374,20.741481 30.937154,19.8480218 30.4136672,18.2685975 C30.0673999,17.2238661 29.8896436,16.1332551 29.8896436,15.0242774 C29.8896436,8.83690966 35.3910182,3.82105705 42.1773077,3.82105705 C48.9635971,3.82105705 54.4649717,8.83690966 54.4649717,15.0242774 C54.4649717,16.2328681 54.2538405,17.4192051 53.8440902,18.5475441 Z" id="Oval-11" transform="translate(42.177308, 12.208956) rotate(15.000000) translate(-42.177308, -12.208956) "></path>
                            <path d="M25.758001,18.5475441 C25.1891922,20.1138865 23.3353994,20.9632424 21.617439,20.4446336 C19.8994785,19.9260247 18.9679071,18.2358378 19.536716,16.6694954 C19.7271494,16.1450945 19.8254616,15.5926821 19.8254616,15.0242774 C19.8254616,12.1368391 17.2581535,9.79610791 14.0912184,9.79610791 C10.9242833,9.79610791 8.35697519,12.1368391 8.35697519,15.0242774 C8.35697519,15.5461133 8.43982764,16.0544486 8.60082245,16.5401899 C9.12430918,18.1196142 8.14436542,19.7869078 6.4120568,20.2641944 C4.67974818,20.741481 2.85106472,19.8480218 2.32757799,18.2685975 C1.98131063,17.2238661 1.80355437,16.1332551 1.80355437,15.0242774 C1.80355437,8.83690966 7.30492895,3.82105705 14.0912184,3.82105705 C20.8775079,3.82105705 26.3788825,8.83690966 26.3788825,15.0242774 C26.3788825,16.2328681 26.1677512,17.4192051 25.758001,18.5475441 Z" id="Oval-11" transform="translate(14.091218, 12.208956) rotate(-15.000000) translate(-14.091218, -12.208956) "></path>
                        </g>
                    </g>
                    <g id="Group-9" transform="translate(6.000000, 0.000000)">
                        <path d="M5.31200502,3.21878194 C6.76062137,1.01418368 11.3574355,9.61918554 13.9563431,9.61918554 C18.1275033,9.61918554 19.8974601,0 22.2308644,0 C24.4625146,0 25.9204772,9.61918554 29.833098,9.61918554 C32.5604725,9.61918554 35.0433337,-2.39659551 38.9728247,3.21878194 C42.9023157,8.8341594 50.2367303,19.492985 40.8545899,25.3692754 C31.4724495,31.2455658 11.9793321,30.5869097 3.60713892,25.3692754 C-4.76505424,20.1516411 3.86338867,5.42338021 5.31200502,3.21878194 Z" id="Rectangle-42-Copy-3" fill="#FCE15E"></path>
                        <path d="M14.8909271,9.3538316 C13.8842817,10.9124625 12.7081341,12.1191855 11.2307564,12.1191855 C9.12984404,12.1191855 5.72333402,6.49596442 3.72972973,5.50556395 C4.3164913,4.4219216 4.81155031,3.61652815 5.0729048,3.21878194 C6.52152114,1.01418368 11.1183353,9.61918554 13.7172429,9.61918554 C14.1311493,9.61918554 14.5214118,9.52446834 14.8909271,9.3538316 Z M19.7175963,2.52901557 C20.4870334,1.0864109 21.2075803,0 21.9917642,0 C24.2199087,0 25.6767944,9.58898773 29.575577,9.61911441 C28.7437913,11.0078631 27.9369586,12.1191855 27.1075113,12.1191855 C23.3203039,12.1191855 21.8329157,3.10677526 19.7175963,2.52901557 Z M33.7305565,4.28555116 C35.1787567,1.99842906 36.7768595,0.422354817 38.7337245,3.21878194 C42.5611449,8.68829695 49.6188968,18.9426505 41.3131233,24.9018475 C45.3659988,18.8777149 39.5811323,10.4830312 36.247238,5.71878194 C35.3378528,4.41923933 34.505946,4.06398368 33.7305565,4.28555116 Z" id="Combined-Shape" fill="#FFD81C"></path>
                    </g>
                </g>
                <path d="M154.4,193.6 C154.4,182.25 158.5,176.6 166.65,176.6 C171.25,176.6 174.55,178.4 176.3,181.6 C178.1,184.8 178.8,188.6 178.8,193.6 C178.8,198.6 178.1,202.3 176.3,205.5 C174.55,208.7 171.25,210.5 166.65,210.5 C158.5,210.5 154.4,204.85 154.4,193.6 Z M161.4,193.6 C161.4,200.35 163.15,203.7 166.65,203.7 C170.1,203.7 171.8,200.35 171.8,193.6 C171.8,186.8 170.1,183.4 166.65,183.4 C163.15,183.4 161.4,186.8 161.4,193.6 Z M184.6,193.6 C184.6,182.25 188.7,176.6 196.85,176.6 C201.45,176.6 204.75,178.4 206.5,181.6 C208.3,184.8 209,188.6 209,193.6 C209,198.6 208.3,202.3 206.5,205.5 C204.75,208.7 201.45,210.5 196.85,210.5 C188.7,210.5 184.6,204.85 184.6,193.6 Z M191.6,193.6 C191.6,200.35 193.35,203.7 196.85,203.7 C200.3,203.7 202,200.35 202,193.6 C202,186.8 200.3,183.4 196.85,183.4 C193.35,183.4 191.6,186.8 191.6,193.6 Z M214.8,193.6 C214.8,182.25 218.9,176.6 227.05,176.6 C231.65,176.6 234.95,178.4 236.7,181.6 C238.5,184.8 239.2,188.6 239.2,193.6 C239.2,198.6 238.5,202.3 236.7,205.5 C234.95,208.7 231.65,210.5 227.05,210.5 C218.9,210.5 214.8,204.85 214.8,193.6 Z M221.8,193.6 C221.8,200.35 223.55,203.7 227.05,203.7 C230.5,203.7 232.2,200.35 232.2,193.6 C232.2,186.8 230.5,183.4 227.05,183.4 C223.55,183.4 221.8,186.8 221.8,193.6 Z M99.352,234.432 C99.352,236.064 100.504,237.096 101.944,237.096 C103.384,237.096 104.536,235.992 104.536,234.432 C104.536,232.824 103.384,231.72 101.944,231.72 C100.504,231.72 99.352,232.872 99.352,234.432 Z M95.968,245.496 L95.968,228.792 L99.28,228.792 L99.28,230.184 C99.832,229.152 101.128,228.552 102.568,228.552 C104.056,228.552 105.328,229.104 106.384,230.184 C107.464,231.264 107.992,232.656 107.992,234.36 C107.992,236.112 107.464,237.528 106.384,238.608 C105.328,239.688 104.056,240.24 102.568,240.24 C101.128,240.24 99.832,239.616 99.28,238.632 L99.28,245.496 L95.968,245.496 Z M113.752,236.088 L113.752,240 L110.416,240 L110.416,228.792 L113.752,228.792 L113.752,231.504 C114.304,229.56 115.648,228.552 116.92,228.552 C117.664,228.552 118.288,228.696 118.84,228.96 L118.24,231.96 C117.784,231.744 117.208,231.624 116.536,231.624 C114.688,231.624 113.752,233.112 113.752,236.088 Z M128.248,236.304 L130.672,237.96 C129.64,239.472 127.936,240.24 125.56,240.24 C123.904,240.24 122.512,239.688 121.384,238.608 C120.256,237.504 119.704,236.088 119.704,234.36 C119.704,232.632 120.256,231.24 121.384,230.16 C122.512,229.08 123.904,228.552 125.56,228.552 C127.192,228.552 128.56,229.104 129.64,230.208 C130.744,231.288 131.296,232.704 131.296,234.456 C131.296,234.768 131.272,235.104 131.248,235.488 L123.04,235.488 C123.208,236.712 124.48,237.36 125.8,237.36 C126.88,237.36 127.696,237 128.248,236.304 Z M123.088,233.4 L127.936,233.4 C127.6,230.856 123.616,230.832 123.088,233.4 Z M145.96,231.792 C144.808,231.792 144.04,232.536 144.04,234.072 L144.04,240 L140.704,240 L140.704,233.952 C140.68,232.608 139.888,231.792 138.856,231.792 C137.728,231.792 136.912,232.464 136.912,234.072 L136.912,240 L133.576,240 L133.576,228.792 L136.912,228.792 L136.912,230.424 C137.416,229.272 138.592,228.576 139.84,228.576 C141.616,228.576 142.816,229.224 143.44,230.544 C144.256,229.224 145.384,228.552 146.8,228.552 C149.512,228.552 151.12,230.304 151.12,233.64 L151.12,240 L147.808,240 L147.808,234.024 C147.808,232.608 147.016,231.792 145.96,231.792 Z M154.072,228.792 L157.384,228.792 L157.384,240 L154.072,240 L154.072,228.792 Z M155.728,222.696 C156.856,222.696 157.768,223.56 157.768,224.64 C157.768,225.72 156.856,226.608 155.728,226.608 C154.576,226.608 153.64,225.72 153.64,224.64 C153.64,223.56 154.576,222.696 155.728,222.696 Z M168.328,236.304 L170.752,237.96 C169.72,239.472 168.016,240.24 165.64,240.24 C163.984,240.24 162.592,239.688 161.464,238.608 C160.336,237.504 159.784,236.088 159.784,234.36 C159.784,232.632 160.336,231.24 161.464,230.16 C162.592,229.08 163.984,228.552 165.64,228.552 C167.272,228.552 168.64,229.104 169.72,230.208 C170.824,231.288 171.376,232.704 171.376,234.456 C171.376,234.768 171.352,235.104 171.328,235.488 L163.12,235.488 C163.288,236.712 164.56,237.36 165.88,237.36 C166.96,237.36 167.776,237 168.328,236.304 Z M163.168,233.4 L168.016,233.4 C167.68,230.856 163.696,230.832 163.168,233.4 Z M176.992,236.088 L176.992,240 L173.656,240 L173.656,228.792 L176.992,228.792 L176.992,231.504 C177.544,229.56 178.888,228.552 180.16,228.552 C180.904,228.552 181.528,228.696 182.08,228.96 L181.48,231.96 C181.024,231.744 180.448,231.624 179.776,231.624 C177.928,231.624 176.992,233.112 176.992,236.088 Z M188.08,235.776 L186.616,235.392 C185.056,234.984 184.024,234.336 183.64,233.592 C183.28,232.824 183.232,232.44 183.256,231.744 C183.28,230.904 183.712,230.184 184.576,229.536 C185.44,228.888 186.448,228.552 187.624,228.552 C188.896,228.552 189.976,228.864 190.864,229.464 C191.752,230.064 192.208,231 192.232,232.272 L189.088,232.272 C189.064,231.624 188.656,231.288 187.816,231.288 C187.072,231.288 186.616,231.624 186.64,232.128 C186.664,232.536 187,232.8 187.624,232.968 L189.52,233.472 C190.36,233.688 191.008,234.048 191.488,234.504 C192.472,235.44 192.568,236.064 192.568,236.736 C192.568,237.864 192.088,238.728 191.104,239.328 C190.144,239.928 189.016,240.24 187.72,240.24 C186.496,240.24 185.392,239.904 184.456,239.208 C183.52,238.512 183.064,237.552 183.04,236.376 L186.16,236.376 C186.184,237.048 186.928,237.672 187.816,237.672 C188.584,237.648 189.184,237.288 189.184,236.736 C189.184,236.256 188.872,235.992 188.08,235.776 Z M200.776,228.792 L204.088,228.792 L204.088,240 L200.776,240 L200.776,228.792 Z M202.432,222.696 C203.56,222.696 204.472,223.56 204.472,224.64 C204.472,225.72 203.56,226.608 202.432,226.608 C201.28,226.608 200.344,225.72 200.344,224.64 C200.344,223.56 201.28,222.696 202.432,222.696 Z M210.496,234.072 L210.496,240 L207.16,240 L207.16,228.792 L210.496,228.792 L210.496,230.424 C211.096,229.296 212.416,228.552 213.736,228.552 C216.328,228.552 217.84,230.16 217.84,233.304 L217.84,240 L214.504,240 L214.504,234.024 C214.504,232.584 213.736,231.792 212.56,231.792 C211.192,231.792 210.496,232.56 210.496,234.072 Z M225.16,235.776 L223.696,235.392 C222.136,234.984 221.104,234.336 220.72,233.592 C220.36,232.824 220.312,232.44 220.336,231.744 C220.36,230.904 220.792,230.184 221.656,229.536 C222.52,228.888 223.528,228.552 224.704,228.552 C225.976,228.552 227.056,228.864 227.944,229.464 C228.832,230.064 229.288,231 229.312,232.272 L226.168,232.272 C226.144,231.624 225.736,231.288 224.896,231.288 C224.152,231.288 223.696,231.624 223.72,232.128 C223.744,232.536 224.08,232.8 224.704,232.968 L226.6,233.472 C227.44,233.688 228.088,234.048 228.568,234.504 C229.552,235.44 229.648,236.064 229.648,236.736 C229.648,237.864 229.168,238.728 228.184,239.328 C227.224,239.928 226.096,240.24 224.8,240.24 C223.576,240.24 222.472,239.904 221.536,239.208 C220.6,238.512 220.144,237.552 220.12,236.376 L223.24,236.376 C223.264,237.048 224.008,237.672 224.896,237.672 C225.664,237.648 226.264,237.288 226.264,236.736 C226.264,236.256 225.952,235.992 225.16,235.776 Z M237.424,228.552 C239.416,228.552 241.216,229.416 242.296,230.928 L239.584,232.872 C239.104,232.128 238.384,231.744 237.424,231.744 C236.68,231.744 236.032,231.984 235.48,232.488 C234.928,232.968 234.64,233.592 234.64,234.36 C234.64,235.152 234.928,235.8 235.48,236.304 C236.032,236.808 236.68,237.048 237.424,237.048 C238.384,237.048 239.104,236.664 239.584,235.92 L242.296,237.84 C241.24,239.352 239.44,240.24 237.424,240.24 C235.768,240.24 234.328,239.688 233.128,238.584 C231.928,237.48 231.328,236.064 231.328,234.36 C231.328,232.656 231.928,231.264 233.128,230.184 C234.328,229.104 235.768,228.552 237.424,228.552 Z M247.936,236.088 L247.936,240 L244.6,240 L244.6,228.792 L247.936,228.792 L247.936,231.504 C248.488,229.56 249.832,228.552 251.104,228.552 C251.848,228.552 252.472,228.696 253.024,228.96 L252.424,231.96 C251.968,231.744 251.392,231.624 250.72,231.624 C248.872,231.624 247.936,233.112 247.936,236.088 Z M254.752,228.792 L258.064,228.792 L258.064,240 L254.752,240 L254.752,228.792 Z M256.408,222.696 C257.536,222.696 258.448,223.56 258.448,224.64 C258.448,225.72 257.536,226.608 256.408,226.608 C255.256,226.608 254.32,225.72 254.32,224.64 C254.32,223.56 255.256,222.696 256.408,222.696 Z M265.504,224.496 L265.504,228.792 L267.856,228.792 L267.856,231.432 L265.504,231.432 L265.504,240 L262.192,240 L262.192,231.432 L260.152,231.432 L260.152,228.792 L262.192,228.792 L262.192,224.496 L265.504,224.496 Z M274.264,235.776 L272.8,235.392 C271.24,234.984 270.208,234.336 269.824,233.592 C269.464,232.824 269.416,232.44 269.44,231.744 C269.464,230.904 269.896,230.184 270.76,229.536 C271.624,228.888 272.632,228.552 273.808,228.552 C275.08,228.552 276.16,228.864 277.048,229.464 C277.936,230.064 278.392,231 278.416,232.272 L275.272,232.272 C275.248,231.624 274.84,231.288 274,231.288 C273.256,231.288 272.8,231.624 272.824,232.128 C272.848,232.536 273.184,232.8 273.808,232.968 L275.704,233.472 C276.544,233.688 277.192,234.048 277.672,234.504 C278.656,235.44 278.752,236.064 278.752,236.736 C278.752,237.864 278.272,238.728 277.288,239.328 C276.328,239.928 275.2,240.24 273.904,240.24 C272.68,240.24 271.576,239.904 270.64,239.208 C269.704,238.512 269.248,237.552 269.224,236.376 L272.344,236.376 C272.368,237.048 273.112,237.672 274,237.672 C274.768,237.648 275.368,237.288 275.368,236.736 C275.368,236.256 275.056,235.992 274.264,235.776 Z M131.496,182.144578 L144.399614,176 L144.399614,210 L137.23094,210 L137.23094,185.98494 L131.496,188.442771 L131.496,182.144578 Z" id="5000-premiers-inscri" fill="#5D678B"></path>
                <path d="M138.42,145.985 L138.42,144.665 L146.1,144.665 L146.1,145.985 L142.965,145.985 L142.965,155 L141.555,155 L141.555,145.985 L138.42,145.985 Z M149.01,155 L147.66,155 L147.66,147.995 L149.01,147.995 L149.01,155 Z M147.66,146.045 C147.3,145.7 147.3,145.13 147.66,144.785 C148.035,144.44 148.635,144.44 148.995,144.785 C149.37,145.13 149.37,145.7 148.995,146.045 C148.635,146.39 148.035,146.39 147.66,146.045 Z M152.655,152.45 L152.655,155 L151.29,155 L151.29,147.995 L152.655,147.995 L152.655,149.57 C153,148.415 153.645,147.845 154.605,147.845 C155.16,147.845 155.565,147.935 155.82,148.115 L155.61,149.39 C155.28,149.225 154.935,149.15 154.575,149.15 C153.3,149.15 152.655,150.47 152.655,152.45 Z M163.935,155 L162.585,155 L162.585,153.92 C162.12,154.7 161.145,155.15 160.125,155.15 C159.135,155.15 158.295,154.805 157.605,154.13 C156.915,153.455 156.57,152.57 156.57,151.49 C156.57,150.395 156.915,149.525 157.605,148.85 C158.295,148.175 159.135,147.845 160.125,147.845 C161.145,147.845 162.15,148.28 162.585,149.045 L162.585,147.995 L163.935,147.995 L163.935,155 Z M162.57,151.475 C162.57,150.77 162.33,150.2 161.865,149.795 C161.4,149.39 160.86,149.18 160.245,149.18 C159.6,149.18 159.045,149.39 158.61,149.825 C158.175,150.245 157.965,150.8 157.965,151.475 C157.965,152.15 158.19,152.72 158.625,153.155 C159.06,153.59 159.6,153.815 160.245,153.815 C160.89,153.815 161.445,153.605 161.895,153.185 C162.345,152.765 162.57,152.195 162.57,151.475 Z M171.765,153.86 C171.765,153.860581 171.765003,153.861167 171.765007,153.861758 L171.765,153.86 Z M171.764995,153.860009 C171.359992,154.655004 170.324996,155.15 169.305,155.15 C168.315,155.15 167.475,154.82 166.785,154.145 C166.095,153.47 165.75,152.6 165.75,151.52 C165.75,150.425 166.095,149.54 166.785,148.865 C167.475,148.19 168.315,147.845 169.305,147.845 C170.325,147.845 171.33,148.31 171.765,149.09 L171.765,147.995 L173.115,147.995 L173.115,153.935 C173.115,156.98 171.84,158.495 169.29,158.495 C167.97,158.495 166.785,157.805 166.125,156.605 C166.2,156.575 166.395,156.47 166.725,156.29 L167.265,156.005 C167.67,156.77 168.495,157.205 169.29,157.205 C170.955,157.205 171.78,156.14 171.78,154.025 C171.78,153.980581 171.765385,153.906932 171.765007,153.861758 L171.764995,153.860009 Z M171.75,151.505 C171.75,150.785 171.525,150.215 171.075,149.81 C170.625,149.39 170.07,149.18 169.425,149.18 C168.78,149.18 168.24,149.405 167.805,149.84 C167.37,150.275 167.145,150.83 167.145,151.505 C167.145,152.21 167.355,152.765 167.79,153.185 C168.225,153.605 168.78,153.815 169.425,153.815 C170.04,153.815 170.58,153.605 171.045,153.185 C171.51,152.765 171.75,152.21 171.75,151.505 Z M176.28,150.95 L180.63,150.95 C180.465,149.795 179.64,149.075 178.5,149.075 C177.315,149.075 176.445,149.795 176.28,150.95 Z M181.98,151.475 C181.98,151.73 181.98,151.91 181.965,152.015 L176.28,152.015 C176.445,153.17 177.345,153.92 178.545,153.92 C179.4,153.92 180.18,153.515 180.555,152.84 C180.69,152.885 180.885,152.975 181.155,153.08 L181.725,153.29 C181.14,154.49 179.895,155.15 178.5,155.15 C177.48,155.15 176.625,154.805 175.935,154.13 C175.26,153.455 174.915,152.57 174.915,151.475 C174.915,150.38 175.26,149.51 175.935,148.85 C176.625,148.175 177.48,147.845 178.5,147.845 C179.505,147.845 180.345,148.175 180.99,148.85 C181.65,149.51 181.98,150.38 181.98,151.475 Z M194.52,155 L193.17,155 L193.17,153.92 C192.705,154.7 191.73,155.15 190.71,155.15 C189.72,155.15 188.88,154.805 188.19,154.13 C187.5,153.455 187.155,152.57 187.155,151.49 C187.155,150.395 187.5,149.525 188.19,148.85 C188.88,148.175 189.72,147.845 190.71,147.845 C191.73,147.845 192.735,148.28 193.17,149.045 L193.17,147.995 L194.52,147.995 L194.52,155 Z M193.155,151.475 C193.155,150.77 192.915,150.2 192.45,149.795 C191.985,149.39 191.445,149.18 190.83,149.18 C190.185,149.18 189.63,149.39 189.195,149.825 C188.76,150.245 188.55,150.8 188.55,151.475 C188.55,152.15 188.775,152.72 189.21,153.155 C189.645,153.59 190.185,153.815 190.83,153.815 C191.475,153.815 192.03,153.605 192.48,153.185 C192.93,152.765 193.155,152.195 193.155,151.475 Z M201.6,151.775 L201.6,147.995 L202.965,147.995 L202.965,155 L201.6,155 L201.6,153.95 C201.195,154.73 200.28,155.15 199.425,155.15 C197.685,155.15 196.71,154.025 196.725,152.045 L196.725,147.995 L198.09,147.995 L198.09,151.955 C198.09,153.11 198.66,153.815 199.62,153.815 C200.745,153.815 201.6,153.17 201.6,151.775 Z M211.68,152.135 L210.72,151.91 C209.385,151.55 208.725,150.875 208.845,149.63 C208.89,149.12 209.16,148.7 209.625,148.355 C210.09,148.01 210.645,147.845 211.275,147.845 C212.58,147.845 213.585,148.49 213.705,149.825 L212.4,149.825 C212.325,149.33 211.86,149.03 211.305,149.03 C210.78,149.03 210.36,149.285 210.255,149.66 C210.195,149.885 210.195,150.065 210.27,150.215 C210.375,150.44 210.66,150.62 211.095,150.755 L212.13,151.01 C213.345,151.31 213.945,151.985 213.945,153.05 C213.945,153.68 213.675,154.19 213.15,154.58 C212.625,154.955 211.995,155.15 211.23,155.15 C210.555,155.15 209.955,154.94 209.43,154.535 C208.905,154.13 208.635,153.575 208.62,152.9 L209.865,152.9 C209.925,153.275 210.12,153.53 210.435,153.695 C210.75,153.89 211.11,153.965 211.545,153.935 C212.19,153.89 212.595,153.515 212.61,153.02 C212.625,152.54 212.265,152.27 211.68,152.135 Z M215.25,151.475 C215.25,150.395 215.595,149.525 216.3,148.85 C217.005,148.175 217.875,147.845 218.91,147.845 C219.945,147.845 220.815,148.175 221.52,148.85 C222.225,149.525 222.585,150.395 222.585,151.475 C222.585,152.555 222.225,153.44 221.505,154.13 C220.8,154.805 219.93,155.15 218.91,155.15 C217.89,155.15 217.02,154.805 216.315,154.13 C215.61,153.455 215.25,152.57 215.25,151.475 Z M221.22,151.475 C221.22,150.785 220.995,150.23 220.545,149.81 C220.11,149.39 219.555,149.18 218.91,149.18 C218.265,149.18 217.71,149.39 217.26,149.81 C216.825,150.23 216.6,150.785 216.6,151.475 C216.6,152.18 216.825,152.75 217.26,153.185 C217.71,153.62 218.265,153.83 218.91,153.83 C219.555,153.83 220.11,153.62 220.545,153.185 C220.995,152.75 221.22,152.18 221.22,151.475 Z M225.765,152.45 L225.765,155 L224.4,155 L224.4,147.995 L225.765,147.995 L225.765,149.57 C226.11,148.415 226.755,147.845 227.715,147.845 C228.27,147.845 228.675,147.935 228.93,148.115 L228.72,149.39 C228.39,149.225 228.045,149.15 227.685,149.15 C226.41,149.15 225.765,150.47 225.765,152.45 Z M232.215,145.355 L232.215,147.995 L233.7,147.995 L233.7,149.15 L232.215,149.15 L232.215,155 L230.85,155 L230.85,149.15 L229.59,149.15 L229.59,147.995 L230.85,147.995 L230.85,145.355 L232.215,145.355 Z" id="Tirage-au-sort" fill="#A2ACCC"></path>
                <path d="M94.7575,276.445 L94.7575,269.665 L96.1675,269.665 L96.1675,276.445 C96.1675,277.54 95.7925,278.44 95.0575,279.13 C94.3225,279.805 93.4375,280.15 92.3875,280.15 C91.3375,280.15 90.4375,279.805 89.7025,279.13 C88.9675,278.44 88.6075,277.54 88.6075,276.445 L88.6075,269.665 L90.0175,269.665 L90.0175,276.445 C90.0175,277.135 90.2425,277.705 90.7075,278.14 C91.1725,278.575 91.7275,278.8 92.3875,278.8 C93.0475,278.8 93.6025,278.575 94.0675,278.14 C94.5325,277.705 94.7575,277.135 94.7575,276.445 Z M99.8875,276.22 L99.8875,280 L98.5225,280 L98.5225,272.995 L99.8875,272.995 L99.8875,274.045 C100.2925,273.265 101.2225,272.845 102.0775,272.845 C103.8175,272.845 104.7775,273.97 104.7775,275.95 L104.7775,280 L103.4125,280 L103.4125,276.04 C103.4125,274.885 102.8275,274.18 101.8675,274.18 C100.7725,274.18 99.8875,274.84 99.8875,276.22 Z M107.8675,275.95 L112.2175,275.95 C112.0525,274.795 111.2275,274.075 110.0875,274.075 C108.9025,274.075 108.0325,274.795 107.8675,275.95 Z M113.5675,276.475 C113.5675,276.73 113.5675,276.91 113.5525,277.015 L107.8675,277.015 C108.0325,278.17 108.9325,278.92 110.1325,278.92 C110.9875,278.92 111.7675,278.515 112.1425,277.84 C112.2775,277.885 112.4725,277.975 112.7425,278.08 L113.3125,278.29 C112.7275,279.49 111.4825,280.15 110.0875,280.15 C109.0675,280.15 108.2125,279.805 107.5225,279.13 C106.8475,278.455 106.5025,277.57 106.5025,276.475 C106.5025,275.38 106.8475,274.51 107.5225,273.85 C108.2125,273.175 109.0675,272.845 110.0875,272.845 C111.0925,272.845 111.9325,273.175 112.5775,273.85 C113.2375,274.51 113.5675,275.38 113.5675,276.475 Z M120.1075,275.95 L124.4575,275.95 C124.2925,274.795 123.4675,274.075 122.3275,274.075 C121.1425,274.075 120.2725,274.795 120.1075,275.95 Z M125.8075,276.475 C125.8075,276.73 125.8075,276.91 125.7925,277.015 L120.1075,277.015 C120.2725,278.17 121.1725,278.92 122.3725,278.92 C123.2275,278.92 124.0075,278.515 124.3825,277.84 C124.5175,277.885 124.7125,277.975 124.9825,278.08 L125.5525,278.29 C124.9675,279.49 123.7225,280.15 122.3275,280.15 C121.3075,280.15 120.4525,279.805 119.7625,279.13 C119.0875,278.455 118.7425,277.57 118.7425,276.475 C118.7425,275.38 119.0875,274.51 119.7625,273.85 C120.4525,273.175 121.3075,272.845 122.3275,272.845 C123.3325,272.845 124.1725,273.175 124.8175,273.85 C125.4775,274.51 125.8075,275.38 125.8075,276.475 Z M129.2125,276.16 L126.9325,272.995 L128.5675,272.995 L130.0075,275.05 L131.4625,272.995 L133.0975,272.995 L130.8025,276.16 L133.5775,280 L131.9575,280 L130.0075,277.285 L128.0425,280 L126.4375,280 L129.2125,276.16 Z M134.8975,272.995 L136.2625,272.995 L136.2625,274.09 C136.7275,273.31 137.7025,272.845 138.7075,272.845 C139.6825,272.845 140.5225,273.19 141.1975,273.865 C141.8725,274.54 142.2175,275.425 142.2175,276.52 C142.2175,277.6 141.8725,278.47 141.1975,279.145 C140.5225,279.82 139.6975,280.15 138.7075,280.15 C137.6875,280.15 136.6975,279.73 136.2625,278.95 L136.2625,283.405 L134.8975,283.405 L134.8975,272.995 Z M136.2775,276.535 C136.2775,277.24 136.5025,277.81 136.9675,278.215 C137.4325,278.62 137.9575,278.815 138.5725,278.815 C139.8775,278.815 140.8375,277.9 140.8375,276.535 C140.8375,275.845 140.6125,275.275 140.1775,274.84 C139.7425,274.405 139.2175,274.18 138.5725,274.18 C137.9275,274.18 137.3875,274.39 136.9375,274.825 C136.5025,275.245 136.2775,275.815 136.2775,276.535 Z M144.9325,275.95 L149.2825,275.95 C149.1175,274.795 148.2925,274.075 147.1525,274.075 C145.9675,274.075 145.0975,274.795 144.9325,275.95 Z M150.6325,276.475 C150.6325,276.73 150.6325,276.91 150.6175,277.015 L144.9325,277.015 C145.0975,278.17 145.9975,278.92 147.1975,278.92 C148.0525,278.92 148.8325,278.515 149.2075,277.84 C149.3425,277.885 149.5375,277.975 149.8075,278.08 L150.3775,278.29 C149.7925,279.49 148.5475,280.15 147.1525,280.15 C146.1325,280.15 145.2775,279.805 144.5875,279.13 C143.9125,278.455 143.5675,277.57 143.5675,276.475 C143.5675,275.38 143.9125,274.51 144.5875,273.85 C145.2775,273.175 146.1325,272.845 147.1525,272.845 C148.1575,272.845 148.9975,273.175 149.6425,273.85 C150.3025,274.51 150.6325,275.38 150.6325,276.475 Z M147.6025,269.38 L149.2375,269.38 L147.4525,271.69 L146.1475,271.69 L147.6025,269.38 Z M153.7375,277.45 L153.7375,280 L152.3725,280 L152.3725,272.995 L153.7375,272.995 L153.7375,274.57 C154.0825,273.415 154.7275,272.845 155.6875,272.845 C156.2425,272.845 156.6475,272.935 156.9025,273.115 L156.6925,274.39 C156.3625,274.225 156.0175,274.15 155.6575,274.15 C154.3825,274.15 153.7375,275.47 153.7375,277.45 Z M159.6475,280 L158.2975,280 L158.2975,272.995 L159.6475,272.995 L159.6475,280 Z M158.2975,271.045 C157.9375,270.7 157.9375,270.13 158.2975,269.785 C158.6725,269.44 159.2725,269.44 159.6325,269.785 C160.0075,270.13 160.0075,270.7 159.6325,271.045 C159.2725,271.39 158.6725,271.39 158.2975,271.045 Z M162.8275,275.95 L167.1775,275.95 C167.0125,274.795 166.1875,274.075 165.0475,274.075 C163.8625,274.075 162.9925,274.795 162.8275,275.95 Z M168.5275,276.475 C168.5275,276.73 168.5275,276.91 168.5125,277.015 L162.8275,277.015 C162.9925,278.17 163.8925,278.92 165.0925,278.92 C165.9475,278.92 166.7275,278.515 167.1025,277.84 C167.2375,277.885 167.4325,277.975 167.7025,278.08 L168.2725,278.29 C167.6875,279.49 166.4425,280.15 165.0475,280.15 C164.0275,280.15 163.1725,279.805 162.4825,279.13 C161.8075,278.455 161.4625,277.57 161.4625,276.475 C161.4625,275.38 161.8075,274.51 162.4825,273.85 C163.1725,273.175 164.0275,272.845 165.0475,272.845 C166.0525,272.845 166.8925,273.175 167.5375,273.85 C168.1975,274.51 168.5275,275.38 168.5275,276.475 Z M171.6325,276.22 L171.6325,280 L170.2675,280 L170.2675,272.995 L171.6325,272.995 L171.6325,274.045 C172.0375,273.265 172.9675,272.845 173.8225,272.845 C175.5625,272.845 176.5225,273.97 176.5225,275.95 L176.5225,280 L175.1575,280 L175.1575,276.04 C175.1575,274.885 174.5725,274.18 173.6125,274.18 C172.5175,274.18 171.6325,274.84 171.6325,276.22 Z M181.9525,272.845 C183.0625,272.845 183.9625,273.22 184.6525,273.97 L183.6175,274.84 C183.1825,274.405 182.6275,274.18 181.9525,274.18 C181.3075,274.18 180.7525,274.39 180.2875,274.825 C179.8225,275.245 179.5975,275.8 179.5975,276.475 C179.5975,277.165 179.8225,277.735 180.2875,278.17 C180.7525,278.605 181.3075,278.83 181.9525,278.83 C182.6275,278.83 183.1825,278.605 183.6175,278.14 L184.6675,279.01 C183.9625,279.775 183.0625,280.15 181.9525,280.15 C180.9175,280.15 180.0475,279.805 179.3275,279.13 C178.6075,278.44 178.2475,277.555 178.2475,276.475 C178.2475,275.395 178.6075,274.525 179.3275,273.85 C180.0475,273.175 180.9175,272.845 181.9525,272.845 Z M187.1125,275.95 L191.4625,275.95 C191.2975,274.795 190.4725,274.075 189.3325,274.075 C188.1475,274.075 187.2775,274.795 187.1125,275.95 Z M192.8125,276.475 C192.8125,276.73 192.8125,276.91 192.7975,277.015 L187.1125,277.015 C187.2775,278.17 188.1775,278.92 189.3775,278.92 C190.2325,278.92 191.0125,278.515 191.3875,277.84 C191.5225,277.885 191.7175,277.975 191.9875,278.08 L192.5575,278.29 C191.9725,279.49 190.7275,280.15 189.3325,280.15 C188.3125,280.15 187.4575,279.805 186.7675,279.13 C186.0925,278.455 185.7475,277.57 185.7475,276.475 C185.7475,275.38 186.0925,274.51 186.7675,273.85 C187.4575,273.175 188.3125,272.845 189.3325,272.845 C190.3375,272.845 191.1775,273.175 191.8225,273.85 C192.4825,274.51 192.8125,275.38 192.8125,276.475 Z M204.0025,278.86 C204.0025,278.860581 204.002503,278.861167 204.002507,278.861758 L204.0025,278.86 Z M204.002495,278.860009 C203.597492,279.655004 202.562496,280.15 201.5425,280.15 C200.5525,280.15 199.7125,279.82 199.0225,279.145 C198.3325,278.47 197.9875,277.6 197.9875,276.52 C197.9875,275.425 198.3325,274.54 199.0225,273.865 C199.7125,273.19 200.5525,272.845 201.5425,272.845 C202.5625,272.845 203.5675,273.31 204.0025,274.09 L204.0025,272.995 L205.3525,272.995 L205.3525,278.935 C205.3525,281.98 204.0775,283.495 201.5275,283.495 C200.2075,283.495 199.0225,282.805 198.3625,281.605 C198.4375,281.575 198.6325,281.47 198.9625,281.29 L199.5025,281.005 C199.9075,281.77 200.7325,282.205 201.5275,282.205 C203.1925,282.205 204.0175,281.14 204.0175,279.025 C204.0175,278.980581 204.002885,278.906932 204.002507,278.861758 L204.002495,278.860009 Z M203.9875,276.505 C203.9875,275.785 203.7625,275.215 203.3125,274.81 C202.8625,274.39 202.3075,274.18 201.6625,274.18 C201.0175,274.18 200.4775,274.405 200.0425,274.84 C199.6075,275.275 199.3825,275.83 199.3825,276.505 C199.3825,277.21 199.5925,277.765 200.0275,278.185 C200.4625,278.605 201.0175,278.815 201.6625,278.815 C202.2775,278.815 202.8175,278.605 203.2825,278.185 C203.7475,277.765 203.9875,277.21 203.9875,276.505 Z M214.5175,280 L213.1675,280 L213.1675,278.92 C212.7025,279.7 211.7275,280.15 210.7075,280.15 C209.7175,280.15 208.8775,279.805 208.1875,279.13 C207.4975,278.455 207.1525,277.57 207.1525,276.49 C207.1525,275.395 207.4975,274.525 208.1875,273.85 C208.8775,273.175 209.7175,272.845 210.7075,272.845 C211.7275,272.845 212.7325,273.28 213.1675,274.045 L213.1675,272.995 L214.5175,272.995 L214.5175,280 Z M213.1525,276.475 C213.1525,275.77 212.9125,275.2 212.4475,274.795 C211.9825,274.39 211.4425,274.18 210.8275,274.18 C210.1825,274.18 209.6275,274.39 209.1925,274.825 C208.7575,275.245 208.5475,275.8 208.5475,276.475 C208.5475,277.15 208.7725,277.72 209.2075,278.155 C209.6425,278.59 210.1825,278.815 210.8275,278.815 C211.4725,278.815 212.0275,278.605 212.4775,278.185 C212.9275,277.765 213.1525,277.195 213.1525,276.475 Z M224.8525,274.18 C223.7125,274.165 222.9925,275.02 222.9925,276.22 L222.9925,280 L221.6275,280 L221.6275,276.025 C221.6275,274.885 221.0275,274.18 220.1125,274.18 C219.0325,274.18 218.1625,274.855 218.1625,276.22 L218.1625,280 L216.7975,280 L216.7975,272.995 L218.1625,272.995 L218.1625,274.045 C218.5075,273.34 219.3925,272.935 220.0975,272.875 C220.3675,272.86 220.6225,272.875 220.8625,272.92 C221.7475,273.055 222.3625,273.52 222.6925,274.285 C223.1875,273.325 223.9975,272.845 225.1225,272.845 C226.8625,272.845 227.8225,273.97 227.8225,275.95 L227.8225,280 L226.4575,280 L226.4575,276.04 C226.4575,274.885 225.8575,274.18 224.8525,274.18 Z M231.3625,280 L230.0125,280 L230.0125,272.995 L231.3625,272.995 L231.3625,280 Z M230.0125,271.045 C229.6525,270.7 229.6525,270.13 230.0125,269.785 C230.3875,269.44 230.9875,269.44 231.3475,269.785 C231.7225,270.13 231.7225,270.7 231.3475,271.045 C230.9875,271.39 230.3875,271.39 230.0125,271.045 Z M235.0075,276.22 L235.0075,280 L233.6425,280 L233.6425,272.995 L235.0075,272.995 L235.0075,274.045 C235.4125,273.265 236.3425,272.845 237.1975,272.845 C238.9375,272.845 239.8975,273.97 239.8975,275.95 L239.8975,280 L238.5325,280 L238.5325,276.04 C238.5325,274.885 237.9475,274.18 236.9875,274.18 C235.8925,274.18 235.0075,274.84 235.0075,276.22 Z M247.6375,278.86 C247.6375,278.860581 247.637503,278.861167 247.637507,278.861758 L247.6375,278.86 Z M247.637495,278.860009 C247.232492,279.655004 246.197496,280.15 245.1775,280.15 C244.1875,280.15 243.3475,279.82 242.6575,279.145 C241.9675,278.47 241.6225,277.6 241.6225,276.52 C241.6225,275.425 241.9675,274.54 242.6575,273.865 C243.3475,273.19 244.1875,272.845 245.1775,272.845 C246.1975,272.845 247.2025,273.31 247.6375,274.09 L247.6375,272.995 L248.9875,272.995 L248.9875,278.935 C248.9875,281.98 247.7125,283.495 245.1625,283.495 C243.8425,283.495 242.6575,282.805 241.9975,281.605 C242.0725,281.575 242.2675,281.47 242.5975,281.29 L243.1375,281.005 C243.5425,281.77 244.3675,282.205 245.1625,282.205 C246.8275,282.205 247.6525,281.14 247.6525,279.025 C247.6525,278.980581 247.637885,278.906932 247.637507,278.861758 L247.637495,278.860009 Z M247.6225,276.505 C247.6225,275.785 247.3975,275.215 246.9475,274.81 C246.4975,274.39 245.9425,274.18 245.2975,274.18 C244.6525,274.18 244.1125,274.405 243.6775,274.84 C243.2425,275.275 243.0175,275.83 243.0175,276.505 C243.0175,277.21 243.2275,277.765 243.6625,278.185 C244.0975,278.605 244.6525,278.815 245.2975,278.815 C245.9125,278.815 246.4525,278.605 246.9175,278.185 C247.3825,277.765 247.6225,277.21 247.6225,276.505 Z M262.0525,280 L260.7025,280 L260.7025,278.92 C260.2375,279.7 259.2625,280.15 258.2425,280.15 C257.2525,280.15 256.4125,279.805 255.7225,279.13 C255.0325,278.455 254.6875,277.57 254.6875,276.49 C254.6875,275.395 255.0325,274.525 255.7225,273.85 C256.4125,273.175 257.2525,272.845 258.2425,272.845 C259.2625,272.845 260.2675,273.28 260.7025,274.045 L260.7025,272.995 L262.0525,272.995 L262.0525,280 Z M260.6875,276.475 C260.6875,275.77 260.4475,275.2 259.9825,274.795 C259.5175,274.39 258.9775,274.18 258.3625,274.18 C257.7175,274.18 257.1625,274.39 256.7275,274.825 C256.2925,275.245 256.0825,275.8 256.0825,276.475 C256.0825,277.15 256.3075,277.72 256.7425,278.155 C257.1775,278.59 257.7175,278.815 258.3625,278.815 C259.0075,278.815 259.5625,278.605 260.0125,278.185 C260.4625,277.765 260.6875,277.195 260.6875,276.475 Z M267.67,280 L267.6775,280 L267.67,280 Z M267.67,280 L266.3575,280 L263.4475,272.995 L264.8875,272.995 L267.0175,278.26 L269.1325,272.995 L270.5875,272.995 L267.6625,280 L267.67,280 Z M272.7175,275.95 L277.0675,275.95 C276.9025,274.795 276.0775,274.075 274.9375,274.075 C273.7525,274.075 272.8825,274.795 272.7175,275.95 Z M278.4175,276.475 C278.4175,276.73 278.4175,276.91 278.4025,277.015 L272.7175,277.015 C272.8825,278.17 273.7825,278.92 274.9825,278.92 C275.8375,278.92 276.6175,278.515 276.9925,277.84 C277.1275,277.885 277.3225,277.975 277.5925,278.08 L278.1625,278.29 C277.5775,279.49 276.3325,280.15 274.9375,280.15 C273.9175,280.15 273.0625,279.805 272.3725,279.13 C271.6975,278.455 271.3525,277.57 271.3525,276.475 C271.3525,275.38 271.6975,274.51 272.3725,273.85 C273.0625,273.175 273.9175,272.845 274.9375,272.845 C275.9425,272.845 276.7825,273.175 277.4275,273.85 C278.0875,274.51 278.4175,275.38 278.4175,276.475 Z M283.3975,272.845 C284.5075,272.845 285.4075,273.22 286.0975,273.97 L285.0625,274.84 C284.6275,274.405 284.0725,274.18 283.3975,274.18 C282.7525,274.18 282.1975,274.39 281.7325,274.825 C281.2675,275.245 281.0425,275.8 281.0425,276.475 C281.0425,277.165 281.2675,277.735 281.7325,278.17 C282.1975,278.605 282.7525,278.83 283.3975,278.83 C284.0725,278.83 284.6275,278.605 285.0625,278.14 L286.1125,279.01 C285.4075,279.775 284.5075,280.15 283.3975,280.15 C282.3625,280.15 281.4925,279.805 280.7725,279.13 C280.0525,278.44 279.6925,277.555 279.6925,276.475 C279.6925,275.395 280.0525,274.525 280.7725,273.85 C281.4925,273.175 282.3625,272.845 283.3975,272.845 Z M144.19,291.775 L144.19,287.995 L145.555,287.995 L145.555,295 L144.19,295 L144.19,293.95 C143.785,294.73 142.87,295.15 142.015,295.15 C140.275,295.15 139.3,294.025 139.315,292.045 L139.315,287.995 L140.68,287.995 L140.68,291.955 C140.68,293.11 141.25,293.815 142.21,293.815 C143.335,293.815 144.19,293.17 144.19,291.775 Z M149.185,291.22 L149.185,295 L147.82,295 L147.82,287.995 L149.185,287.995 L149.185,289.045 C149.59,288.265 150.52,287.845 151.375,287.845 C153.115,287.845 154.075,288.97 154.075,290.95 L154.075,295 L152.71,295 L152.71,291.04 C152.71,289.885 152.125,289.18 151.165,289.18 C150.07,289.18 149.185,289.84 149.185,291.22 Z M161.515,295 L160.165,295 L160.165,287.995 L161.515,287.995 L161.515,295 Z M160.165,286.045 C159.805,285.7 159.805,285.13 160.165,284.785 C160.54,284.44 161.14,284.44 161.5,284.785 C161.875,285.13 161.875,285.7 161.5,286.045 C161.14,286.39 160.54,286.39 160.165,286.045 Z M165.16,291.22 L165.16,295 L163.795,295 L163.795,287.995 L165.16,287.995 L165.16,289.045 C165.565,288.265 166.495,287.845 167.35,287.845 C169.09,287.845 170.05,288.97 170.05,290.95 L170.05,295 L168.685,295 L168.685,291.04 C168.685,289.885 168.1,289.18 167.14,289.18 C166.045,289.18 165.16,289.84 165.16,291.22 Z M179.2,295 L177.835,295 L177.835,285.49 L175.54,285.49 C174.655,285.49 174.22,286.09 174.235,287.29 L174.235,287.995 L175.855,287.995 L175.855,289.15 L174.235,289.15 L174.235,295 L172.855,295 L172.855,289.15 L171.505,289.15 L171.505,287.995 L172.855,287.995 L172.855,287.29 C172.855,285.355 173.725,284.185 175.54,284.185 L179.2,284.185 L179.2,295 Z M186.28,291.775 L186.28,287.995 L187.645,287.995 L187.645,295 L186.28,295 L186.28,293.95 C185.875,294.73 184.96,295.15 184.105,295.15 C182.365,295.15 181.39,294.025 181.405,292.045 L181.405,287.995 L182.77,287.995 L182.77,291.955 C182.77,293.11 183.34,293.815 184.3,293.815 C185.425,293.815 186.28,293.17 186.28,291.775 Z M190.81,290.95 L195.16,290.95 C194.995,289.795 194.17,289.075 193.03,289.075 C191.845,289.075 190.975,289.795 190.81,290.95 Z M196.51,291.475 C196.51,291.73 196.51,291.91 196.495,292.015 L190.81,292.015 C190.975,293.17 191.875,293.92 193.075,293.92 C193.93,293.92 194.71,293.515 195.085,292.84 C195.22,292.885 195.415,292.975 195.685,293.08 L196.255,293.29 C195.67,294.49 194.425,295.15 193.03,295.15 C192.01,295.15 191.155,294.805 190.465,294.13 C189.79,293.455 189.445,292.57 189.445,291.475 C189.445,290.38 189.79,289.51 190.465,288.85 C191.155,288.175 192.01,287.845 193.03,287.845 C194.035,287.845 194.875,288.175 195.52,288.85 C196.18,289.51 196.51,290.38 196.51,291.475 Z M199.615,291.22 L199.615,295 L198.25,295 L198.25,287.995 L199.615,287.995 L199.615,289.045 C200.02,288.265 200.95,287.845 201.805,287.845 C203.545,287.845 204.505,288.97 204.505,290.95 L204.505,295 L203.14,295 L203.14,291.04 C203.14,289.885 202.555,289.18 201.595,289.18 C200.5,289.18 199.615,289.84 199.615,291.22 Z M209.935,287.845 C211.045,287.845 211.945,288.22 212.635,288.97 L211.6,289.84 C211.165,289.405 210.61,289.18 209.935,289.18 C209.29,289.18 208.735,289.39 208.27,289.825 C207.805,290.245 207.58,290.8 207.58,291.475 C207.58,292.165 207.805,292.735 208.27,293.17 C208.735,293.605 209.29,293.83 209.935,293.83 C210.61,293.83 211.165,293.605 211.6,293.14 L212.65,294.01 C211.945,294.775 211.045,295.15 209.935,295.15 C208.9,295.15 208.03,294.805 207.31,294.13 C206.59,293.44 206.23,292.555 206.23,291.475 C206.23,290.395 206.59,289.525 207.31,288.85 C208.03,288.175 208.9,287.845 209.935,287.845 Z M215.095,290.95 L219.445,290.95 C219.28,289.795 218.455,289.075 217.315,289.075 C216.13,289.075 215.26,289.795 215.095,290.95 Z M220.795,291.475 C220.795,291.73 220.795,291.91 220.78,292.015 L215.095,292.015 C215.26,293.17 216.16,293.92 217.36,293.92 C218.215,293.92 218.995,293.515 219.37,292.84 C219.505,292.885 219.7,292.975 219.97,293.08 L220.54,293.29 C219.955,294.49 218.71,295.15 217.315,295.15 C216.295,295.15 215.44,294.805 214.75,294.13 C214.075,293.455 213.73,292.57 213.73,291.475 C213.73,290.38 214.075,289.51 214.75,288.85 C215.44,288.175 216.295,287.845 217.315,287.845 C218.32,287.845 219.16,288.175 219.805,288.85 C220.465,289.51 220.795,290.38 220.795,291.475 Z M227.335,291.775 L227.335,287.995 L228.7,287.995 L228.7,295 L227.335,295 L227.335,293.95 C226.93,294.73 226.015,295.15 225.16,295.15 C223.42,295.15 222.445,294.025 222.46,292.045 L222.46,287.995 L223.825,287.995 L223.825,291.955 C223.825,293.11 224.395,293.815 225.355,293.815 C226.48,293.815 227.335,293.17 227.335,291.775 Z M232.33,292.45 L232.33,295 L230.965,295 L230.965,287.995 L232.33,287.995 L232.33,289.57 C232.675,288.415 233.32,287.845 234.28,287.845 C234.835,287.845 235.24,287.935 235.495,288.115 L235.285,289.39 C234.955,289.225 234.61,289.15 234.25,289.15 C232.975,289.15 232.33,290.47 232.33,292.45 Z" id="Une-expérience-gamin" fill="#A2ACCC"></path>
            </g>
        </g>
    </g>
</svg>