<?xml version="1.0" encoding="UTF-8"?>
<svg width="359px" height="254px" viewBox="0 0 359 254" version="1.1" xmlns="http://www.w3.org/2000/svg" xmlns:xlink="http://www.w3.org/1999/xlink">
    <!-- Generator: Sketch 49.1 (51147) - http://www.bohemiancoding.com/sketch -->
    <title>Group 6</title>
    <desc>Created with Sketch.</desc>
    <defs>
        <path d="M4,0 L118,0 C120.209139,-4.05812251e-16 122,1.790861 122,4 L122,155 C122,157.209139 120.209139,159 118,159 L4,159 C1.790861,159 2.705415e-16,157.209139 0,155 L0,4 C-2.705415e-16,1.790861 1.790861,4.05812251e-16 4,0 Z M136,0 L250,0 C252.209139,-4.05812251e-16 254,1.790861 254,4 L254,155 C254,157.209139 252.209139,159 250,159 L136,159 C133.790861,159 132,157.209139 132,155 L132,4 C132,1.790861 133.790861,4.05812251e-16 136,0 Z" id="path-1"></path>
        <linearGradient x1="100%" y1="100%" x2="40.5977753%" y2="31.5030932%" id="linearGradient-3">
            <stop stop-color="#AE7CF9" offset="0%"></stop>
            <stop stop-color="#BC7DFE" offset="100%"></stop>
        </linearGradient>
    </defs>
    <g id="Page-1" stroke="none" stroke-width="1" fill="none" fill-rule="evenodd">
        <g id="Artboard-3" transform="translate(-331.000000, -242.000000)">
            <g id="Group-6" transform="translate(331.000000, 242.000000)">
                <path d="M40,206 L56,206 L52.7858598,230.056896 C52.3312732,233.459343 49.4285943,236 45.9959134,236 L45.9959134,236 C42.6844619,236 40,233.315538 40,230.004087 L40,206 Z" id="Rectangle-27-Copy-2" fill="#7C89B7"></path>
                <path d="M216,206 L232,206 L228.78586,230.056896 C228.331273,233.459343 225.428594,236 221.995913,236 L221.995913,236 C218.684462,236 216,233.315538 216,230.004087 L216,206 Z" id="Rectangle-27-Copy-3" fill="#7C89B7" transform="translate(224.000000, 221.000000) scale(-1, 1) translate(-224.000000, -221.000000) "></path>
                <path d="M70.3808746,129 L202.159327,129 C211.334913,129 219.448142,134.957119 222.195718,143.711672 L243,210 L37,210 L49.7865207,145.892374 C51.7453588,136.071371 60.3664276,129 70.3808746,129 Z" id="Rectangle-26-Copy" fill="#7C89B7"></path>
                <g id="Group-4">
                    <rect id="Rectangle-30" fill="#E3EBFF" x="0" y="0" width="272" height="174" rx="4"></rect>
                    <rect id="Rectangle-30" fill="#F0F4FF" x="2" y="0" width="268" height="172" rx="4"></rect>
                    <g id="Group-18-Copy" transform="translate(10.000000, 7.000000)">
                        <mask id="mask-2" fill="white">
                            <use xlink:href="#path-1"></use>
                        </mask>
                        <use id="Mask" fill="#7C89B7" xlink:href="#path-1"></use>
                        <g mask="url(#mask-2)">
                            <g transform="translate(137.000000, 149.000000) scale(-1, 1) translate(-137.000000, -149.000000) translate(11.000000, 23.000000)">
                                <circle id="Oval-5" fill="#FFFFFF" cx="126" cy="126" r="126"></circle>
                                <circle id="Oval-5-Copy-2" fill="#F0F4FF" cx="137" cy="119" r="115"></circle>
                                <path d="M47.4062777,75.3425594 C39.3700581,70.8341734 37.598386,58.5194456 43.4491372,47.8368451 C49.2998885,37.1542445 60.5575027,32.1490547 68.5937223,36.6574406 C76.6299419,41.1658266 78.401614,53.4805544 72.5508628,64.1631549 C66.7001115,74.8457555 55.4424973,79.8509453 47.4062777,75.3425594 Z" id="Oval-6-Copy" fill="#C9D9FF"></path>
                                <path d="M44,76.8240135 C44.8199865,77.520273 45.7149665,78.1383494 46.6833226,78.6676789 C56.5634624,84.068429 70.3407329,78.1853617 77.4557176,65.5274803 C83.4574756,54.8500799 82.8014998,42.7627088 76.5190039,36 C84.0653417,42.4076785 85.26008,55.4371016 78.8424376,66.8543794 C71.7274529,79.5122608 57.9501823,85.395328 48.0700425,79.9945779 C46.5241733,79.1495642 45.165299,78.078384 44,76.8240135 Z" id="Combined-Shape" fill="#BACDFB"></path>
                                <path d="M70,37.8633631 C62.1218466,34.3122449 51.6956928,39.3235973 46.1815108,49.5569761 C40.8549605,59.4421423 41.974209,70.7436662 48.4582028,76 C48.0944125,75.8360197 47.7360554,75.6537814 47.383866,75.4529562 C39.4047488,70.9031098 37.6129416,58.5358623 43.3817526,47.8299358 C49.1505636,37.1240092 60.2954614,32.1335202 68.2745786,36.6833666 C68.8862906,37.0321765 69.4616373,37.4269323 70,37.8633631 Z" id="Combined-Shape" fill="#BACDFB"></path>
                                <circle id="Oval-9" fill="#C9D9FF" cx="153.5" cy="76.5" r="36.5"></circle>
                                <path d="M131.649551,106 C122.766823,99.3527782 117,88.6272662 117,76.527733 C117,56.3540231 133.03138,40 152.807089,40 C163.147203,40 172.463645,44.4710658 179,51.6214325 C173.072439,47.1856545 165.757345,44.5659666 157.842461,44.5659666 C138.066752,44.5659666 122.035372,60.9199897 122.035372,81.0936996 C122.035372,90.7191938 125.684973,99.4751226 131.649551,106 Z" id="Combined-Shape" fill="#BACDFB"></path>
                                <path d="M121,106.721583 C129.059794,114.267059 139.89249,118.886754 151.804174,118.886754 C176.702595,118.886754 196.886754,98.7025954 196.886754,73.8041739 C196.886754,61.8924902 192.267059,51.0597942 184.721583,43 C193.508799,51.2264772 199,62.9306791 199,75.9174198 C199,100.815841 178.815841,121 153.91742,121 C140.930679,121 129.226477,115.508799 121.000006,106.721588 L121,106.721583 Z" id="Combined-Shape" fill="#BACDFB"></path>
                            </g>
                        </g>
                    </g>
                    <path d="M14,11 L14,162 L128,162 L128,11 L14,11 Z" id="Rectangle-30-Copy" stroke="#D3E0FF" stroke-width="8"></path>
                    <path d="M146,11 L146,162 L260,162 L260,11 L146,11 Z" id="Rectangle-30-Copy-3" stroke="#D3E0FF" stroke-width="8"></path>
                </g>
                <g id="Group-Copy" transform="translate(41.000000, 115.000000)">
                    <path d="M23.5550444,0 L79.415351,0 C85.7845352,-1.17000016e-15 91.0441521,4.97593478 91.3969297,11.3353417 L94.2815441,63.3353417 C94.6486247,69.9525849 89.5818669,75.6144981 82.9646237,75.9815787 C82.7432836,75.9938572 82.5216457,76 82.2999653,76 L12.0741525,76 C5.44673548,76 0.0741524749,70.627417 0.0741524749,64 C0.0741524749,63.1299429 0.168776576,62.2624661 0.356355812,61.4128701 L11.8372477,9.41287005 C13.0511584,3.91474728 17.9245086,1.03431264e-15 23.5550444,0 Z" id="Rectangle-23" fill="#8F9ED3"></path>
                    <ellipse id="Oval-16" fill="#7C89B7" cx="28" cy="26.3888889" rx="4" ry="4.22222222"></ellipse>
                    <ellipse id="Oval-16-Copy-2" fill="#7C89B7" cx="24" cy="52.7777778" rx="4" ry="4.22222222"></ellipse>
                    <ellipse id="Oval-16-Copy" fill="#7C89B7" cx="68" cy="26.3888889" rx="4" ry="4.22222222"></ellipse>
                    <ellipse id="Oval-16-Copy-3" fill="#7C89B7" cx="68" cy="52.7777778" rx="4" ry="4.22222222"></ellipse>
                </g>
                <g id="Group-Copy-2" transform="translate(185.500000, 153.000000) scale(-1, 1) translate(-185.500000, -153.000000) translate(138.000000, 115.000000)">
                    <path d="M23.5550444,0 L79.415351,0 C85.7845352,-1.17000016e-15 91.0441521,4.97593478 91.3969297,11.3353417 L94.2815441,63.3353417 C94.6486247,69.9525849 89.5818669,75.6144981 82.9646237,75.9815787 C82.7432836,75.9938572 82.5216457,76 82.2999653,76 L12.0741525,76 C5.44673548,76 0.0741524749,70.627417 0.0741524749,64 C0.0741524749,63.1299429 0.168776576,62.2624661 0.356355812,61.4128701 L11.8372477,9.41287005 C13.0511584,3.91474728 17.9245086,1.03431264e-15 23.5550444,0 Z" id="Rectangle-23" fill="#8F9ED3"></path>
                    <ellipse id="Oval-16" fill="#7C89B7" cx="28" cy="26.3888889" rx="4" ry="4.22222222"></ellipse>
                    <ellipse id="Oval-16-Copy-2" fill="#7C89B7" cx="24" cy="52.7777778" rx="4" ry="4.22222222"></ellipse>
                    <ellipse id="Oval-16-Copy" fill="#7C89B7" cx="68" cy="26.3888889" rx="4" ry="4.22222222"></ellipse>
                    <ellipse id="Oval-16-Copy-3" fill="#7C89B7" cx="68" cy="52.7777778" rx="4" ry="4.22222222"></ellipse>
                </g>
                <path d="M134.794703,174.624432 L135.031509,178.915774 C135.396668,185.533124 130.328267,191.193566 123.710917,191.558725 C123.490734,191.570876 123.270256,191.576954 123.049738,191.576954 L52.8033384,191.576954 C46.1759214,191.576954 40.8033384,186.204371 40.8033384,179.576954 C40.8033384,178.711332 40.8970004,177.84825 41.0826891,177.002779 L41.3558432,175.759062 C42.8880403,180.622432 47.4338436,184.149074 52.8033384,184.149074 L123.049738,184.149074 C123.270256,184.149074 123.490734,184.142995 123.710917,184.130845 C129.251166,183.825122 133.705671,179.807643 134.794703,174.624432 Z" id="Combined-Shape-Copy-3" fill="#8B97C5"></path>
                <path d="M232.794703,174.624432 L233.031509,178.915774 C233.396668,185.533124 228.328267,191.193566 221.710917,191.558725 C221.490734,191.570876 221.270256,191.576954 221.049738,191.576954 L150.803338,191.576954 C144.175921,191.576954 138.803338,186.204371 138.803338,179.576954 C138.803338,178.711332 138.897,177.84825 139.082689,177.002779 L139.355843,175.759062 C140.88804,180.622432 145.433844,184.149074 150.803338,184.149074 L221.049738,184.149074 C221.270256,184.149074 221.490734,184.142995 221.710917,184.130845 C227.251166,183.825122 231.705671,179.807643 232.794703,174.624432 Z" id="Combined-Shape-Copy-4" fill="#8B97C5"></path>
                <rect id="Rectangle-24-Copy-4" fill="#8F9ED3" x="43" y="184" width="95" height="26" rx="11"></rect>
                <path d="M138,199 C138,192.924868 133.075132,188 127,188 L55,188 C48.9248678,188 44,192.924868 44,199 L44,195 C44,188.924868 48.9248678,184 55,184 L127,184 C133.075132,184 138,188.924868 138,195 L138,199 Z" id="Combined-Shape-Copy-5" fill="#8A98C8" opacity="0.510190217"></path>
                <rect id="Rectangle-24-Copy-5" fill="#8F9ED3" x="135" y="184" width="94" height="26" rx="11"></rect>
                <path d="M47.1232538,208 L225.102186,208 L230.257232,165.905988 C230.810009,161.392236 234.643019,158 239.190492,158 L245.22544,158 C250.196002,158 254.22544,162.029437 254.22544,167 L254.22544,208 C254.22544,212.970563 250.196002,217 245.22544,217 L27,217 C22.0294373,217 18,212.970563 18,208 L18,167 C18,162.029437 22.0294373,158 27,158 L33.0349472,158 C37.5824204,158 41.4154305,161.392236 41.9682074,165.905988 L47.1232538,208 Z" id="Combined-Shape-Copy-6" fill="#8F9ED3"></path>
                <path d="M229,199 C229,192.924868 224.075132,188 218,188 L146,188 C139.924868,188 135,192.924868 135,199 L135,195 C135,188.924868 139.924868,184 146,184 L218,184 C224.075132,184 229,188.924868 229,195 L229,199 Z" id="Combined-Shape-Copy-7" fill="#8A98C8" opacity="0.510190217"></path>
                <path d="M49.8783237,208 L225.102186,208 L230.257232,165.905988 C230.810009,161.392236 234.643019,158 239.190492,158 L245.22544,158 C247.722387,158 249.981839,159.016839 251.612295,160.659016 C250.566846,160.234086 249.42348,160 248.22544,160 L242.190492,160 C237.643019,160 233.810009,163.392236 233.257232,167.905988 L228.102186,210 L50.1232538,210 L49.8783237,208 Z M23.6131446,216.340984 C20.3211169,215.00292 18,211.772523 18,208 L18,167 C18,162.029437 22.0294373,158 27,158 L33.0349472,158 C35.5162011,158 37.7847479,159.009923 39.4237942,160.660904 C38.3744594,160.234016 37.2293472,160 36.0349472,160 L30,160 C25.0294373,160 21,164.029437 21,169 L21,210 C21,212.473615 21.9979242,214.714153 23.6131446,216.340984 Z" id="Combined-Shape-Copy-8" fill="#8A98C8"></path>
                <g id="Group" transform="translate(146.000000, 153.000000)">
                    <ellipse id="Oval-12" fill="#F0F4FF" cx="37" cy="22.5" rx="37" ry="22.5"></ellipse>
                    <path d="M0.272367782,20 C2.49810415,31.0246339 18.0929146,39.5652174 37,39.5652174 C55.9070854,39.5652174 71.5018959,31.0246339 73.7276322,20 C73.9074432,20.8906492 74,21.7975108 74,22.7173913 C74,35.0237363 57.4345357,45 37,45 C16.5654643,45 0,35.0237363 0,22.7173913 C0,21.7975108 0.0925567877,20.8906492 0.272367782,20 Z" id="Combined-Shape" fill="#C9D9FF" opacity="0.307971014"></path>
                </g>
                <g id="Group-2" transform="translate(154.000000, 98.000000)">
                    <g id="Group" transform="translate(0.000000, 41.000000)">
                        <ellipse id="Oval-12" fill="#F0F4FF" cx="28.5" cy="17.5" rx="28.5" ry="17.5"></ellipse>
                        <path d="M0.209796805,15.3658537 C1.92421535,24.0242247 13.9364342,30.7317073 28.5,30.7317073 C43.0635658,30.7317073 55.0757846,24.0242247 56.7902032,15.3658537 C56.9287063,16.0653392 57,16.7775573 57,17.5 C57,27.1649831 44.2401154,35 28.5,35 C12.7598846,35 0,27.1649831 0,17.5 C0,16.7775573 0.0712937419,16.0653392 0.209796805,15.3658537 Z" id="Combined-Shape" fill="#C9D9FF" opacity="0.307971014"></path>
                    </g>
                    <path d="M8.14277793,32 C9.34560989,41.7617894 18.0011238,49.3333333 28.5,49.3333333 C38.9988762,49.3333333 47.6543901,41.7617894 48.8572221,32 C48.9515068,32.7651842 49,33.5438259 49,34.3333333 C49,45.1949334 39.8218374,54 28.5,54 C17.1781626,54 8,45.1949334 8,34.3333333 C8,33.5438259 8.04849318,32.7651842 8.14277793,32 Z" id="Combined-Shape" fill="#C9D9FF"></path>
                    <circle id="Oval-10" fill="#F0F4FF" cx="28.5" cy="25.5" r="25.5"></circle>
                    <g id="Group-3" transform="translate(11.000000, 14.000000)">
                        <circle id="Oval-10-Copy-3" fill="#AE7CF9" cx="17" cy="17" r="17"></circle>
                        <path d="M11.5344873,30.5824493 C6.25945044,28.3908914 2.55,23.189081 2.55,17.120882 C2.55,9.07360608 9.07360608,2.55 17.120882,2.55 C20.6232719,2.55 23.8370446,3.7857167 26.3499972,5.84494702 C24.6296035,5.13019476 22.7426805,4.7356323 20.7636025,4.7356323 C12.7163266,4.7356323 6.1927205,11.2592384 6.1927205,19.3065143 C6.1927205,23.8514004 8.27354735,27.9102833 11.5344873,30.5824493 Z" id="Combined-Shape" fill="#A468FF"></path>
                    </g>
                    <path d="M17.3586575,45 C10.6225881,41.5293255 6,34.3771948 6,26.1175166 C6,14.4546342 15.2166,5 26.5858522,5 C31.7101167,5 36.3970876,6.9206313 40,10.0984253 C37.2245626,8.66841632 34.0903288,7.86339208 30.7728052,7.86339208 C19.403553,7.86339208 10.186953,17.3180263 10.186953,28.9809087 C10.186953,35.3871838 12.9677553,41.1271935 17.3586575,45 Z" id="Combined-Shape" fill="#C9D9FF"></path>
                    <circle id="Oval-10" fill="#F0F4FF" opacity="0.303158967" cx="28.5" cy="25.5" r="25.5"></circle>
                    <circle id="Oval-14" fill="#C2A0FA" cx="16.5" cy="61.5" r="5.5"></circle>
                    <circle id="Oval-14-Copy" fill="#C2A0FA" cx="42.5" cy="61.5" r="5.5"></circle>
                    <path d="M22.2388866,58 L35.2772811,58 C36.1515192,58 36.9660074,58.4187491 37.44012,59.1119705 L39.5882583,62.2528601 C40.3592846,63.3802124 40.0159889,64.8840147 38.8214859,65.6116966 C38.4053946,65.8651763 37.9206629,66 37.4254193,66 L20.5742716,66 C19.1525407,66 18,64.9122511 18,63.5704448 C18,63.1931446 18.0931083,62.8210295 18.2719465,62.4835874 L19.9365615,59.3426978 C20.3726915,58.5197832 21.2639642,58 22.2388866,58 Z" id="Rectangle-16" fill="#E3EBFF"></path>
                    <path d="M39.8528406,62 C40.2427422,63.2806436 39.8439516,64.7516506 38.8214859,65.5206219 C38.4053946,65.833554 37.9206629,66 37.4254193,66 L20.5742716,66 C19.1525407,66 18,64.6571246 18,63.0006039 C18,62.6595511 18.0499164,62.32193 18.146853,62.0020307 C18.5005427,63.1663483 19.4538107,64.0004026 20.5742716,64.0004026 L37.4254193,64.0004026 C37.9206629,64.0004026 38.4053946,63.8339565 38.8214859,63.5210245 C39.3197363,63.1463026 39.6698862,62.6048726 39.8528406,62 Z" id="Combined-Shape" fill="#C9D9FF"></path>
                    <circle id="Oval-15" fill="#BACDFB" cx="22.5" cy="59.5" r="1.5"></circle>
                    <circle id="Oval-15-Copy" fill="#BACDFB" cx="32.5" cy="58.5" r="1"></circle>
                    <circle id="Oval-15-Copy-2" fill="#BACDFB" cx="35.5" cy="60.5" r="1"></circle>
                    <path d="M28.7352714,65 C29.5784238,66.1728353 30,67.5935498 30,69.2621436 C30,71.7650343 27.2684896,72.9759627 27.0266737,75.0290391 C26.8654631,76.3977566 27.4349957,78.0547436 28.7352714,80" id="Path-21" stroke="#C9D9FF" stroke-linecap="round"></path>
                </g>
                <g id="Group" transform="translate(162.704427, 189.239961) rotate(-105.000000) translate(-162.704427, -189.239961) translate(149.204427, 180.739961)">
                    <ellipse id="Oval-12" fill="#C9D9FF" cx="13.3956025" cy="8.37225154" rx="13.3956025" ry="8.37225154"></ellipse>
                    <path d="M0.0986089332,7.81410143 C0.904421892,11.7522778 6.55041869,14.8031114 13.3956025,14.8031114 C20.2407862,14.8031114 25.886783,11.7522778 26.692596,7.81410143 C26.7576953,8.13225565 26.7912049,8.45620117 26.7912049,8.78479726 C26.7912049,13.1808214 20.7937894,16.7445031 13.3956025,16.7445031 C5.99741551,16.7445031 0,13.1808214 0,8.78479726 C0,8.45620117 0.0335095658,8.13225565 0.0986089332,7.81410143 Z" id="Combined-Shape" fill="#A1B8EE" opacity="0.307971014"></path>
                </g>
                <g id="Group" transform="translate(199.704427, 188.239961) scale(-1, 1) rotate(-105.000000) translate(-199.704427, -188.239961) translate(186.204427, 179.739961)">
                    <ellipse id="Oval-12" fill="#C9D9FF" cx="13.3956025" cy="8.37225154" rx="13.3956025" ry="8.37225154"></ellipse>
                    <path d="M0.0986089332,7.81410143 C0.904421892,11.7522778 6.55041869,14.8031114 13.3956025,14.8031114 C20.2407862,14.8031114 25.886783,11.7522778 26.692596,7.81410143 C26.7576953,8.13225565 26.7912049,8.45620117 26.7912049,8.78479726 C26.7912049,13.1808214 20.7937894,16.7445031 13.3956025,16.7445031 C5.99741551,16.7445031 0,13.1808214 0,8.78479726 C0,8.45620117 0.0335095658,8.13225565 0.0986089332,7.81410143 Z" id="Combined-Shape" fill="#A1B8EE" opacity="0.307971014"></path>
                </g>
                <ellipse id="Oval-17" fill="#D3E0FF" cx="166" cy="249.5" rx="7" ry="4.5"></ellipse>
                <ellipse id="Oval-17-Copy" fill="#D3E0FF" cx="195" cy="249.5" rx="7" ry="4.5"></ellipse>
                <ellipse id="Oval-18" fill="#D3E0FF" cx="180.5" cy="243" rx="21.5" ry="8"></ellipse>
                <g id="Group-4" transform="translate(165.000000, 118.000000)" fill="#FFFFFF" fill-rule="nonzero">
                    <path d="M31.6462981,10.7784124 C31.3222608,11.7121041 30.2661976,12.2184025 29.287515,11.9092614 C28.3088324,11.6001203 27.7781376,10.5926052 28.1021749,9.65891349 C28.2106604,9.34631976 28.2666667,9.01702846 28.2666667,8.67820423 C28.2666667,6.9570114 26.8041302,5.56170892 25,5.56170892 C23.1958698,5.56170892 21.7333333,6.9570114 21.7333333,8.67820423 C21.7333333,8.98926896 21.7805325,9.29228605 21.8722475,9.58183488 C22.1704659,10.5233247 21.6122144,11.5171932 20.625358,11.8017022 C19.6385016,12.0862112 18.5967426,11.553623 18.2985242,10.6121332 C18.1012637,9.98937207 18,9.33926232 18,8.67820423 C18,4.98993388 21.1340068,2 25,2 C28.8659932,2 32,4.98993388 32,8.67820423 C32,9.39864131 31.8797234,10.1058131 31.6462981,10.7784124 Z" id="Oval-11" transform="translate(25.000000, 7.000000) rotate(15.000000) translate(-25.000000, -7.000000) "></path>
                    <path d="M15.6462981,10.7784124 C15.3222608,11.7121041 14.2661976,12.2184025 13.287515,11.9092614 C12.3088324,11.6001203 11.7781376,10.5926052 12.1021749,9.65891349 C12.2106604,9.34631976 12.2666667,9.01702846 12.2666667,8.67820423 C12.2666667,6.9570114 10.8041302,5.56170892 9,5.56170892 C7.19586982,5.56170892 5.73333333,6.9570114 5.73333333,8.67820423 C5.73333333,8.98926896 5.78053247,9.29228605 5.87224751,9.58183488 C6.17046588,10.5233247 5.61221443,11.5171932 4.62535799,11.8017022 C3.63850155,12.0862112 2.59674259,11.553623 2.29852422,10.6121332 C2.10126366,9.98937207 2,9.33926232 2,8.67820423 C2,4.98993388 5.13400675,2 9,2 C12.8659932,2 16,4.98993388 16,8.67820423 C16,9.39864131 15.8797234,10.1058131 15.6462981,10.7784124 Z" id="Oval-11" transform="translate(9.000000, 7.000000) rotate(-15.000000) translate(-9.000000, -7.000000) "></path>
                </g>
                <circle id="Oval-19" fill="#D3E0FF" cx="325" cy="33" r="4"></circle>
                <path d="M296,32 L357,32 C358.104569,32 359,32.8954305 359,34 L359,110 C359,111.104569 358.104569,112 357,112 L296,112 C294.895431,112 294,111.104569 294,110 L294,34 C294,32.8954305 294.895431,32 296,32 Z M300,37 C298.895431,37 298,37.8954305 298,39 L298,105 C298,106.104569 298.895431,107 300,107 L353,107 C354.104569,107 355,106.104569 355,105 L355,39 C355,37.8954305 354.104569,37 353,37 L300,37 Z" id="Combined-Shape" fill="#E3EBFF"></path>
                <path d="M296,32 L355,32 C356.104569,32 357,32.8954305 357,34 L357,108 C357,109.104569 356.104569,110 355,110 L296,110 C294.895431,110 294,109.104569 294,108 L294,34 C294,32.8954305 294.895431,32 296,32 Z M300,37 C298.895431,37 298,37.8954305 298,39 L298,103 C298,104.104569 298.895431,105 300,105 L351,105 C352.104569,105 353,104.104569 353,103 L353,39 C353,37.8954305 352.104569,37 351,37 L300,37 Z" id="Combined-Shape" fill="#F0F4FF"></path>
                <rect id="Rectangle-31" fill="#FFFFFF" x="298" y="37" width="55" height="68" rx="2"></rect>
                <rect id="Rectangle-31" fill="url(#linearGradient-3)" opacity="0.740319293" x="298" y="37" width="55" height="68" rx="2"></rect>
                <g id="Group-5" transform="translate(310.000000, 65.000000)" fill="#FFFFFF">
                    <path d="M4.08162882,10.0920647 C3.87971875,9.54574776 3.77876372,8.92543756 3.77876372,8.23144239 C3.77876372,7.53744723 3.87971875,6.91775364 4.08162882,6.37082009 C4.28382088,5.82388654 4.55792224,5.36112033 4.90421492,4.98282977 C5.2502256,4.6042309 5.64417582,4.31596547 6.08634757,4.11556704 C6.52880132,3.91609354 7.0000188,3.81620263 7.5,3.81620263 C7.98052339,3.81620263 8.44694691,3.91609354 8.89927057,4.11556704 C9.35074823,4.31596547 9.7500564,4.6042309 10.0963491,4.98282977 C10.4423598,5.36112033 10.7164611,5.82388654 10.9183712,6.37082009 C11.1205632,6.91775364 11.2215183,7.53744723 11.2215183,8.23144239 C11.2215183,8.48887729 11.2026245,8.73305507 11.1749887,8.97045013 C12.4152128,8.73428829 13.6904046,8.57643599 14.9946421,8.50521747 C14.996898,8.41395911 15,8.32362567 15,8.23144239 C15,7.03275151 14.8127538,5.92901864 14.4374154,4.91993549 C14.062641,3.91054404 13.543202,3.04328132 12.8802263,2.31814732 C12.2166867,1.59270502 11.4276583,1.02511502 10.5145511,0.615069013 C9.60087983,0.20533131 8.59640547,0 7.5,0 C6.40387652,0 5.39883817,0.20533131 4.48573094,0.615069013 C3.57177771,1.02511502 2.78359528,1.59270502 2.12005565,2.31814732 C1.45651602,3.04328132 0.937359001,3.91054404 0.562302602,4.91993549 C0.187246202,5.92901864 0,7.03275151 0,8.23144239 C0,9.42982498 0.187246202,10.5335578 0.562302602,11.5429493 C0.757162731,12.0673766 0.993194465,12.5520324 1.26644984,13 C2.31068582,12.2921311 3.42767709,11.6573306 4.6044518,11.0996063 C4.39690179,10.8030166 4.22093548,10.469122 4.08162882,10.0920647" id="Fill-2"></path>
                    <path d="M19.7787637,8.07205664 C19.7787637,7.39149933 19.8797188,6.78380489 20.0816288,6.24746164 C20.2838209,5.71111839 20.5579222,5.25731274 20.9039329,4.88634703 C21.2502256,4.51507899 21.6438938,4.23239525 22.0863476,4.03587715 C22.5288013,3.84026606 23.0000188,3.74230934 23.499718,3.74230934 C23.9805234,3.74230934 24.4469469,3.84026606 24.8992706,4.03587715 C25.3504662,4.23239525 25.7500564,4.51507899 26.0960671,4.88634703 C26.4423598,5.25731274 26.7164611,5.71111839 26.9180892,6.24746164 C27.1205632,6.78380489 27.2215183,7.39149933 27.2215183,8.07205664 C27.2215183,8.75261394 27.1205632,9.36091305 26.9180892,9.89665163 C26.8614077,10.0472147 26.7976763,10.1899171 26.729433,10.3271774 C27.9273575,10.808798 29.0671906,11.3702351 30.1444202,12 C30.2498872,11.7808067 30.3483043,11.5546597 30.4374154,11.3194427 C30.8127538,10.3295961 31,9.24723489 31,8.07205664 C31,6.89657605 30.8127538,5.81421481 30.4374154,4.82467058 C30.062359,3.83482402 29.543202,2.98435414 28.8799444,2.27326094 C28.2164047,1.56186541 27.4276583,1.00526568 26.5145511,0.603159406 C25.6008798,0.201355471 24.5964055,0 23.499718,0 C22.4038765,0 21.3988382,0.201355471 20.4857309,0.603159406 C19.5717777,1.00526568 18.7835953,1.56186541 18.1200556,2.27326094 C17.456516,2.98435414 16.937077,3.83482402 16.5623026,4.82467058 C16.1872462,5.81421481 16,6.89657605 16,8.07205664 C16,8.14582651 16.003102,8.21838704 16.004512,8.29185458 C17.2943676,8.29185458 18.5605354,8.37560152 19.7962476,8.53372301 C19.7855317,8.38346225 19.7787637,8.22987579 19.7787637,8.07205664" id="Fill-4"></path>
                </g>
                <rect id="Rectangle-25" fill="#D3E0FF" x="23" y="228" width="224" height="16" rx="8"></rect>
            </g>
        </g>
    </g>
</svg>