<?xml version="1.0" encoding="UTF-8"?>
<svg width="346px" height="457px" viewBox="0 0 346 457" version="1.1" xmlns="http://www.w3.org/2000/svg" xmlns:xlink="http://www.w3.org/1999/xlink">
    <!-- Generator: Sketch 50 (54983) - http://www.bohemiancoding.com/sketch -->
    <title>Group 7</title>
    <desc>Created with Sketch.</desc>
    <defs>
        <rect id="path-1" x="0" y="0" width="346" height="457"></rect>
    </defs>
    <g id="Page-1" stroke="none" stroke-width="1" fill="none" fill-rule="evenodd">
        <g id="Group-7">
            <mask id="mask-2" fill="white">
                <use xlink:href="#path-1"></use>
            </mask>
            <use id="Mask" fill="#D8D8D8" xlink:href="#path-1"></use>
            <g mask="url(#mask-2)">
                <g transform="translate(-50.000000, -1.000000)">
                    <rect id="Rectangle-13" stroke="none" fill="#FBFBFC" fill-rule="evenodd" x="49.0426667" y="0.298350825" width="347" height="558.701649"></rect>
                    <path d="M49.0426667,243.136481 L78.3761045,243.136481 C88.3849317,243.136481 96.4986893,251.250239 96.4986893,261.259066 L96.4986893,274.091905 C96.4986893,277.013351 98.8669891,279.381651 101.788435,279.381651 L101.788435,279.381651 C104.707409,279.381651 107.073705,277.015355 107.073705,274.096381 C107.073705,274.09489 107.073705,274.093398 107.073703,274.091907 L107.019773,210.372739 C107.016568,206.58588 110.083825,203.513427 113.870684,203.510222 C113.872618,203.51022 113.874553,203.510219 113.876487,203.510219 L113.876487,203.510219 C117.666553,203.510219 120.739009,206.582675 120.739009,210.372741 L120.739009,234.802525 C120.739009,238.97481 123.985708,242.426688 128.150171,242.682044 L128.150171,242.682044 C131.999952,242.918105 135.31218,239.988606 135.548241,236.138825 C135.556967,235.996517 135.561333,235.853975 135.561333,235.7114 L135.561333,160.079267 C135.561333,156.267201 138.651623,153.176912 142.463689,153.176912 L142.463689,153.176912 C146.275755,153.176912 149.366045,156.267201 149.366045,160.079267 L149.366045,264.332567 C149.366045,267.988531 152.329789,270.952274 155.985752,270.952274 L155.985752,270.952274 C159.641715,270.952274 162.605459,267.988531 162.605459,264.332567 L162.605459,223.326604 C162.605459,220.051891 165.260138,217.397212 168.534851,217.397212 L168.534851,217.397212 C171.809563,217.397212 174.464242,220.051891 174.464242,223.326604 L174.464242,230.266847 C174.464242,237.37455 180.226174,243.136481 187.333877,243.136481 L396.042667,243.136481 L396.042667,555.796102 C396.042667,572.916929 382.163494,586.796102 365.042667,586.796102 L80.0426667,586.796102 C62.9218394,586.796102 49.0426667,572.916929 49.0426667,555.796102 L49.0426667,243.136481 Z" id="Rectangle-14" stroke="none" fill="#7C89B7" fill-rule="evenodd"></path>
                    <ellipse id="Oval-5" stroke="none" fill="#FFFFFF" fill-rule="evenodd" opacity="0.946954257" cx="206.349333" cy="512.673163" rx="206.349333" ry="206.617691"></ellipse>
                    <ellipse id="Oval-5-Copy-2" stroke="none" fill="#F0F4FF" fill-rule="evenodd" cx="224.393333" cy="502.017991" rx="188.305333" ry="188.550225"></ellipse>
                    <path d="M210.354591,225.330651 C211.507769,221.43376 215.237126,219.502364 221.542663,219.536461 C227.8482,219.570558 228.834576,214.437215 224.501792,204.136432 L204.498667,209.098422 L205.601631,230.322115 L210.354591,225.330651 Z" id="Path-2" stroke="none" fill="#AE7CF9" fill-rule="evenodd"></path>
                    <g id="Géoloc" stroke="none" stroke-width="1" fill="none" fill-rule="evenodd" transform="translate(49.042667, 0.298351)">
                        <g id="Use-current-location" fill="#BBBBBB">
                            <polygon id="top-sep" points="0 0.231634183 347 0.231634183 347 0 0 0"></polygon>
                        </g>
                    </g>
                    <path d="M197.220301,154.620502 L198.359096,157.950537 L197.220301,161.280572 C197.041593,161.803145 197.320351,162.371645 197.842923,162.550352 C198.14719,162.654405 198.482932,162.605789 198.745186,162.419703 L203.894301,158.766089 C204.344718,158.44649 204.450767,157.822269 204.131168,157.371853 C204.066093,157.28014 203.986014,157.200061 203.894301,157.134985 L198.745186,153.481371 C198.29477,153.161772 197.670549,153.267822 197.35095,153.718238 C197.164865,153.980493 197.116249,154.316234 197.220301,154.620502 Z" id="Path-17" stroke="none" fill="#AE7CF9" fill-rule="evenodd"></path>
                    <path d="M197.220301,216.698463 L198.359096,220.028498 L197.220301,223.358533 C197.041593,223.881106 197.320351,224.449606 197.842923,224.628313 C198.14719,224.732366 198.482932,224.68375 198.745186,224.497664 L203.894301,220.84405 C204.344718,220.524451 204.450767,219.90023 204.131168,219.449814 C204.066093,219.358101 203.986014,219.278022 203.894301,219.212946 L198.745186,215.559332 C198.29477,215.239733 197.670549,215.345783 197.35095,215.796199 C197.164865,216.058454 197.116249,216.394195 197.220301,216.698463 Z" id="Path-17-Copy" stroke="none" fill="#AE7CF9" fill-rule="evenodd"></path>
                    <ellipse id="Oval-7" stroke="none" fill="#C9DAFF" fill-rule="evenodd" cx="204.961333" cy="339.410795" rx="11.5666667" ry="8.33883058"></ellipse>
                    <ellipse id="Oval-7-Copy" stroke="none" fill="#C9DAFF" fill-rule="evenodd" opacity="0.486922554" cx="204.961333" cy="339.874063" rx="19.8946667" ry="14.3613193"></ellipse>
                    <g id="Group-2" stroke="none" stroke-width="1" fill="none" fill-rule="evenodd" transform="translate(202.648000, 144.838081)">
                        <g id="Group">
                            <path d="M2.776,20.3838081 L5.552,20.3838081 C7.08514247,20.3838081 8.328,21.628282 8.328,23.1634183 L8.328,190.866567 C8.328,192.401703 7.08514247,193.646177 5.552,193.646177 L2.776,193.646177 C1.24285753,193.646177 1.87755801e-16,192.401703 0,190.866567 L0,23.1634183 C-1.87755801e-16,21.628282 1.24285753,20.3838081 2.776,20.3838081 Z" id="Rectangle" fill="#D5E0F8"></path>
                            <path d="M2.776,0 L5.552,9.19745216e-16 C7.08514247,6.04568782e-16 8.328,1.39088256 8.328,3.10662316 L8.328,190.539554 C8.328,192.255294 7.08514247,193.646177 5.552,193.646177 L2.776,193.646177 C1.24285753,193.646177 1.87755801e-16,192.255294 0,190.539554 L0,3.10662316 C-1.87755801e-16,1.39088256 1.24285753,3.15176434e-16 2.776,0 Z" id="Rectangle" fill="#D5E0F8"></path>
                            <path d="M9.47733333,4.90814373 L121.42544,4.90814373 C123.082294,4.90814373 124.42544,6.25128948 124.42544,7.90814373 C124.42544,8.4606175 124.27288,9.00236198 123.98458,9.47364786 L106.281306,38.4133054 C105.693493,39.374208 105.693493,40.583411 106.281306,41.5443136 L123.98458,70.4839711 C124.849184,71.897345 124.404318,73.7440111 122.990944,74.6086151 C122.519658,74.8969151 121.977914,75.0494753 121.42544,75.0494753 L9.47733333,75.0494753 C7.82047908,75.0494753 6.47733333,73.7063295 6.47733333,72.0494753 L6.47733333,7.90814373 C6.47733333,6.25128948 7.82047908,4.90814373 9.47733333,4.90814373 Z" id="Rectangle-2" fill="#AE7CF9"></path>
                        </g>
                        <g id="Group" transform="translate(27.760000, 26.869565)" fill="#FFFFFF">
                            <path d="M7.80552554,18.7013373 C7.41940171,17.6889719 7.2263398,16.5394915 7.2263398,15.2534675 C7.2263398,13.9674434 7.41940171,12.8191057 7.80552554,11.8055977 C8.19218865,10.7920896 8.71636793,9.93454982 9.37860265,9.23354962 C10.0402981,8.53197809 10.793671,7.99780108 11.6392606,7.62644808 C12.4853895,7.25680901 13.3865248,7.07170382 14.3426667,7.07170382 C15.2615982,7.07170382 16.1535658,7.25680901 17.0185695,7.62644808 C17.8819553,7.99780108 18.6455745,8.53197809 19.3078092,9.23354962 C19.9695047,9.93454982 20.493684,10.7920896 20.8798078,11.8055977 C21.2664709,12.8191057 21.4595328,13.9674434 21.4595328,15.2534675 C21.4595328,15.7305132 21.4234011,16.1829926 21.3705518,16.6229031 C23.7423012,16.1852778 26.1809212,15.8927659 28.675087,15.7607928 C28.6794013,15.5916844 28.6853333,15.4242898 28.6853333,15.2534675 C28.6853333,13.0322052 28.327252,10.9869071 27.6094715,9.1170019 C26.8927696,7.24652539 25.8994176,5.63942385 24.6315724,4.29569729 C23.3626487,2.95139941 21.8537458,1.89961344 20.1075601,1.13976807 C18.3602959,0.380494001 16.4393838,0 14.3426667,0 C12.2464888,0 10.3244982,0.380494001 8.57831248,1.13976807 C6.83050895,1.89961344 5.32322389,2.95139941 4.0543002,4.29569729 C2.7853765,5.63942385 1.79256369,7.24652539 1.0753225,9.1170019 C0.358081315,10.9869071 0,13.0322052 0,15.2534675 C0,17.4741584 0.358081315,19.5194565 1.0753225,21.389933 C1.44796436,22.3617353 1.89934095,23.2598382 2.42190239,24.089955 C4.41885286,22.778222 6.55493733,21.6018899 8.80534897,20.5683859 C8.40843956,20.0187835 8.07192941,19.4000522 7.80552554,18.7013373" id="Fill-2"></path>
                            <path d="M37.7623398,15.5813687 C37.7623398,14.2676992 37.9554017,13.0946759 38.3415255,12.0593806 C38.7281886,11.0240853 39.2523679,10.1481112 39.9140634,9.43204168 C40.5762981,8.7153886 41.3291317,8.16972847 42.1752606,7.79039255 C43.0213895,7.41280742 43.9225248,7.22372305 44.8781274,7.22372305 C45.7975982,7.22372305 46.6895658,7.41280742 47.5545695,7.79039255 C48.4174161,8.16972847 49.1815745,8.7153886 49.84327,9.43204168 C50.5055047,10.1481112 51.029684,11.0240853 51.4152685,12.0593806 C51.8024709,13.0946759 51.9955328,14.2676992 51.9955328,15.5813687 C51.9955328,16.8950382 51.8024709,18.0692287 51.4152685,19.1033568 C51.3068734,19.3939865 51.1849963,19.6694427 51.0544908,19.9343942 C53.3453484,20.864059 55.5251145,21.9477926 57.5851606,23.1634183 C57.786851,22.7403128 57.9750594,22.3037847 58.1454715,21.8497488 C58.863252,19.939063 59.2213333,17.8497975 59.2213333,15.5813687 C59.2213333,13.3123563 58.863252,11.2230908 58.1454715,9.31298856 C57.4282304,7.40230273 56.4354176,5.7606536 55.1670331,4.38804117 C53.8981094,3.01484515 52.3897458,1.94044911 50.6435601,1.16426947 C48.8962959,0.388673417 46.9753838,0 44.8781274,0 C42.7824888,0 40.8604982,0.388673417 39.1143125,1.16426947 C37.3665089,1.94044911 35.8592239,3.01484515 34.5903002,4.38804117 C33.3213765,5.7606536 32.3280244,7.40230273 31.6113225,9.31298856 C30.8940813,11.2230908 30.536,13.3123563 30.536,15.5813687 C30.536,15.7237656 30.5419321,15.8638281 30.5446285,16.0056413 C33.011291,16.0056413 35.4326541,16.1672968 37.7957751,16.4725163 C37.7752825,16.1824702 37.7623398,15.8860046 37.7623398,15.5813687" id="Fill-4"></path>
                        </g>
                    </g>
                    <ellipse id="Oval-6-Copy" stroke="none" fill="#C9D9FF" fill-rule="evenodd" transform="translate(93.890290, 397.759207) rotate(29.000000) translate(-93.890290, -397.759207) " cx="93.89029" cy="397.759207" rx="27.2973333" ry="35.6716642"></ellipse>
                    <path d="M72.1435344,433.356894 C73.4706683,434.505386 74.9207191,435.523697 76.4910698,436.394157 C92.4094276,445.217847 114.661236,435.507651 126.191875,414.705827 C135.909365,397.175011 134.911138,377.361218 124.828953,366.281964 C136.954733,376.775524 138.819223,398.136721 128.426085,416.886439 C116.895446,437.688262 94.6436373,447.398458 78.7252795,438.574768 C76.2221786,437.187277 74.0247303,435.424129 72.1435344,433.356894 Z" id="Combined-Shape" stroke="none" fill="#BACDFB" fill-rule="evenodd"></path>
                    <path d="M114.401523,369.040532 C101.379862,363.326432 84.1272911,371.40219 74.994459,387.878255 C66.1793226,403.781182 68.0097056,421.95213 78.7103038,430.404391 C78.1137964,430.142633 77.5261715,429.851941 76.9486121,429.531795 C63.7629321,422.222853 60.8165987,402.329454 70.3677924,385.098645 C79.918986,367.867835 98.350864,359.824572 111.536544,367.133514 C112.552693,367.696774 113.50803,368.334773 114.401523,369.040532 Z" id="Combined-Shape" stroke="none" fill="#BACDFB" fill-rule="evenodd"></path>
                    <ellipse id="Oval-8" stroke="none" fill="#F0F4FF" fill-rule="evenodd" cx="328.030667" cy="295.4003" rx="3.23866667" ry="3.24287856"></ellipse>
                    <ellipse id="Oval-8-Copy" stroke="none" fill="#7C89B7" fill-rule="evenodd" cx="116.129333" cy="172.170915" rx="3.23866667" ry="3.24287856"></ellipse>
                    <ellipse id="Oval-8" stroke="none" fill="#F0F4FF" fill-rule="evenodd" cx="356.716" cy="310.224888" rx="4.164" ry="4.16941529"></ellipse>
                    <path d="M351.460491,279.765176 L351.892379,278.565367 C351.978792,278.325309 352.243448,278.200754 352.483507,278.287167 C352.633016,278.340985 352.744373,278.467864 352.778335,278.623093 L352.995617,279.616201 C353.073097,279.970332 353.33616,280.254801 353.683161,280.359692 L354.714695,280.671502 C354.969851,280.74863 355.11417,281.017999 355.037043,281.273154 C354.989447,281.430611 354.864936,281.552985 354.706679,281.597849 L353.674352,281.890501 C353.331823,281.987603 353.066753,282.259497 352.978385,282.604383 L352.778335,283.385143 C352.714571,283.634005 352.461138,283.784056 352.212276,283.720292 C352.07144,283.684206 351.955575,283.584347 351.8991,283.450379 L351.475531,282.445597 C351.368395,282.191451 351.16105,281.992838 350.902533,281.896727 L350.098611,281.597849 C349.842172,281.502512 349.711574,281.21734 349.806912,280.960902 C349.855816,280.82936 349.958219,280.724733 350.088681,280.673016 L350.888111,280.356107 C351.154847,280.250369 351.363311,280.035148 351.460491,279.765176 Z" id="Rectangle-15" stroke="none" fill="#F0F4FF" fill-rule="evenodd"></path>
                    <path d="M95.1431581,156.535791 L95.5750459,155.335982 C95.6614582,155.095924 95.9261149,154.971369 96.1661732,155.057781 C96.3156826,155.111599 96.4270395,155.238479 96.4610018,155.393708 L96.6782832,156.386816 C96.7557632,156.740947 97.0188264,157.025416 97.3658275,157.130307 L98.3973619,157.442117 C98.6525173,157.519245 98.7968371,157.788614 98.7197093,158.043769 C98.6721137,158.201225 98.5476026,158.3236 98.3893462,158.368464 L97.3570189,158.661116 C97.01449,158.758218 96.7494194,159.030112 96.6610514,159.374997 L96.4610018,160.155758 C96.3972375,160.40462 96.1438042,160.554671 95.8949426,160.490906 C95.7541063,160.454821 95.638242,160.354962 95.5817671,160.220994 L95.1581978,159.216212 C95.0510615,158.962066 94.843717,158.763452 94.5851996,158.667342 L93.7812778,158.368464 C93.524839,158.273126 93.3942407,157.987955 93.4895782,157.731516 C93.5384823,157.599974 93.6408857,157.495348 93.7713475,157.443631 L94.570778,157.126722 C94.8375135,157.020983 95.0459781,156.805762 95.1431581,156.535791 Z" id="Rectangle-15-Copy-2" stroke="none" fill="#7C89B7" fill-rule="evenodd"></path>
                    <path d="M300.183436,271.182436 L300.822095,269.408205 C300.939064,269.083259 301.297307,268.91466 301.622254,269.031629 C301.824632,269.104477 301.975366,269.276223 302.021338,269.486343 L302.359831,271.033461 C302.437311,271.387592 302.700374,271.672061 303.047375,271.776952 L304.642423,272.2591 C304.987805,272.363501 305.183159,272.728123 305.078757,273.073505 C305.014331,273.28664 304.845791,273.452288 304.631573,273.513016 L303.038566,273.964614 C302.696037,274.061716 302.430967,274.33361 302.342599,274.678496 L302.021338,275.932324 C301.935026,276.269187 301.591975,276.472298 301.255112,276.385986 C301.064474,276.33714 300.907638,276.20197 300.831193,276.020628 L300.198476,274.51971 C300.091339,274.265564 299.883995,274.06695 299.625478,273.97084 L298.394024,273.513016 C298.046905,273.383966 297.870125,272.997954 297.999176,272.650835 C298.065373,272.472778 298.203988,272.331154 298.380583,272.261149 L299.611056,271.773367 C299.877791,271.667628 300.086256,271.452407 300.183436,271.182436 Z" id="Rectangle-15-Copy" stroke="none" fill="#F0F4FF" fill-rule="evenodd"></path>
                    <path d="M206.349333,144.838081 L208.2,144.838081 C209.733142,144.838081 210.976,146.224525 210.976,147.934791 L210.976,334.769627 C210.976,336.479893 209.733142,337.866337 208.2,337.866337 L206.349333,337.866337 C207.882476,337.866337 209.125333,336.479893 209.125333,334.769627 L209.125333,147.934791 C209.125333,146.224525 207.882476,144.838081 206.349333,144.838081 Z" id="Combined-Shape" stroke="none" fill="#C9D9FF" fill-rule="evenodd"></path>
                    <ellipse id="Oval-13" stroke="none" fill="#C9D9FF" fill-rule="evenodd" opacity="0.718806612" transform="translate(263.704175, 341.164538) rotate(5.000000) translate(-263.704175, -341.164538) " cx="263.704175" cy="341.164538" rx="25.9093333" ry="11.5817091"></ellipse>
                    <g id="Group-17" stroke="none" stroke-width="1" fill="none" fill-rule="evenodd" transform="translate(273.898667, 264.361319)">
                        <path d="M5.552,13.2956446 C6.74203626,14.7282444 7.46110746,16.2496094 7.70921361,17.8597398 C7.95731975,19.4698702 10.1718616,19.5827751 14.3528392,18.1984545 L18.0066625,15.3276477 C17.6888892,12.9644379 16.9261574,11.1199443 15.7184671,9.79416701 C14.5107767,8.46838973 11.1219544,9.63554893 5.552,13.2956446 Z" id="Path-19" fill="#E3EBFF"></path>
                        <g id="Group-6" transform="translate(13.871594, 19.827945) rotate(-14.000000) translate(-13.871594, -19.827945) translate(7.371594, 15.327945)">
                            <g id="Group-4-Copy-3">
                                <g id="Group-5">
                                    <ellipse id="Oval-12" fill="#E3EBFF" cx="6.47733333" cy="4.16941529" rx="6.47733333" ry="4.16941529"></ellipse>
                                    <path d="M0.0476815382,3.66095001 C0.437325763,5.72382685 3.16740105,7.32190003 6.47733333,7.32190003 C9.78726561,7.32190003 12.5173409,5.72382685 12.9069851,3.66095001 C12.9384634,3.82760404 12.9546667,3.99729165 12.9546667,4.16941529 C12.9546667,6.47211977 10.0546658,8.33883058 6.47733333,8.33883058 C2.90000091,8.33883058 0,6.47211977 0,4.16941529 C0,3.99729165 0.0162032748,3.82760404 0.0476815382,3.66095001 Z" id="Combined-Shape" fill="#B0BDEB" opacity="0.307971014"></path>
                                </g>
                            </g>
                        </g>
                        <g id="Group-6" transform="translate(12.946261, 17.048335) rotate(-14.000000) translate(-12.946261, -17.048335) translate(6.446261, 12.548335)">
                            <g id="Group-4-Copy-3">
                                <g id="Group-5">
                                    <ellipse id="Oval-12" fill="#E3EBFF" cx="6.47733333" cy="4.16941529" rx="6.47733333" ry="4.16941529"></ellipse>
                                    <path d="M0.0476815382,3.66095001 C0.437325763,5.72382685 3.16740105,7.32190003 6.47733333,7.32190003 C9.78726561,7.32190003 12.5173409,5.72382685 12.9069851,3.66095001 C12.9384634,3.82760404 12.9546667,3.99729165 12.9546667,4.16941529 C12.9546667,6.47211977 10.0546658,8.33883058 6.47733333,8.33883058 C2.90000091,8.33883058 0,6.47211977 0,4.16941529 C0,3.99729165 0.0162032748,3.82760404 0.0476815382,3.66095001 Z" id="Combined-Shape" fill="#B0BDEB" opacity="0.307971014"></path>
                                </g>
                            </g>
                        </g>
                        <g id="Group-6-Copy-9" transform="translate(10.170261, 10.562578) rotate(-14.000000) translate(-10.170261, -10.562578) translate(3.670261, 6.062578)">
                            <g id="Group-4-Copy-3">
                                <g id="Group-5">
                                    <ellipse id="Oval-12" fill="#E3EBFF" cx="6.47733333" cy="4.16941529" rx="6.47733333" ry="4.16941529"></ellipse>
                                    <path d="M0.0476815382,3.66095001 C0.437325763,5.72382685 3.16740105,7.32190003 6.47733333,7.32190003 C9.78726561,7.32190003 12.5173409,5.72382685 12.9069851,3.66095001 C12.9384634,3.82760404 12.9546667,3.99729165 12.9546667,4.16941529 C12.9546667,6.47211977 10.0546658,8.33883058 6.47733333,8.33883058 C2.90000091,8.33883058 0,6.47211977 0,4.16941529 C0,3.99729165 0.0162032748,3.82760404 0.0476815382,3.66095001 Z" id="Combined-Shape" fill="#B0BDEB" opacity="0.307971014"></path>
                                </g>
                            </g>
                        </g>
                        <g id="Group-6-Copy-10" transform="translate(9.244927, 8.709504) rotate(-14.000000) translate(-9.244927, -8.709504) translate(2.744927, 4.209504)">
                            <g id="Group-4-Copy-3">
                                <g id="Group-5">
                                    <ellipse id="Oval-12" fill="#E3EBFF" cx="6.47733333" cy="4.16941529" rx="6.47733333" ry="4.16941529"></ellipse>
                                    <path d="M0.0476815382,3.66095001 C0.437325763,5.72382685 3.16740105,7.32190003 6.47733333,7.32190003 C9.78726561,7.32190003 12.5173409,5.72382685 12.9069851,3.66095001 C12.9384634,3.82760404 12.9546667,3.99729165 12.9546667,4.16941529 C12.9546667,6.47211977 10.0546658,8.33883058 6.47733333,8.33883058 C2.90000091,8.33883058 0,6.47211977 0,4.16941529 C0,3.99729165 0.0162032748,3.82760404 0.0476815382,3.66095001 Z" id="Combined-Shape" fill="#B0BDEB" opacity="0.307971014"></path>
                                </g>
                            </g>
                        </g>
                        <g id="Group-6-Copy-10" transform="translate(8.367659, 6.836597) rotate(-23.000000) translate(-8.367659, -6.836597) translate(1.867659, 2.336597)">
                            <g id="Group-4-Copy-3">
                                <g id="Group-5">
                                    <ellipse id="Oval-12" fill="#E3EBFF" cx="6.47733333" cy="4.16941529" rx="6.47733333" ry="4.16941529"></ellipse>
                                    <path d="M0.0476815382,3.66095001 C0.437325763,5.72382685 3.16740105,7.32190003 6.47733333,7.32190003 C9.78726561,7.32190003 12.5173409,5.72382685 12.9069851,3.66095001 C12.9384634,3.82760404 12.9546667,3.99729165 12.9546667,4.16941529 C12.9546667,6.47211977 10.0546658,8.33883058 6.47733333,8.33883058 C2.90000091,8.33883058 0,6.47211977 0,4.16941529 C0,3.99729165 0.0162032748,3.82760404 0.0476815382,3.66095001 Z" id="Combined-Shape" fill="#B0BDEB" opacity="0.307971014"></path>
                                </g>
                            </g>
                        </g>
                    </g>
                    <g id="Group-5-Copy" stroke="none" stroke-width="1" fill="none" fill-rule="evenodd" transform="translate(224.856000, 278.259370)">
                        <ellipse id="Oval-12" fill="#F0F4FF" cx="38.864" cy="29.6491754" rx="38.864" ry="29.6491754"></ellipse>
                        <path d="M0.286089229,25.9430285 C2.62395458,40.6522372 19.0044063,52.0471938 38.864,52.0471938 C58.7235937,52.0471938 75.1040454,40.6522372 77.4419108,25.9430285 C77.6307804,27.1313442 77.728,28.3412906 77.728,29.568607 C77.728,45.9878911 60.3279945,59.2983508 38.864,59.2983508 C17.4000055,59.2983508 0,45.9878911 0,29.568607 C0,28.3412906 0.0972196486,27.1313442 0.286089229,25.9430285 Z" id="Combined-Shape" fill="#C9D9FF" opacity="0.307971014"></path>
                    </g>
                    <g id="Group-4" stroke="none" stroke-width="1" fill="none" fill-rule="evenodd" transform="translate(233.184000, 270.847076)">
                        <g id="Group-5">
                            <ellipse id="Oval-12" fill="#F0F4FF" cx="30.9986667" cy="18.994003" rx="30.9986667" ry="18.994003"></ellipse>
                            <path d="M0.228190218,16.6776612 C2.09291615,26.0752112 15.1582765,33.3553223 30.9986667,33.3553223 C46.8390569,33.3553223 59.9044172,26.0752112 61.7691431,16.6776612 C61.9197891,17.4368629 61.9973333,18.2098842 61.9973333,18.994003 C61.9973333,29.4841012 48.1187575,37.988006 30.9986667,37.988006 C13.8785758,37.988006 0,29.4841012 0,18.994003 C0,18.2098842 0.0775442435,17.4368629 0.228190218,16.6776612 Z" id="Combined-Shape" fill="#C9D9FF" opacity="0.307971014"></path>
                        </g>
                    </g>
                    <ellipse id="Oval-9" stroke="none" fill="#C9D9FF" fill-rule="evenodd" cx="250.765333" cy="429.284858" rx="59.2213333" ry="59.2983508"></ellipse>
                    <path d="M215.772887,477.129514 C201.081746,466.338554 191.544,448.926984 191.544,429.284858 C191.544,396.535283 218.058294,369.986507 250.765333,369.986507 C267.866843,369.986507 283.275304,377.244741 294.085779,388.852495 C284.282189,381.651547 272.183757,377.398801 259.093333,377.398801 C226.386294,377.398801 199.872,403.947577 199.872,436.697151 C199.872,452.322976 205.908075,466.537166 215.772887,477.129514 Z" id="Combined-Shape" stroke="none" fill="#BACDFB" fill-rule="evenodd"></path>
                    <path d="M198.021333,481.306814 C211.264057,493.720601 229.062823,501.320905 248.634428,501.320905 C289.544028,501.320905 322.70781,468.113993 322.70781,427.151191 C322.70781,407.554132 315.117378,389.73222 302.719713,376.472273 C317.157627,390.006437 326.18,409.262152 326.18,430.627896 C326.18,471.590698 293.016217,504.797611 252.106618,504.797611 C230.768625,504.797611 211.537919,495.763504 198.021333,481.306814 Z" id="Combined-Shape" stroke="none" fill="#BACDFB" fill-rule="evenodd"></path>
                    <path d="M239.816007,265.287856 C241.119056,276.325403 250.495722,284.886464 261.869333,284.886464 C273.242945,284.886464 282.619611,276.325403 283.92266,265.287856 C284.0248,266.153041 284.077333,267.033443 284.077333,267.92613 C284.077333,280.207221 274.134473,290.163012 261.869333,290.163012 C249.604194,290.163012 239.661333,280.207221 239.661333,267.92613 C239.661333,267.033443 239.713867,266.153041 239.816007,265.287856 Z" id="Combined-Shape" stroke="none" fill="#C9D9FF" fill-rule="evenodd"></path>
                    <ellipse id="Oval-10" stroke="none" fill="#F0F4FF" fill-rule="evenodd" cx="261.406667" cy="258.338831" rx="27.2973333" ry="27.3328336"></ellipse>
                    <g id="Group-3" stroke="none" stroke-width="1" fill="none" fill-rule="evenodd" transform="translate(242.437333, 246.757121)">
                        <ellipse id="Oval-10-Copy-3" fill="#AE7CF9" cx="19.432" cy="18.5307346" rx="18.5066667" ry="18.5307346"></ellipse>
                        <path d="M13.4820929,33.3361913 C7.73954291,30.9472985 3.70133333,25.2771004 3.70133333,18.6625012 C3.70133333,9.89062273 10.80311,2.77961019 19.5635955,2.77961019 C23.3763932,2.77961019 26.8749945,4.1265948 29.6106636,6.37124483 C27.7377958,5.59213399 25.6836396,5.16204385 23.529161,5.16204385 C14.7686755,5.16204385 7.66689887,12.2730564 7.66689887,21.0449349 C7.66689887,25.9990571 9.9321441,30.4234149 13.4820929,33.3361913 Z" id="Combined-Shape" fill="#A468FF"></path>
                        <path d="M26.5777907,21.5234687 C26.7444555,21.0194399 26.8346667,20.4805385 26.8346667,19.9205397 C26.8346667,17.1061231 24.5560945,14.8245877 21.7453333,14.8245877 C18.9345721,14.8245877 16.656,17.1061231 16.656,19.9205397 C16.656,20.4339131 16.7318146,20.9295559 16.8728445,21.3968553" id="Oval-11" stroke="#FFFFFF" stroke-width="4" stroke-linecap="round" transform="translate(21.745333, 18.174028) rotate(16.000000) translate(-21.745333, -18.174028) "></path>
                        <path d="M9.04316205,17.5258801 C9.17952423,17.1134929 9.25333333,16.6725736 9.25333333,16.2143928 C9.25333333,13.9116883 7.38904703,12.0449775 5.08933333,12.0449775 C2.78961964,12.0449775 0.925333333,13.9116883 0.925333333,16.2143928 C0.925333333,16.6344255 0.987363431,17.0399515 1.10275153,17.4222874" id="Oval-11" stroke="#FFFFFF" stroke-width="4" stroke-linecap="round" transform="translate(5.089333, 14.785429) rotate(14.000000) translate(-5.089333, -14.785429) "></path>
                    </g>
                    <path d="M250.405979,279.859682 C242.936531,276.103157 237.810667,268.361966 237.810667,259.422007 C237.810667,246.798551 248.030709,236.565217 260.63777,236.565217 C266.31993,236.565217 271.517187,238.644035 275.51236,242.083557 C272.434752,240.53577 268.959284,239.664443 265.28057,239.664443 C252.673509,239.664443 242.453467,249.897776 242.453467,262.521233 C242.453467,269.455139 245.537025,275.667905 250.405979,279.859682 Z" id="Combined-Shape" stroke="none" fill="#C9D9FF" fill-rule="evenodd"></path>
                    <ellipse id="Oval-10" stroke="none" fill="#F0F4FF" fill-rule="evenodd" opacity="0.303158967" cx="261.406667" cy="258.338831" rx="27.2973333" ry="27.3328336"></ellipse>
                    <ellipse id="Oval-8" stroke="none" fill="#AE7CF9" fill-rule="evenodd" cx="319.702667" cy="129.550225" rx="3.23866667" ry="3.24287856"></ellipse>
                    <path d="M338.505825,125.960079 L338.937713,124.76027 C339.024125,124.520212 339.288782,124.395657 339.52884,124.482069 C339.678349,124.535887 339.789706,124.662767 339.823669,124.817995 L340.04095,125.811104 C340.11843,126.165235 340.381493,126.449704 340.728494,126.554595 L341.760029,126.866405 C342.015184,126.943533 342.159504,127.212901 342.082376,127.468057 C342.03478,127.625513 341.910269,127.747888 341.752013,127.792752 L340.719686,128.085403 C340.377157,128.182506 340.112086,128.4544 340.023718,128.799285 L339.823669,129.580046 C339.759904,129.828908 339.506471,129.978959 339.257609,129.915194 C339.116773,129.879109 339.000909,129.77925 338.944434,129.645281 L338.520864,128.6405 C338.413728,128.386354 338.206384,128.18774 337.947866,128.09163 L337.143944,127.792752 C336.887506,127.697414 336.756907,127.412243 336.852245,127.155804 C336.901149,127.024262 337.003552,126.919636 337.134014,126.867918 L337.933445,126.55101 C338.20018,126.445271 338.408645,126.23005 338.505825,125.960079 Z" id="Rectangle-15" stroke="none" fill="#AE7CF9" fill-rule="evenodd"></path>
                    <path d="" id="Path-16" stroke="#979797" stroke-width="1" fill="none"></path>
                    <path d="" id="Path-15" stroke="#979797" stroke-width="1" fill="none"></path>
                    <path d="" id="Path-18" stroke="#979797" stroke-width="1" fill="none"></path>
                </g>
            </g>
        </g>
    </g>
</svg>