<?xml version="1.0" encoding="UTF-8"?>
<svg width="413px" height="448px" viewBox="0 0 413 448" version="1.1" xmlns="http://www.w3.org/2000/svg" xmlns:xlink="http://www.w3.org/1999/xlink">
    <!-- Generator: Sketch 50 (54983) - http://www.bohemiancoding.com/sketch -->
    <title>Group 7 Copy</title>
    <desc>Created with Sketch.</desc>
    <defs>
        <rect id="path-1" x="0" y="0" width="541" height="493"></rect>
    </defs>
    <g id="Page-1" stroke="none" stroke-width="1" fill="none" fill-rule="evenodd">
        <g id="Desktop-HD-Copy-2" transform="translate(-245.000000, -519.000000)">
            <g id="Group-7-Copy" transform="translate(208.000000, 474.000000)">
                <mask id="mask-2" fill="white">
                    <use xlink:href="#path-1"></use>
                </mask>
                <g id="Mask"></g>
                <g id="Group-7" mask="url(#mask-2)">
                    <g transform="translate(37.000000, 45.000000)">
                        <ellipse id="Oval-5" stroke="none" fill="#FAFAFB" fill-rule="evenodd" opacity="0.679575893" cx="206.349333" cy="388.673163" rx="206.349333" ry="206.617691"></ellipse>
                        <ellipse id="Oval-5-Copy-2" stroke="none" fill="#F0F4FF" fill-rule="evenodd" cx="224.393333" cy="378.017991" rx="188.305333" ry="188.550225"></ellipse>
                        <path d="M210.354591,101.330651 C211.507769,97.4337604 215.237126,95.5023636 221.542663,95.5364606 C227.8482,95.5705577 228.834576,90.4372147 224.501792,80.1364318 L204.498667,85.0984225 L205.601631,106.322115 L210.354591,101.330651 Z" id="Path-2" stroke="none" fill="#AE7CF9" fill-rule="evenodd"></path>
                        <path d="M197.220301,30.6205016 L198.359096,33.9505369 L197.220301,37.2805722 C197.041593,37.8031447 197.320351,38.3716446 197.842923,38.5503524 C198.14719,38.6544047 198.482932,38.6057887 198.745186,38.4197029 L203.894301,34.7660886 C204.344718,34.4464902 204.450767,33.8222695 204.131168,33.3718527 C204.066093,33.2801401 203.986014,33.200061 203.894301,33.1349852 L198.745186,29.4813709 C198.29477,29.1617725 197.670549,29.2678216 197.35095,29.7182384 C197.164865,29.980493 197.116249,30.3162345 197.220301,30.6205016 Z" id="Path-17" stroke="none" fill="#AE7CF9" fill-rule="evenodd"></path>
                        <path d="M197.220301,92.6984626 L198.359096,96.0284979 L197.220301,99.3585332 C197.041593,99.8811057 197.320351,100.449606 197.842923,100.628313 C198.14719,100.732366 198.482932,100.68375 198.745186,100.497664 L203.894301,96.8440496 C204.344718,96.5244512 204.450767,95.9002305 204.131168,95.4498137 C204.066093,95.3581011 203.986014,95.278022 203.894301,95.2129462 L198.745186,91.5593319 C198.29477,91.2397335 197.670549,91.3457827 197.35095,91.7961994 C197.164865,92.058454 197.116249,92.3941955 197.220301,92.6984626 Z" id="Path-17-Copy" stroke="none" fill="#AE7CF9" fill-rule="evenodd"></path>
                        <ellipse id="Oval-7" stroke="none" fill="#C9D9FF" fill-rule="evenodd" cx="204.961333" cy="215.410795" rx="11.5666667" ry="8.33883058"></ellipse>
                        <ellipse id="Oval-7-Copy" stroke="none" fill="#DDE7FF" fill-rule="evenodd" opacity="0.486922554" cx="204.961333" cy="215.874063" rx="19.8946667" ry="14.3613193"></ellipse>
                        <g id="Group-2" stroke="none" stroke-width="1" fill="none" fill-rule="evenodd" transform="translate(202.648000, 20.838081)">
                            <g id="Group">
                                <path d="M2.776,20.3838081 L5.552,20.3838081 C7.08514247,20.3838081 8.328,21.628282 8.328,23.1634183 L8.328,190.866567 C8.328,192.401703 7.08514247,193.646177 5.552,193.646177 L2.776,193.646177 C1.24285753,193.646177 1.87755801e-16,192.401703 0,190.866567 L0,23.1634183 C-1.87755801e-16,21.628282 1.24285753,20.3838081 2.776,20.3838081 Z" id="Rectangle" fill="#D5E0F8"></path>
                                <path d="M2.776,0 L5.552,9.19745216e-16 C7.08514247,6.04568782e-16 8.328,1.39088256 8.328,3.10662316 L8.328,190.539554 C8.328,192.255294 7.08514247,193.646177 5.552,193.646177 L2.776,193.646177 C1.24285753,193.646177 1.87755801e-16,192.255294 0,190.539554 L0,3.10662316 C-1.87755801e-16,1.39088256 1.24285753,3.15176434e-16 2.776,0 Z" id="Rectangle" fill="#D5E0F8"></path>
                                <path d="M9.47733333,4.90814373 L121.42544,4.90814373 C123.082294,4.90814373 124.42544,6.25128948 124.42544,7.90814373 C124.42544,8.4606175 124.27288,9.00236198 123.98458,9.47364786 L106.281306,38.4133054 C105.693493,39.374208 105.693493,40.583411 106.281306,41.5443136 L123.98458,70.4839711 C124.849184,71.897345 124.404318,73.7440111 122.990944,74.6086151 C122.519658,74.8969151 121.977914,75.0494753 121.42544,75.0494753 L9.47733333,75.0494753 C7.82047908,75.0494753 6.47733333,73.7063295 6.47733333,72.0494753 L6.47733333,7.90814373 C6.47733333,6.25128948 7.82047908,4.90814373 9.47733333,4.90814373 Z" id="Rectangle-2" fill="#A971FC"></path>
                            </g>
                            <g id="Group" transform="translate(27.760000, 26.869565)" fill="#FFFFFF">
                                <path d="M7.80552554,18.7013373 C7.41940171,17.6889719 7.2263398,16.5394915 7.2263398,15.2534675 C7.2263398,13.9674434 7.41940171,12.8191057 7.80552554,11.8055977 C8.19218865,10.7920896 8.71636793,9.93454982 9.37860265,9.23354962 C10.0402981,8.53197809 10.793671,7.99780108 11.6392606,7.62644808 C12.4853895,7.25680901 13.3865248,7.07170382 14.3426667,7.07170382 C15.2615982,7.07170382 16.1535658,7.25680901 17.0185695,7.62644808 C17.8819553,7.99780108 18.6455745,8.53197809 19.3078092,9.23354962 C19.9695047,9.93454982 20.493684,10.7920896 20.8798078,11.8055977 C21.2664709,12.8191057 21.4595328,13.9674434 21.4595328,15.2534675 C21.4595328,15.7305132 21.4234011,16.1829926 21.3705518,16.6229031 C23.7423012,16.1852778 26.1809212,15.8927659 28.675087,15.7607928 C28.6794013,15.5916844 28.6853333,15.4242898 28.6853333,15.2534675 C28.6853333,13.0322052 28.327252,10.9869071 27.6094715,9.1170019 C26.8927696,7.24652539 25.8994176,5.63942385 24.6315724,4.29569729 C23.3626487,2.95139941 21.8537458,1.89961344 20.1075601,1.13976807 C18.3602959,0.380494001 16.4393838,0 14.3426667,0 C12.2464888,0 10.3244982,0.380494001 8.57831248,1.13976807 C6.83050895,1.89961344 5.32322389,2.95139941 4.0543002,4.29569729 C2.7853765,5.63942385 1.79256369,7.24652539 1.0753225,9.1170019 C0.358081315,10.9869071 0,13.0322052 0,15.2534675 C0,17.4741584 0.358081315,19.5194565 1.0753225,21.389933 C1.44796436,22.3617353 1.89934095,23.2598382 2.42190239,24.089955 C4.41885286,22.778222 6.55493733,21.6018899 8.80534897,20.5683859 C8.40843956,20.0187835 8.07192941,19.4000522 7.80552554,18.7013373" id="Fill-2"></path>
                                <path d="M37.7623398,15.5813687 C37.7623398,14.2676992 37.9554017,13.0946759 38.3415255,12.0593806 C38.7281886,11.0240853 39.2523679,10.1481112 39.9140634,9.43204168 C40.5762981,8.7153886 41.3291317,8.16972847 42.1752606,7.79039255 C43.0213895,7.41280742 43.9225248,7.22372305 44.8781274,7.22372305 C45.7975982,7.22372305 46.6895658,7.41280742 47.5545695,7.79039255 C48.4174161,8.16972847 49.1815745,8.7153886 49.84327,9.43204168 C50.5055047,10.1481112 51.029684,11.0240853 51.4152685,12.0593806 C51.8024709,13.0946759 51.9955328,14.2676992 51.9955328,15.5813687 C51.9955328,16.8950382 51.8024709,18.0692287 51.4152685,19.1033568 C51.3068734,19.3939865 51.1849963,19.6694427 51.0544908,19.9343942 C53.3453484,20.864059 55.5251145,21.9477926 57.5851606,23.1634183 C57.786851,22.7403128 57.9750594,22.3037847 58.1454715,21.8497488 C58.863252,19.939063 59.2213333,17.8497975 59.2213333,15.5813687 C59.2213333,13.3123563 58.863252,11.2230908 58.1454715,9.31298856 C57.4282304,7.40230273 56.4354176,5.7606536 55.1670331,4.38804117 C53.8981094,3.01484515 52.3897458,1.94044911 50.6435601,1.16426947 C48.8962959,0.388673417 46.9753838,0 44.8781274,0 C42.7824888,0 40.8604982,0.388673417 39.1143125,1.16426947 C37.3665089,1.94044911 35.8592239,3.01484515 34.5903002,4.38804117 C33.3213765,5.7606536 32.3280244,7.40230273 31.6113225,9.31298856 C30.8940813,11.2230908 30.536,13.3123563 30.536,15.5813687 C30.536,15.7237656 30.5419321,15.8638281 30.5446285,16.0056413 C33.011291,16.0056413 35.4326541,16.1672968 37.7957751,16.4725163 C37.7752825,16.1824702 37.7623398,15.8860046 37.7623398,15.5813687" id="Fill-4"></path>
                            </g>
                        </g>
                        <ellipse id="Oval-6-Copy" stroke="none" fill="#C9D9FF" fill-rule="evenodd" transform="translate(93.890290, 273.759207) rotate(29.000000) translate(-93.890290, -273.759207) " cx="93.89029" cy="273.759207" rx="27.2973333" ry="35.6716642"></ellipse>
                        <path d="M72.1435344,309.356894 C73.4706683,310.505386 74.9207191,311.523697 76.4910698,312.394157 C92.4094276,321.217847 114.661236,311.507651 126.191875,290.705827 C135.909365,273.175011 134.911138,253.361218 124.828953,242.281964 C136.954733,252.775524 138.819223,274.136721 128.426085,292.886439 C116.895446,313.688262 94.6436373,323.398458 78.7252795,314.574768 C76.2221786,313.187277 74.0247303,311.424129 72.1435344,309.356894 Z" id="Combined-Shape" stroke="none" fill="#BACDFB" fill-rule="evenodd"></path>
                        <path d="M114.401523,245.040532 C101.379862,239.326432 84.1272911,247.40219 74.994459,263.878255 C66.1793226,279.781182 68.0097056,297.95213 78.7103038,306.404391 C78.1137964,306.142633 77.5261715,305.851941 76.9486121,305.531795 C63.7629321,298.222853 60.8165987,278.329454 70.3677924,261.098645 C79.918986,243.867835 98.350864,235.824572 111.536544,243.133514 C112.552693,243.696774 113.50803,244.334773 114.401523,245.040532 Z" id="Combined-Shape" stroke="none" fill="#BACDFB" fill-rule="evenodd"></path>
                        <ellipse id="Oval-8" stroke="none" fill="#F0F4FF" fill-rule="evenodd" cx="328.030667" cy="171.4003" rx="3.23866667" ry="3.24287856"></ellipse>
                        <ellipse id="Oval-8" stroke="none" fill="#F0F4FF" fill-rule="evenodd" cx="356.716" cy="186.224888" rx="4.164" ry="4.16941529"></ellipse>
                        <path d="M351.460491,155.765176 L351.892379,154.565367 C351.978792,154.325309 352.243448,154.200754 352.483507,154.287167 C352.633016,154.340985 352.744373,154.467864 352.778335,154.623093 L352.995617,155.616201 C353.073097,155.970332 353.33616,156.254801 353.683161,156.359692 L354.714695,156.671502 C354.969851,156.74863 355.11417,157.017999 355.037043,157.273154 C354.989447,157.430611 354.864936,157.552985 354.706679,157.597849 L353.674352,157.890501 C353.331823,157.987603 353.066753,158.259497 352.978385,158.604383 L352.778335,159.385143 C352.714571,159.634005 352.461138,159.784056 352.212276,159.720292 C352.07144,159.684206 351.955575,159.584347 351.8991,159.450379 L351.475531,158.445597 C351.368395,158.191451 351.16105,157.992838 350.902533,157.896727 L350.098611,157.597849 C349.842172,157.502512 349.711574,157.21734 349.806912,156.960902 C349.855816,156.82936 349.958219,156.724733 350.088681,156.673016 L350.888111,156.356107 C351.154847,156.250369 351.363311,156.035148 351.460491,155.765176 Z" id="Rectangle-15" stroke="none" fill="#F0F4FF" fill-rule="evenodd"></path>
                        <path d="M300.183436,147.182436 L300.822095,145.408205 C300.939064,145.083259 301.297307,144.91466 301.622254,145.031629 C301.824632,145.104477 301.975366,145.276223 302.021338,145.486343 L302.359831,147.033461 C302.437311,147.387592 302.700374,147.672061 303.047375,147.776952 L304.642423,148.2591 C304.987805,148.363501 305.183159,148.728123 305.078757,149.073505 C305.014331,149.28664 304.845791,149.452288 304.631573,149.513016 L303.038566,149.964614 C302.696037,150.061716 302.430967,150.33361 302.342599,150.678496 L302.021338,151.932324 C301.935026,152.269187 301.591975,152.472298 301.255112,152.385986 C301.064474,152.33714 300.907638,152.20197 300.831193,152.020628 L300.198476,150.51971 C300.091339,150.265564 299.883995,150.06695 299.625478,149.97084 L298.394024,149.513016 C298.046905,149.383966 297.870125,148.997954 297.999176,148.650835 C298.065373,148.472778 298.203988,148.331154 298.380583,148.261149 L299.611056,147.773367 C299.877791,147.667628 300.086256,147.452407 300.183436,147.182436 Z" id="Rectangle-15-Copy" stroke="none" fill="#F0F4FF" fill-rule="evenodd"></path>
                        <path d="M206.349333,20.838081 L208.2,20.838081 C209.733142,20.838081 210.976,22.2245253 210.976,23.934791 L210.976,210.769627 C210.976,212.479893 209.733142,213.866337 208.2,213.866337 L206.349333,213.866337 C207.882476,213.866337 209.125333,212.479893 209.125333,210.769627 L209.125333,23.934791 C209.125333,22.2245253 207.882476,20.838081 206.349333,20.838081 Z" id="Combined-Shape" stroke="none" fill="#C9D9FF" fill-rule="evenodd"></path>
                        <ellipse id="Oval-13" stroke="none" fill="#D3E0FF" fill-rule="evenodd" opacity="0.718806612" transform="translate(263.704175, 217.164538) rotate(5.000000) translate(-263.704175, -217.164538) " cx="263.704175" cy="217.164538" rx="25.9093333" ry="11.5817091"></ellipse>
                        <g id="Group-17" stroke="none" stroke-width="1" fill="none" fill-rule="evenodd" transform="translate(273.898667, 140.361319)">
                            <path d="M5.552,13.2956446 C6.74203626,14.7282444 7.46110746,16.2496094 7.70921361,17.8597398 C7.95731975,19.4698702 10.1718616,19.5827751 14.3528392,18.1984545 L18.0066625,15.3276477 C17.6888892,12.9644379 16.9261574,11.1199443 15.7184671,9.79416701 C14.5107767,8.46838973 11.1219544,9.63554893 5.552,13.2956446 Z" id="Path-19" fill="#E3EBFF"></path>
                            <g id="Group-6" transform="translate(13.871594, 19.827945) rotate(-14.000000) translate(-13.871594, -19.827945) translate(7.371594, 15.327945)">
                                <g id="Group-4-Copy-3">
                                    <g id="Group-5">
                                        <ellipse id="Oval-12" fill="#E3EBFF" cx="6.47733333" cy="4.16941529" rx="6.47733333" ry="4.16941529"></ellipse>
                                        <path d="M0.0476815382,3.66095001 C0.437325763,5.72382685 3.16740105,7.32190003 6.47733333,7.32190003 C9.78726561,7.32190003 12.5173409,5.72382685 12.9069851,3.66095001 C12.9384634,3.82760404 12.9546667,3.99729165 12.9546667,4.16941529 C12.9546667,6.47211977 10.0546658,8.33883058 6.47733333,8.33883058 C2.90000091,8.33883058 0,6.47211977 0,4.16941529 C0,3.99729165 0.0162032748,3.82760404 0.0476815382,3.66095001 Z" id="Combined-Shape" fill="#B0BDEB" opacity="0.307971014"></path>
                                    </g>
                                </g>
                            </g>
                            <g id="Group-6" transform="translate(12.946261, 17.048335) rotate(-14.000000) translate(-12.946261, -17.048335) translate(6.446261, 12.548335)">
                                <g id="Group-4-Copy-3">
                                    <g id="Group-5">
                                        <ellipse id="Oval-12" fill="#E3EBFF" cx="6.47733333" cy="4.16941529" rx="6.47733333" ry="4.16941529"></ellipse>
                                        <path d="M0.0476815382,3.66095001 C0.437325763,5.72382685 3.16740105,7.32190003 6.47733333,7.32190003 C9.78726561,7.32190003 12.5173409,5.72382685 12.9069851,3.66095001 C12.9384634,3.82760404 12.9546667,3.99729165 12.9546667,4.16941529 C12.9546667,6.47211977 10.0546658,8.33883058 6.47733333,8.33883058 C2.90000091,8.33883058 0,6.47211977 0,4.16941529 C0,3.99729165 0.0162032748,3.82760404 0.0476815382,3.66095001 Z" id="Combined-Shape" fill="#B0BDEB" opacity="0.307971014"></path>
                                    </g>
                                </g>
                            </g>
                            <g id="Group-6-Copy-9" transform="translate(10.170261, 10.562578) rotate(-14.000000) translate(-10.170261, -10.562578) translate(3.670261, 6.062578)">
                                <g id="Group-4-Copy-3">
                                    <g id="Group-5">
                                        <ellipse id="Oval-12" fill="#E3EBFF" cx="6.47733333" cy="4.16941529" rx="6.47733333" ry="4.16941529"></ellipse>
                                        <path d="M0.0476815382,3.66095001 C0.437325763,5.72382685 3.16740105,7.32190003 6.47733333,7.32190003 C9.78726561,7.32190003 12.5173409,5.72382685 12.9069851,3.66095001 C12.9384634,3.82760404 12.9546667,3.99729165 12.9546667,4.16941529 C12.9546667,6.47211977 10.0546658,8.33883058 6.47733333,8.33883058 C2.90000091,8.33883058 0,6.47211977 0,4.16941529 C0,3.99729165 0.0162032748,3.82760404 0.0476815382,3.66095001 Z" id="Combined-Shape" fill="#B0BDEB" opacity="0.307971014"></path>
                                    </g>
                                </g>
                            </g>
                            <g id="Group-6-Copy-10" transform="translate(9.244927, 8.709504) rotate(-14.000000) translate(-9.244927, -8.709504) translate(2.744927, 4.209504)">
                                <g id="Group-4-Copy-3">
                                    <g id="Group-5">
                                        <ellipse id="Oval-12" fill="#E3EBFF" cx="6.47733333" cy="4.16941529" rx="6.47733333" ry="4.16941529"></ellipse>
                                        <path d="M0.0476815382,3.66095001 C0.437325763,5.72382685 3.16740105,7.32190003 6.47733333,7.32190003 C9.78726561,7.32190003 12.5173409,5.72382685 12.9069851,3.66095001 C12.9384634,3.82760404 12.9546667,3.99729165 12.9546667,4.16941529 C12.9546667,6.47211977 10.0546658,8.33883058 6.47733333,8.33883058 C2.90000091,8.33883058 0,6.47211977 0,4.16941529 C0,3.99729165 0.0162032748,3.82760404 0.0476815382,3.66095001 Z" id="Combined-Shape" fill="#B0BDEB" opacity="0.307971014"></path>
                                    </g>
                                </g>
                            </g>
                            <g id="Group-6-Copy-10" transform="translate(8.367659, 6.836597) rotate(-23.000000) translate(-8.367659, -6.836597) translate(1.867659, 2.336597)">
                                <g id="Group-4-Copy-3">
                                    <g id="Group-5">
                                        <ellipse id="Oval-12" fill="#E3EBFF" cx="6.47733333" cy="4.16941529" rx="6.47733333" ry="4.16941529"></ellipse>
                                        <path d="M0.0476815382,3.66095001 C0.437325763,5.72382685 3.16740105,7.32190003 6.47733333,7.32190003 C9.78726561,7.32190003 12.5173409,5.72382685 12.9069851,3.66095001 C12.9384634,3.82760404 12.9546667,3.99729165 12.9546667,4.16941529 C12.9546667,6.47211977 10.0546658,8.33883058 6.47733333,8.33883058 C2.90000091,8.33883058 0,6.47211977 0,4.16941529 C0,3.99729165 0.0162032748,3.82760404 0.0476815382,3.66095001 Z" id="Combined-Shape" fill="#B0BDEB" opacity="0.307971014"></path>
                                    </g>
                                </g>
                            </g>
                        </g>
                        <g id="Group-5-Copy" stroke="none" stroke-width="1" fill="none" fill-rule="evenodd" transform="translate(224.856000, 154.259370)">
                            <ellipse id="Oval-12" fill="#F0F4FF" cx="38.864" cy="29.6491754" rx="38.864" ry="29.6491754"></ellipse>
                            <path d="M0.286089229,25.9430285 C2.62395458,40.6522372 19.0044063,52.0471938 38.864,52.0471938 C58.7235937,52.0471938 75.1040454,40.6522372 77.4419108,25.9430285 C77.6307804,27.1313442 77.728,28.3412906 77.728,29.568607 C77.728,45.9878911 60.3279945,59.2983508 38.864,59.2983508 C17.4000055,59.2983508 0,45.9878911 0,29.568607 C0,28.3412906 0.0972196486,27.1313442 0.286089229,25.9430285 Z" id="Combined-Shape" fill="#C9D9FF" opacity="0.307971014"></path>
                        </g>
                        <g id="Group-4" stroke="none" stroke-width="1" fill="none" fill-rule="evenodd" transform="translate(233.184000, 146.847076)">
                            <g id="Group-5">
                                <ellipse id="Oval-12" fill="#F0F4FF" cx="30.9986667" cy="18.994003" rx="30.9986667" ry="18.994003"></ellipse>
                                <path d="M0.228190218,16.6776612 C2.09291615,26.0752112 15.1582765,33.3553223 30.9986667,33.3553223 C46.8390569,33.3553223 59.9044172,26.0752112 61.7691431,16.6776612 C61.9197891,17.4368629 61.9973333,18.2098842 61.9973333,18.994003 C61.9973333,29.4841012 48.1187575,37.988006 30.9986667,37.988006 C13.8785758,37.988006 0,29.4841012 0,18.994003 C0,18.2098842 0.0775442435,17.4368629 0.228190218,16.6776612 Z" id="Combined-Shape" fill="#C9D9FF" opacity="0.307971014"></path>
                            </g>
                        </g>
                        <ellipse id="Oval-9" stroke="none" fill="#C9D9FF" fill-rule="evenodd" cx="250.765333" cy="305.284858" rx="59.2213333" ry="59.2983508"></ellipse>
                        <path d="M215.772887,353.129514 C201.081746,342.338554 191.544,324.926984 191.544,305.284858 C191.544,272.535283 218.058294,245.986507 250.765333,245.986507 C267.866843,245.986507 283.275304,253.244741 294.085779,264.852495 C284.282189,257.651547 272.183757,253.398801 259.093333,253.398801 C226.386294,253.398801 199.872,279.947577 199.872,312.697151 C199.872,328.322976 205.908075,342.537166 215.772887,353.129514 Z" id="Combined-Shape" stroke="none" fill="#BACDFB" fill-rule="evenodd"></path>
                        <path d="M198.021333,357.306814 C211.264057,369.720601 229.062823,377.320905 248.634428,377.320905 C289.544028,377.320905 322.70781,344.113993 322.70781,303.151191 C322.70781,283.554132 315.117378,265.73222 302.719713,252.472273 C317.157627,266.006437 326.18,285.262152 326.18,306.627896 C326.18,347.590698 293.016217,380.797611 252.106618,380.797611 C230.768625,380.797611 211.537919,371.763504 198.021333,357.306814 Z" id="Combined-Shape" stroke="none" fill="#BACDFB" fill-rule="evenodd"></path>
                        <path d="M239.816007,141.287856 C241.119056,152.325403 250.495722,160.886464 261.869333,160.886464 C273.242945,160.886464 282.619611,152.325403 283.92266,141.287856 C284.0248,142.153041 284.077333,143.033443 284.077333,143.92613 C284.077333,156.207221 274.134473,166.163012 261.869333,166.163012 C249.604194,166.163012 239.661333,156.207221 239.661333,143.92613 C239.661333,143.033443 239.713867,142.153041 239.816007,141.287856 Z" id="Combined-Shape" stroke="none" fill="#C9D9FF" fill-rule="evenodd"></path>
                        <ellipse id="Oval-10" stroke="none" fill="#F0F4FF" fill-rule="evenodd" cx="261.406667" cy="134.338831" rx="27.2973333" ry="27.3328336"></ellipse>
                        <g id="Group-3" stroke="none" stroke-width="1" fill="none" fill-rule="evenodd" transform="translate(242.437333, 122.757121)">
                            <ellipse id="Oval-10-Copy-3" fill="#AE7CF9" cx="19.432" cy="18.5307346" rx="18.5066667" ry="18.5307346"></ellipse>
                            <path d="M13.4820929,33.3361913 C7.73954291,30.9472985 3.70133333,25.2771004 3.70133333,18.6625012 C3.70133333,9.89062273 10.80311,2.77961019 19.5635955,2.77961019 C23.3763932,2.77961019 26.8749945,4.1265948 29.6106636,6.37124483 C27.7377958,5.59213399 25.6836396,5.16204385 23.529161,5.16204385 C14.7686755,5.16204385 7.66689887,12.2730564 7.66689887,21.0449349 C7.66689887,25.9990571 9.9321441,30.4234149 13.4820929,33.3361913 Z" id="Combined-Shape" fill="#A468FF"></path>
                            <path d="M26.5777907,21.5234687 C26.7444555,21.0194399 26.8346667,20.4805385 26.8346667,19.9205397 C26.8346667,17.1061231 24.5560945,14.8245877 21.7453333,14.8245877 C18.9345721,14.8245877 16.656,17.1061231 16.656,19.9205397 C16.656,20.4339131 16.7318146,20.9295559 16.8728445,21.3968553" id="Oval-11" stroke="#FFFFFF" stroke-width="4" stroke-linecap="round" transform="translate(21.745333, 18.174028) rotate(16.000000) translate(-21.745333, -18.174028) "></path>
                            <path d="M9.04316205,17.5258801 C9.17952423,17.1134929 9.25333333,16.6725736 9.25333333,16.2143928 C9.25333333,13.9116883 7.38904703,12.0449775 5.08933333,12.0449775 C2.78961964,12.0449775 0.925333333,13.9116883 0.925333333,16.2143928 C0.925333333,16.6344255 0.987363431,17.0399515 1.10275153,17.4222874" id="Oval-11" stroke="#FFFFFF" stroke-width="4" stroke-linecap="round" transform="translate(5.089333, 14.785429) rotate(14.000000) translate(-5.089333, -14.785429) "></path>
                        </g>
                        <path d="M250.405979,155.859682 C242.936531,152.103157 237.810667,144.361966 237.810667,135.422007 C237.810667,122.798551 248.030709,112.565217 260.63777,112.565217 C266.31993,112.565217 271.517187,114.644035 275.51236,118.083557 C272.434752,116.53577 268.959284,115.664443 265.28057,115.664443 C252.673509,115.664443 242.453467,125.897776 242.453467,138.521233 C242.453467,145.455139 245.537025,151.667905 250.405979,155.859682 Z" id="Combined-Shape" stroke="none" fill="#C9D9FF" fill-rule="evenodd"></path>
                        <ellipse id="Oval-10" stroke="none" fill="#F0F4FF" fill-rule="evenodd" opacity="0.303158967" cx="261.406667" cy="134.338831" rx="27.2973333" ry="27.3328336"></ellipse>
                        <ellipse id="Oval-8" stroke="none" fill="#AE7CF9" fill-rule="evenodd" cx="319.702667" cy="5.55022489" rx="3.23866667" ry="3.24287856"></ellipse>
                        <path d="M338.505825,1.96007869 L338.937713,0.760269873 C339.024125,0.520211581 339.288782,0.395656906 339.52884,0.48206922 C339.678349,0.535887184 339.789706,0.662766643 339.823669,0.817995425 L340.04095,1.81110398 C340.11843,2.16523485 340.381493,2.44970386 340.728494,2.55459465 L341.760029,2.86640479 C342.015184,2.94353264 342.159504,3.21290143 342.082376,3.46805681 C342.03478,3.62551324 341.910269,3.74788793 341.752013,3.79275165 L340.719686,4.08540341 C340.377157,4.18250603 340.112086,4.45439967 340.023718,4.79928525 L339.823669,5.5800459 C339.759904,5.8289075 339.506471,5.97895851 339.257609,5.91519421 C339.116773,5.8791086 339.000909,5.77924999 338.944434,5.64528137 L338.520864,4.64049991 C338.413728,4.38635375 338.206384,4.18774017 337.947866,4.09162982 L337.143944,3.79275165 C336.887506,3.69741408 336.756907,3.41224299 336.852245,3.15580421 C336.901149,3.02426208 337.003552,2.9196357 337.134014,2.86791836 L337.933445,2.55100987 C338.20018,2.44527114 338.408645,2.23005015 338.505825,1.96007869 Z" id="Rectangle-15" stroke="none" fill="#AE7CF9" fill-rule="evenodd"></path>
                        <path d="" id="Path-16" stroke="#979797" stroke-width="1" fill="none"></path>
                        <path d="" id="Path-15" stroke="#979797" stroke-width="1" fill="none"></path>
                        <path d="" id="Path-18" stroke="#979797" stroke-width="1" fill="none"></path>
                    </g>
                </g>
            </g>
        </g>
    </g>
</svg>