<?xml version="1.0" encoding="UTF-8"?>
<svg width="853px" height="498px" viewBox="0 0 853 498" version="1.1" xmlns="http://www.w3.org/2000/svg" xmlns:xlink="http://www.w3.org/1999/xlink">
    <!-- Generator: Sketch 49.2 (51160) - http://www.bohemiancoding.com/sketch -->
    <title>Group 20</title>
    <desc>Created with Sketch.</desc>
    <defs>
        <linearGradient x1="100%" y1="100%" x2="40.5977753%" y2="31.5030932%" id="linearGradient-1">
            <stop stop-color="#AE7CF9" offset="0%"></stop>
            <stop stop-color="#BC7DFE" offset="100%"></stop>
        </linearGradient>
        <rect id="path-2" x="0" y="0" width="753" height="398" rx="12"></rect>
        <filter x="-12.0%" y="-15.1%" width="123.9%" height="145.2%" filterUnits="objectBoundingBox" id="filter-4">
            <feOffset dx="0" dy="30" in="SourceAlpha" result="shadowOffsetOuter1"></feOffset>
            <feGaussianBlur stdDeviation="25" in="shadowOffsetOuter1" result="shadowBlurOuter1"></feGaussianBlur>
            <feColorMatrix values="0 0 0 0 0.364705882   0 0 0 0 0.403921569   0 0 0 0 0.545098039  0 0 0 0.147616621 0" type="matrix" in="shadowBlurOuter1"></feColorMatrix>
        </filter>
    </defs>
    <g id="Page-1" stroke="none" stroke-width="1" fill="none" fill-rule="evenodd">
        <g id="Desktop-HD-Copy" transform="translate(-294.000000, -1526.000000)">
            <g id="Group-20" transform="translate(344.000000, 1546.000000)">
                <g id="Capture-d’écran-2018-03-29-à-14.58.55">
                    <mask id="mask-3" fill="white">
                        <use xlink:href="#path-2"></use>
                    </mask>
                    <g id="Mask">
                        <use fill="black" fill-opacity="1" filter="url(#filter-4)" xlink:href="#path-2"></use>
                        <use fill="url(#linearGradient-1)" fill-rule="evenodd" xlink:href="#path-2"></use>
                    </g>
                </g>
                <g id="Page-1-Copy" transform="translate(623.000000, 348.000000)" fill="#AE7CF9">
                    <polygon id="Fill-1" points="22.6089153 5.18973214 19.834678 15.8106737 19.5919661 15.8106737 16.193661 5.18973214 11.5126441 5.18973214 8.14891525 15.8106737 7.90586441 15.8106737 5.09772881 5.18973214 0.000101694915 5.18973214 5.44416949 22.1415043 10.2641695 22.1415043 13.6621356 11.4515693 13.9051864 11.4515693 17.3034915 22.1415043 22.1923051 22.1415043 27.6367119 5.18973214"></polygon>
                    <path d="M33.3061695,15.7067438 C33.0634576,15.1074472 32.9421017,14.4269819 32.9421017,13.6656859 C32.9421017,12.9043899 33.0634576,12.2246009 33.3061695,11.624628 C33.5492203,11.024655 33.8787119,10.5170116 34.2949831,10.102036 C34.7109153,9.68672213 35.1844746,9.37050189 35.716,9.15066964 C36.2478644,8.931852 36.8143051,8.82227408 37.415322,8.82227408 C37.9929492,8.82227408 38.5536271,8.931852 39.0973559,9.15066964 C39.6400678,9.37050189 40.1200678,9.68672213 40.536339,10.102036 C40.9522712,10.5170116 41.2817627,11.024655 41.5244746,11.624628 C41.7675254,12.2246009 41.8888814,12.9043899 41.8888814,13.6656859 C41.8888814,13.9480858 41.8661695,14.2159429 41.8329492,14.4763596 C43.3237966,14.2172957 44.856678,14.0441356 46.4244746,13.9660106 C46.4271864,13.8659023 46.4309153,13.7668087 46.4309153,13.6656859 C46.4309153,12.3507508 46.2058305,11.1399824 45.7546441,10.0330425 C45.3041356,8.92576434 44.6797288,7.974398 43.8827797,7.17894345 C43.0851525,6.3831507 42.136678,5.76051813 41.0390508,5.31070752 C39.9407458,4.86123512 38.7332881,4.63599161 37.415322,4.63599161 C36.0976949,4.63599161 34.8895593,4.86123512 33.7919322,5.31070752 C32.6932881,5.76051813 31.7458305,6.3831507 30.9482034,7.17894345 C30.1505763,7.974398 29.5265085,8.92576434 29.075661,10.0330425 C28.6248136,11.1399824 28.3997288,12.3507508 28.3997288,13.6656859 C28.3997288,14.9802827 28.6248136,16.1910511 29.075661,17.2983293 C29.3098983,17.8736134 29.5936271,18.4052692 29.9221017,18.8966788 C31.1773559,18.1201637 32.5200678,17.4238028 33.9346441,16.8119927 C33.6851525,16.486641 33.4736271,16.1203666 33.3061695,15.7067438" id="Fill-2"></path>
                    <path d="M52.9150508,13.6656182 C52.9150508,12.9043222 53.0364068,12.2245333 53.2791186,11.6245603 C53.5221695,11.0245874 53.851661,10.516944 54.2675932,10.1019683 C54.6838644,9.68665449 55.1570847,9.37043425 55.6889492,9.150602 C56.2208136,8.93178436 56.7872542,8.82220644 57.3879322,8.82220644 C57.9658983,8.82220644 58.5265763,8.93178436 59.0703051,9.150602 C59.612678,9.37043425 60.0930169,9.68665449 60.5089492,10.1019683 C60.9252203,10.516944 61.2547119,11.0245874 61.4970847,11.6245603 C61.7404746,12.2245333 61.8618305,12.9043222 61.8618305,13.6656182 C61.8618305,14.4269142 61.7404746,15.1073796 61.4970847,15.7066761 C61.4289492,15.8751015 61.352339,16.0347335 61.2703051,16.1882779 C62.7103051,16.727036 64.0804746,17.3550798 65.3753898,18.0595576 C65.5021695,17.8143601 65.6204746,17.5613839 65.7275932,17.2982616 C66.1787797,16.1909835 66.4038644,14.9802151 66.4038644,13.6656182 C66.4038644,12.3506832 66.1787797,11.1399148 65.7275932,10.0329748 C65.2767458,8.9256967 64.652678,7.97433036 63.8553898,7.17887581 C63.0577627,6.38308306 62.1096271,5.76045049 61.012,5.31063988 C59.9136949,4.86116748 58.7062373,4.63592397 57.3879322,4.63592397 C56.0706441,4.63592397 54.8625085,4.86116748 53.7648814,5.31063988 C52.6662373,5.76045049 51.7187797,6.38308306 50.9211525,7.17887581 C50.1235254,7.97433036 49.4991186,8.9256967 49.0486102,10.0329748 C48.5977627,11.1399148 48.372678,12.3506832 48.372678,13.6656182 C48.372678,13.7481399 48.3764068,13.8293087 48.3781017,13.9114922 C49.9286102,13.9114922 51.4506441,14.0051745 52.9360678,14.1820549 C52.9231864,14.0139678 52.9150508,13.8421604 52.9150508,13.6656182" id="Fill-4"></path>
                    <path d="M78.1234237,18.2842262 C77.8922373,18.3650568 77.5803729,18.4049648 77.1874915,18.4049648 C76.5861356,18.4049648 76.1241017,18.2155709 75.8000339,17.835092 C75.5688475,17.597335 75.4129153,17.3061418 75.3325763,16.9615124 C75.2508814,16.6168831 75.2112203,16.2424919 75.2112203,15.8383387 L75.2112203,9.06446158 L79.3718983,9.06446158 L79.3718983,5.1896645 L75.2112203,5.1896645 L75.2112203,-6.76406926e-05 L70.6685085,-6.76406926e-05 L70.6685085,5.1896645 L67.6861356,5.1896645 L67.6861356,9.06446158 L70.6685085,9.06446158 L70.6685085,16.6567911 C70.6685085,18.6105925 71.2115593,20.117289 72.298339,21.1765422 C72.7603729,21.6476596 73.3325763,22.0183306 74.0142712,22.2892316 C74.6966441,22.5594562 75.4651186,22.6950758 76.3207119,22.6950758 C77.0600339,22.6950758 77.7363051,22.6314935 78.3491864,22.5046672 C78.9613898,22.3778409 79.5335932,22.1874324 80.0657966,21.934118 L78.7827458,17.9554924 C78.5749492,18.0938176 78.3549492,18.2037338 78.1234237,18.2842262" id="Fill-6"></path>
                    <polygon id="Fill-8" points="94.9062373 5.18973214 90.7801356 15.4643534 90.5374237 15.4643534 86.2374237 5.18973214 81.0709831 5.18973214 88.2143729 21.3112148 84.4343729 29.6144481 89.3238644 29.6144481 99.9689492 5.18973214"></polygon>
                </g>
            </g>
        </g>
    </g>
</svg>