<svg xmlns="http://www.w3.org/2000/svg" width="37" height="14" viewBox="0 0 37 14">
  <defs>
    <linearGradient id="wooty__logo--ios-a" x1="100%" x2="40.598%" y1="100%" y2="31.503%">
      <stop offset="0%" stop-color="#AE7CF9"/>
      <stop offset="100%" stop-color="#BC7DFE"/>
    </linearGradient>
  </defs>
  <g fill="url(#wooty__logo--ios-a)" fill-rule="evenodd" transform="translate(.8)">
    <path d="M4.678713 10.8683774C4.44726638 10.280036 4.33154306 9.61200968 4.33154306 8.86463027 4.33154306 8.11725087 4.44726638 7.44988854 4.678713 6.86088318 4.91048288 6.27187782 5.22468138 5.77351421 5.62163174 5.36612437 6.01825886 4.9584025 6.46983839 4.64796281 6.97669357 4.43214912 7.48387201 4.2173315 8.0240219 4.10975668 8.59714323 4.10975668 9.14796035 4.10975668 9.68261499 4.2173315 10.2011072 4.43214912 10.7186296 4.64796281 11.1763508 4.9584025 11.5733012 5.36612437 11.9699283 5.77351421 12.2841268 6.27187782 12.5155735 6.86088318 12.7473433 7.44988854 12.8630666 8.11725087 12.8630666 8.86463027 12.8630666 9.14186786 12.8414089 9.40482853 12.8097305 9.66048475 14.2313817 9.40615662 15.6931159 9.23616184 17.1881447 9.15946497 17.1907307 9.06118674 17.1942865 8.96390457 17.1942865 8.86463027 17.1942865 7.57373239 16.9796488 6.385097 16.5494037 5.29839207 16.1198052 4.21135512 15.5243796 3.27737988 14.7644201 2.49646635 14.0038141 1.71522079 13.099362 1.10397002 12.0526802.662382014 11.0053519.221126026 9.85393721 0 8.59714323 0 7.34067249 0 6.18861134.221126026 5.14192951.662382014 4.09427794 1.10397002 3.19079564 1.71522079 2.43018961 2.49646635 1.66958358 3.27737988 1.07448128 4.21135512.644559467 5.29839207.214637656 6.385097 0 7.57373239 0 8.86463027 0 10.1551961.214637656 11.3438315.644559467 12.4308685.86792486 12.9956363 1.13848468 13.5175734 1.45171342 14 2.64870626 13.2376796 3.92909746 12.5540483 5.27801754 11.9534222 5.04010593 11.6340179 4.83839825 11.2744391 4.678713 10.8683774M22.5372581 8.74472802C22.5372581 8.00745761 22.6529814 7.34912197 22.8844281 6.76808344 23.116198 6.18704492 23.4303965 5.69542214 23.8270236 5.29354262 24.2239739 4.89133557 24.6752302 4.58509486 25.1824086 4.37220025 25.6895871 4.16028823 26.229737 4.05416845 26.802535 4.05416845 27.3536754 4.05416845 27.8883301 4.16028823 28.4068222 4.37220025 28.9240214 4.58509486 29.3820659 4.89133557 29.778693 5.29354262 30.1756434 5.69542214 30.4898419 6.18704492 30.7209653 6.76808344 30.9530584 7.34912197 31.0687817 8.00745761 31.0687817 8.74472802 31.0687817 9.48199844 30.9530584 10.1409891 30.7209653 10.7213726 30.6559921 10.8844826 30.5829377 11.0390769 30.5047114 11.1877756 31.8778752 11.7095311 33.1844496 12.3177547 34.4192626 13 34.5401579 12.7625406 34.652972 12.5175481 34.7551188 12.2627296 35.1853639 11.1903958 35.4000015 10.0178378 35.4000015 8.74472802 35.4000015 7.47129072 35.1853639 6.29873271 34.7551188 5.22672646 34.325197 4.15439268 33.7300947 3.23305031 32.9698119 2.46269935 32.2092059 1.69202086 31.3050771 1.08903782 30.2583953.65342269 29.2110669.218135094 28.0596523 0 26.802535 0 25.5463876 0 24.3943264.218135094 23.3476446.65342269 22.299993 1.08903782 21.3965107 1.69202086 20.6359047 2.46269935 19.8752986 3.23305031 19.2798731 4.15439268 18.8502745 5.22672646 18.4203527 6.29873271 18.2057151 7.47129072 18.2057151 8.74472802 18.2057151 8.82464539 18.2092708 8.90325263 18.2108871 8.98284246 19.6894302 8.98284246 21.1408204 9.07356832 22.5572996 9.24486659 22.5450161 9.0820841 22.5372581 8.91569877 22.5372581 8.74472802"/>
  </g>
</svg>
