<svg xmlns="http://www.w3.org/2000/svg" width="84" height="25" viewBox="0 0 84 25">
  <g fill="#FFF" fill-rule="evenodd">
    <polygon points="18.991 4.359 16.661 13.281 16.457 13.281 13.603 4.359 9.671 4.359 6.845 13.281 6.641 13.281 4.282 4.359 0 4.359 4.573 18.599 8.622 18.599 11.476 9.619 11.68 9.619 14.535 18.599 18.642 18.599 23.215 4.359"/>
    <path d="M27.9771824 13.1936648C27.7733044 12.6902557 27.6713654 12.1186648 27.6713654 11.4791761 27.6713654 10.8396875 27.7733044 10.2686648 27.9771824 9.7646875 28.1813451 9.26071023 28.458118 8.83428977 28.8077858 8.48571023 29.1571688 8.13684659 29.5549586 7.87122159 30.00144 7.6865625 30.4482061 7.50275568 30.9240163 7.41071023 31.4288705 7.41071023 31.9140773 7.41071023 32.3850468 7.50275568 32.841779 7.6865625 33.2976569 7.87122159 33.7008569 8.13684659 34.0505247 8.48571023 34.3999078 8.83428977 34.6766807 9.26071023 34.8805586 9.7646875 35.0847214 10.2686648 35.1866603 10.8396875 35.1866603 11.4791761 35.1866603 11.716392 35.1675824 11.941392 35.1396773 12.160142 36.3919892 11.9425284 37.6796095 11.7970739 38.9965586 11.7314489 38.9988366 11.647358 39.0019688 11.5641193 39.0019688 11.4791761 39.0019688 10.3746307 38.8128976 9.35758523 38.433901 8.42775568 38.0554739 7.49764205 37.5309722 6.69849432 36.8615349 6.0303125 36.1915281 5.36184659 35.3948095 4.83883523 34.4728027 4.46099432 33.5502264 4.0834375 32.535962 3.89423295 31.4288705 3.89423295 30.3220637 3.89423295 29.3072298 4.0834375 28.3852231 4.46099432 27.462362 4.83883523 26.6664976 5.36184659 25.9964908 6.0303125 25.3264841 6.69849432 24.8022671 7.49764205 24.4235553 8.42775568 24.0448434 9.35758523 23.8557722 10.3746307 23.8557722 11.4791761 23.8557722 12.5834375 24.0448434 13.600483 24.4235553 14.5305966 24.6203146 15.0138352 24.8586468 15.4604261 25.1345654 15.8732102 26.188979 15.2209375 27.3168569 14.6359943 28.505101 14.1220739 28.2955281 13.8487784 28.1178468 13.541108 27.9771824 13.1936648M44.4486427 11.4791193C44.4486427 10.8396307 44.5505817 10.268608 44.7544597 9.76463068 44.9586224 9.26065341 45.2353953 8.83423295 45.5847783 8.48565341 45.9344461 8.13678977 46.3319512 7.87116477 46.7787173 7.68650568 47.2254834 7.50269886 47.7012936 7.41065341 48.2058631 7.41065341 48.6913546 7.41065341 49.1623241 7.50269886 49.6190563 7.68650568 50.0746495 7.87116477 50.4781342 8.13678977 50.8275173 8.48565341 51.1771851 8.83423295 51.453958 9.26065341 51.6575512 9.76463068 51.8619986 10.268608 51.9639376 10.8396307 51.9639376 11.4791193 51.9639376 12.118608 51.8619986 12.6901989 51.6575512 13.193608 51.6003173 13.3350852 51.5359647 13.4691761 51.4670563 13.5981534 52.6766563 14.0507102 53.8275986 14.578267 54.9153275 15.1700284 55.0218224 14.9640625 55.1211986 14.7515625 55.2111783 14.5305398 55.5901749 13.6004261 55.7792461 12.5833807 55.7792461 11.4791193 55.7792461 10.3745739 55.5901749 9.35752841 55.2111783 8.42769886 54.8324664 7.49758523 54.3082495 6.6984375 53.6385275 6.03025568 52.9685207 5.36178977 52.1720868 4.83877841 51.25008 4.4609375 50.3275037 4.08338068 49.3132393 3.89417614 48.2058631 3.89417614 47.099341 3.89417614 46.0845071 4.08338068 45.1625003 4.4609375 44.2396393 4.83877841 43.4437749 5.36178977 42.7737681 6.03025568 42.1037614 6.6984375 41.5792597 7.49758523 41.2008325 8.42769886 40.8221207 9.35752841 40.6330495 10.3745739 40.6330495 11.4791193 40.6330495 11.5484375 40.6361817 11.6166193 40.6376054 11.6856534 41.9400325 11.6856534 43.218541 11.7643466 44.4662969 11.9129261 44.4554766 11.771733 44.4486427 11.6274148 44.4486427 11.4791193M65.6236759 15.35875C65.4294793 15.4266477 65.1675132 15.4601705 64.8374929 15.4601705 64.3323539 15.4601705 63.9442454 15.3010795 63.6720285 14.9814773 63.4778319 14.7817614 63.3468488 14.5371591 63.2793641 14.2476705 63.2107403 13.9581818 63.1774251 13.6436932 63.1774251 13.3042045L63.1774251 7.61414773 66.6723946 7.61414773 66.6723946 4.35931818 63.1774251 4.35931818 63.1774251-.0000568181818 59.3615471-.0000568181818 59.3615471 4.35931818 56.8563539 4.35931818 56.8563539 7.61414773 59.3615471 7.61414773 59.3615471 13.9917045C59.3615471 15.6328977 59.8177098 16.8985227 60.7306047 17.7882955 61.1187132 18.1840341 61.5993641 18.4953977 62.1719878 18.7229545 62.745181 18.9499432 63.3906997 19.0638636 64.109398 19.0638636 64.7304285 19.0638636 65.2984963 19.0104545 65.8133166 18.9039205 66.3275675 18.7973864 66.8082183 18.6374432 67.2552692 18.4246591L66.1775064 15.0826136C66.0029573 15.1988068 65.8181573 15.2911364 65.6236759 15.35875"/>
    <polygon points="79.721 4.359 76.255 12.99 76.051 12.99 72.439 4.359 68.1 4.359 74.1 17.901 70.925 24.876 75.032 24.876 83.974 4.359"/>
  </g>
</svg>
