<?xml version="1.0" encoding="utf-8"?>
<!-- Generator: Adobe Illustrator 22.0.1, SVG Export Plug-In . SVG Version: 6.00 Build 0)  -->
<svg version="1.1" id="Calque_1" xmlns="http://www.w3.org/2000/svg" xmlns:xlink="http://www.w3.org/1999/xlink" x="0px" y="0px"
	 viewBox="0 0 84 25" style="enable-background:new 0 0 84 25;" xml:space="preserve">
<style type="text/css">
	.st0{fill:#AE7CF9;}
</style>
<g>
	<polygon class="st0" points="19,4.4 16.7,13.3 16.5,13.3 13.6,4.4 9.7,4.4 6.8,13.3 6.6,13.3 4.3,4.4 0,4.4 4.6,18.6 8.6,18.6 
		11.5,9.6 11.7,9.6 14.5,18.6 18.6,18.6 23.2,4.4 	"/>
	<path class="st0" d="M28,13.2c-0.2-0.5-0.3-1.1-0.3-1.7c0-0.6,0.1-1.2,0.3-1.7c0.2-0.5,0.5-0.9,0.8-1.3c0.3-0.3,0.7-0.6,1.2-0.8
		c0.4-0.2,0.9-0.3,1.4-0.3c0.5,0,1,0.1,1.4,0.3c0.5,0.2,0.9,0.5,1.2,0.8c0.3,0.3,0.6,0.8,0.8,1.3c0.2,0.5,0.3,1.1,0.3,1.7
		c0,0.2,0,0.5,0,0.7c1.3-0.2,2.5-0.4,3.9-0.4c0-0.1,0-0.2,0-0.3c0-1.1-0.2-2.1-0.6-3.1c-0.4-0.9-0.9-1.7-1.6-2.4
		c-0.7-0.7-1.5-1.2-2.4-1.6c-0.9-0.4-1.9-0.6-3-0.6c-1.1,0-2.1,0.2-3,0.6C27.5,4.8,26.7,5.4,26,6c-0.7,0.7-1.2,1.5-1.6,2.4
		c-0.4,0.9-0.6,1.9-0.6,3.1c0,1.1,0.2,2.1,0.6,3.1c0.2,0.5,0.4,0.9,0.7,1.3c1.1-0.7,2.2-1.2,3.4-1.8C28.3,13.8,28.1,13.5,28,13.2
		 M44.4,11.5c0-0.6,0.1-1.2,0.3-1.7c0.2-0.5,0.5-0.9,0.8-1.3c0.3-0.3,0.7-0.6,1.2-0.8c0.4-0.2,0.9-0.3,1.4-0.3c0.5,0,1,0.1,1.4,0.3
		c0.5,0.2,0.9,0.5,1.2,0.8c0.3,0.3,0.6,0.8,0.8,1.3c0.2,0.5,0.3,1.1,0.3,1.7c0,0.6-0.1,1.2-0.3,1.7c-0.1,0.1-0.1,0.3-0.2,0.4
		c1.2,0.5,2.4,1,3.4,1.6c0.1-0.2,0.2-0.4,0.3-0.6c0.4-0.9,0.6-1.9,0.6-3.1c0-1.1-0.2-2.1-0.6-3.1c-0.4-0.9-0.9-1.7-1.6-2.4
		c-0.7-0.7-1.5-1.2-2.4-1.6c-0.9-0.4-1.9-0.6-3-0.6c-1.1,0-2.1,0.2-3,0.6c-0.9,0.4-1.7,0.9-2.4,1.6c-0.7,0.7-1.2,1.5-1.6,2.4
		c-0.4,0.9-0.6,1.9-0.6,3.1c0,0.1,0,0.1,0,0.2c1.3,0,2.6,0.1,3.8,0.2C44.5,11.8,44.4,11.6,44.4,11.5 M65.6,15.4
		c-0.2,0.1-0.5,0.1-0.8,0.1c-0.5,0-0.9-0.2-1.2-0.5c-0.2-0.2-0.3-0.4-0.4-0.7c-0.1-0.3-0.1-0.6-0.1-0.9V7.6h3.5V4.4h-3.5V0h-3.8v4.4
		h-2.5v3.3h2.5V14c0,1.6,0.5,2.9,1.4,3.8c0.4,0.4,0.9,0.7,1.4,0.9c0.6,0.2,1.2,0.3,1.9,0.3c0.6,0,1.2-0.1,1.7-0.2
		c0.5-0.1,1-0.3,1.4-0.5l-1.1-3.3C66,15.2,65.8,15.3,65.6,15.4"/>
	<polygon class="st0" points="79.7,4.4 76.3,13 76.1,13 72.4,4.4 68.1,4.4 74.1,17.9 70.9,24.9 75,24.9 84,4.4 	"/>
</g>
</svg>
