<svg xmlns="http://www.w3.org/2000/svg" xmlns:xlink="http://www.w3.org/1999/xlink" width="763" height="631" viewBox="0 0 763 631">
  <defs>
    <rect id="wooty-illu-app-a" width="920" height="667"/>
    <rect id="wooty-illu-app-c" width="375" height="667" rx="31"/>
    <filter id="wooty-illu-app-d" width="148%" height="127%" x="-24%" y="-9%" filterUnits="objectBoundingBox">
      <feOffset dy="30" in="SourceAlpha" result="shadowOffsetOuter1"/>
      <feGaussianBlur in="shadowOffsetOuter1" result="shadowBlurOuter1" stdDeviation="25"/>
      <feColorMatrix in="shadowBlurOuter1" values="0 0 0 0 0.364705882   0 0 0 0 0.403921569   0 0 0 0 0.545098039  0 0 0 0.169582201 0"/>
    </filter>
    <linearGradient id="wooty-illu-app-f" x1="100%" x2="40.598%" y1="100%" y2="31.503%">
      <stop offset="0%" stop-color="#AE7CF9"/>
      <stop offset="100%" stop-color="#BC7DFE"/>
    </linearGradient>
    <rect id="wooty-illu-app-g" width="375" height="667" rx="31"/>
    <filter id="wooty-illu-app-h" width="148%" height="127%" x="-24%" y="-9%" filterUnits="objectBoundingBox">
      <feOffset dy="30" in="SourceAlpha" result="shadowOffsetOuter1"/>
      <feGaussianBlur in="shadowOffsetOuter1" result="shadowBlurOuter1" stdDeviation="25"/>
      <feColorMatrix in="shadowBlurOuter1" values="0 0 0 0 0.364705882   0 0 0 0 0.403921569   0 0 0 0 0.545098039  0 0 0 0.169582201 0"/>
    </filter>
  </defs>
  <g fill="none" fill-rule="evenodd" transform="translate(-72 -36)">
    <mask id="wooty-illu-app-b" fill="#fff">
      <use xlink:href="#wooty-illu-app-a"/>
    </mask>
    <g mask="url(#wooty-illu-app-b)">
      <g transform="translate(410 56)">
        <mask id="wooty-illu-app-e" fill="#fff">
          <use xlink:href="#wooty-illu-app-c"/>
        </mask>
        <use fill="#000" filter="url(#wooty-illu-app-d)" xlink:href="#wooty-illu-app-c"/>
        <g mask="url(#wooty-illu-app-e)">
          <rect width="382" height="667" fill="url(#wooty-illu-app-f)" transform="translate(-2 -1)"/>
        </g>
        <g mask="url(#wooty-illu-app-e)">
          <g transform="translate(20 227)">
            <g transform="translate(54)">
              <path fill="#FFF" d="M81.7891036 30.2761941C81.1564521 28.6372433 80.8401263 26.7763127 80.8401263 24.6943272 80.8401263 22.6123417 81.1564521 20.7532609 81.7891036 19.1124603 82.4226387 17.4716596 83.2814897 16.083361 84.3665401 14.9484893 85.4507069 13.8126927 86.6850842 12.9478964 88.0705557 12.3467011 89.4569108 11.7482806 90.9333922 11.4486079 92.5 11.4486079 94.0056399 11.4486079 95.4671003 11.7482806 96.8843811 12.3467011 98.2990111 12.9478964 99.5501767 13.8126927 100.635227 14.9484893 101.719394 16.083361 102.578245 17.4716596 103.210896 19.1124603 103.844431 20.7532609 104.160757 22.6123417 104.160757 24.6943272 104.160757 25.4666319 104.101557 26.1991652 104.014965 26.9113504 107.901 26.2028649 111.896601 25.729308 115.983212 25.5156524 115.99028 25.2418773 116 24.970877 116 24.6943272 116 21.0982545 115.413295 17.7870559 114.237235 14.7598065 113.062942 11.7316321 111.435366 9.12984395 109.358043 6.95444197 107.278952 4.77811507 104.806663 3.07534506 101.945593 1.84520704 99.0827568.615993929 95.9354038 0 92.5 0 89.0654798 0 85.9163596.615993929 83.0552903 1.84520704 80.1915702 3.07534506 77.7219319 4.77811507 75.642841 6.95444197 73.5637502 9.12984395 71.9370582 11.7316321 70.7618815 14.7598065 69.5867048 17.7870559 69 21.0982545 69 24.6943272 69 28.2894749 69.5867048 31.6006735 70.7618815 34.6288479 71.3724432 36.2021297 72.1120093 37.6560973 72.9682095 39 76.2401489 36.8763933 79.7400549 34.9719917 83.4272823 33.298819 82.7769589 32.4090499 82.2255978 31.4073661 81.7891036 30.2761941M131.840126 24.8888413C131.840126 22.7904563 132.156452 20.9167318 132.789104 19.2630067 133.422639 17.6092817 134.28149 16.2100476 135.365656 15.0662367 136.450707 13.9214935 137.684201 13.0498854 139.070556 12.4439545 140.456911 11.8408203 141.933392 11.5387871 143.499116 11.5387871 145.00564 11.5387871 146.4671 11.8408203 147.884381 12.4439545 149.298128 13.0498854 150.550177 13.9214935 151.634344 15.0662367 152.719394 16.2100476 153.578245 17.6092817 154.210013 19.2630067 154.844431 20.9167318 155.160757 22.7904563 155.160757 24.8888413 155.160757 26.9872263 154.844431 28.8628152 154.210013 30.5146759 154.032411 30.9789121 153.832719 31.4189111 153.61889 31.8421305 157.372387 33.3271271 160.943864 35.0582248 164.319183 37 164.649647 36.3241541 164.95802 35.6268676 165.237235 34.901615 166.413295 31.8495881 167 28.5123076 167 24.8888413 167 21.2644428 166.413295 17.9271623 165.237235 14.8760676 164.062058 11.8240407 162.435366 9.20175859 160.357159 7.00922123 158.278068 4.81575168 155.806663 3.09956917 152.945593 1.8597415 150.082757.620846036 146.935404 0 143.499116 0 140.06548 0 136.91636.620846036 134.05529 1.8597415 131.19157 3.09956917 128.721932 4.81575168 126.642841 7.00922123 124.56375 9.20175859 122.936175 11.8240407 121.761881 14.8760676 120.586705 17.9271623 120 21.2644428 120 24.8888413 120 25.1162984 120.00972 25.3400267 120.014137 25.5665516 124.055685 25.5665516 128.023011 25.8247714 131.894909 26.3123126 131.861333 25.8490086 131.840126 25.3754504 131.840126 24.8888413"/>
              <rect width="236" height="40" y="119" fill="#FFF" opacity=".205" rx="4"/>
            </g>
            <g transform="translate(0 114)">
              <text fill="#AE7CF9" font-family="LucidaGrande-Bold, Lucida Grande" font-size="15" font-weight="bold">
                <tspan x="118" y="22">Je me connecte</tspan>
              </text>
              <rect width="226" height="40" fill="#FFF" rx="4" transform="translate(59)"/>
              <path fill="#AE7CF9" d="M117.515,27.27 L117.695,25.53 C117.995,25.635 118.4,25.68 118.895,25.68 C119.84,25.68 120.29,25.005 120.29,24.045 L120.29,13.665 L122.21,13.665 L122.21,24.045 C122.21,26.085 121.175,27.495 118.895,27.495 C118.58,27.495 118.115,27.42 117.515,27.27 Z M131.135,20.475 C131.135,20.67 131.12,20.88 131.105,21.105 L125.765,21.105 C125.885,22.02 126.665,22.605 127.7,22.605 C128.435,22.605 129.14,22.29 129.455,21.705 L130.85,22.455 C130.25,23.595 128.975,24.15 127.58,24.15 C126.56,24.15 125.705,23.805 125,23.13 C124.295,22.44 123.95,21.555 123.95,20.475 C123.95,19.395 124.295,18.525 125,17.85 C125.705,17.175 126.56,16.845 127.58,16.845 C128.6,16.845 129.44,17.175 130.115,17.85 C130.79,18.525 131.135,19.395 131.135,20.475 Z M125.75,19.86 L129.35,19.86 C129.215,18.915 128.51,18.375 127.595,18.375 C126.62,18.375 125.885,18.945 125.75,19.86 Z M144.245,18.63 C143.39,18.63 142.82,19.23 142.82,20.265 L142.82,24 L140.99,24 L140.99,20.145 C140.975,19.2 140.435,18.63 139.7,18.63 C138.86,18.63 138.23,19.14 138.23,20.265 L138.23,24 L136.4,24 L136.4,16.995 L138.23,16.995 L138.23,18.03 C138.59,17.25 139.46,16.86 140.24,16.86 C141.365,16.92 142.1,17.355 142.475,18.165 C142.97,17.28 143.705,16.845 144.68,16.845 C146.405,16.845 147.38,17.955 147.38,19.995 L147.38,24 L145.565,24 L145.565,20.19 C145.565,19.215 145.025,18.63 144.245,18.63 Z M156.11,20.475 C156.11,20.67 156.095,20.88 156.08,21.105 L150.74,21.105 C150.86,22.02 151.64,22.605 152.675,22.605 C153.41,22.605 154.115,22.29 154.43,21.705 L155.825,22.455 C155.225,23.595 153.95,24.15 152.555,24.15 C151.535,24.15 150.68,23.805 149.975,23.13 C149.27,22.44 148.925,21.555 148.925,20.475 C148.925,19.395 149.27,18.525 149.975,17.85 C150.68,17.175 151.535,16.845 152.555,16.845 C153.575,16.845 154.415,17.175 155.09,17.85 C155.765,18.525 156.11,19.395 156.11,20.475 Z M150.725,19.86 L154.325,19.86 C154.19,18.915 153.485,18.375 152.57,18.375 C151.595,18.375 150.86,18.945 150.725,19.86 Z M164.705,16.845 C165.89,16.845 166.955,17.355 167.615,18.21 L166.16,19.305 C165.815,18.84 165.335,18.615 164.705,18.615 C164.18,18.615 163.715,18.795 163.325,19.14 C162.935,19.485 162.74,19.92 162.74,20.475 C162.74,21.03 162.935,21.48 163.325,21.855 C163.715,22.215 164.18,22.395 164.705,22.395 C165.335,22.395 165.815,22.155 166.16,21.69 L167.63,22.77 C166.97,23.655 165.89,24.15 164.705,24.15 C163.67,24.15 162.77,23.805 162.035,23.115 C161.3,22.425 160.925,21.54 160.925,20.475 C160.925,19.41 161.3,18.54 162.035,17.865 C162.77,17.19 163.67,16.845 164.705,16.845 Z M174.11,20.475 C174.11,19.395 173.315,18.645 172.28,18.645 C171.245,18.645 170.45,19.395 170.45,20.475 C170.45,21.6 171.245,22.35 172.28,22.35 C173.315,22.35 174.11,21.6 174.11,20.475 Z M174.86,23.115 C174.155,23.79 173.3,24.135 172.28,24.135 C171.26,24.135 170.39,23.79 169.685,23.115 C168.98,22.44 168.635,21.555 168.635,20.475 C168.635,19.395 168.98,18.525 169.685,17.85 C170.39,17.175 171.26,16.845 172.28,16.845 C173.3,16.845 174.155,17.175 174.86,17.85 C175.565,18.525 175.925,19.395 175.925,20.475 C175.925,21.555 175.565,22.44 174.86,23.115 Z M179.39,20.265 L179.39,24 L177.56,24 L177.56,16.995 L179.39,16.995 L179.39,18.03 C179.765,17.31 180.635,16.845 181.475,16.845 C183.14,16.845 184.085,17.895 184.085,19.86 L184.085,24 L182.255,24 L182.255,20.19 C182.255,19.185 181.745,18.63 180.92,18.63 C180.02,18.63 179.39,19.125 179.39,20.265 Z M187.895,20.265 L187.895,24 L186.065,24 L186.065,16.995 L187.895,16.995 L187.895,18.03 C188.27,17.31 189.14,16.845 189.98,16.845 C191.645,16.845 192.59,17.895 192.59,19.86 L192.59,24 L190.76,24 L190.76,20.19 C190.76,19.185 190.25,18.63 189.425,18.63 C188.525,18.63 187.895,19.125 187.895,20.265 Z M201.32,20.475 C201.32,20.67 201.305,20.88 201.29,21.105 L195.95,21.105 C196.07,22.02 196.85,22.605 197.885,22.605 C198.62,22.605 199.325,22.29 199.64,21.705 L201.035,22.455 C200.435,23.595 199.16,24.15 197.765,24.15 C196.745,24.15 195.89,23.805 195.185,23.13 C194.48,22.44 194.135,21.555 194.135,20.475 C194.135,19.395 194.48,18.525 195.185,17.85 C195.89,17.175 196.745,16.845 197.765,16.845 C198.785,16.845 199.625,17.175 200.3,17.85 C200.975,18.525 201.32,19.395 201.32,20.475 Z M195.935,19.86 L199.535,19.86 C199.4,18.915 198.695,18.375 197.78,18.375 C196.805,18.375 196.07,18.945 195.935,19.86 Z M206.195,16.845 C207.38,16.845 208.445,17.355 209.105,18.21 L207.65,19.305 C207.305,18.84 206.825,18.615 206.195,18.615 C205.67,18.615 205.205,18.795 204.815,19.14 C204.425,19.485 204.23,19.92 204.23,20.475 C204.23,21.03 204.425,21.48 204.815,21.855 C205.205,22.215 205.67,22.395 206.195,22.395 C206.825,22.395 207.305,22.155 207.65,21.69 L209.12,22.77 C208.46,23.655 207.38,24.15 206.195,24.15 C205.16,24.15 204.26,23.805 203.525,23.115 C202.79,22.425 202.415,21.54 202.415,20.475 C202.415,19.41 202.79,18.54 203.525,17.865 C204.26,17.19 205.16,16.845 206.195,16.845 Z M211.25,14.325 L213.065,14.325 L213.065,16.995 L214.55,16.995 L214.55,18.465 L213.065,18.465 L213.065,24 L211.25,24 L211.25,18.465 L209.975,18.465 L209.975,16.995 L211.25,16.995 L211.25,14.325 Z M222.59,20.475 C222.59,20.67 222.575,20.88 222.56,21.105 L217.22,21.105 C217.34,22.02 218.12,22.605 219.155,22.605 C219.89,22.605 220.595,22.29 220.91,21.705 L222.305,22.455 C221.705,23.595 220.43,24.15 219.035,24.15 C218.015,24.15 217.16,23.805 216.455,23.13 C215.75,22.44 215.405,21.555 215.405,20.475 C215.405,19.395 215.75,18.525 216.455,17.85 C217.16,17.175 218.015,16.845 219.035,16.845 C220.055,16.845 220.895,17.175 221.57,17.85 C222.245,18.525 222.59,19.395 222.59,20.475 Z M217.205,19.86 L220.805,19.86 C220.67,18.915 219.965,18.375 219.05,18.375 C218.075,18.375 217.34,18.945 217.205,19.86 Z"/>
              <path fill="#FFF" d="M138.195,122 L136.29,122 L136.29,111.665 L138.195,111.665 L138.195,122 Z M142.35,118.265 L142.35,122 L140.52,122 L140.52,114.995 L142.35,114.995 L142.35,116.03 C142.725,115.31 143.595,114.845 144.435,114.845 C146.1,114.845 147.045,115.895 147.045,117.86 L147.045,122 L145.215,122 L145.215,118.19 C145.215,117.185 144.705,116.63 143.88,116.63 C142.98,116.63 142.35,117.125 142.35,118.265 Z M151.68,119.315 L150.72,119.075 C148.92,118.565 148.74,117.77 148.74,116.93 C148.74,116.375 148.995,115.88 149.505,115.475 C150.015,115.055 150.615,114.845 151.32,114.845 C152.055,114.845 152.685,115.025 153.21,115.385 C153.735,115.745 154.02,116.3 154.05,117.05 L152.31,117.05 C152.295,116.57 151.845,116.33 151.365,116.33 C150.78,116.33 150.48,116.555 150.48,117.02 C150.48,117.275 150.72,117.47 151.215,117.605 L152.385,117.89 C153.99,118.31 154.215,119.435 154.215,119.99 C154.215,120.665 153.93,121.205 153.36,121.58 C152.805,121.955 152.13,122.15 151.35,122.15 C150.615,122.15 149.955,121.94 149.385,121.52 C148.83,121.085 148.545,120.515 148.53,119.795 L150.24,119.795 C150.285,120.29 150.87,120.695 151.53,120.68 C152.055,120.665 152.445,120.38 152.445,119.975 C152.46,119.63 152.22,119.435 151.68,119.315 Z M159.165,114.845 C160.35,114.845 161.415,115.355 162.075,116.21 L160.62,117.305 C160.275,116.84 159.795,116.615 159.165,116.615 C158.64,116.615 158.175,116.795 157.785,117.14 C157.395,117.485 157.2,117.92 157.2,118.475 C157.2,119.03 157.395,119.48 157.785,119.855 C158.175,120.215 158.64,120.395 159.165,120.395 C159.795,120.395 160.275,120.155 160.62,119.69 L162.09,120.77 C161.43,121.655 160.35,122.15 159.165,122.15 C158.13,122.15 157.23,121.805 156.495,121.115 C155.76,120.425 155.385,119.54 155.385,118.475 C155.385,117.41 155.76,116.54 156.495,115.865 C157.23,115.19 158.13,114.845 159.165,114.845 Z M165.465,119.525 L165.465,122 L163.635,122 L163.635,114.995 L165.465,114.995 L165.465,116.645 C165.81,115.445 166.59,114.845 167.445,114.845 C167.895,114.845 168.285,114.935 168.6,115.1 L168.285,116.75 C168,116.615 167.64,116.555 167.22,116.555 C166.05,116.555 165.465,117.545 165.465,119.525 Z M169.8,114.995 L171.615,114.995 L171.615,122 L169.8,122 L169.8,114.995 Z M170.715,113.39 C170.055,113.39 169.53,112.895 169.53,112.28 C169.53,111.665 170.07,111.185 170.715,111.185 C171.36,111.185 171.87,111.665 171.87,112.28 C171.87,112.895 171.36,113.39 170.715,113.39 Z M173.685,114.995 L175.515,114.995 L175.515,115.94 C175.875,115.265 176.76,114.845 177.705,114.845 C178.65,114.845 179.445,115.19 180.12,115.865 C180.795,116.54 181.125,117.425 181.125,118.49 C181.125,119.585 180.795,120.47 180.12,121.145 C179.46,121.82 178.65,122.15 177.705,122.15 C176.76,122.15 175.875,121.745 175.515,121.07 L175.515,125.405 L173.685,125.405 L173.685,114.995 Z M175.545,118.52 C175.545,119.675 176.385,120.41 177.405,120.41 C178.44,120.41 179.25,119.645 179.25,118.52 C179.25,117.965 179.07,117.5 178.71,117.14 C178.35,116.78 177.915,116.6 177.405,116.6 C176.37,116.6 175.545,117.38 175.545,118.52 Z M183.27,112.325 L185.085,112.325 L185.085,114.995 L186.57,114.995 L186.57,116.465 L185.085,116.465 L185.085,122 L183.27,122 L183.27,116.465 L181.995,116.465 L181.995,114.995 L183.27,114.995 L183.27,112.325 Z M187.95,114.995 L189.765,114.995 L189.765,122 L187.95,122 L187.95,114.995 Z M188.865,113.39 C188.205,113.39 187.68,112.895 187.68,112.28 C187.68,111.665 188.22,111.185 188.865,111.185 C189.51,111.185 190.02,111.665 190.02,112.28 C190.02,112.895 189.51,113.39 188.865,113.39 Z M196.875,118.475 C196.875,117.395 196.08,116.645 195.045,116.645 C194.01,116.645 193.215,117.395 193.215,118.475 C193.215,119.6 194.01,120.35 195.045,120.35 C196.08,120.35 196.875,119.6 196.875,118.475 Z M197.625,121.115 C196.92,121.79 196.065,122.135 195.045,122.135 C194.025,122.135 193.155,121.79 192.45,121.115 C191.745,120.44 191.4,119.555 191.4,118.475 C191.4,117.395 191.745,116.525 192.45,115.85 C193.155,115.175 194.025,114.845 195.045,114.845 C196.065,114.845 196.92,115.175 197.625,115.85 C198.33,116.525 198.69,117.395 198.69,118.475 C198.69,119.555 198.33,120.44 197.625,121.115 Z M202.155,118.265 L202.155,122 L200.325,122 L200.325,114.995 L202.155,114.995 L202.155,116.03 C202.53,115.31 203.4,114.845 204.24,114.845 C205.905,114.845 206.85,115.895 206.85,117.86 L206.85,122 L205.02,122 L205.02,118.19 C205.02,117.185 204.51,116.63 203.685,116.63 C202.785,116.63 202.155,117.125 202.155,118.265 Z"/>
              <path stroke="#FFF" stroke-width=".5" d="M0,66 L343,66" opacity=".596"/>
              <path fill="#FFF" d="M107.788,95 L107.86,94.22 C108.028,94.28 108.256,94.304 108.532,94.304 C109.684,94.304 110.2,93.56 110.2,92.468 L110.2,83.732 L110.992,83.732 L110.992,92.468 C110.992,93.248 110.788,93.872 110.392,94.364 C109.996,94.856 109.384,95.096 108.532,95.096 C108.304,95.096 108.064,95.06 107.788,95 Z M115.492,92.12 C114.688,92.12 114.004,91.844 113.464,91.304 C112.924,90.764 112.66,90.056 112.66,89.18 C112.66,88.304 112.924,87.608 113.464,87.08 C114.004,86.54 114.676,86.276 115.492,86.276 C116.296,86.276 116.956,86.54 117.472,87.068 C117.988,87.596 118.24,88.304 118.24,89.18 C118.24,89.36 118.24,89.48 118.228,89.552 L113.476,89.552 C113.62,90.62 114.436,91.328 115.492,91.328 C116.248,91.328 116.896,90.968 117.244,90.356 C117.328,90.38 117.472,90.416 117.652,90.452 L118.048,90.536 C117.604,91.532 116.632,92.12 115.492,92.12 Z M113.476,88.808 L117.424,88.808 C117.268,87.74 116.512,87.068 115.492,87.068 C114.436,87.068 113.632,87.752 113.476,88.808 Z M123.724,88.94 L123.724,92 L122.92,92 L122.92,86.396 L123.724,86.396 L123.724,87.32 C124.048,86.636 124.864,86.276 125.584,86.276 C126.94,86.276 127.756,87.2 127.744,88.736 L127.744,92 L126.94,92 L126.94,88.736 C126.94,87.692 126.448,87.068 125.584,87.068 C125.08,87.068 124.648,87.224 124.276,87.536 C123.904,87.836 123.724,88.304 123.724,88.94 Z M129.568,86.192 L129.112,86.036 C129.58,85.376 129.82,84.572 129.808,83.636 L130.6,83.636 C130.504,84.824 130.048,85.796 129.568,86.192 Z M136.312,86.396 L137.116,86.396 L137.116,92 L136.312,92 L136.312,91.04 C135.916,91.724 135.052,92.12 134.2,92.12 C133.384,92.12 132.7,91.844 132.148,91.304 C131.608,90.764 131.332,90.056 131.332,89.18 C131.332,88.304 131.608,87.608 132.148,87.08 C132.7,86.54 133.384,86.276 134.2,86.276 C135.064,86.276 135.916,86.648 136.312,87.32 L136.312,86.396 Z M132.136,89.18 C132.136,89.792 132.328,90.308 132.724,90.716 C133.12,91.112 133.612,91.316 134.2,91.316 C134.8,91.316 135.304,91.124 135.7,90.752 C136.108,90.368 136.312,89.84 136.312,89.18 C136.312,88.532 136.096,88.016 135.664,87.644 C135.244,87.272 134.752,87.08 134.2,87.08 C133.612,87.08 133.12,87.272 132.724,87.656 C132.328,88.04 132.136,88.544 132.136,89.18 Z M139.852,92 L139.06,92 L139.06,86.396 L139.852,86.396 L139.852,92 Z M139.036,84.728 C138.796,84.5 138.796,84.104 139.036,83.9 C139.276,83.672 139.66,83.672 139.9,83.9 C140.14,84.104 140.14,84.5 139.9,84.728 C139.66,84.932 139.276,84.932 139.036,84.728 Z M145.792,94.712 L144.988,94.712 L144.988,86.396 L145.792,86.396 L145.792,87.368 C146.188,86.684 147.052,86.276 147.904,86.276 C148.72,86.276 149.404,86.552 149.944,87.104 C150.496,87.644 150.772,88.352 150.772,89.228 C150.772,90.104 150.496,90.8 149.944,91.328 C149.404,91.856 148.72,92.12 147.904,92.12 C147.04,92.12 146.188,91.76 145.792,91.088 L145.792,94.712 Z M149.968,89.228 C149.968,88.616 149.764,88.1 149.368,87.692 C148.972,87.284 148.492,87.08 147.904,87.08 C147.304,87.08 146.8,87.272 146.392,87.656 C145.996,88.04 145.792,88.568 145.792,89.228 C145.792,89.876 146.008,90.392 146.428,90.764 C146.86,91.136 147.352,91.316 147.904,91.316 C148.492,91.316 148.984,91.124 149.38,90.752 C149.776,90.368 149.968,89.864 149.968,89.228 Z M156.928,86.396 L157.732,86.396 L157.732,92 L156.928,92 L156.928,91.04 C156.532,91.724 155.668,92.12 154.816,92.12 C154,92.12 153.316,91.844 152.764,91.304 C152.224,90.764 151.948,90.056 151.948,89.18 C151.948,88.304 152.224,87.608 152.764,87.08 C153.316,86.54 154,86.276 154.816,86.276 C155.68,86.276 156.532,86.648 156.928,87.32 L156.928,86.396 Z M152.752,89.18 C152.752,89.792 152.944,90.308 153.34,90.716 C153.736,91.112 154.228,91.316 154.816,91.316 C155.416,91.316 155.92,91.124 156.316,90.752 C156.724,90.368 156.928,89.84 156.928,89.18 C156.928,88.532 156.712,88.016 156.28,87.644 C155.86,87.272 155.368,87.08 154.816,87.08 C154.228,87.08 153.736,87.272 153.34,87.656 C152.944,88.04 152.752,88.544 152.752,89.18 Z M159.232,90.392 L159.94,90.392 C160.108,91.04 160.552,91.364 161.26,91.364 C161.98,91.364 162.448,91.004 162.448,90.476 C162.448,90.032 162.184,89.744 161.644,89.612 L160.864,89.432 C160.444,89.336 160.18,89.216 159.844,88.964 C159.52,88.688 159.388,88.232 159.448,87.608 C159.556,86.828 160.348,86.276 161.272,86.276 C162.196,86.276 162.892,86.756 163.036,87.728 L162.256,87.728 C162.16,87.308 161.764,87.044 161.272,87.044 C160.732,87.044 160.288,87.332 160.228,87.728 C160.144,88.196 160.42,88.508 161.056,88.664 L161.824,88.844 C162.772,89.072 163.24,89.612 163.24,90.476 C163.24,90.956 163.048,91.352 162.652,91.664 C162.256,91.964 161.776,92.12 161.188,92.12 C160.684,92.12 160.24,91.964 159.844,91.652 C159.46,91.328 159.256,90.908 159.232,90.392 Z M172.552,83.36 L173.356,83.36 L173.356,92 L172.552,92 L172.552,91.04 C172.156,91.724 171.292,92.12 170.44,92.12 C169.624,92.12 168.94,91.844 168.388,91.304 C167.848,90.764 167.572,90.056 167.572,89.18 C167.572,88.304 167.848,87.608 168.388,87.08 C168.94,86.54 169.624,86.276 170.44,86.276 C171.304,86.276 172.156,86.648 172.552,87.32 L172.552,83.36 Z M168.376,89.18 C168.376,89.792 168.568,90.308 168.964,90.716 C169.36,91.112 169.852,91.316 170.44,91.316 C171.04,91.316 171.544,91.124 171.94,90.752 C172.348,90.368 172.552,89.84 172.552,89.18 C172.552,88.532 172.336,88.016 171.904,87.644 C171.484,87.272 170.992,87.08 170.44,87.08 C169.852,87.08 169.36,87.272 168.964,87.656 C168.568,88.04 168.376,88.544 168.376,89.18 Z M177.748,92.12 C176.944,92.12 176.26,91.844 175.72,91.304 C175.18,90.764 174.916,90.056 174.916,89.18 C174.916,88.304 175.18,87.608 175.72,87.08 C176.26,86.54 176.932,86.276 177.748,86.276 C178.552,86.276 179.212,86.54 179.728,87.068 C180.244,87.596 180.496,88.304 180.496,89.18 C180.496,89.36 180.496,89.48 180.484,89.552 L175.732,89.552 C175.876,90.62 176.692,91.328 177.748,91.328 C178.504,91.328 179.152,90.968 179.5,90.356 C179.584,90.38 179.728,90.416 179.908,90.452 L180.304,90.536 C179.86,91.532 178.888,92.12 177.748,92.12 Z M175.732,88.808 L179.68,88.808 C179.524,87.74 178.768,87.068 177.748,87.068 C176.692,87.068 175.888,87.752 175.732,88.808 Z M189.172,90.788 L189.748,91.352 C189.196,91.868 188.524,92.12 187.72,92.12 C186.904,92.12 186.208,91.844 185.644,91.304 C185.08,90.764 184.792,90.056 184.792,89.18 C184.792,88.316 185.068,87.62 185.632,87.08 C186.196,86.54 186.892,86.276 187.72,86.276 C188.512,86.276 189.184,86.528 189.736,87.032 L189.172,87.596 C188.776,87.248 188.284,87.068 187.72,87.068 C187.12,87.068 186.616,87.26 186.196,87.656 C185.788,88.04 185.584,88.544 185.584,89.18 C185.584,89.816 185.788,90.332 186.196,90.728 C186.616,91.124 187.12,91.328 187.72,91.328 C188.284,91.328 188.776,91.148 189.172,90.788 Z M190.66,89.18 C190.66,88.316 190.936,87.62 191.5,87.08 C192.064,86.54 192.76,86.276 193.588,86.276 C194.416,86.276 195.1,86.54 195.664,87.08 C196.228,87.62 196.516,88.316 196.516,89.18 C196.516,90.056 196.228,90.764 195.664,91.304 C195.1,91.844 194.404,92.12 193.588,92.12 C192.772,92.12 192.076,91.844 191.512,91.304 C190.948,90.764 190.66,90.056 190.66,89.18 Z M192.064,90.728 C192.484,91.124 192.988,91.328 193.588,91.328 C194.188,91.328 194.692,91.124 195.1,90.728 C195.52,90.332 195.724,89.816 195.724,89.18 C195.724,88.544 195.52,88.04 195.1,87.656 C194.692,87.26 194.188,87.068 193.588,87.068 C192.988,87.068 192.484,87.26 192.064,87.656 C191.656,88.04 191.452,88.544 191.452,89.18 C191.452,89.816 191.656,90.332 192.064,90.728 Z M202.9,88.94 L202.9,92 L202.096,92 L202.096,88.736 C202.096,87.692 201.604,87.068 200.74,87.068 C200.236,87.068 199.804,87.224 199.432,87.536 C199.06,87.836 198.88,88.304 198.88,88.94 L198.88,92 L198.076,92 L198.076,86.396 L198.88,86.396 L198.88,87.32 C199.036,86.996 199.312,86.732 199.696,86.552 C200.08,86.372 200.428,86.276 200.74,86.276 C201.7,86.276 202.348,86.684 202.684,87.5 C203.08,86.684 203.764,86.276 204.76,86.276 C206.116,86.276 206.932,87.2 206.92,88.736 L206.92,92 L206.116,92 L206.116,88.736 C206.116,87.692 205.624,87.068 204.76,87.068 C204.256,87.068 203.824,87.224 203.452,87.536 C203.08,87.836 202.9,88.304 202.9,88.94 Z M209.596,94.712 L208.792,94.712 L208.792,86.396 L209.596,86.396 L209.596,87.368 C209.992,86.684 210.856,86.276 211.708,86.276 C212.524,86.276 213.208,86.552 213.748,87.104 C214.3,87.644 214.576,88.352 214.576,89.228 C214.576,90.104 214.3,90.8 213.748,91.328 C213.208,91.856 212.524,92.12 211.708,92.12 C210.844,92.12 209.992,91.76 209.596,91.088 L209.596,94.712 Z M213.772,89.228 C213.772,88.616 213.568,88.1 213.172,87.692 C212.776,87.284 212.296,87.08 211.708,87.08 C211.108,87.08 210.604,87.272 210.196,87.656 C209.8,88.04 209.596,88.568 209.596,89.228 C209.596,89.876 209.812,90.392 210.232,90.764 C210.664,91.136 211.156,91.316 211.708,91.316 C212.296,91.316 212.788,91.124 213.184,90.752 C213.58,90.368 213.772,89.864 213.772,89.228 Z M217.252,87.116 L217.252,92 L216.448,92 L216.448,87.116 L215.44,87.116 L215.44,86.396 L216.448,86.396 L216.448,84.296 L217.252,84.296 L217.252,86.396 L218.44,86.396 L218.44,87.116 L217.252,87.116 Z M222.112,92.12 C221.308,92.12 220.624,91.844 220.084,91.304 C219.544,90.764 219.28,90.056 219.28,89.18 C219.28,88.304 219.544,87.608 220.084,87.08 C220.624,86.54 221.296,86.276 222.112,86.276 C222.916,86.276 223.576,86.54 224.092,87.068 C224.608,87.596 224.86,88.304 224.86,89.18 C224.86,89.36 224.86,89.48 224.848,89.552 L220.096,89.552 C220.24,90.62 221.056,91.328 222.112,91.328 C222.868,91.328 223.516,90.968 223.864,90.356 C223.948,90.38 224.092,90.416 224.272,90.452 L224.668,90.536 C224.224,91.532 223.252,92.12 222.112,92.12 Z M220.096,88.808 L224.044,88.808 C223.888,87.74 223.132,87.068 222.112,87.068 C221.056,87.068 220.252,87.752 220.096,88.808 Z M229.924,85.964 L229.132,85.964 C229.132,85.28 229.36,84.716 229.804,84.296 C230.26,83.864 230.812,83.648 231.472,83.648 C232.132,83.648 232.708,83.864 233.188,84.296 C233.668,84.716 233.908,85.28 233.908,85.964 C233.908,87.068 233.188,87.92 232.192,88.208 C231.484,88.412 231.16,88.64 231.16,89.312 L231.16,89.78 L230.368,89.78 L230.368,89.312 C230.368,88.256 230.932,87.752 231.952,87.452 C232.612,87.248 233.116,86.684 233.116,85.964 C233.116,85.52 232.948,85.148 232.624,84.872 C232.3,84.584 231.916,84.44 231.472,84.44 C230.608,84.44 229.924,85.052 229.924,85.964 Z M230.296,91.94 C230.044,91.7 230.044,91.292 230.296,91.052 C230.548,90.812 230.98,90.812 231.232,91.052 C231.484,91.292 231.484,91.7 231.232,91.94 C230.98,92.18 230.548,92.18 230.296,91.94 Z"/>
            </g>
          </g>
        </g>
      </g>
    </g>
    <g mask="url(#wooty-illu-app-b)">
      <g transform="translate(122 108)">
        <mask id="wooty-illu-app-i" fill="#fff">
          <use xlink:href="#wooty-illu-app-g"/>
        </mask>
        <use fill="#000" filter="url(#wooty-illu-app-h)" xlink:href="#wooty-illu-app-g"/>
        <g mask="url(#wooty-illu-app-i)">
          <g transform="translate(-54 -13)">
            <rect width="375" height="603" x="53" y="64" fill="#FBFBFC"/>
            <path fill="#7C89B7" d="M53,326.092287 L84.7258383,326.092287 C95.5282456,326.092287 104.285327,334.849368 104.285327,345.651775 L104.285327,359.49468 C104.285327,362.651862 106.844729,365.211264 110.001911,365.211264 L110.001911,365.211264 C113.156419,365.211264 115.713652,362.65403 115.713652,359.499523 C115.713652,359.497909 115.713652,359.496296 115.71365,359.494682 L115.655383,290.740404 C115.651915,286.647982 118.966666,283.327607 123.059088,283.324139 C123.061181,283.324137 123.063275,283.324136 123.065368,283.324136 L123.065368,283.324136 C127.161261,283.324136 130.481638,286.644514 130.481638,290.740406 L130.481638,317.087164 C130.481638,321.595998 133.990416,325.326221 138.490819,325.601818 L138.490819,325.601818 C142.651575,325.856616 146.231089,322.69021 146.485887,318.529454 C146.495293,318.37585 146.5,318.221994 146.5,318.068102 L146.5,236.459318 C146.5,232.33965 149.83965,229 153.959318,229 L153.959318,229 C158.078986,229 161.418636,232.33965 161.418636,236.459318 L161.418636,348.959677 C161.418636,352.910646 164.62153,356.113539 168.572499,356.113539 L168.572499,356.113539 C172.523468,356.113539 175.726361,352.910646 175.726361,348.959677 L175.726361,304.720046 C175.726361,301.181091 178.59525,298.312202 182.134205,298.312202 L182.134205,298.312202 C185.673159,298.312202 188.542049,301.181091 188.542049,304.720046 L188.542049,312.202244 C188.542049,319.873503 194.760832,326.092287 202.432091,326.092287 L428,326.092287 L428,666 C428,683.120827 414.120827,697 397,697 L84,697 C66.8791728,697 53,683.120827 53,666 L53,326.092287 Z"/>
            <circle cx="223" cy="617" r="223" fill="#FFF" opacity=".947"/>
            <circle cx="242.5" cy="605.5" r="203.5" fill="#F0F4FF"/>
            <g transform="translate(53)">
              <g>
                <rect width="375" height="64" fill="url(#wooty-illu-app-f)"/>
                <g transform="translate(47 28)">
                  <rect width="281" height="28" fill="#000" fill-opacity=".1" rx="14"/>
                  <g fill="#FFF" transform="translate(10 4)">
                    <text font-family="SFProText-Regular, SF Pro Text" font-size="14" letter-spacing="-.11" opacity=".304">
                      <tspan x="26" y="14">Rechercher une ville</tspan>
                    </text>
                    <text font-family="FontAwesome" font-size="17" opacity=".3">
                      <tspan x="0" y="15"></tspan>
                    </text>
                  </g>
                </g>
              </g>
              <rect width="375" height="1" y="63.5" fill="#DADADA"/>
              <text fill="#FFF" font-family="FontAwesome" font-size="17">
                <tspan x="16" y="49"></tspan>
              </text>
              <text fill="#FFF" font-family="FontAwesome" font-size="17" opacity=".249" transform="rotate(-180 352.5 42.5)">
                <tspan x="346" y="49"></tspan>
              </text>
            </g>
            <path fill="#AE7CF9" d="M227.328449,306.874667 C228.574678,302.6688 232.604963,300.584266 239.419304,300.621067 C246.233645,300.657867 247.299614,295.117512 242.617211,284 L221,289.355417 L222.191964,312.261895 L227.328449,306.874667 Z"/>
            <g transform="translate(53 64)">
              <rect width="375" height="60" fill="#FFF"/>
              <polygon fill="#BBB" points="0 .25 375 .25 375 0 0 0"/>
              <g fill="#AE7CF9" transform="translate(18 22)">
                <path d="M.641698828 8.43682669L15.9787341 1.0594344C16.4764337.820031866 17.073973 1.029423 17.3133756 1.52712258 17.438016 1.78624064 17.445087 2.08647215 17.3327834 2.35117067L10.9980222 17.2821326C10.7823155 17.7905508 10.1952963 18.0278404 9.6868781 17.8121337 9.31740551 17.6553776 9.07744957 17.292912 9.07744957 16.8915611L9.07744957 11.3379915C9.07744957 10.7857068 8.62973432 10.3379915 8.07744957 10.3379915L1.07517546 10.3379915C.522890705 10.3379915.0751754551 9.89027625.0751754551 9.3379915.0751754551 8.95370168.295390361 8.60340735.641698828 8.43682669zM35.449 9.971L35.449 2.287 37.047 2.287 37.047 9.971C37.047 11.212 36.622 12.232 35.789 13.014 34.956 13.779 33.953 14.17 32.763 14.17 31.573 14.17 30.553 13.779 29.72 13.014 28.887 12.232 28.479 11.212 28.479 9.971L28.479 2.287 30.077 2.287 30.077 9.971C30.077 10.753 30.332 11.399 30.859 11.892 31.386 12.385 32.015 12.64 32.763 12.64 33.511 12.64 34.14 12.385 34.667 11.892 35.194 11.399 35.449 10.753 35.449 9.971zM41.96 3.069L41.96 6.061 43.643 6.061 43.643 7.37 41.96 7.37 41.96 14 40.413 14 40.413 7.37 38.985 7.37 38.985 6.061 40.413 6.061 40.413 3.069 41.96 3.069zM46.924 14L45.394 14 45.394 6.061 46.924 6.061 46.924 14zM45.394 3.851C44.986 3.46 44.986 2.814 45.394 2.423 45.819 2.032 46.499 2.032 46.907 2.423 47.332 2.814 47.332 3.46 46.907 3.851 46.499 4.242 45.819 4.242 45.394 3.851zM49.508 14L49.508 1.743 51.055 1.743 51.055 14 49.508 14zM55.169 14L53.639 14 53.639 6.061 55.169 6.061 55.169 14zM53.639 3.851C53.231 3.46 53.231 2.814 53.639 2.423 54.064 2.032 54.744 2.032 55.152 2.423 55.577 2.814 55.577 3.46 55.152 3.851 54.744 4.242 54.064 4.242 53.639 3.851zM60.643 10.753L59.555 10.498C58.042 10.09 57.294 9.325 57.43 7.914 57.481 7.336 57.787 6.86 58.314 6.469 58.841 6.078 59.47 5.891 60.184 5.891 61.663 5.891 62.802 6.622 62.938 8.135L61.459 8.135C61.374 7.574 60.847 7.234 60.218 7.234 59.623 7.234 59.147 7.523 59.028 7.948 58.96 8.203 58.96 8.407 59.045 8.577 59.164 8.832 59.487 9.036 59.98 9.189L61.153 9.478C62.53 9.818 63.21 10.583 63.21 11.79 63.21 12.504 62.904 13.082 62.309 13.524 61.714 13.949 61 14.17 60.133 14.17 59.368 14.17 58.688 13.932 58.093 13.473 57.498 13.014 57.192 12.385 57.175 11.62L58.586 11.62C58.654 12.045 58.875 12.334 59.232 12.521 59.589 12.742 59.997 12.827 60.49 12.793 61.221 12.742 61.68 12.317 61.697 11.756 61.714 11.212 61.306 10.906 60.643 10.753zM66.236 9.41L71.166 9.41C70.979 8.101 70.044 7.285 68.752 7.285 67.409 7.285 66.423 8.101 66.236 9.41zM72.696 10.005C72.696 10.294 72.696 10.498 72.679 10.617L66.236 10.617C66.423 11.926 67.443 12.776 68.803 12.776 69.772 12.776 70.656 12.317 71.081 11.552 71.234 11.603 71.455 11.705 71.761 11.824L72.407 12.062C71.744 13.422 70.333 14.17 68.752 14.17 67.596 14.17 66.627 13.779 65.845 13.014 65.08 12.249 64.689 11.246 64.689 10.005 64.689 8.764 65.08 7.778 65.845 7.03 66.627 6.265 67.596 5.891 68.752 5.891 69.891 5.891 70.843 6.265 71.574 7.03 72.322 7.778 72.696 8.764 72.696 10.005zM76.215 11.11L76.215 14 74.668 14 74.668 6.061 76.215 6.061 76.215 7.846C76.606 6.537 77.337 5.891 78.425 5.891 79.054 5.891 79.513 5.993 79.802 6.197L79.564 7.642C79.19 7.455 78.799 7.37 78.391 7.37 76.946 7.37 76.215 8.866 76.215 11.11zM94.524 7.404C93.232 7.387 92.416 8.356 92.416 9.716L92.416 14 90.869 14 90.869 9.495C90.869 8.203 90.189 7.404 89.152 7.404 87.928 7.404 86.942 8.169 86.942 9.716L86.942 14 85.395 14 85.395 6.061 86.942 6.061 86.942 7.251C87.333 6.452 88.336 5.993 89.135 5.925 89.441 5.908 89.73 5.925 90.002 5.976 91.005 6.129 91.702 6.656 92.076 7.523 92.637 6.435 93.555 5.891 94.83 5.891 96.802 5.891 97.89 7.166 97.89 9.41L97.89 14 96.343 14 96.343 9.512C96.343 8.203 95.663 7.404 94.524 7.404zM108.192 14L106.662 14 106.662 12.776C106.135 13.66 105.03 14.17 103.874 14.17 102.752 14.17 101.8 13.779 101.018 13.014 100.236 12.249 99.845 11.246 99.845 10.022 99.845 8.781 100.236 7.795 101.018 7.03 101.8 6.265 102.752 5.891 103.874 5.891 105.03 5.891 106.169 6.384 106.662 7.251L106.662 6.061 108.192 6.061 108.192 14zM106.645 10.005C106.645 9.206 106.373 8.56 105.846 8.101 105.319 7.642 104.707 7.404 104.01 7.404 103.279 7.404 102.65 7.642 102.157 8.135 101.664 8.611 101.426 9.24 101.426 10.005 101.426 10.77 101.681 11.416 102.174 11.909 102.667 12.402 103.279 12.657 104.01 12.657 104.741 12.657 105.37 12.419 105.88 11.943 106.39 11.467 106.645 10.821 106.645 10.005zM115.196 6.061L116.743 6.061 116.743 7.302C117.27 6.418 118.375 5.891 119.514 5.891 120.619 5.891 121.571 6.282 122.336 7.047 123.101 7.812 123.492 8.815 123.492 10.056 123.492 11.28 123.101 12.266 122.336 13.031 121.571 13.796 120.636 14.17 119.514 14.17 118.358 14.17 117.236 13.694 116.743 12.81L116.743 17.859 115.196 17.859 115.196 6.061zM116.76 10.073C116.76 10.872 117.015 11.518 117.542 11.977 118.069 12.436 118.664 12.657 119.361 12.657 120.84 12.657 121.928 11.62 121.928 10.073 121.928 9.291 121.673 8.645 121.18 8.152 120.687 7.659 120.092 7.404 119.361 7.404 118.63 7.404 118.018 7.642 117.508 8.135 117.015 8.611 116.76 9.257 116.76 10.073zM125.022 10.005C125.022 8.781 125.413 7.795 126.212 7.03 127.011 6.265 127.997 5.891 129.17 5.891 130.343 5.891 131.329 6.265 132.128 7.03 132.927 7.795 133.335 8.781 133.335 10.005 133.335 11.229 132.927 12.232 132.111 13.014 131.312 13.779 130.326 14.17 129.17 14.17 128.014 14.17 127.028 13.779 126.229 13.014 125.43 12.249 125.022 11.246 125.022 10.005zM131.788 10.005C131.788 9.223 131.533 8.594 131.023 8.118 130.53 7.642 129.901 7.404 129.17 7.404 128.439 7.404 127.81 7.642 127.3 8.118 126.807 8.594 126.552 9.223 126.552 10.005 126.552 10.804 126.807 11.45 127.3 11.943 127.81 12.436 128.439 12.674 129.17 12.674 129.901 12.674 130.53 12.436 131.023 11.943 131.533 11.45 131.788 10.804 131.788 10.005zM138.282 10.753L137.194 10.498C135.681 10.09 134.933 9.325 135.069 7.914 135.12 7.336 135.426 6.86 135.953 6.469 136.48 6.078 137.109 5.891 137.823 5.891 139.302 5.891 140.441 6.622 140.577 8.135L139.098 8.135C139.013 7.574 138.486 7.234 137.857 7.234 137.262 7.234 136.786 7.523 136.667 7.948 136.599 8.203 136.599 8.407 136.684 8.577 136.803 8.832 137.126 9.036 137.619 9.189L138.792 9.478C140.169 9.818 140.849 10.583 140.849 11.79 140.849 12.504 140.543 13.082 139.948 13.524 139.353 13.949 138.639 14.17 137.772 14.17 137.007 14.17 136.327 13.932 135.732 13.473 135.137 13.014 134.831 12.385 134.814 11.62L136.225 11.62C136.293 12.045 136.514 12.334 136.871 12.521 137.228 12.742 137.636 12.827 138.129 12.793 138.86 12.742 139.319 12.317 139.336 11.756 139.353 11.212 138.945 10.906 138.282 10.753zM144.385 14L142.855 14 142.855 6.061 144.385 6.061 144.385 14zM142.855 3.851C142.447 3.46 142.447 2.814 142.855 2.423 143.28 2.032 143.96 2.032 144.368 2.423 144.793 2.814 144.793 3.46 144.368 3.851 143.96 4.242 143.28 4.242 142.855 3.851zM149.111 3.069L149.111 6.061 150.794 6.061 150.794 7.37 149.111 7.37 149.111 14 147.564 14 147.564 7.37 146.136 7.37 146.136 6.061 147.564 6.061 147.564 3.069 149.111 3.069zM154.075 14L152.545 14 152.545 6.061 154.075 6.061 154.075 14zM152.545 3.851C152.137 3.46 152.137 2.814 152.545 2.423 152.97 2.032 153.65 2.032 154.058 2.423 154.483 2.814 154.483 3.46 154.058 3.851 153.65 4.242 152.97 4.242 152.545 3.851zM156.132 10.005C156.132 8.781 156.523 7.795 157.322 7.03 158.121 6.265 159.107 5.891 160.28 5.891 161.453 5.891 162.439 6.265 163.238 7.03 164.037 7.795 164.445 8.781 164.445 10.005 164.445 11.229 164.037 12.232 163.221 13.014 162.422 13.779 161.436 14.17 160.28 14.17 159.124 14.17 158.138 13.779 157.339 13.014 156.54 12.249 156.132 11.246 156.132 10.005zM162.898 10.005C162.898 9.223 162.643 8.594 162.133 8.118 161.64 7.642 161.011 7.404 160.28 7.404 159.549 7.404 158.92 7.642 158.41 8.118 157.917 8.594 157.662 9.223 157.662 10.005 157.662 10.804 157.917 11.45 158.41 11.943 158.92 12.436 159.549 12.674 160.28 12.674 161.011 12.674 161.64 12.436 162.133 11.943 162.643 11.45 162.898 10.804 162.898 10.005zM168.049 9.716L168.049 14 166.502 14 166.502 6.061 168.049 6.061 168.049 7.251C168.508 6.367 169.562 5.891 170.531 5.891 172.503 5.891 173.591 7.166 173.591 9.41L173.591 14 172.044 14 172.044 9.512C172.044 8.203 171.381 7.404 170.293 7.404 169.052 7.404 168.049 8.152 168.049 9.716zM188.313 14L186.783 14 186.783 12.776C186.256 13.66 185.151 14.17 183.995 14.17 182.873 14.17 181.921 13.779 181.139 13.014 180.357 12.249 179.966 11.246 179.966 10.022 179.966 8.781 180.357 7.795 181.139 7.03 181.921 6.265 182.873 5.891 183.995 5.891 185.151 5.891 186.29 6.384 186.783 7.251L186.783 6.061 188.313 6.061 188.313 14zM186.766 10.005C186.766 9.206 186.494 8.56 185.967 8.101 185.44 7.642 184.828 7.404 184.131 7.404 183.4 7.404 182.771 7.642 182.278 8.135 181.785 8.611 181.547 9.24 181.547 10.005 181.547 10.77 181.802 11.416 182.295 11.909 182.788 12.402 183.4 12.657 184.131 12.657 184.862 12.657 185.491 12.419 186.001 11.943 186.511 11.467 186.766 10.821 186.766 10.005zM194.569 5.891C195.827 5.891 196.847 6.316 197.629 7.166L196.456 8.152C195.963 7.659 195.334 7.404 194.569 7.404 193.838 7.404 193.209 7.642 192.682 8.135 192.155 8.611 191.9 9.24 191.9 10.005 191.9 10.787 192.155 11.433 192.682 11.926 193.209 12.419 193.838 12.674 194.569 12.674 195.334 12.674 195.963 12.419 196.456 11.892L197.646 12.878C196.847 13.745 195.827 14.17 194.569 14.17 193.396 14.17 192.41 13.779 191.594 13.014 190.778 12.232 190.37 11.229 190.37 10.005 190.37 8.781 190.778 7.795 191.594 7.03 192.41 6.265 193.396 5.891 194.569 5.891zM201.743 3.069L201.743 6.061 203.426 6.061 203.426 7.37 201.743 7.37 201.743 14 200.196 14 200.196 7.37 198.768 7.37 198.768 6.061 200.196 6.061 200.196 3.069 201.743 3.069zM210.617 10.345L210.617 6.061 212.164 6.061 212.164 14 210.617 14 210.617 12.81C210.158 13.694 209.121 14.17 208.152 14.17 206.18 14.17 205.075 12.895 205.092 10.651L205.092 6.061 206.639 6.061 206.639 10.549C206.639 11.858 207.285 12.657 208.373 12.657 209.648 12.657 210.617 11.926 210.617 10.345zM215.751 9.41L220.681 9.41C220.494 8.101 219.559 7.285 218.267 7.285 216.924 7.285 215.938 8.101 215.751 9.41zM222.211 10.005C222.211 10.294 222.211 10.498 222.194 10.617L215.751 10.617C215.938 11.926 216.958 12.776 218.318 12.776 219.287 12.776 220.171 12.317 220.596 11.552 220.749 11.603 220.97 11.705 221.276 11.824L221.922 12.062C221.259 13.422 219.848 14.17 218.267 14.17 217.111 14.17 216.142 13.779 215.36 13.014 214.595 12.249 214.204 11.246 214.204 10.005 214.204 8.764 214.595 7.778 215.36 7.03 216.142 6.265 217.111 5.891 218.267 5.891 219.406 5.891 220.358 6.265 221.089 7.03 221.837 7.778 222.211 8.764 222.211 10.005zM224.183 14L224.183 1.743 225.73 1.743 225.73 14 224.183 14zM228.314 14L228.314 1.743 229.861 1.743 229.861 14 228.314 14zM233.465 9.41L238.395 9.41C238.208 8.101 237.273 7.285 235.981 7.285 234.638 7.285 233.652 8.101 233.465 9.41zM239.925 10.005C239.925 10.294 239.925 10.498 239.908 10.617L233.465 10.617C233.652 11.926 234.672 12.776 236.032 12.776 237.001 12.776 237.885 12.317 238.31 11.552 238.463 11.603 238.684 11.705 238.99 11.824L239.636 12.062C238.973 13.422 237.562 14.17 235.981 14.17 234.825 14.17 233.856 13.779 233.074 13.014 232.309 12.249 231.918 11.246 231.918 10.005 231.918 8.764 232.309 7.778 233.074 7.03 233.856 6.265 234.825 5.891 235.981 5.891 237.12 5.891 238.072 6.265 238.803 7.03 239.551 7.778 239.925 8.764 239.925 10.005z"/>
              </g>
              <polygon fill="#BBB" points="0 60.25 375 60.25 375 60 0 60"/>
            </g>
            <path fill="#AE7CF9" d="M213.0542 230.324037L214.365018 234.152117 213.0542 237.980197C212.875284 238.502698 213.153815 239.071309 213.676317 239.250225 213.98047 239.354374 214.316149 239.30594 214.578456 239.120059L220.437617 234.968023C220.888229 234.648701 220.994661 234.024545 220.675339 233.573933 220.610082 233.481844 220.529705 233.401468 220.437617 233.33621L214.578456 229.184174C214.127843 228.864852 213.503688 228.971284 213.184366 229.421897 212.998485 229.684204 212.950051 230.019883 213.0542 230.324037zM213.0542 297.324037L214.365018 301.152117 213.0542 304.980197C212.875284 305.502698 213.153815 306.071309 213.676317 306.250225 213.98047 306.354374 214.316149 306.30594 214.578456 306.120059L220.437617 301.968023C220.888229 301.648701 220.994661 301.024545 220.675339 300.573933 220.610082 300.481844 220.529705 300.401468 220.437617 300.33621L214.578456 296.184174C214.127843 295.864852 213.503688 295.971284 213.184366 296.421897 212.998485 296.684204 212.950051 297.019883 213.0542 297.324037z"/>
            <ellipse cx="221.5" cy="430" fill="#C9DAFF" rx="12.5" ry="9"/>
            <ellipse cx="221.5" cy="430.5" fill="#C9DAFF" opacity=".487" rx="21.5" ry="15.5"/>
            <g transform="translate(219 220)">
              <path fill="#D5E0F8" d="M3,22 L6,22 C7.65685425,22 9,23.3431458 9,25 L9,206 C9,207.656854 7.65685425,209 6,209 L3,209 C1.34314575,209 2.02906125e-16,207.656854 0,206 L0,25 C-2.02906125e-16,23.3431458 1.34314575,22 3,22 Z"/>
              <path fill="#D5E0F8" d="M3,0 L6,9.92669998e-16 C7.65685425,6.52503847e-16 9,1.5011629 9,3.35294118 L9,205.647059 C9,207.498837 7.65685425,209 6,209 L3,209 C1.34314575,209 2.02906125e-16,207.498837 0,205.647059 L0,3.35294118 C-2.02906125e-16,1.5011629 1.34314575,3.40166151e-16 3,0 Z"/>
              <path fill="#AE7CF9" d="M10,5.29730076 L131.651687,5.29730076 C133.308541,5.29730076 134.651687,6.64044651 134.651687,8.29730076 C134.651687,8.85036429 134.498801,9.39266376 134.20992,9.86428563 L114.782196,41.5816655 C114.193174,42.5432931 114.193174,43.7540076 114.782196,44.7156353 L134.20992,76.4330151 C135.075342,77.8458884 134.631545,79.6928116 133.218672,80.5582335 C132.74705,80.8471142 132.20475,81 131.651687,81 L10,81 C8.34314575,81 7,79.6568542 7,78 L7,8.29730076 C7,6.64044651 8.34314575,5.29730076 10,5.29730076 Z"/>
              <g fill="#FFF" transform="translate(30 29)">
                <path d="M8.43536622 20.1841294C8.01808543 19.0914955 7.80944503 17.8508751 7.80944503 16.4628848 7.80944503 15.0748945 8.01808543 13.8355073 8.43536622 12.7416402 8.85322981 11.6477731 9.41970597 10.7222407 10.1353775 9.96565954 10.8504662 9.20846179 11.66463 8.63193094 12.5784516 8.23113409 13.4928561 7.83218707 14.4667055 7.63240526 15.5 7.63240526 16.4930817 7.63240526 17.4570236 7.83218707 18.3918258 8.23113409 19.3248797 8.63193094 20.1501166 9.20846179 20.8657881 9.96565954 21.5808768 10.7222407 22.147353 11.6477731 22.5646338 12.7416402 22.9824974 13.8355073 23.1911378 15.0748945 23.1911378 16.4628848 23.1911378 16.9777546 23.1520905 17.4661101 23.0949767 17.9409003 25.6581065 17.4685766 28.2935028 17.152872 30.9889269 17.0104349 30.9935893 16.8279182 31 16.6472513 31 16.4628848 31 14.065503 30.6130245 11.8580373 29.8373252 9.83987099 29.0627914 7.82108808 27.9892841 6.08656263 26.6191345 4.63629464 25.2478192 3.18541005 23.6171605 2.05023004 21.7300722 1.23013803 19.8418183.410662619 17.7659046 0 15.5 0 13.2346781 0 11.1575989.410662619 9.2705106 1.23013803 7.38167394 2.05023004 5.75276357 3.18541005 4.38144834 4.63629464 3.0101331 6.08656263 1.9372086 7.82108808 1.16209204 9.83987099.386975485 11.8580373 0 14.065503 0 16.4628848 0 18.85965.386975485 21.0671157 1.16209204 23.0858986 1.56480298 24.1347531 2.0526019 25.1040649 2.61732967 26 4.77541736 24.5842622 7.08386599 23.3146611 9.51586705 22.1992126 9.08693037 21.6060333 8.72326666 20.9382441 8.43536622 20.1841294M40.809445 16.8167847C40.809445 15.3989569 41.0180854 14.1329269 41.4353662 13.0155451 41.8532298 11.8981633 42.419706 10.9527349 43.1347947 10.1798896 43.8504662 9.40641455 44.6640472 8.81749011 45.5784516 8.4080774 46.4928561 8.00055428 47.4667055 7.79647779 48.4994172 7.79647779 49.4930817 7.79647779 50.4570236 8.00055428 51.3918258 8.4080774 52.3242969 8.81749011 53.1501166 9.40641455 53.8652053 10.1798896 54.5808768 10.9527349 55.147353 11.8981633 55.564051 13.0155451 55.9824974 14.1329269 56.1911378 15.3989569 56.1911378 16.8167847 56.1911378 18.2346124 55.9824974 19.5019022 55.564051 20.6180242 55.4469093 20.9316974 55.3151978 21.228994 55.1741615 21.514953 57.6498722 22.5183291 60.0055271 23.6879897 62.2318018 25 62.4497669 24.5433474 62.6531621 24.0722078 62.8373252 23.5821723 63.6130245 21.5199919 64 19.2650727 64 16.8167847 64 14.3678668 63.6130245 12.1129475 62.8373252 10.051397 62.0622086 7.9892167 60.9892841 6.21740445 59.6185517 4.73596029 58.2472364 3.25388627 56.6171605 2.09430349 54.7300722 1.2565821 52.8418183.419490565 50.7659046 0 48.4994172 0 46.2346781 0 44.1575989.419490565 42.2705106 1.2565821 40.3816739 2.09430349 38.7527636 3.25388627 37.3814483 4.73596029 36.0101331 6.21740445 34.9366258 7.9892167 34.162092 10.051397 33.3869755 12.1129475 33 14.3678668 33 16.8167847 33 16.9704719 33.0064107 17.1216397 33.0093247 17.274697 35.6750263 17.274697 38.2917732 17.4491698 40.8455783 17.7785896 40.8234321 17.4655463 40.809445 17.1455746 40.809445 16.8167847"/>
              </g>
            </g>
            <ellipse cx="101.466" cy="492.975" fill="#C9D9FF" rx="29.5" ry="38.5" transform="rotate(29 101.466 492.975)"/>
            <path fill="#BACDFB" d="M78,531.396632 C79.4327961,532.635179 80.9979263,533.733628 82.6925647,534.672982 C99.8954009,544.20867 123.929624,533.738611 136.374505,511.287452 C146.864629,492.362767 145.771788,470.965948 134.866521,459 C147.978514,470.334355 150.007942,493.401448 138.788997,513.64096 C126.344116,536.092119 102.309893,546.562177 85.1070564,537.02649 C82.4049529,535.528689 80.0321153,533.626397 78,531.396632 Z"/>
            <path fill="#BACDFB" d="M123.598371,461.973216 C109.528061,455.805093 90.900463,464.513645 81.0458851,482.291774 C71.5289875,499.460712 73.5212868,519.08604 85.0959619,528.2141 C84.4478703,527.929991 83.8094475,527.614319 83.1819961,527.266517 C68.9323419,519.367804 65.7373962,497.88878 76.0458851,479.291774 C86.3543741,460.694768 106.262683,452.022087 120.512337,459.920799 C121.606571,460.527343 122.635619,461.213967 123.598371,461.973216 Z"/>
            <circle cx="354.5" cy="382.5" r="3.5" fill="#F0F4FF"/>
            <circle cx="125.5" cy="249.5" r="3.5" fill="#7C89B7"/>
            <circle cx="385.5" cy="398.5" r="4.5" fill="#F0F4FF"/>
            <path fill="#F0F4FF" d="M379.808264,365.658912 L380.287206,364.330113 C380.380703,364.07071 380.666785,363.936217 380.926188,364.029714 C381.087631,364.087903 381.207874,364.224928 381.244599,364.392561 L381.489371,365.509867 C381.566954,365.864008 381.830132,366.148421 382.177201,366.253196 L383.337186,366.603379 C383.612576,366.686515 383.768428,366.977157 383.685292,367.252547 C383.633951,367.422614 383.499473,367.554787 383.328544,367.60318 L382.168346,367.931654 C381.825775,368.028643 381.560607,368.300459 381.472129,368.645326 L381.244599,369.532185 C381.1756,369.801124 380.901648,369.963208 380.632709,369.89421 C380.480644,369.855197 380.355534,369.747386 380.294484,369.602753 L379.823298,368.486467 C379.716049,368.232384 379.508627,368.033873 379.250083,367.937878 L378.348643,367.60318 C378.071872,367.500417 377.93081,367.192744 378.033573,366.915972 C378.086343,366.773849 378.196977,366.660815 378.337936,366.605009 L379.235611,366.249617 C379.502404,366.143993 379.710969,365.928853 379.808264,365.658912 Z"/>
            <path fill="#7C89B7" d="M102.808264,232.658912 L103.287206,231.330113 C103.380703,231.07071 103.666785,230.936217 103.926188,231.029714 C104.087631,231.087903 104.207874,231.224928 104.244599,231.392561 L104.489371,232.509867 C104.566954,232.864008 104.830132,233.148421 105.177201,233.253196 L106.337186,233.603379 C106.612576,233.686515 106.768428,233.977157 106.685292,234.252547 C106.633951,234.422614 106.499473,234.554787 106.328544,234.60318 L105.168346,234.931654 C104.825775,235.028643 104.560607,235.300459 104.472129,235.645326 L104.244599,236.532185 C104.1756,236.801124 103.901648,236.963208 103.632709,236.89421 C103.480644,236.855197 103.355534,236.747386 103.294484,236.602753 L102.823298,235.486467 C102.716049,235.232384 102.508627,235.033873 102.250083,234.937878 L101.348643,234.60318 C101.071872,234.500417 100.93081,234.192744 101.033573,233.915972 C101.086343,233.773849 101.196977,233.660815 101.337936,233.605009 L102.235611,233.249617 C102.502404,233.143993 102.710969,232.928853 102.808264,232.658912 Z"/>
            <path fill="#F0F4FF" d="M324.393579,356.395663 L325.095995,354.446845 C325.222554,354.095714 325.609799,353.913662 325.960931,354.040221 C326.179462,354.118987 326.342225,354.304465 326.391936,354.531377 L326.7677,356.246618 C326.845283,356.600759 327.108462,356.885173 327.455531,356.989948 L329.224493,357.523972 C329.597264,357.636506 329.808228,358.029924 329.695694,358.402695 C329.626198,358.6329 329.444167,358.811811 329.212795,358.877317 L327.446676,359.377339 C327.104104,359.474328 326.838936,359.746144 326.750458,360.091011 L326.391936,361.488447 C326.298539,361.852486 325.927713,362.071885 325.563674,361.978488 C325.357836,361.925679 325.188485,361.779745 325.105847,361.583968 L324.408613,359.932152 C324.301364,359.678069 324.093942,359.479558 323.835398,359.383563 L322.471928,358.877317 C322.097287,358.738216 321.906344,358.321744 322.045445,357.947102 C322.116875,357.754722 322.266631,357.601718 322.457435,357.526178 L323.820926,356.986368 C324.087718,356.880744 324.296284,356.665604 324.393579,356.395663 Z"/>
            <path fill="#C9D9FF" d="M223,220 L225,220 C226.656854,220 228,221.496373 228,223.342242 L228,424.990844 C228,426.836713 226.656854,428.333086 225,428.333086 L223,428.333086 C224.656854,428.333086 226,426.836713 226,424.990844 L226,223.342242 C226,221.496373 224.656854,220 223,220 Z"/>
            <ellipse cx="284.983" cy="431.893" fill="#C9D9FF" opacity=".719" rx="28" ry="12.5" transform="rotate(5 284.983 431.893)"/>
            <g transform="translate(296 349)">
              <path fill="#E3EBFF" d="M6,14.34983 C7.28606224,15.8960178 8.06315648,17.5380089 8.33128271,19.2758033 C8.59940895,21.0135977 10.9926458,21.1354546 15.5109934,19.641374 L19.4596497,16.5429467 C19.1162347,13.9923626 18.2919569,12.0016227 16.986816,10.5707272 C15.6816752,9.13983164 12.0194032,10.3995326 6,14.34983 Z"/>
              <g transform="rotate(-14 78.375 -19.312)">
                <ellipse cx="7" cy="4.5" fill="#E3EBFF" rx="7" ry="4.5"/>
                <path fill="#B0BDEB" d="M0.0515290398,3.95121951 C0.472614298,6.17765778 3.42298385,7.90243902 7,7.90243902 C10.5770162,7.90243902 13.5273857,6.17765778 13.948471,3.95121951 C13.9824893,4.13108721 14,4.31422901 14,4.5 C14,6.98528137 10.8659932,9 7,9 C3.13400675,9 0,6.98528137 0,4.5 C0,4.31422901 0.0175107436,4.13108721 0.0515290398,3.95121951 Z" opacity=".308"/>
              </g>
              <g transform="rotate(-14 65.658 -16.74)">
                <ellipse cx="7" cy="4.5" fill="#E3EBFF" rx="7" ry="4.5"/>
                <path fill="#B0BDEB" d="M0.0515290398,3.95121951 C0.472614298,6.17765778 3.42298385,7.90243902 7,7.90243902 C10.5770162,7.90243902 13.5273857,6.17765778 13.948471,3.95121951 C13.9824893,4.13108721 14,4.31422901 14,4.5 C14,6.98528137 10.8659932,9 7,9 C3.13400675,9 0,6.98528137 0,4.5 C0,4.31422901 0.0175107436,4.13108721 0.0515290398,3.95121951 Z" opacity=".308"/>
              </g>
              <g transform="rotate(-14 35.653 -8.023)">
                <ellipse cx="7" cy="4.5" fill="#E3EBFF" rx="7" ry="4.5"/>
                <path fill="#B0BDEB" d="M0.0515290398,3.95121951 C0.472614298,6.17765778 3.42298385,7.90243902 7,7.90243902 C10.5770162,7.90243902 13.5273857,6.17765778 13.948471,3.95121951 C13.9824893,4.13108721 14,4.31422901 14,4.5 C14,6.98528137 10.8659932,9 7,9 C3.13400675,9 0,6.98528137 0,4.5 C0,4.31422901 0.0175107436,4.13108721 0.0515290398,3.95121951 Z" opacity=".308"/>
              </g>
              <g transform="rotate(-14 27.009 -4.95)">
                <ellipse cx="7" cy="4.5" fill="#E3EBFF" rx="7" ry="4.5"/>
                <path fill="#B0BDEB" d="M0.0515290398,3.95121951 C0.472614298,6.17765778 3.42298385,7.90243902 7,7.90243902 C10.5770162,7.90243902 13.5273857,6.17765778 13.948471,3.95121951 C13.9824893,4.13108721 14,4.31422901 14,4.5 C14,6.98528137 10.8659932,9 7,9 C3.13400675,9 0,6.98528137 0,4.5 C0,4.31422901 0.0175107436,4.13108721 0.0515290398,3.95121951 Z" opacity=".308"/>
              </g>
              <g transform="rotate(-23 14.231 1.158)">
                <ellipse cx="7" cy="4.5" fill="#E3EBFF" rx="7" ry="4.5"/>
                <path fill="#B0BDEB" d="M0.0515290398,3.95121951 C0.472614298,6.17765778 3.42298385,7.90243902 7,7.90243902 C10.5770162,7.90243902 13.5273857,6.17765778 13.948471,3.95121951 C13.9824893,4.13108721 14,4.31422901 14,4.5 C14,6.98528137 10.8659932,9 7,9 C3.13400675,9 0,6.98528137 0,4.5 C0,4.31422901 0.0175107436,4.13108721 0.0515290398,3.95121951 Z" opacity=".308"/>
              </g>
            </g>
            <g transform="translate(243 364)">
              <ellipse cx="42" cy="32" fill="#F0F4FF" rx="42" ry="32"/>
              <path fill="#C9D9FF" d="M0.309174239,28 C2.83568579,43.8754728 20.5379031,56.173913 42,56.173913 C63.4620969,56.173913 81.1643142,43.8754728 83.6908258,28 C83.8949355,29.2825349 84,30.5884155 84,31.9130435 C84,49.6341802 65.1959595,64 42,64 C18.8040405,64 0,49.6341802 0,31.9130435 C0,30.5884155 0.105064462,29.2825349 0.309174239,28 Z" opacity=".308"/>
            </g>
            <g transform="translate(252 356)">
              <ellipse cx="33.5" cy="20.5" fill="#F0F4FF" rx="33.5" ry="20.5"/>
              <path fill="#C9D9FF" d="M0.246603262,18 C2.261797,28.1426632 16.3814227,36 33.5,36 C50.6185773,36 64.738203,28.1426632 66.7533967,18 C66.9161986,18.8193973 67,19.6537099 67,20.5 C67,31.8218374 52.0015391,41 33.5,41 C14.9984609,41 0,31.8218374 0,20.5 C0,19.6537099 0.0838014159,18.8193973 0.246603262,18 Z" opacity=".308"/>
            </g>
            <circle cx="271" cy="527" r="64" fill="#C9D9FF"/>
            <path fill="#BACDFB" d="M233.183956,578.638165 C217.307363,566.991611 207,548.199512 207,527 C207,491.653776 235.653776,463 271,463 C289.481459,463 306.133254,470.833725 317.816044,483.361835 C307.221386,475.589938 294.146712,471 280,471 C244.653776,471 216,499.653776 216,535 C216,551.864765 222.523135,567.20597 233.183956,578.638165 Z"/>
            <path fill="#BACDFB" d="M213.99999,583.146665 C228.311292,596.544723 247.546273,604.747644 268.697149,604.747644 C312.907811,604.747644 348.747634,568.907821 348.747634,524.697159 C348.747634,503.546283 340.544713,484.311302 327.146654,470 C342.749597,484.607272 352.5,505.389734 352.5,528.449525 C352.5,572.660187 316.660177,608.50001 272.449515,608.50001 C249.389724,608.50001 228.607261,598.749607 214,583.146674 Z"/>
            <path fill="#C9D9FF" d="M259.167155,350 C260.575348,361.912692 270.708633,371.152542 283,371.152542 C295.291367,371.152542 305.424652,361.912692 306.832845,350 C306.943228,350.933784 307,351.883991 307,352.847458 C307,366.102292 296.254834,376.847458 283,376.847458 C269.745166,376.847458 259,366.102292 259,352.847458 C259,351.883991 259.056772,350.933784 259.167155,350 Z"/>
            <circle cx="282.5" cy="342.5" r="29.5" fill="#F0F4FF"/>
            <g transform="translate(262 330)">
              <circle cx="21" cy="20" r="20" fill="#AE7CF9"/>
              <path fill="#A468FF" d="M14.5699851,35.9793521 C8.36405934,33.4010487 4,27.2812718 4,20.1422141 C4,10.6748307 11.6748307,3 21.1422141,3 C25.2626728,3 29.0435819,4.45378436 31.9999967,6.87640826 C29.9760041,6.03552325 27.7560947,5.57133212 25.4277676,5.57133212 C15.9603842,5.57133212 8.28555353,13.2461628 8.28555353,22.7135462 C8.28555353,28.060471 10.7335851,32.8356274 14.5699851,35.9793521 Z"/>
              <path stroke="#FFF" stroke-linecap="round" stroke-width="4" d="M28.7223962,23.230022 C28.9025096,22.6860298 29,22.1043999 29,21.5 C29,18.4624339 26.5375661,16 23.5,16 C20.4624339,16 18,18.4624339 18,21.5 C18,22.0540777 18.0819322,22.5890191 18.234342,23.0933697" transform="rotate(16 23.5 19.615)"/>
              <path stroke="#FFF" stroke-linecap="round" stroke-width="4" d="M9.77286965,18.9154725 C9.92023512,18.470388 10,17.994509 10,17.5 C10,15.0147186 7.98528137,13 5.5,13 C3.01471863,13 1,15.0147186 1,17.5 C1,17.9533363 1.06703541,18.3910156 1.19173436,18.8036662" transform="rotate(14 5.5 15.958)"/>
            </g>
            <path fill="#C9D9FF" d="M270.611649,365.727198 C262.539479,361.672825 257,353.31785 257,343.669059 C257,330.044714 268.044714,319 281.669059,319 C287.809722,319 293.426355,321.243643 297.743905,324.955878 C294.41796,323.28537 290.66205,322.344957 286.686495,322.344957 C273.06215,322.344957 262.017436,333.389671 262.017436,347.014016 C262.017436,354.497699 265.349811,361.203063 270.611649,365.727198 Z"/>
            <circle cx="282.5" cy="342.5" r="29.5" fill="#F0F4FF" opacity=".303"/>
            <circle cx="345.5" cy="203.5" r="3.5" fill="#AE7CF9"/>
            <path fill="#AE7CF9" d="M365.808264,199.658912 L366.287206,198.330113 C366.380703,198.07071 366.666785,197.936217 366.926188,198.029714 C367.087631,198.087903 367.207874,198.224928 367.244599,198.392561 L367.489371,199.509867 C367.566954,199.864008 367.830132,200.148421 368.177201,200.253196 L369.337186,200.603379 C369.612576,200.686515 369.768428,200.977157 369.685292,201.252547 C369.633951,201.422614 369.499473,201.554787 369.328544,201.60318 L368.168346,201.931654 C367.825775,202.028643 367.560607,202.300459 367.472129,202.645326 L367.244599,203.532185 C367.1756,203.801124 366.901648,203.963208 366.632709,203.89421 C366.480644,203.855197 366.355534,203.747386 366.294484,203.602753 L365.823298,202.486467 C365.716049,202.232384 365.508627,202.033873 365.250083,201.937878 L364.348643,201.60318 C364.071872,201.500417 363.93081,201.192744 364.033573,200.915972 C364.086343,200.773849 364.196977,200.660815 364.337936,200.605009 L365.235611,200.249617 C365.502404,200.143993 365.710969,199.928853 365.808264,199.658912 Z"/>
            <path stroke="#979797"/>
          </g>
        </g>
      </g>
    </g>
  </g>
</svg>
