<?xml version="1.0" encoding="utf-8"?>
<!-- Generator: Adobe Illustrator 22.0.1, SVG Export Plug-In . SVG Version: 6.00 Build 0)  -->
<svg version="1.1" id="Calque_1" xmlns="http://www.w3.org/2000/svg" xmlns:xlink="http://www.w3.org/1999/xlink" x="0px" y="0px"
	 viewBox="0 0 37 14" style="enable-background:new 0 0 37 14;" xml:space="preserve">
<style type="text/css">
	.st0{fill:#FFFFFF;}
</style>
<g transform="translate(.8)">
	<path class="st0" d="M4.7,10.9c-0.2-0.6-0.3-1.3-0.3-2c0-0.7,0.1-1.4,0.3-2c0.2-0.6,0.5-1.1,0.9-1.5C6,5,6.5,4.6,7,4.4
		c0.5-0.2,1-0.3,1.6-0.3c0.6,0,1.1,0.1,1.6,0.3c0.5,0.2,1,0.5,1.4,0.9c0.4,0.4,0.7,0.9,0.9,1.5c0.2,0.6,0.3,1.3,0.3,2
		c0,0.3,0,0.5-0.1,0.8c1.4-0.3,2.9-0.4,4.4-0.5c0-0.1,0-0.2,0-0.3c0-1.3-0.2-2.5-0.6-3.6c-0.4-1.1-1-2-1.8-2.8
		c-0.8-0.8-1.7-1.4-2.7-1.8C11,0.2,9.9,0,8.6,0C7.3,0,6.2,0.2,5.1,0.7c-1,0.4-2,1.1-2.7,1.8C1.7,3.3,1.1,4.2,0.6,5.3
		C0.2,6.4,0,7.6,0,8.9c0,1.3,0.2,2.5,0.6,3.6C0.9,13,1.1,13.5,1.5,14c1.2-0.8,2.5-1.4,3.8-2C5,11.6,4.8,11.3,4.7,10.9 M22.5,8.7
		c0-0.7,0.1-1.4,0.3-2c0.2-0.6,0.5-1.1,0.9-1.5c0.4-0.4,0.8-0.7,1.4-0.9c0.5-0.2,1-0.3,1.6-0.3c0.6,0,1.1,0.1,1.6,0.3
		c0.5,0.2,1,0.5,1.4,0.9c0.4,0.4,0.7,0.9,0.9,1.5c0.2,0.6,0.3,1.2,0.3,2s-0.1,1.4-0.3,2c-0.1,0.2-0.1,0.3-0.2,0.5
		c1.4,0.5,2.7,1.1,3.9,1.8c0.1-0.2,0.2-0.5,0.3-0.7c0.4-1.1,0.6-2.2,0.6-3.5c0-1.3-0.2-2.4-0.6-3.5c-0.4-1.1-1-2-1.8-2.8
		c-0.8-0.8-1.7-1.4-2.7-1.8c-1-0.4-2.2-0.7-3.5-0.7c-1.3,0-2.4,0.2-3.5,0.7c-1,0.4-2,1-2.7,1.8c-0.8,0.8-1.4,1.7-1.8,2.8
		c-0.4,1.1-0.6,2.2-0.6,3.5c0,0.1,0,0.2,0,0.2c1.5,0,2.9,0.1,4.3,0.3C22.5,9.1,22.5,8.9,22.5,8.7"/>
</g>
</svg>
