<svg width="30" height="27" viewBox="0 0 30 27" xmlns="http://www.w3.org/2000/svg"><title>Group 18</title><g fill="#AE7CF9"><path d="M26.297 1.645a.4.4 0 0 0-.516.227l-.885 2.258a.401.401 0 0 0 .226.518l.003.001a.4.4 0 0 0 .516-.227l.885-2.258a.401.401 0 0 0-.227-.518l-.002-.001zm-.446 3.42a.402.402 0 0 0 .504.259l2.492-.8a.401.401 0 0 0-.245-.762l-2.492.799a.402.402 0 0 0-.259.504zM23.223 1.09a.402.402 0 0 0-.261.502l.825 2.593c.038.12.128.21.238.252a.398.398 0 0 0 .265.008.402.402 0 0 0 .26-.503l-.824-2.592a.4.4 0 0 0-.503-.26z"/><path d="M22.524 5.936h-8.346l1.425-1.692a.553.553 0 0 0-.062-.775.542.542 0 0 0-.768.062l-1.678 1.992-2.321-4.24a.542.542 0 0 0-.74-.214.553.553 0 0 0-.214.747l2.256 4.12h-8.6C2.11 5.937 1 7.058 1 8.436v12.08c0 1.377 1.11 2.497 2.475 2.497h.84v2.438c0 .304.243.55.544.55a.547.547 0 0 0 .545-.55v-2.438h15.45v2.438c0 .304.244.55.544.55a.547.547 0 0 0 .545-.55v-2.438h.582c1.365 0 2.475-1.12 2.475-2.497V8.435c0-1.378-1.11-2.499-2.476-2.499zM24 20.59c0 .778-.627 1.41-1.397 1.41H3.397C2.627 22 2 21.367 2 20.59V8.41C2 7.633 2.627 7 3.397 7h19.205C23.374 7 24 7.633 24 8.41v12.18z" stroke="#AE7CF9" stroke-width=".6"/><path d="M21.7 10c-.827 0-1.5.673-1.5 1.5s.673 1.5 1.5 1.5 1.5-.673 1.5-1.5-.673-1.5-1.5-1.5zm0 2a.5.5 0 1 1 .001-1.001.5.5 0 0 1 0 1.001zm0 3c-.827 0-1.5.673-1.5 1.5s.673 1.5 1.5 1.5 1.5-.673 1.5-1.5-.673-1.5-1.5-1.5zm0 2a.5.5 0 1 1 .002-1.002A.5.5 0 0 1 21.7 17zm-5.865-8.4H5.565A2.378 2.378 0 0 0 3.2 10.985v7.23A2.378 2.378 0 0 0 5.565 20.6h10.27a2.378 2.378 0 0 0 2.365-2.385v-7.23A2.378 2.378 0 0 0 15.835 8.6zm1.324 9.615c0 .736-.594 1.335-1.324 1.335H5.565c-.73 0-1.324-.599-1.324-1.335v-7.23c0-.736.594-1.335 1.324-1.335h10.27c.73 0 1.324.599 1.324 1.335v7.23z"/></g></svg>