<svg width="26" height="21" viewBox="0 0 26 21" xmlns="http://www.w3.org/2000/svg"><title>Group 16</title><g fill="#AE7CF9"><path d="M22.297.645a.4.4 0 0 0-.516.227l-.885 2.258a.401.401 0 0 0 .226.518l.003.001a.4.4 0 0 0 .516-.227l.885-2.258a.401.401 0 0 0-.227-.518l-.002-.001zm-.446 3.42a.402.402 0 0 0 .504.259l2.492-.8a.401.401 0 0 0-.245-.762l-2.492.799a.402.402 0 0 0-.259.504zM19.223.09a.402.402 0 0 0-.261.502l.825 2.593c.038.12.128.21.238.252a.398.398 0 0 0 .265.008.402.402 0 0 0 .26-.503L19.726.35a.4.4 0 0 0-.503-.26z"/><g stroke="#AE7CF9"><path d="M20.128 19.097a2.52 2.52 0 0 0 2.47-3.003l-1.2-6.188a4.454 4.454 0 0 0-4.37-3.61h-.46c-.34 0-.673.102-.956.291a2.88 2.88 0 0 1-1.6.486H9.988a2.88 2.88 0 0 1-1.6-.486 1.722 1.722 0 0 0-.957-.29h-.458a4.454 4.454 0 0 0-4.37 3.61l-1.201 6.187a2.52 2.52 0 0 0 2.47 3.003c.36 0 .698-.18.898-.481l.91-1.37a3.676 3.676 0 0 1 3.06-1.64h6.52c1.23 0 2.378.616 3.06 1.64l.91 1.37c.2.3.537.48.898.48zm0 1.163c-.75 0-1.449-.374-1.864-.999l-.91-1.369a2.514 2.514 0 0 0-2.094-1.122H8.74c-.841 0-1.627.42-2.093 1.122l-.91 1.37a2.24 2.24 0 0 1-1.865.998c-2.313 0-4.051-2.113-3.61-4.388l1.2-6.188a5.616 5.616 0 0 1 5.51-4.55h.46c.569 0 1.126.168 1.6.485.283.189.616.29.956.29h4.024c.34 0 .673-.101.956-.29a2.881 2.881 0 0 1 1.6-.486h.46a5.616 5.616 0 0 1 5.51 4.551l1.2 6.188c.441 2.275-1.297 4.388-3.61 4.388z" stroke-width=".3"/><path d="M18.545 10.062v1.404h-1.12v1.123h-1.401v-1.123h-1.12v-1.404h1.12V8.94h1.4v1.123h1.121zm-1.4.281V9.22h-.84v1.123h-1.122v.842h1.121v1.123h.84v-1.123h1.121v-.842h-1.12zM6.651 12.115a.775.775 0 1 0-1.55-.002.775.775 0 0 0 1.55.002zm.387 0a1.162 1.162 0 1 1-2.322 0 1.162 1.162 0 1 1 2.322 0zm1.355-2.812a.775.775 0 1 0 .001 1.55.775.775 0 0 0-.001-1.55zm0-.388c.641 0 1.161.52 1.161 1.164a1.162 1.162 0 1 1-2.322 0c0-.643.52-1.164 1.161-1.164z" stroke-width=".2"/></g></g></svg>